<?xml version="1.0" encoding="utf-8"?>
<!-- Generator: Adobe Illustrator 11.0, SVG Export Plug-In . SVG Version: 6.0.0 Build 78)  -->
<!DOCTYPE svg PUBLIC "-//W3C//DTD SVG 1.0//EN"    "http://www.w3.org/TR/2001/REC-SVG-20010904/DTD/svg10.dtd" [
	<!ENTITY ns_flows "http://ns.adobe.com/Flows/1.0/">
	<!ENTITY ns_svg "http://www.w3.org/2000/svg">
	<!ENTITY ns_xlink "http://www.w3.org/1999/xlink">
]>
<svg  xmlns="&ns_svg;" xmlns:xlink="&ns_xlink;" xmlns:a="http://ns.adobe.com/AdobeSVGViewerExtensions/3.0/"
	 width="352" height="352" viewBox="0 0 352 352" overflow="visible" enable-background="new 0 0 352 352" xml:space="preserve">
	<metadata>
		<x:xmpmeta  x:xmptk="XMP toolkit 3.0-29, framework 1.6" xmlns:x="adobe:ns:meta/">
			<rdf:RDF  xmlns:iX="http://ns.adobe.com/iX/1.0/" xmlns:rdf="http://www.w3.org/1999/02/22-rdf-syntax-ns#">
				<rdf:Description  rdf:about="" xmlns:pdf="http://ns.adobe.com/pdf/1.3/"></rdf:Description>
				<rdf:Description  rdf:about="" xmlns:tiff="http://ns.adobe.com/tiff/1.0/"></rdf:Description>
				<rdf:Description  rdf:about="" xmlns:xapGImg="http://ns.adobe.com/xap/1.0/g/img/" xmlns:xap="http://ns.adobe.com/xap/1.0/">
					<xap:CreateDate>2005-04-04T07:58:17Z</xap:CreateDate>
					<xap:ModifyDate>2005-04-04T09:29:42Z</xap:ModifyDate>
					<xap:CreatorTool>Illustrator</xap:CreatorTool>
					<xap:Thumbnails>
						<rdf:Alt>
							<rdf:li  rdf:parseType="Resource">
								<xapGImg:format>JPEG</xapGImg:format>
								<xapGImg:width>256</xapGImg:width>
								<xapGImg:height>256</xapGImg:height>
								<xapGImg:image>/9j/4AAQSkZJRgABAgEASABIAAD/7QAsUGhvdG9zaG9wIDMuMAA4QklNA+0AAAAAABAASAAAAAEA
AQBIAAAAAQAB/+4ADkFkb2JlAGTAAAAAAf/bAIQABgQEBAUEBgUFBgkGBQYJCwgGBggLDAoKCwoK
DBAMDAwMDAwQDA4PEA8ODBMTFBQTExwbGxscHx8fHx8fHx8fHwEHBwcNDA0YEBAYGhURFRofHx8f
Hx8fHx8fHx8fHx8fHx8fHx8fHx8fHx8fHx8fHx8fHx8fHx8fHx8fHx8fHx8f/8AAEQgBAAEAAwER
AAIRAQMRAf/EAaIAAAAHAQEBAQEAAAAAAAAAAAQFAwIGAQAHCAkKCwEAAgIDAQEBAQEAAAAAAAAA
AQACAwQFBgcICQoLEAACAQMDAgQCBgcDBAIGAnMBAgMRBAAFIRIxQVEGE2EicYEUMpGhBxWxQiPB
UtHhMxZi8CRygvElQzRTkqKyY3PCNUQnk6OzNhdUZHTD0uIIJoMJChgZhJRFRqS0VtNVKBry4/PE
1OT0ZXWFlaW1xdXl9WZ2hpamtsbW5vY3R1dnd4eXp7fH1+f3OEhYaHiImKi4yNjo+Ck5SVlpeYmZ
qbnJ2en5KjpKWmp6ipqqusra6voRAAICAQIDBQUEBQYECAMDbQEAAhEDBCESMUEFURNhIgZxgZEy
obHwFMHR4SNCFVJicvEzJDRDghaSUyWiY7LCB3PSNeJEgxdUkwgJChgZJjZFGidkdFU38qOzwygp
0+PzhJSktMTU5PRldYWVpbXF1eX1RlZmdoaWprbG1ub2R1dnd4eXp7fH1+f3OEhYaHiImKi4yNjo
+DlJWWl5iZmpucnZ6fkqOkpaanqKmqq6ytrq+v/aAAwDAQACEQMRAD8A9U4q7FXYq7FXYq7FXYq7
FXYq7FXYq7FXYq7FXYq7FXYq7FXYq7FXYq7FXYq7FXYq7FXYq7FXYq7FXYq7FXYq7FXYq7FXYq7F
XYq7FXYq7FXYq7FXYq7FXYq7FXYq7FXYq7FXYq7FXYq7FXYq7FXYq7FXYq7FXYq7FXYq7FXYq7FX
Yq7FXYq7FXYq7FXYq7FXYq7FXYq7FXYq7FXYq7FXYq7FXYq7FXYq7FXYq7FXYq7FXYq7FXYq7FXY
q7FXYq7FXYq7FXYq7FXYq7FXYq7FXYq5mVQWYgKNyTsMBIAsoJpZFNFKvKJ1dfFSCPwyMMkZi4kE
IjMSFg2vybJ2KuxV2KuxV2KuxV2KuxV2KuxV2KuxV2KuxV2KuxV2KuxV2KuxV2KuxV2KuxV2KuxV
2KuxVLr/AF20taop9aYfsKdh8zms1famPFsPVLucPPrYQ2G5Y3fapeXh/evSPtGuyj+v05zWq12T
MfUdu7o6fNqZ5OZ27kPFNNC/OJ2RvFSQfwzGx5JQNxJBaYzMTYNJra+ZbyOgnUTL4/Zb7xt+GbfB
21kjtMcQ+Rc7F2jMfVunFrrun3FBz9Jz+zJt+PTNzg7Uw5OvCfP8U7HFrcc+tHzTAEEVG4PQ5sQX
LdirsVdirsVdirsVdirsVdirsVdirsVdirsVdirsVdirsVdirsVdirsVdirsVdirDPPnmS90u7tb
eLe3njLSqDxYkNT7Wc/21qJxIiDQIdV2jllEgA7FI7PXNPuqASenIf2JNj9B6HOcdQj8CuxVRu7y
1s4GnupVhhXq7Gg+XzxtlGJkaDCNb873V1yg02ttbnY3B/vWH+SP2R+PyzP02gnk3l6Y/a7fS9m9
Zs+8qaje2+hWAjlbj6KHi3xDcVPXxOeg6TS4xhjEDo7+OGPCBTJLfzGNhcRU/wAtP6H+uGek7iwl
p+5NLe/tLj+6lDH+U7N9xzGnilHmGiUCOavlbF2KuxV2KuxV2KuxV2KuxV2KuxV2KuxV2KuxV2Ku
xV2KuxV2KuxV2KuxV5x+a6gXenN3McgP0Ff65zXbw9UPcXT9pjeLDLTTrq6P7taJ3kbZc5bUazHi
+o79zXouy82oPpHp7zy/HuTqK11WyUfVbj1VA3hkHw/RX+zMDF2zEmpCvtdxqPZnJGN45CR7jt8l
HVPOT6baFp7NluSeKAmkdfEnrT5Zt8ExmIGM8VulHZ+QZOCYMT5sJvtTvdTm+sXk3rH9hB/dp/qr
nQ6Xs+MN5eqX2O80+khjHmoZsXLeu6AvHQ7Adf8AR4j96A51GmH7uPuDfHkj8vZOxVVtPMV1HfW9
pHL6vqypGwf4goZgOvXMTNCFct3HyRizLNe4rsVdirsVdirsVdirsVdirsVdirsVdirsVdirsVdi
rsVdirsVdiqHvdQs7KPncSBK/ZXqx+QzB13aODSx4sshHy6n3BtxYJ5DUQwXzLd2utXcMrQkR2wY
Rhj15EElgPl0zzbtr2jlqpAYxwQHzP6vxu7PH2NiJEsnqI6dP2oIAAAAUA6AZzBNu3AAFBvFKncW
9vcRGKeNZYm6o4DD7jk8eWUJcUSYyHUMZREhRFsZ1HyFYyEy6dK1nKd+G7xn6DuPv+jOm0XtTmht
lHGO/kf1H8buFl7Pifp2YlqEd1pl0ba84Mw6SRMGB+jqPpztdDr8ephxwv4ivx8HW59PPERxdXr2
gujaLYBWBIt4gR/sBnbYB+7j7gyHJHPIkalnPFR1JywmlJSm81J5apFVI+57nKZTtrlO29AXlrVk
P+LVP3GuUZPpLVLk9OzCcd2KuxV2KuxV2KuxV2KuxV2KuxV2KuxV2KuxV2KuxV2KuxV2KuxV5n53
uLi18yylG+CRI34Hp9nj/wAa55j7U4R+cJPUD7q/Q9f2RCM9OL6Epdb6tA9BIPTbx6r9+ctPARyc
qemkOW6OVlYAqQQehG4yginGbxVTnuIYIzLM4RB1JyUIGRoc2UYkmgxrU/MU09YrWsUXd+jt/TNv
p9CI7y3LsMOlA3lzYdrcbyTxBf5SSSaACvUk7AZ2/YEDKMgO90fb5AnH3PT7CKS3s7eJjSSKNEYq
e6qAaZ6PjjUQO4OqC65mlkYB2LBegyrId2qfNRytimvlZeWv2g92O/sjHK8v0ljPk9IzDcd2KuxV
2KuxV2KuxV2KuxV2KuxV2KuxV2KuxV2KuxV2KuxV2KuxV5t+ZSKNbgYEVa3UMO9Q7dfvzz72thWo
ie+H6S9b2CT4JH9L9AYlnKu8VIbmeE1jcr4jsfoyMoA82ueOMuaMl18w2xd4aydFoaKT75CGj4pc
9nG/KWdix28vrm8k5zvWn2VGyr8hm2xYY4xUXOx4owGyHyxsWf4fbVrhDNKUsov7yNftO1dh8s6z
2e1Hh4p1zJeW7e03i5IWfSAy4TShuQY1PXN1HVZBLiEjbhcIcb394Q4+kfLMqPau9THxDjzhurJI
jiqsDmxxZ4ZB6TbURSe+Tk5a7Ef5Vc/8KR/HHN9LXPk9CzEaHYq7FXYq7FXYq7FXYq7FXYq7FXYq
7FXYq7FXYq7FXYq7FVG8vbSzt2uLqVYYU+1I5oMWzFilklwxFl575j/M6WTlb6Kvpp0N44+I/wCo
p6fM/cMXqND7PgerNuf5v6ywyKeaeSWWZ2klc8nkclmJ8STnEe2EN8cv6w+56CUBEAAUFUKWIAFS
egGcWBbWSi0sig5S9f5f65kRw1zaDlvkgdXH7jbswyzF9Tbi5pRmS5DsVTfRf7qT/WH6s6PsT6Je
90Pa/wBUfcmObt1ChN/eH6P1ZjT5tUubdvBPPMsUCl5WPwheuQllEBxE1TFnHlK2jstRjhdhPdyK
wkkH2YwFJ4r4mo3OY+g9pJ59VHAN4G9+uwJRm0xGMzOzNs6x1zsVdirsVdirsVdirsVdirsVdirs
VdirsVdirsVdirsVdiryH/nIe4vLSy0O9tpDG0c08bU6HmqNQjofsd8nAW917EQhOeWEhdxiflf6
3mOl+c7eWkd+vov09ValD8x1GE4+56/UdlSjvDcd3Vl+joLyYJDIhWQVV+QoR7eOcn7UaWWTFAgc
pfeHRao+GLI5MnisIbVKL8T/ALTnr9HhnJRwRgNubqJZjM+SHn75VNtgkuqj/Rz7EZTj+pzMST5l
OQ2ASQAKk7ADFBIAssw8v+WpWsHeWQRTu3JI/tUWn7dNwcu0fbsNNMwmDwnq8x2hq4ZZjgPEA3ea
beWh/fRkJ2kG6n6RnXabW4swuErcESBULbTrm+uWWIBUUAyStsqinc5Rq9VDCDKRazuU7iFtZxGC
zB+IUluDs7/0X2zg+0u155zQ2i5+DS1vLmmflVa6xGfBXP4UzM9ko3ro+UZfcjtE/uj8Gb56y867
FXYq7FXYq7FXYq7FXYq7FXYq7FXYq7FXYq7FXYq7FXYq8s/5yKtxJ5Ks5h9qHUI/+BaKUH8aZPHz
ez9h51rJDvxn74vnPLn1VGafq1/p8nO2lKjuh3U/MYJRB5tGfTQyipBmtj+bAtbIm/heVkoAi71r
tsxO305oNb2Bjy7w9Evs+X6nl9d2GIm4nmzazvl1DT4b5IZYI51DLHOhRxXxGcDq8XhzMCQSO42H
nY5IcZgJAyHcUDqn+8z/AEfrGYeP6w5+LmldpZ3F1KIoF5N3PYDxJzKJpdTqseGPFM0GVaZo1vZA
Of3lx3kPb/VymUreL7Q7Vyag0PTDu/WmSsykFSQR0IyEogii6oEjcK76+llbtJeMDABRiep9qd8o
x6KYn+4JjLu6OT+d4R69x9rd1MCfSiURQCjCNBxFWFammYOo1uXN9Zeg02KIjxdSh8xnKTryiAdW
J8ImI+8DOq9jhes/zD+h1/af918WaZ6o8+7FXYq7FXYq7FXYq7FXYq7FXYq7FXYq7FXYq7FXYq7F
XYqwD89Lf1fy4v3/AN8S28n3zKn/ABvk4c3pvZCddoQH84SH+xJ/Q+X8ufYnYqpXTlLd2Bow48T7
hgcBF7OF2hHix10e32mqXNuAlfUi6em3h7HtnkksYL86488olGFNO1JeCuYJGI5Rmm/f4f8AP6Mx
jiMTb0Wj7fyRFH1e/n+38bppa2lvaxCKFAqjr4k+JORJtwNRqZ5pcUzZVsDQg9T1S10+D1JjVj/d
xj7TH2y/Bp5ZTQasuUQFlg2p6rdahP6kxoo/u4x9lR/n3zoMGnjiFB1WXKZmy9Jm+3/sV/4iM85q
n0fT/wB2Pcsxbk+8mg/pKU9hCR97LnYexQ/wqR/2s/7qLre1D+7H9b9BZhnpzoXYq7FXYq7FXYq7
FXYq7FXYq7FXYq7FXYq7FXYq7FXYq7FWKfmrbfWPy81yOleNv6nb/dTrJ3/1clHm7v2cycOvxH+l
XzFPkvL3212KqF8P9Gf2p+sYuNrP7svYbc1gjNa1VTX6M8pyD1H3vzflFTPvVMg1o+z1i4gosn72
PwJ+IfI5XPEC3RzEc0TqPma1trUPEC871CRkUAI7sf6ZLT6KWQ7/AEssmpERtzYbd3dxdztPO5eR
u57DwHgM32PHGAqPJ1s5mRsqOTYPV7hSspU7EBQR7gDPM5Gzb6ZgFQC+ysri8uFggXk7d+wHiT4Z
laLQ5dTkGPGLkfs8z5MsuWOOPFJnGk6Rb6dBxT4pmH72XufYe2et9j9jYtFjqO8z9Uu/9jzmp1Ms
p35dyPzcOM7FXYq7FXYq7FXYq7FXYq7FXYq7FXYq7FXYq7FXYq7FXYqo3lna3tpNZ3cSzW1wjRzR
OKqyMKEHFsxZZY5CcTUomwXjHnX/AJx7VvUvPKk3E7sdMuG2+UUp/U//AAWWDJ3vf9le2xFQ1Q/z
x+kfq+TxnVNJ1PSrx7LUrWS0uo/tRSqVPzFeo8CNstBe+0+px5oCeOQlE9QgJ1BgkBFfhY/cK4sd
Z/dH4fe9Y01g2nWrDcGGMg/NRnlmpFZJf1j97856wVmmP6R+9E5S47sVS/Vf91f7L+GbPRfSfe0Z
kvzMaXYq9jTT7i+1J4YBvWrMeiinU55/2b2dl1eQY8Y6Cz0A7y+kHNHHjssy0zS7bT7cRRCrn+8l
PVj/AE9s9e7K7KxaLHwQ+rrLqf2dwdBqNRLLKyjM2bQ7FXYq7FXYq7FXYq7FXYq7FXYq7FXYq7FX
Yq7FXYq7FXYq7FXYq7FUr8weWNB8w2Zs9Ys47qLfgzCjoT3jcUZT8jhBpzNF2hn0s+PFIxP2H3jk
XiPnL/nHvWbZnl8sTC/tpfgFrOyxzR8/h+2aI6rWpOx9jlgyd73uk9ssWXGYagcE65jeJr7R9rl0
6bTANNnZWmsR9WlZK8S0XwMVrQ0queZ6wVmn/Wl975Tq8gnmnIdZE/a3mM47sVS7VftR/I/wzaaL
6D72jLzQGZbSnHlnyvqXmG/FrZrxRd57hq8I18T4k9h3y/T6eWWVBtxYTM0H0Jb2tvbhhCgQOeTU
7nN/o9Dh00eHFERD0E8kpcyq5lsHYq7FXYq7FXYq7FXYq7FXYq7FXYq7FXYq7FXYq7FXYq7FXYq7
FXYq7FXYq7FWPa/5I0fVuUoX6reNU+vEB8RPd16N+v3zVa3sjFn3+mfeP0tU8Il73nOu+UdZ0di0
0Xq23a5i+JP9l3X6c5TWdmZcG5Fx7x+NnDniMUlzXtaXar9qP5H+GbTRfQfe0ZeaY+UfJ2oeY7zh
F+6soiPrN0Rso/lX+Zj4ffm102lllO3LvThwHIfJ7no2i6fo1hHY2EfpwpuSd2Zj1Zz3Jzo8WKOO
PDF3GPGICgjssZuxV2KuxV2KuxV2KuxV2KuxV2KuxV2KuxV2KuxV2KuxV2KuxV2KuxV2KuxV2Kux
V2KuZQwKsAVIoQdwQcSLViWvfl3pd9ymsKWVyd+Kj90x91H2f9j92aPWdh48m8PRL7P2fBongB5b
MPtfyw1m91hbe/H1axg3muFIbmD0WL3NO427+GYeh7KyRJjPYXz/AFOJ+VlKW/J6rp2nWWnWcVnZ
RCG3hFERf1nxJ7nOlhAQFDk7CMREUERk2TsVdirsVdirsVdirsVdirsVdirsVdirsVdirsVdirsV
dirsVdirsVdirsVdirsVdirsVdirsVdirsVdirsVdirsVdirsVdirsVdirsVdirsVdirsVdirsVd
irsVdirsVdirsVdirsVdirsVdirsVdirsVdirsVdirsVdirsVdirsVdirsVdirsVdirsVdirsVdi
rsVdirsVdirsVdirsVdirsVdirsVdirsVdirsVdirsVdirsVdirsVdirsVdirsVdirsVdirsVdir
sVdirsVdirsVdirsVdirsVdirsVdirsVSVPO3k9/MZ8srrNm3mBRyOlieP6xsvMj068uXD4uPXjv
0xVOsVdirsVdirsVSrV9UeBvQgNJKVd/CvYe+XY8d7lhKSEg0m/uUE0kvHluORJYjJnJEbIESU10
2zltYmSR+dWqCK9Ke+UzlZZRFIvIMnYq7FXYq7FXYq7FXYq7FXYq7FXYq7FXYq7FXYqw/wDN7zlc
+TPy213zJaKrXljAq2vIVUTTyJBEzDuFeUMR3xV8t/k7+UN/+dg1bzR5y8yXsi21x9WQKwknaUqs
jGsvJY4wGAVVX5Upir6O/KD8ltM/LJtXTTdVutQtdU+rcYboJWE2/q1KlOIPP1t/hHTviqM8/fnZ
+XHkS5Wz8waoE1F1DjT7dHnnCnozqgIQHtzIr2xVvyB+dX5defLiS08van6moRKZHsJ43gn4A0LK
rgBwO/AmnfFUw1/8zfJ2gea9K8q6peNBrOtBTp8PpuUf1HMa1kA4LV1pucVSCT/nIf8AKb9PtoVv
rP1y9jSZ5XtYZZYVFtE80n70LwaiRn7BOKvK/KMn/OPHmP8APO18z6NrmpXHmPULl7m10t4ZI7Y3
XpMWcu0SsFoCwUv9r2+HFX0drOt6TothJqGq3KWlpHQNK9ep6KoFWYnwArirErH87Py8u7tbYX7w
FzxSWeJ0jJPi1Ph+bUxVnEk8McLTySKkKrzaQkBQoFa18MVY5L+Y/lWOUxi4dwDQyLGxX8QDiqfW
N/a31nHeWr+pbyjkj0K1ANDswB7YqxoSpLe+rN9hn5P32rWmZlUKDTe6bHzFDyoIW4+NQD92U+CW
fGmFpeQXUfOI9PtKeo+eVyiQyBtXyKXYq7FXYq7FXYq7FXYq7FXYq7FXYq7FXYq7FXYqkXnrylZe
b/KGq+Wr1jHBqcBi9UCpjcENHIB34SKrU9sVfFAh/Ob/AJx98zPMqGOxuXCNLQzaZfKlSoJ+GjAE
0+zIPlir6k/Kr8+fL/n7yvqGpRQNZ6vo8DT6npRbkQqqWDxPQc0bjTpUHY9iVXzJ+RnmbydqX5s6
n5t/My+tqvDNdQNfDnE15LIirRSGH7uMtwWm21OmKrvP/mLyVov5/wCkeZPy+uLf9FLNZ3U/1EcI
RI0hS5jVQBxEkf2gB+0cVZD/AM5rO8f5haBJGxR00tWR1NCCLmUggjFXuX5a/wDOPn5aeW9L0e//
AESt1r0dsrXOoTySuXlmh4zfui/pcCHZePGlPE74q8F0Czs7L/nMgWlnBHbWsOqXCxQQoscaL9Uf
ZVUAAfLFXpX58azJf+d7TRZpTFp9ikQfwDzkM8n0IVH0YqjfzXu/ywuvKUEfl6WyOo2UkSW4tl4y
ejuGVjQchvXfviqe+XLzUdW/JS04lpZLNzDPSpJhgkPH6ETj92Ko/wAg6v5WhtGsNSiiS7lkJE86
KyODSi8yDxpTvtir0eG3tre1ENtGsUCqeEcYAUA77Abd8QrGLKFZruKJvss3xfIbnM2RoNIG7INQ
srdrKQLGqlFLIQACCormNCRtsI2SnQZGW+4Do6kEfLfLso2YQ5sjzFbXYq7FXYq7FXYq7FXYq7FX
Yq7FXYq7FXYq7FXYqg9X1jSdG0+TUdWvIdP0+EoJru5kWKJPUcRpzdyFWrsBucVYt5z85/lTN5R1
A+YdX0y80KaBxPD68M3rLSvGJFYl5Kj4OO9emKvlz/nD7y/f6p5x8xuhePTjok9ldzKKjndyRiJd
+9I3Yf6uKpH+Q9t5K0X80b7y9+ZdhaCJoprEfpNUMMF7FKpHMyfCnIIyhj7eOKvqZvJ//OOdtd2k
R0/y1Hd3M0cNlEPqvqyTuwWNIlB5MxYigGKvA/8AnNr/AJT/AEL/ALZQ/wComXFX2BpP/HKsv+ME
X/EBir4/0z/1tJ/+2rcf9Qb4qz/899MksPP1vqs0Xq2d7FFIAfss0BCSR/8AAha/PFXqFhpX5N32
nxahBaaQLaVQ/JxChWvUOGI4kdwcVZJpD+VdP0mE6U9pbaTO7C3aBkWB3JPLgQeLE8T0xVhX5i6P
5ctreK9sGjivJZAGghYFWUgkvwB+Gm24xVlP5fS3MvlW0M5J4l0jJ6lFchfu6YqooPqepAOKLFJv
/q16/dmX9UWnkU91C8gWxkYSKxdSqUINSRTamY8Im2wnZKtAhZrwyU+GNTU+52Ay7MdmEBuyHMZt
dirsVdirsVdirsVdirsVdirsVdirsVdirsVdiqT+b/KeiebvLt55e1yJp9LvgguI0do2PpSLKhDo
QRR41OKvJ0/5w7/J9bgSn9JMla+gbpeFPCojD0/2WKvVvKPkvyv5Q0hdJ8uafHp9ip5skdSzvQAv
I7FndqDqxJxVjH5gfkR+Wvnu8/SGt6cyaoVCNqNpI0EzKBQc6VR6AUBdSR06Yqkflb/nFr8p/Lus
2esW8F7d32nzx3Vm1zcsVSaFg8b8YhFy4soNGqPGuKp9+Yn5H+Q/zA1S21PzFFcSXVpB9WhMExiX
0+bPuADU1c4qzyCFIII4Y/sRKEWu5oooMVYHD+R/kOH8wj5+SK4/xCZ3uTIZj6XqPGYz+7pSnFsV
Zdr/AJd0XX7A2Gr2qXdsTyCtUFWH7SMpDKfcHFWED8gPIHq86XhWtfS9Ycfl9nl+OKst/wAGeXxo
NtoSQMmm2h5W8YkclW+LfkSSftnriqAg/LTyxHIHZJpgP91vJ8P/AAoU/jirKIYYoYkiiQRxRgKi
KKAAbAADFUNe6bb3dC9VkGwdev05OMyEGNoNfLkXL4pmK+AUA/fU5Z43kx4Ezt7aG3iEcS8VHXxJ
8TlMpE82QFKmBLsVdirsVdirsVdirsVdirsVdirsVdirsVdirsVUrq6t7WBp7hxHElOTn3NB+OU6
jUQwwM5mohnjxynLhiLLH5/OaCcCG35wDqzGjH5daZxOf22iMlY8d4/M0T7u78cnaQ7KPDud010v
XdP1JpI7dz60QDSxMN1DVpWm29M6jsvtfFrY8ULBHMEfgFwtRpJ4qMuR6phm0cVid954vYdQ1a2t
dHe8h0bg15MkyKQjoX5BGFTQKdhirI9M1G31LTre/tiTBcxrJHXYgMK0PuOhxVL4tbuH83T6KY0+
rxWS3Qk35lmk4U60pTFU3lmihiaWZ1jiQFnkchVUDqSTsMVQ1jrGk37Mthe292yCriCVJCoPSvAm
mKq15eW1nay3V1IsNvCpeWRjQADFUBoHmTSddtBcWEysdy8BZTKg5FVLoCSvLjUVxVvzBraaVaLJ
8DTysEhjduINTux78V74qi7CW4ltEknaJ3fcPbktGVPQqT7YqqS3VtEwWWZI2PRWYKT9+KqmKrWk
jX7TBe+5AxVdirsVdirsVdirsVdirsVdirsVdirsVdirsVdirsVSfzfA0/ly+jUFmKKwA3JKurdv
lmp7cx8ejyDy+4guf2ZPh1ET+OTym9l1Cxsm/elWNBx68QffPMo6UcQ4hu9lEQyS5Mk/KBZDPqkr
BipWIczWharGlfHO29mY7z7tv0um9oiKgPf+h6VnWvLvN4rDXdQ81ecLLTJ7e3iuTbRXk0yu7hHh
df3QUgVoT1xVnukaZDpel2unwEtFaxrGrN1PEbk08euKpBb/APkzbv8A7ZUf/J/FU28z6nBpegXt
/Pbi6ihj+K3IqH5EKFbZtqtvt0xVh2kNcn8wNNe4Syhnm06R3isAwUIx5KJCdmOKs51iJZdJvEZA
4aCT4SK1PE02+eKpF+WcVuvk3TpI0QSuj+o6gcmpK4+Ijc0xVE+dERrC0LKCRdxAEjsa1GKp+qqq
hVAVRsANgBiqSKlq8+rfWgpkHQvSoTj8NK/RiqYaMZDpdsXry4d/Dt+GKrpY0e+QOAwEZND064qi
sVdirsVdirsVdirsVdirsVdirsVdirsVdirsVdiriARQ7g9RirHdY8jaLqbKzB4ByDSLEQFYA1Io
a8fozSansDT5ZiQuPfXI/q+DtNN2tlxCufvTuxsbOxtktbOJYYIxRI1FB/afc5t8WGOOIjAVEOvy
5ZZJcUjZKvljWhrfTbG2urm7ghWO5vCpuZR1coCFr8gcVROKoddPslvmvxCovHjELT/tGMHkF+Vc
VVZ4ILiF4J41lhkBWSNwGVlPUEHYjFUv0/yzoGnSrNY2ENvKvLjJGoDfGAG369sVTPFUBpug6Npb
yvp9nFatPT1TEvHlStP14qirq0trpFS4jEiKwdQ3Zl6HFVXFVCewsp3Ek0KO425Eb4qrgACg2A6D
FWuC8+dPiApX2xVvFXYq7FXYq7FXYq7FXYq7FXYq7FXYq7FXYq7FXYq7FXYq7FXYq7FXYq7FXYq7
FXYq7FXYq7FXYq7FXYq7FXYq7FXYq7FXYq7FXYq7FXYq7FXYq7FXYq7FXYq7FXYq7FXYq7FXYq7F
XYq7FXYq7FXYq7FXYq7FXYq7FXYq7FXYq7FXYq7FXYq7FXYq/wD/2Q==
									</xapGImg:image>
							</rdf:li>
						</rdf:Alt>
					</xap:Thumbnails>
				</rdf:Description>
				<rdf:Description  rdf:about="" xmlns:dc="http://purl.org/dc/elements/1.1/">
					<dc:format>image/svg+xml</dc:format>
				</rdf:Description>
			</rdf:RDF>
		</x:xmpmeta>
<?xpacket begin='﻿' id='W5M0MpCehiHzreSzNTczkc9d'?><x:xmpmeta xmlns:x='adobe:ns:meta/' x:xmptk='XMP toolkit 3.0-29, framework 1.6'>
<rdf:RDF xmlns:rdf='http://www.w3.org/1999/02/22-rdf-syntax-ns#' xmlns:iX='http://ns.adobe.com/iX/1.0/'>

 <rdf:Description rdf:about=''
  xmlns:pdf='http://ns.adobe.com/pdf/1.3/'>
 </rdf:Description>

 <rdf:Description rdf:about=''
  xmlns:tiff='http://ns.adobe.com/tiff/1.0/'>
 </rdf:Description>

 <rdf:Description rdf:about=''
  xmlns:xap='http://ns.adobe.com/xap/1.0/'
  xmlns:xapGImg='http://ns.adobe.com/xap/1.0/g/img/'>
  <xap:CreateDate>2005-04-04T07:58:17Z</xap:CreateDate>
  <xap:ModifyDate>2005-04-20T12:01:43Z</xap:ModifyDate>
  <xap:CreatorTool>Illustrator</xap:CreatorTool>
  <xap:Thumbnails>
   <rdf:Alt>
    <rdf:li rdf:parseType='Resource'>
     <xapGImg:format>JPEG</xapGImg:format>
     <xapGImg:width>256</xapGImg:width>
     <xapGImg:height>256</xapGImg:height>
     <xapGImg:image>/9j/4AAQSkZJRgABAgEASABIAAD/7QAsUGhvdG9zaG9wIDMuMAA4QklNA+0AAAAAABAASAAAAAEA&#xA;AQBIAAAAAQAB/+4ADkFkb2JlAGTAAAAAAf/bAIQABgQEBAUEBgUFBgkGBQYJCwgGBggLDAoKCwoK&#xA;DBAMDAwMDAwQDA4PEA8ODBMTFBQTExwbGxscHx8fHx8fHx8fHwEHBwcNDA0YEBAYGhURFRofHx8f&#xA;Hx8fHx8fHx8fHx8fHx8fHx8fHx8fHx8fHx8fHx8fHx8fHx8fHx8fHx8fHx8f/8AAEQgBAAEAAwER&#xA;AAIRAQMRAf/EAaIAAAAHAQEBAQEAAAAAAAAAAAQFAwIGAQAHCAkKCwEAAgIDAQEBAQEAAAAAAAAA&#xA;AQACAwQFBgcICQoLEAACAQMDAgQCBgcDBAIGAnMBAgMRBAAFIRIxQVEGE2EicYEUMpGhBxWxQiPB&#xA;UtHhMxZi8CRygvElQzRTkqKyY3PCNUQnk6OzNhdUZHTD0uIIJoMJChgZhJRFRqS0VtNVKBry4/PE&#xA;1OT0ZXWFlaW1xdXl9WZ2hpamtsbW5vY3R1dnd4eXp7fH1+f3OEhYaHiImKi4yNjo+Ck5SVlpeYmZ&#xA;qbnJ2en5KjpKWmp6ipqqusra6voRAAICAQIDBQUEBQYECAMDbQEAAhEDBCESMUEFURNhIgZxgZEy&#xA;obHwFMHR4SNCFVJicvEzJDRDghaSUyWiY7LCB3PSNeJEgxdUkwgJChgZJjZFGidkdFU38qOzwygp&#xA;0+PzhJSktMTU5PRldYWVpbXF1eX1RlZmdoaWprbG1ub2R1dnd4eXp7fH1+f3OEhYaHiImKi4yNjo&#xA;+DlJWWl5iZmpucnZ6fkqOkpaanqKmqq6ytrq+v/aAAwDAQACEQMRAD8A9U4q7FXYq7FXYq7FXYq7&#xA;FXYq7FXYq7FXYq7FXYq7FXYq7FXYq7FXYq7FXYq7FXYq7FXYq7FXYq7FXYq7FXYq7FXYq7FXYq7F&#xA;XYq7FXYq7FXYq7FXYq7FXYq7FXYq7FXYq7FXYq7FXYq7FXYq7FXYq7FXYq7FXYq7FXYq7FXYq7FX&#xA;Yq7FXYq7FXYq7FXYq7FXYq7FXYq7FXYq7FXYq7FXYq7FXYq7FXYq7FXYq7FXYq7FXYq7FXYq7FXY&#xA;q7FXYq7FXYq7FXYq7FXYq7FXYq7FXYq5mVQWYgKNyTsMBIAsoJpZFNFKvKJ1dfFSCPwyMMkZi4kE&#xA;IjMSFg2vybJ2KuxV2KuxV2KuxV2KuxV2KuxV2KuxV2KuxV2KuxV2KuxV2KuxV2KuxV2KuxV2KuxV&#xA;2KuxVLr/AF20taop9aYfsKdh8zms1famPFsPVLucPPrYQ2G5Y3fapeXh/evSPtGuyj+v05zWq12T&#xA;MfUdu7o6fNqZ5OZ27kPFNNC/OJ2RvFSQfwzGx5JQNxJBaYzMTYNJra+ZbyOgnUTL4/Zb7xt+GbfB&#xA;21kjtMcQ+Rc7F2jMfVunFrrun3FBz9Jz+zJt+PTNzg7Uw5OvCfP8U7HFrcc+tHzTAEEVG4PQ5sQX&#xA;LdirsVdirsVdirsVdirsVdirsVdirsVdirsVdirsVdirsVdirsVdirsVdirsVdirDPPnmS90u7tb&#xA;eLe3njLSqDxYkNT7Wc/21qJxIiDQIdV2jllEgA7FI7PXNPuqASenIf2JNj9B6HOcdQj8CuxVRu7y&#xA;1s4GnupVhhXq7Gg+XzxtlGJkaDCNb873V1yg02ttbnY3B/vWH+SP2R+PyzP02gnk3l6Y/a7fS9m9&#xA;Zs+8qaje2+hWAjlbj6KHi3xDcVPXxOeg6TS4xhjEDo7+OGPCBTJLfzGNhcRU/wAtP6H+uGek7iwl&#xA;p+5NLe/tLj+6lDH+U7N9xzGnilHmGiUCOavlbF2KuxV2KuxV2KuxV2KuxV2KuxV2KuxV2KuxV2Ku&#xA;xV2KuxV2KuxV2KuxV5x+a6gXenN3McgP0Ff65zXbw9UPcXT9pjeLDLTTrq6P7taJ3kbZc5bUazHi&#xA;+o79zXouy82oPpHp7zy/HuTqK11WyUfVbj1VA3hkHw/RX+zMDF2zEmpCvtdxqPZnJGN45CR7jt8l&#xA;HVPOT6baFp7NluSeKAmkdfEnrT5Zt8ExmIGM8VulHZ+QZOCYMT5sJvtTvdTm+sXk3rH9hB/dp/qr&#xA;nQ6Xs+MN5eqX2O80+khjHmoZsXLeu6AvHQ7Adf8AR4j96A51GmH7uPuDfHkj8vZOxVVtPMV1HfW9&#xA;pHL6vqypGwf4goZgOvXMTNCFct3HyRizLNe4rsVdirsVdirsVdirsVdirsVdirsVdirsVdirsVdi&#xA;rsVdirsVdiqHvdQs7KPncSBK/ZXqx+QzB13aODSx4sshHy6n3BtxYJ5DUQwXzLd2utXcMrQkR2wY&#xA;Rhj15EElgPl0zzbtr2jlqpAYxwQHzP6vxu7PH2NiJEsnqI6dP2oIAAAAUA6AZzBNu3AAFBvFKncW&#xA;9vcRGKeNZYm6o4DD7jk8eWUJcUSYyHUMZREhRFsZ1HyFYyEy6dK1nKd+G7xn6DuPv+jOm0XtTmht&#xA;lHGO/kf1H8buFl7Pifp2YlqEd1pl0ba84Mw6SRMGB+jqPpztdDr8ephxwv4ivx8HW59PPERxdXr2&#xA;gujaLYBWBIt4gR/sBnbYB+7j7gyHJHPIkalnPFR1JywmlJSm81J5apFVI+57nKZTtrlO29AXlrVk&#xA;P+LVP3GuUZPpLVLk9OzCcd2KuxV2KuxV2KuxV2KuxV2KuxV2KuxV2KuxV2KuxV2KuxV2KuxV5n53&#xA;uLi18yylG+CRI34Hp9nj/wAa55j7U4R+cJPUD7q/Q9f2RCM9OL6Epdb6tA9BIPTbx6r9+ctPARyc&#xA;qemkOW6OVlYAqQQehG4yginGbxVTnuIYIzLM4RB1JyUIGRoc2UYkmgxrU/MU09YrWsUXd+jt/TNv&#xA;p9CI7y3LsMOlA3lzYdrcbyTxBf5SSSaACvUk7AZ2/YEDKMgO90fb5AnH3PT7CKS3s7eJjSSKNEYq&#xA;e6qAaZ6PjjUQO4OqC65mlkYB2LBegyrId2qfNRytimvlZeWv2g92O/sjHK8v0ljPk9IzDcd2KuxV&#xA;2KuxV2KuxV2KuxV2KuxV2KuxV2KuxV2KuxV2KuxV2KuxV5t+ZSKNbgYEVa3UMO9Q7dfvzz72thWo&#xA;ie+H6S9b2CT4JH9L9AYlnKu8VIbmeE1jcr4jsfoyMoA82ueOMuaMl18w2xd4aydFoaKT75CGj4pc&#xA;9nG/KWdix28vrm8k5zvWn2VGyr8hm2xYY4xUXOx4owGyHyxsWf4fbVrhDNKUsov7yNftO1dh8s6z&#xA;2e1Hh4p1zJeW7e03i5IWfSAy4TShuQY1PXN1HVZBLiEjbhcIcb394Q4+kfLMqPau9THxDjzhurJI&#xA;jiqsDmxxZ4ZB6TbURSe+Tk5a7Ef5Vc/8KR/HHN9LXPk9CzEaHYq7FXYq7FXYq7FXYq7FXYq7FXYq&#xA;7FXYq7FXYq7FXYq7FVG8vbSzt2uLqVYYU+1I5oMWzFilklwxFl575j/M6WTlb6Kvpp0N44+I/wCo&#xA;p6fM/cMXqND7PgerNuf5v6ywyKeaeSWWZ2klc8nkclmJ8STnEe2EN8cv6w+56CUBEAAUFUKWIAFS&#xA;egGcWBbWSi0sig5S9f5f65kRw1zaDlvkgdXH7jbswyzF9Tbi5pRmS5DsVTfRf7qT/WH6s6PsT6Je&#xA;90Pa/wBUfcmObt1ChN/eH6P1ZjT5tUubdvBPPMsUCl5WPwheuQllEBxE1TFnHlK2jstRjhdhPdyK&#xA;wkkH2YwFJoviajc5j6D2knn1UcA3gb367AlGXTEYzM7M2zrHXOxV2KuxV2KuxV2KuxV2KuxV2Kux&#xA;V2KuxV2KuxV2KuxV2KvIf+ch7i8tLLQ722kMbRzTxtToeao1COh+x3ycBb3XsRCE55YSF3GJ+V/r&#xA;eY6X5zt5aR36+i/T1VqUPzHUYTj7nr9R2VKO8Nx3dWX6OgvJgkMiFZBVX5ChHt45yftRpZZMUCBy&#xA;l94dFqj4YsjkyeKwhtUovxP+056/R4ZyUcEYDbm6iWYzPkh5++VTbYJLqo/0c+xGU4/qczEk+ZTk&#xA;NgEkACpOwAxQSALLMPL/AJalawd5ZBFO7ckj+1Raft03By7R9uw00zCYPCerzHaGrhlmOA8QDd5p&#xA;t5aH99GQnaQbqfpGddptbizC4StwRIFQttOub65ZYgFRQDJK2yqKdzlGr1UMIMpFrO5TuIW1nEYL&#xA;MH4hSW4Ozv8A0X2zg+0u155zQ2i5+DS1vLmmflVa6xGfBXP4UzM9ko3ro+UZfcjtE/uj8Gb56y86&#xA;7FXYq7FXYq7FXYq7FXYq7FXYq7FXYq7FXYq7FXYq7FXYq8s/5yKtxJ5Ks5h9qHUI/wDgWilB/GmT&#xA;x83s/YedayQ78Z++L5zy59VRmn6tf6fJztpSo7od1PzGCUQebRn00MoqQZrY/mwLWyJv4XlZKAIu&#xA;9a7bMTt9OaDW9gY8u8PRL7Pl+p5fXdhiJuJ5s2s75dQ0+G+SGWCOdQyxzoUcV8RnA6vF4czAkEju&#xA;Nh52OSHGYCQMh3FA6p/vM/0frGYeP6w5+LmldpZ3F1KIoF5N3PYDxJzKJpdTqseGPFM0GVaZo1vZ&#xA;AOf3lx3kPb/VymUreL7Q7Vyag0PTDu/WmSsykFSQR0IyEogii6oEjcK76+llbtJeMDABRiep9qd8&#xA;ox6KYn+4JjLu6OT+d4R69x9rd1MCfSiURQCjCNBxFWFammYOo1uXN9Zeg02KIjxdSh8xnKTryiAd&#xA;WJ8ImI+8DOq9jhes/wAw/odf2n/dfFmmeqPPuxV2KuxV2KuxV2KuxV2KuxV2KuxV2KuxV2KuxV2K&#xA;uxV2KsA/PS39X8uL9/8AfEtvJ98yp/xvk4c3pvZCddoQH84SH+xJ/Q+X8ufYnYqpXTlLd2Bow48T&#xA;7hgcBF7OF2hHix10e32mqXNuAlfUi6em3h7HtnkksYL86488olGFNO1JeCuYJGI5Rmm/f4f8/ozG&#xA;OIxNvRaPt/JEUfV7+f7fxumlraW9rEIoUCqOviT4k5Em3A1GpnmlxTNlWwNCD1PVLXT4PUmNWP8A&#xA;dxj7TH2y/Bp5ZTQasuUQFlg2p6rdahP6kxoo/u4x9lR/n3zoMGnjiFB1WXKZmy9Jm+3/ALFf+IjP&#xA;Oap9H0/92Pcsxbk+8mg/pKU9hCR97LnYexQ/wqR/2s/7qLre1D+7H9b9BZhnpzoXYq7FXYq7FXYq&#xA;7FXYq7FXYq7FXYq7FXYq7FXYq7FXYq7FWKfmrbfWPy81yOleNv6nb/dTrJ3/ANXJR5u79nMnDr8R&#xA;/pV8xT5Ly99tdiqhfD/Rn9qfrGLjaz+7L2G3NYIzWtVU1+jPKcg9R97835RUz71TINaPs9YuIKLJ&#xA;+9j8CfiHyOVzxAt0cxHNE6j5mtba1DxAvO9QkZFACO7H+mS0+ilkO/0ssmpERtzYbd3dxdztPO5e&#xA;Ru57DwHgM32PHGAqPJ1s5mRsqOTYPV7hSspU7EBQR7gDPM5Gzb6ZgFQC+ysri8uFggXk7d+wHiT4&#xA;ZlaLQ5dTkGPGLkfs8z5MsuWOOPFJnGk6Rb6dBxT4pmH72XufYe2et9j9jYtFjqO8z9Uu/wDY85qd&#xA;TLKd+Xcj83DjOxV2KuxV2KuxV2KuxV2KuxV2KuxV2KuxV2KuxV2KuxV2KqN5Z2t7aTWd3Es1tcI0&#xA;c0TiqsjChBxbMWWWOQnE1KJsF4x51/5x7VvUvPKk3E7sdMuG2+UUp/U//BZYMne9/wBle2xFQ1Q/&#xA;zx+kfq+TxnVNJ1PSrx7LUrWS0uo/tRSqVPzFeo8CNstBe+0+px5oCeOQlE9QgJ1BgkBFfhY/cK4s&#xA;dZ/dH4fe9Y01g2nWrDcGGMg/NRnlmpFZJf1j97856wVmmP6R+9E5S47sVS/Vf91f7L+GbPRfSfe0&#xA;ZkvzMaXYq9jTT7i+1J4YBvWrMeiinU55/wBm9nZdXkGPGOgs9AO8vpBzRx47LMtM0u20+3EUQq5/&#xA;vJT1Y/09s9e7K7KxaLHwQ+rrLqf2dwdBqNRLLKyjM2bQ7FXYq7FXYq7FXYq7FXYq7FXYq7FXYq7F&#xA;XYq7FXYq7FXYq7FXYq7FUr8weWNB8w2Zs9Ys47qLfgzCjoT3jcUZT8jhBpzNF2hn0s+PFIxP2H3j&#xA;kXiPnL/nHvWbZnl8sTC/tpfgFrOyxzR8/h+2aI6rWpOx9jlgyd73uk9ssWXGYagcE65jeJr7R9rl&#xA;06bTANNnZWmsR9WlZK8S0XwMVrQ0queZ6wVmn/Wl975Tq8gnmnIdZE/a3mM47sVS7VftR/I/wzaa&#xA;L6D72jLzQGZbSnHlnyvqXmG/FrZrxRd57hq8I18T4k9h3y/T6eWWVBtxYTM0H0Jb2tvbhhCgQOeT&#xA;U7nN/o9Dh00eHFERD0E8kpcyq5lsHYq7FXYq7FXYq7FXYq7FXYq7FXYq7FXYq7FXYq7FXYq7FXYq&#xA;7FXYq7FXYq7FWPa/5I0fVuUoX6reNU+vEB8RPd16N+v3zVa3sjFn3+mfeP0tU8Il73nOu+UdZ0di&#xA;00Xq23a5i+JP9l3X6c5TWdmZcG5Fx7x+NnDniMUlzXtaXar9qP5H+GbTRfQfe0ZeaY+UfJ2oeY7z&#xA;hF+6soiPrN0Rso/lX+Zj4ffm102lllO3LvThwHIfJ7no2i6fo1hHY2EfpwpuSd2Zj1Zz3Jzo8WKO&#xA;OPDF3GPGICgjssZuxV2KuxV2KuxV2KuxV2KuxV2KuxV2KuxV2KuxV2KuxV2KuxV2KuxV2KuxV2Ku&#xA;xV2KuZQwKsAVIoQdwQcSLViWvfl3pd9ymsKWVyd+Kj90x91H2f8AY/dmj1nYePJvD0S+z9nwaJ4A&#xA;eWzD7X8sNZvdYW3vx9WsYN5rhSG5g9Fi9zTuNu/hmHoeyskSYz2F8/1OJ+VlKW/J6rp2nWWnWcVn&#xA;ZRCG3hFERf1nxJ7nOlhAQFDk7CMREUERk2TsVdirsVdirsVdirsVdirsVdirsVdirsVdirsVdirs&#xA;VdirsVdirsVdirsVdirsVdirsVdirsVdirsVdirsVdirsVdirsVdirsVdirsVdirsVdirsVdirsV&#xA;dirsVdirsVdirsVdirsVdirsVdirsVdirsVdirsVdirsVdirsVdirsVdirsVdirsVdirsVdirsVd&#xA;irsVdirsVdirsVdirsVdirsVdirsVdirsVdirsVdirsVdirsVdirsVdirsVdirsVdirsVdirsVdi&#xA;rsVdirsVdirsVdirsVdirsVdirsVdirsVSVPO3k9/MZ8srrNm3mBRyOlieP6xsvMj068uXD4uPXj&#xA;v0xVOsVdirsVdirsVSrV9UeBvQgNJKVd/CvYe+XY8d7lhKSEg0m/uUE0kvHluORJYjJnJEbIESU1&#xA;02zltYmSR+dWqCK9Ke+UzlZZRFIvIMnYq7FXYq7FXYq7FXYq7FXYq7FXYq7FXYq7FXYqw/8AN7zl&#xA;c+TPy213zJaKrXljAq2vIVUTTyJBEzDuFeUMR3xV8t/k7+UN/wDnYNW80ecvMl7IttcfVkCsJJ2l&#xA;KrIxrLyWOMBgFVV+VKYq+jvyg/JbTPyybV003VbrULXVPq3GG6CVhNv6tSpTiDz9bf4R074qjPP3&#xA;52flx5EuVs/MGqBNRdQ40+3R55wp6M6oCEB7cyK9sVb8gfnV+XXny4ktPL2p+pqESmR7CeN4J+AN&#xA;Cyq4AcDvwJp3xVMNf/M3ydoHmvSvKuqXjQazrQU6fD6blH9RzGtZAOC1dabnFUgk/wCch/ym/T7a&#xA;Fb6z9cvY0meV7WGWWFRbRPNJ+9C8GokZ+wTiryvyjJ/zjx5j/PO18z6NrmpXHmPULl7m10t4ZI7Y&#xA;3XpMWcu0SsFoCwUv9r2+HFX0drOt6TothJqGq3KWlpHQNK9ep6KoFWYnwArirErH87fy8vLtbYX7&#xA;wFzxSWeJ0jJrQVah4/NqYqziSeGOFp5JFSFV5tISAoUCta+GKscl/MfyrHKYxcO4BoZFjYr+IBxV&#xA;PrG/tb6zjvLV/Ut5RyR6FagGh2YA9sVY0JUlvfVm+wz8n77VrTMyqFBpvdNj5ih5UELcfGoB+7Kf&#xA;BLPjTC0vILqPnEen2lPUfPK5RIZA2r5FLsVdirsVdirsVdirsVdirsVdirsVdirsVdirsVSLz15S&#xA;svN/lDVfLV6xjg1OAxeqBUxuCGjkA78JFVqe2KvigQ/nN/zj75meZUMdjcuEaWhm0y+VKlQT8NGA&#xA;Jp9mQfLFX1J+VX58+X/P3lfUNSigaz1fR4Gn1PSi3IhVUsHieg5o3GnSoOx7EqvmT8jPM3k7UvzZ&#xA;1Pzb+Zl9bVeGa6ga+HOJryWRFWikMP3cZbgtNtqdMVXefvMXkrRf+cgNH8x/l9cW40pZrO5nNiCk&#xA;AkaQpcxhVAoJI/tAD9o4qyH/AJzWd4/zC0CSNijppasjqaEEXMpBBGKvcvy1/wCcfPy08t6Xo9/+&#xA;iVutejtla51CeSVy8s0PGb90X9LgQ7Lx40p4nfFXgugWdnZf85kC0s4I7a1h1S4WKCFFjjRfqj7K&#xA;qgAD5Yq9K/PjWZL/AM72mizSmLT7FIg/gHnIZ5PoQqPoxVG/mvd/lhdeUoI/L0tkdRspIktxbLxk&#xA;9HcMrGg5Deu/fFU98uXmo6t+SlpxLSyWbmGelSTDBIeP0InH7sVR/kHV/K0No1hqUUSXcshInnRW&#xA;RwaUXmQeNKd9sVejw29tb2ohto1igVTwjjACgHfYDbviFYxZQrNdxRN9lm+L5Dc5myNBpA3ZBqFl&#xA;btZSBY1UopZCAAQVFcxoSNthGyU6DIy33AdHUgj5b5dlGzCHNkeYra7FXYq7FXYq7FXYq7FXYq7F&#xA;XYq7FXYq7FXYq7FUHq+saTo2nyajq15Dp+nwlBNd3MixRJ6jiNObuQq1dgNzirFvOnnP8qZfKWof&#xA;4i1bTLzQpoHFxB68M3qgAnjEisS0lR8HHfl0xV8uf84feX7/AFTzj5jdC8enHRJ7K7mUVHO7kjES&#xA;796Ruw/1cVSP8h7byVov5o33l78y7C0ETRTWI/SaoYYL2KVSOZk+FOQRlDH28cVfUzeT/wDnHO2u&#xA;7SI6f5aju7maOGyiH1X1ZJ3YLGkSg8mYsRQDFXgf/ObX/Kf6F/2yh/1Ey4q+wNJ/45Vl/wAYIv8A&#xA;iAxV8f6Z/wCtpP8A9tW4/wCoN8VZ/wDnvpklh5+t9Vmi9WzvYopAD9lmgISSP/gQtfnir1Cw0r8m&#xA;77T4tQgtNIFtKofk4hQrXqHDEcSO4OKsk0h/KthpELaU9pbaTO7C3aFkWB3JNeBB4kniemKsK/MX&#xA;R/LltbxXtg0cV5LIA0ELAqykEl+APw023GKsp/L6W5l8q2hnJPEukZPUorkL93TFVFB9T1IBxRYp&#xA;N/8AVr1+7Mv6otPIp7qF5AtjIwkVi6lUoQakim1Mx4RNthOyVaBCzXhkp8Mamp9zsBl2Y7MIDdkO&#xA;Yza7FXYq7FXYq7FXYq7FXYq7FXYq7FXYq7FXYq7FUn83+U9E83eXbzy9rkTT6XfBBcRo7RsfSkWV&#xA;CHQgijxqcVeTp/zh3+T63AlP6SZK19A3S8KeFRGHp/ssVereUfJflfyhpC6T5c0+PT7FTzZI6lne&#xA;gBeR2LO7UHViTirGPzA/Ij8tfPd5+kNb05k1QqEbUbSRoJmUCg50qj0AoC6kjp0xVI/K3/OLX5T+&#xA;XdZs9Yt4L27vtPnjurNrm5Yqk0LB434xCLlxZQaNUeNcVT78xPyP8h/mBqltqfmKK4kurSD6tCYJ&#xA;jEvp82fcAGpq5xVnkEKQQRwx/YiUItdzRRQYqwOH8j/IcP5hHz8kVx/iEzvcmQzH0vUeMxn93SlO&#xA;LYqy7X/Lui6/YGw1e1S7tieQVqgqw/aRlIZT7g4qwgfkB5A9XnS8K1r6XrDj8vs8vxxVlv8Agzy+&#xA;NBttCSBk020PK3jEjkq3xb8iST9s9cVQEH5aeWI5A7JNMB/ut5Ph/wCFCn8cVZRDDFDEkUSCOKMB&#xA;URRQADYAAYqhr3Tbe7oXqsg2Dr1+nJxmQgxtBr5ci5fFMxXwCgH76nLPG8mPAmdvbQ28QjiXio6+&#xA;JPicplInmyApUwJdirsVdirsVdirsVdirsVdirsVdirsVdirsVdiqldXVvawNPcOI4kpyc+5oPxy&#xA;nUaiGGBnM1EM8eOU5cMRZY/P5zQTgQ2/OAdWY0Y/LrTOJz+20RkrHjvH5mifd3fjk7SHZR4dzumu&#xA;l67p+pNJHbufWiAaWJhuoatK023pnUdl9r4tbHihYI5gj8AuFqNJPFRlyPVMM2jisTvvPF7DqGrW&#xA;1ro73kOjcGvJkmRSEdC/IIwqaBTsMVZHpmo2+padb39sSYLmNZI67EBhWh9x0OKpfFrdw/m6fRTG&#xA;n1eKyW6Em/Ms0nCnWlKYqm8s0UMTSzOscSAs8jkKqgdSSdhiqGsdY0m/ZlsL23u2QVcQSpIVB6V4&#xA;E0xVWvLy2s7WW6upFht4VLyyMaAAYqgNA8yaTrtoLiwmVjuXgLKZUHIqpdASV5caiuKt+YNbTSrR&#xA;ZPgaeVgkMbtxBqd2PfivfFUXYS3Etokk7RO77h7cloyp6FSfbFVSW6tomCyzJGx6KzBSfvxVUxVa&#xA;0ka/aYL33IGKrsVdirsVdirsVdirsVdirsVdirsVdirsVdirsVdiqT+b4Gn8uX0agsxRWAG5JV1b&#xA;t8s1PbmPj0eQeX3EFz+zJ8OoifxyeU3suoWNk370qxoOPXiD755lHSjiHEN3soiGSXJkn5QLIZ9U&#xA;lYMVKxDma0LVY0r4523szHefdt+l03tERUB7/wBD0rOteXebxWGu6h5q84WWmT29vFcm2ivJpld3&#xA;CPC6/ugpArQnrirPdI0yHS9LtdPgJaK1jWNWbqeI3Jp49cVSC3/8mbd/9sqP/k/iqbeZ9Tg0vQL2&#xA;/ntxdRQx/FbkVD8iFCts21W326Yqw7SGuT+YGmvcJZQzzadI7xWAYKEY8lEhOzHFWc6xEsuk3iMg&#xA;cNBJ8JFaniabfPFUi/LOK3Xybp0kaIJXR/UdQOTUlcfERuaYqifOiI1haFlBIu4gCR2NajFU/VVV&#xA;QqgKo2AGwAxVJFS1efVvrQUyDoXpUJx+GlfoxVMNGMh0u2L15cO/h2/DFV0saPfIHAYCMmh6dcVR&#xA;WKuxV2KuxV2KuxV2KuxV2KuxV2KuxV2KuxV2KuxVxAIodweoxVjuseRtF1NlZg8A5BpFiICsAakU&#xA;NeP0ZpNT2Bp8sxIXHvrkf1fB2mm7Wy4hXP3p3Y2NnY2yWtnEsMEYokaig/tPuc2+LDHHERgKiHX5&#xA;csskuKRslXyxrQ1vptjbXVzdwQrHc3hU3Mo6uUBC1+QOKonFUOun2S3zX4hUXjxiFp/2jGDyC/Ku&#xA;Kqs8EFxC8E8aywyArJG4DKynqCDsRiqX6f5Z0DTpVmsbCG3lXlxkjUBvjADb9e2KpniqA03QdG0t&#xA;5X0+zitWnp6piXjypWn68VRV1aW10ipcRiRFYOobsy9DiqriqhPYWU7iSaFHcbciN8VVwABQbAdB&#xA;irXBefOnxAUr7Yq3irsVdirsVdirsVdirsVdirsVdirsVdirsVdirsVdirsVdirsVdirsVdirsVd&#xA;irsVdirsVdirsVdirsVdirsVdirsVdirsVdirsVdirsVdirsVdirsVdirsVdirsVdirsVdirsVdi&#xA;rsVdirsVdirsVdirsVdirsVdirsVdirsVdirsVdirsVdirsVf//Z</xapGImg:image>
    </rdf:li>
   </rdf:Alt>
  </xap:Thumbnails>
 </rdf:Description>

 <rdf:Description rdf:about=''
  xmlns:dc='http://purl.org/dc/elements/1.1/'>
  <dc:format>image/svg+xml</dc:format>
 </rdf:Description>

</rdf:RDF>
</x:xmpmeta>
                                                                                                                                                                                                                                                                                                                                                                                                                                                                                                                                                                                                                                                                                                                                                                                                                                                                                                                                                                                                                                                                                                                                                                                                                                                                                                                                                                                                                                                                                                                                                                                                                                                                                                                                                                                                                                                                                                                                                                                                                                                                                                                                <?xpacket end='w'?>
			</metadata>
		<g id="_x30_1">
			<rect fill="none" width="352" height="352"/> 
		</g>
		<g id="_x32_1">
			<path d="M82.136,289.623c-2.612,0-5.184-0.329-7.715-0.984v-4.279c2.772,0.754,5.231,1.131,7.378,1.131
				c2.035,0,3.625-0.457,4.771-1.37s1.718-2.211,1.718-3.894c0-1.586-0.473-2.832-1.418-3.738c-0.945-0.904-2.7-2.086-5.263-3.545
				c-2.804-1.569-4.695-3.151-5.672-4.746c-0.978-1.594-1.466-3.408-1.466-5.442c0-3.237,1.085-5.668,3.257-7.295
				c2.171-1.626,5.003-2.438,8.496-2.438c2.532,0,4.863,0.24,6.994,0.722v4.183c-2.259-0.514-4.358-0.771-6.297-0.771
				c-1.762,0-3.172,0.418-4.229,1.25c-1.058,0.834-1.586,1.988-1.586,3.462c0,1.426,0.46,2.567,1.382,3.425
				c0.922,0.857,2.496,1.902,4.723,3.137c3.076,1.715,5.135,3.373,6.177,4.975c1.041,1.603,1.562,3.404,1.562,5.408
				c0,3.604-1.069,6.309-3.208,8.11C89.601,288.723,86.398,289.623,82.136,289.623z"/>
			<path d="M119.364,288.396c-2.692,0.816-5.488,1.227-8.388,1.227c-4.198,0-7.346-1.21-9.445-3.629
				c-2.099-2.42-3.148-6.049-3.148-10.889c0-4.276,1.03-7.742,3.088-10.395c2.059-2.65,4.931-3.979,8.616-3.979
				c3.396,0,5.98,1.127,7.75,3.377c1.77,2.252,2.656,6.414,2.656,12.486h-15.309c0,3.012,0.577,5.271,1.73,6.776
				s2.884,2.259,5.191,2.259c1.923,0,4.342-0.408,7.258-1.227L119.364,288.396L119.364,288.396z M105.184,273.04h8.892
				c0-3.302-0.353-5.576-1.057-6.826c-0.705-1.249-1.73-1.874-3.077-1.874c-1.506,0-2.651,0.674-3.437,2.02
				C105.719,267.705,105.28,269.932,105.184,273.04z"/>
			<path d="M125.805,289.238v-28.096h3.797l1.273,4.662c0.785-1.634,1.867-2.863,3.245-3.689c1.378-0.824,3.052-1.236,5.023-1.236
				c0.513,0,0.889,0.016,1.129,0.049v5.383c-0.897-0.063-1.554-0.097-1.971-0.097c-2.163,0-3.701,0.478-4.614,1.431
				s-1.37,2.527-1.37,4.724v16.87H125.805L125.805,289.238z"/>
			<path d="M145.104,289.238v-24.273h-3.101v-3.82h9.589v28.094H145.104L145.104,289.238z M148.348,257.635
				c-1.057,0-1.918-0.297-2.583-0.89s-0.997-1.378-0.997-2.354c0-0.978,0.332-1.764,0.997-2.355s1.526-0.889,2.583-0.889
				c1.025,0,1.883,0.305,2.572,0.912c0.689,0.608,1.033,1.387,1.033,2.332c0,0.992-0.336,1.781-1.009,2.366
				C150.271,257.342,149.405,257.635,148.348,257.635z"/>
			<path opacity="0.65" enable-background="new    " d="M178.197,288.396c-2.692,0.816-5.488,1.227-8.388,1.227
				c-4.198,0-7.346-1.21-9.445-3.629c-2.099-2.42-3.148-6.049-3.148-10.889c0-4.276,1.029-7.742,3.088-10.395
				c2.059-2.65,4.931-3.979,8.616-3.979c3.396,0,5.98,1.127,7.75,3.377c1.771,2.252,2.656,6.414,2.656,12.486h-15.31
				c0,3.012,0.577,5.271,1.73,6.776c1.153,1.506,2.884,2.259,5.191,2.259c1.923,0,4.342-0.408,7.258-1.227v3.992H178.197z
				 M164.018,273.04h8.893c0-3.302-0.353-5.576-1.058-6.826c-0.705-1.249-1.73-1.874-3.076-1.874c-1.506,0-2.652,0.674-3.437,2.02
				C164.555,267.705,164.114,269.932,164.018,273.04z"/>
			<path opacity="0.4" enable-background="new    " d="M190.693,289.623c-2.402,0-4.989-0.329-7.762-0.984v-4.184
				c2.739,0.834,4.998,1.25,6.776,1.25c1.649,0,2.894-0.324,3.726-0.975c0.834-0.647,1.25-1.621,1.25-2.92
				c0-0.769-0.231-1.484-0.697-2.149c-0.465-0.665-1.777-1.542-3.94-2.632c-1.458-0.754-2.624-1.446-3.497-2.079
				c-0.873-0.634-1.599-1.454-2.175-2.464c-0.577-1.01-0.865-2.268-0.865-3.772c0-2.5,0.921-4.454,2.765-5.864
				c1.843-1.41,4.205-2.115,7.09-2.115c2.498,0,4.773,0.313,6.824,0.938v3.989c-2.002-0.688-3.916-1.033-5.744-1.033
				c-1.488,0-2.604,0.305-3.34,0.913s-1.104,1.522-1.104,2.739c0,0.642,0.22,1.242,0.66,1.804s1.702,1.354,3.784,2.379
				c2.916,1.427,4.768,2.82,5.553,4.183c0.785,1.361,1.178,2.867,1.178,4.519c0,2.788-0.896,4.896-2.691,6.319
				C196.688,288.91,194.092,289.623,190.693,289.623z"/>
			<path fill="#808080" d="M112.728,302.891h4.747c1.875,0,3.24,0.438,4.098,1.316c0.857,0.876,1.286,2.284,1.286,4.223
				c0,1.899-0.515,3.357-1.544,4.375c-1.029,1.018-2.497,1.525-4.404,1.525h-1.598v6.479h-2.584L112.728,302.891L112.728,302.891z
				 M115.312,304.607v7.979h1.454c1.169,0,2.031-0.312,2.583-0.931c0.553-0.622,0.829-1.674,0.829-3.155s-0.254-2.501-0.763-3.06
				c-0.509-0.555-1.304-0.834-2.385-0.834H115.312L115.312,304.607z"/>
			<rect x="135.898" y="301.786" fill="#808080" width="2.56" height="19.022"/> 
			<path fill="#808080" d="M159.537,318.788c-0.865,1.476-2.211,2.212-4.038,2.212c-1.273,0-2.265-0.359-2.974-1.074
				c-0.709-0.72-1.063-1.722-1.063-3.012c0-1.33,0.365-2.322,1.094-2.975c0.729-0.653,1.602-1.063,2.62-1.226
				c1.017-0.166,2.255-0.247,3.713-0.247v-1.646c0-1.625-0.869-2.438-2.607-2.438c-1.001,0-2.223,0.214-3.665,0.638v-1.791
				c1.45-0.399,2.828-0.601,4.134-0.601c1.538,0,2.706,0.369,3.503,1.112c0.797,0.738,1.195,1.83,1.195,3.273v9.793h-1.394
				L159.537,318.788z M158.888,313.994h-1.43c-1.146,0-2.005,0.242-2.578,0.727c-0.573,0.485-0.859,1.209-0.859,2.17
				c0,0.785,0.174,1.371,0.523,1.762c0.348,0.387,0.871,0.582,1.568,0.582c0.881,0,1.564-0.28,2.049-0.842
				c0.485-0.562,0.727-1.322,0.727-2.283V313.994z"/>
			<path fill="#808080" d="M181.83,320.566c-1.074,0.289-2.083,0.434-3.028,0.434c-1.09,0-1.887-0.256-2.392-0.764
				c-0.505-0.51-0.757-1.319-0.757-2.434v-9.302h-1.838v-0.961l3.737-3.81h0.661v3.101h3.4v1.67h-3.4v8.882
				c0,0.76,0.124,1.262,0.372,1.508c0.248,0.244,0.625,0.365,1.13,0.365c0.521,0,1.227-0.115,2.115-0.349V320.566L181.83,320.566z"
				/>
			<path opacity="0.65" fill="#808080" enable-background="new    " d="M198.402,301.594c0.81,0,1.595,0.096,2.354,0.287v1.742
				c-0.753-0.24-1.382-0.359-1.887-0.359c-0.802,0-1.306,0.254-1.515,0.762c-0.209,0.511-0.313,1.445-0.313,2.808h2.561v1.67h-2.561
				v12.306h-2.561v-12.306h-1.693v-1.67h1.693c0-2.123,0.324-3.526,0.975-4.211C196.107,301.936,197.089,301.594,198.402,301.594
				L198.402,301.594z"/>
			<path opacity="0.4" fill="#808080" enable-background="new    " d="M216.611,321c-1.883,0-3.293-0.617-4.229-1.852
				c-0.938-1.233-1.405-3.084-1.405-5.551c0-2.148,0.485-3.847,1.459-5.097c0.975-1.249,2.367-1.874,4.178-1.874
				c1.826,0,3.222,0.616,4.187,1.852c0.966,1.232,1.449,2.955,1.449,5.166c0,2.275-0.451,4.069-1.353,5.385
				C219.994,320.344,218.566,321,216.611,321z M216.611,319.354c0.986,0,1.729-0.445,2.229-1.34c0.501-0.893,0.752-2.39,0.752-4.488
				c0-1.481-0.256-2.726-0.769-3.731c-0.513-1.004-1.25-1.507-2.212-1.507c-0.978,0-1.719,0.451-2.223,1.357
				c-0.506,0.904-0.758,2.199-0.758,3.881c0,1.892,0.252,3.334,0.758,4.332C214.895,318.854,215.635,319.354,216.611,319.354z"/>
			<path opacity="0.2" fill="#808080" enable-background="new    " d="M236.909,306.832l0.589,2.331
				c0.777-1.644,2.131-2.464,4.063-2.464c0.256,0,0.444,0.013,0.564,0.035v2.332c-0.201-0.016-0.501-0.023-0.9-0.023
				c-1.099,0-1.904,0.262-2.416,0.788c-0.514,0.522-0.77,1.343-0.77,2.456v8.521h-2.561v-13.977H236.909z"/>
			<path opacity="0.2" fill="#0F3AAC" enable-background="new    " d="M228.208,242.369c2.563,0,4.944,0.191,7.146,0.576v5.576
				c-1.942-0.428-4.047-0.642-6.313-0.642c-3.354,0-5.977,1.181-7.867,3.541c-1.89,2.36-3.049,5.901-3.477,10.623
				c2.072-2.009,4.935-3.013,8.588-3.013c4.102,0,7.221,1.303,9.357,3.908c2.135,2.606,3.203,6.334,3.203,11.185
				c0,5.362-1.309,9.544-3.926,12.546c-2.615,3.001-6.393,4.502-11.327,4.502c-4.934,0-8.657-1.752-11.168-5.255
				c-2.51-3.504-3.765-9.313-3.765-17.433c0-7.989,1.677-14.34,5.029-19.051C217.046,244.725,221.885,242.369,228.208,242.369
				L228.208,242.369z M223.594,285.854c2.157,0,3.771-0.828,4.84-2.482c1.066-1.655,1.602-4.674,1.602-9.053
				c0-3.291-0.502-5.764-1.506-7.418c-1.004-1.656-2.51-2.483-4.52-2.483c-2.093,0-3.689,0.79-4.789,2.371
				c-1.102,1.581-1.65,3.76-1.65,6.536c0,3.332,0.225,5.849,0.673,7.547c0.448,1.699,1.116,2.953,2.003,3.766
				S222.248,285.854,223.594,285.854z"/>
			<g>
				<polygon fill="#FFCC00" points="83.551,301.553 74.234,306.654 84.862,311.665 93.57,305.768 "/>
				<polygon fill="#FF9900" points="74.234,306.654 75.357,318.456 85.331,323.65 84.862,311.665 "/>
				
					<linearGradient id="XMLID_91_" gradientUnits="userSpaceOnUse" x1="-47.1431" y1="278.7324" x2="-37.1689" y2="278.7324" gradientTransform="matrix(1 0 0 -1 122.5 596.3906)">
					<stop  offset="0" style="stop-color:#FFCC66"/>
					<stop  offset="1" style="stop-color:#FF9900"/>
					<a:midPointStop  offset="0" style="stop-color:#FFCC66"/>
					<a:midPointStop  offset="0.5" style="stop-color:#FFCC66"/>
					<a:midPointStop  offset="1" style="stop-color:#FF9900"/>
				</linearGradient>
				<polygon fill="url(#XMLID_91_)" points="75.357,318.456 85.331,323.65 84.862,311.665 "/>
				<polygon fill="#F27C0E" points="93.57,305.768 84.862,311.665 85.331,323.65 93.57,317.564 "/>
			</g>
			<g>
				<polygon fill="#ABDD99" points="176.811,84.505 148.321,102.182 181.396,117.244 208.896,97.272 "/>
				<polygon fill="#46AB48" points="148.321,102.182 150.291,142.135 181.721,157.521 181.396,117.244 "/>
				<polygon fill="#16923B" points="208.896,97.272 181.396,117.244 181.721,157.521 208.245,134.602 "/>
			</g>
			<g>
				<polygon fill="#FF6699" points="145.842,103.821 115.717,121.831 150.423,140.17 179.566,119.212 "/>
				<polygon fill="#FF0066" points="150.423,140.17 115.717,121.831 119.646,166.366 152.395,184.371 "/>
				<polygon fill="#BE0151" points="179.566,119.212 150.423,140.17 152.395,184.371 179.896,159.818 "/>
			</g>
			<g>
				<polygon fill="#F5F661" points="250.023,114.932 212.693,99.54 185.518,119.518 222.518,136.871 "/>
				<polygon fill="#FFF500" points="185.518,119.518 185.846,160.119 222.193,178.786 222.518,136.871 "/>
				<polygon fill="#FFCC00" points="222.518,136.871 222.193,178.786 248.391,154.223 250.023,114.932 "/>
			</g>
			<g>
				<polygon fill="#BFE230" points="153.919,143.233 183.227,122.111 220.314,139.299 191.896,163.205 "/>
				<polygon fill="#84C322" points="153.919,143.233 155.552,187.436 191.572,207.083 191.896,163.205 "/>
				<polygon fill="#5DAA3B" points="191.896,163.205 191.572,207.083 219.734,181.211 220.314,139.299 "/>
			</g>
			<g>
				<polygon fill="#99FF66" points="147.897,58.767 176.792,42.482 210.77,55.167 182.688,73.26 "/>
				<polygon fill="#66CC33" points="147.897,58.767 148.881,99.045 182.277,114.76 182.688,73.26 "/>
				<polygon fill="#669900" points="182.688,73.26 182.277,114.76 209.783,94.787 210.77,55.167 "/>
			</g>
			<g opacity="0.4">
				<polygon fill="#CC66FF" points="185.191,74.515 222.688,91.457 251.824,70.171 212.861,56.423 "/>
				<polygon fill="#6F348E" points="222.927,91.133 221.895,133.763 249.195,111.758 251.742,70.171 "/>
				<polygon fill="#9933CC" points="184.781,74.515 184.287,116.015 221.895,133.763 222.927,91.133 "/>
			</g>
			<g>
				<polygon fill="#FFCC00" points="167.563,71.017 134.989,88.863 172.143,106.38 202.594,85.751 "/>
				<polygon fill="#FF9900" points="134.989,88.863 138.913,130.121 173.781,148.291 172.143,106.38 "/>
				
					<linearGradient id="XMLID_92_" gradientUnits="userSpaceOnUse" x1="16.4131" y1="469.0547" x2="51.2813" y2="469.0547" gradientTransform="matrix(1 0 0 -1 122.5 596.3906)">
					<stop  offset="0" style="stop-color:#FFCC66"/>
					<stop  offset="1" style="stop-color:#FF9900"/>
					<a:midPointStop  offset="0" style="stop-color:#FFCC66"/>
					<a:midPointStop  offset="0.5" style="stop-color:#FFCC66"/>
					<a:midPointStop  offset="1" style="stop-color:#FF9900"/>
				</linearGradient>
				<polygon fill="url(#XMLID_92_)" points="138.913,130.121 173.781,148.291 172.143,106.38 "/>
				<polygon fill="#F27C0E" points="202.594,85.751 172.143,106.38 173.781,148.291 202.594,127.004 "/>
			</g>
		</g>
	</svg>
