<?xml version="1.0" encoding="utf-8"?>
<!-- Generator: Adobe Illustrator 11.0, SVG Export Plug-In . SVG Version: 6.0.0 Build 78)  -->
<!DOCTYPE svg PUBLIC "-//W3C//DTD SVG 1.0//EN"    "http://www.w3.org/TR/2001/REC-SVG-20010904/DTD/svg10.dtd" [
	<!ENTITY ns_flows "http://ns.adobe.com/Flows/1.0/">
	<!ENTITY ns_svg "http://www.w3.org/2000/svg">
	<!ENTITY ns_xlink "http://www.w3.org/1999/xlink">
]>
<svg  xmlns="&ns_svg;" xmlns:xlink="&ns_xlink;" xmlns:a="http://ns.adobe.com/AdobeSVGViewerExtensions/3.0/"
	 width="352" height="352" viewBox="0 0 352 352" overflow="visible" enable-background="new 0 0 352 352" xml:space="preserve">
	<metadata>
		<x:xmpmeta  x:xmptk="XMP toolkit 3.0-29, framework 1.6" xmlns:x="adobe:ns:meta/">
			<rdf:RDF  xmlns:iX="http://ns.adobe.com/iX/1.0/" xmlns:rdf="http://www.w3.org/1999/02/22-rdf-syntax-ns#">
				<rdf:Description  rdf:about="" xmlns:pdf="http://ns.adobe.com/pdf/1.3/"></rdf:Description>
				<rdf:Description  rdf:about="" xmlns:tiff="http://ns.adobe.com/tiff/1.0/"></rdf:Description>
				<rdf:Description  rdf:about="" xmlns:xapGImg="http://ns.adobe.com/xap/1.0/g/img/" xmlns:xap="http://ns.adobe.com/xap/1.0/">
					<xap:CreateDate>2005-04-04T07:58:17Z</xap:CreateDate>
					<xap:ModifyDate>2005-04-04T09:30:28Z</xap:ModifyDate>
					<xap:CreatorTool>Illustrator</xap:CreatorTool>
					<xap:Thumbnails>
						<rdf:Alt>
							<rdf:li  rdf:parseType="Resource">
								<xapGImg:format>JPEG</xapGImg:format>
								<xapGImg:width>256</xapGImg:width>
								<xapGImg:height>256</xapGImg:height>
								<xapGImg:image>/9j/4AAQSkZJRgABAgEASABIAAD/7QAsUGhvdG9zaG9wIDMuMAA4QklNA+0AAAAAABAASAAAAAEA
AQBIAAAAAQAB/+4ADkFkb2JlAGTAAAAAAf/bAIQABgQEBAUEBgUFBgkGBQYJCwgGBggLDAoKCwoK
DBAMDAwMDAwQDA4PEA8ODBMTFBQTExwbGxscHx8fHx8fHx8fHwEHBwcNDA0YEBAYGhURFRofHx8f
Hx8fHx8fHx8fHx8fHx8fHx8fHx8fHx8fHx8fHx8fHx8fHx8fHx8fHx8fHx8f/8AAEQgBAAEAAwER
AAIRAQMRAf/EAaIAAAAHAQEBAQEAAAAAAAAAAAQFAwIGAQAHCAkKCwEAAgIDAQEBAQEAAAAAAAAA
AQACAwQFBgcICQoLEAACAQMDAgQCBgcDBAIGAnMBAgMRBAAFIRIxQVEGE2EicYEUMpGhBxWxQiPB
UtHhMxZi8CRygvElQzRTkqKyY3PCNUQnk6OzNhdUZHTD0uIIJoMJChgZhJRFRqS0VtNVKBry4/PE
1OT0ZXWFlaW1xdXl9WZ2hpamtsbW5vY3R1dnd4eXp7fH1+f3OEhYaHiImKi4yNjo+Ck5SVlpeYmZ
qbnJ2en5KjpKWmp6ipqqusra6voRAAICAQIDBQUEBQYECAMDbQEAAhEDBCESMUEFURNhIgZxgZEy
obHwFMHR4SNCFVJicvEzJDRDghaSUyWiY7LCB3PSNeJEgxdUkwgJChgZJjZFGidkdFU38qOzwygp
0+PzhJSktMTU5PRldYWVpbXF1eX1RlZmdoaWprbG1ub2R1dnd4eXp7fH1+f3OEhYaHiImKi4yNjo
+DlJWWl5iZmpucnZ6fkqOkpaanqKmqq6ytrq+v/aAAwDAQACEQMRAD8A9U4q7FXYq7FXYq7FXYq7
FXYq7FXYq7FXYq7FXYq7FXYq7FXYq7FXYq7FXYq7FXYq7FXYq7FXYq7FXYq7FXYq7FXYq7FXYq7F
XYq7FXYq7FXYq7FXYq7FXYq7FXYq7FXYq7FXYq7FXYq7FXYq7FXYq7FXYq7FXYq7FXYq7FXYq7FX
Yq7FXYq7FXYq7FXYq7FXYq7FXYq7FXYq7FXYq7FXYq7FXYq7FXYq7FXYq7FXYq7FXYq7FXYq7FXY
q7FXYq7FXYq7FXYq7FXYq0XQMFLAM32VJ3NPDImcQQCdymjzbySHYq7FXMyqCzEBRuSdhgJAFlBN
LIpopV5ROrr4qQR+GRhkjMXEghEZiQsG1+TZOxV2KuxV2KuxV2KuxV2KuxV2KuxV2KuxV2KuxV2K
uxV2KuxV2KuxV2KuxVZNPDBGZJnEca9WY0GU588MUTOZEYjqWUIGRoCyxvUvN43jsF9vXcf8RX+u
cN2p7Zc46Yf5x/QP1/J22DszrP5McmubiaUyyyM8h35k7/RnD59Tkyz45yMpd7tY44xFAbJlY+Zt
TtqK7fWIx+zJufobr9+bzQe1OrwbSPiR7pc/9Nz+duJm7Pxz5ek+TIbHzPptzRZG+ryH9mT7P0N0
++mdtoParS59pHw5f0uX+m5fOnV5uz8kOXqHkq32vWdsOKH1peyodvpbNjqu1cWMek8UvL9bpdRr
I49ucmOX2qXl4f3r0j7Rrso/r9Oc3qtdkzH1Hbu6OnzameTmdu5DxTTQvzidkbxUkH8MxseSUDcS
QWmMzE2DSa2vmW8joJ1Ey+P2W+8bfhm3wdtZI7THEPkXOxdozH1bpxa67p9xQc/Sc/sybfj0zc4O
1MOTrwnz/FOxxa3HPrR80wBBFRuD0ObEFy3Yq7FXYq7FXYq7FXYq7FXYq7FXYq7FXYq7FXYq7FXY
q7FXYq7FUq8y602j6eLpY/ULSCPfovIE8iO/TNR232hPSYOOABkTW/Ic93N0Gk8fJw3W1sKm1aXU
m9WSf1fAdAtfBe2eTa/W6jUT4s0jL7h7uj0MNMMQoClPMFk7FXYqslliijMkrBEXqx2GGMTI0OaQ
CdglUPmT1tSgt7f4LdnAeRv2h7A9M3/Z+CeMiz8Ojg9tdmYzpZ5JxHHGO39rJs3T5g7FVG7vLWzg
ae6lWGFersaD5fPG2UYmRoMQ1XzXe31YtP5WlqdjcH+9cf5I/YHv1zrOxvZPNqqnlvHi/wBkfcOn
vPyL0fZ/YMp1LJsHaV5s8w6WI0tb1/RjAVYZDzSg/wAlq0r3I3z0mHY+mhjGOMajH5/Pq9R+RxcP
DTMdK/NlDxTVbPie81uaj/gGP/G2a/P2F1xy+B/W4mTsz+afmzHS/MuhaoALK8jkkP8AuonhJ/wD
UbNPn0eXF9UT+h1+TTzh9QTPMZpdirsVdirsVdirsVdirsVdirsVdirsVdirsVdirsVdirHfP0XP
y1O1P7p42+9wv/G2aD2mhejke4xP21+l2vY0q1A8wfueWI7IwZSVYdCNs8zezIB5o+31iVaCYcx/
MNjlE8APLZxZ6UHkmcF1BOKxuCe46H7sxp4zHm4k8co80LqOr2tktGPOb9mIdfp8MuwaWWTflHvZ
4sEp+5i1/qV1eycpm+EfZjH2Rm6w4I4xQdnjwxhyQ8X94vzzJx/UHW9vf4ll/qpvZ6vf2lBFISg/
3W/xL/Z9GZ744jL/AM9xWdl6j2/78ninxfu6nux65fpdNPPljjxi5y5OVpNKc8xAMdmu59SkF3dz
i5b/AHWFP7pP9RRt9PXPU+xfZTDpankrJl/2MfcP0n4U9xoOyceAWd5N51rtnYq7FWwSDUdcVR2h
/mprFr5i0vQ7W8N2L27gtZRMfUSNZZVjNGPxVAboDmj7QwYDEkR9QHTZ1uqx4qNDd77nLuldirsV
dirsVdirsVdirsVdirsVdirsVdirsVdirsVSjzbF6vlu/Xwj5f8AAEN/DNV23Di0eQf0fu3c7s2V
aiHveQZ5S924Ak0G5PbFCsIWT4iaMOlO2WcFc2BkCkLli7ciWapqx6k5sacgLcUrov7xfnlmP6g6
jt7/ABLL/VRLMB886Ps/sjLqTf0w7/1d74hqdbDFtzl3IHUqPBRgCCeh6Z6D2NoMWnyREBv1PUur
w6vJPKJXVcq6JKLP0n9S0ka3k78d1PzU7Z2NPYaL2n1GLaf7yPnz+f67RMWsXcFFvIeaf7/h3+9T
i9fou3tNqNhLhl3S2/YUytr21ul5QSK47gdR8x1wu5XXNzBbQtNO4jiX7TN0yMpACygkDmwjXfN1
xecrezrDbbhn6O4/41Ga/NqTLYcnEyZidhyVfyyh9b8wfL6bbXsT7/5Dc/8AjXNdqT+7l7nEzfQX
2FnPOqdirsVdirsVdirsVdirsVdirsVdirsVdirsVdirsVQmsRerpF7F/PBKv3oRmJr4cWDJHvhL
7m/Sy4csT/SH3vGra0muGpGNh9pj0GeR48UpnZ77JkERumK2cduu3xP3Y5mDCIDzcQ5TJCz98om3
wY1J/eN8z+vMwOYOS3J48cpyEYiyWGXLHHEykaiOa5NmBzuOyvZuMCJ5vVL+b0+Pf93vfL/ab2sO
bDPFgFQI3keZ93d9/uVM68Ctg+TkobUP7kfPMzQ/30fj9xcnSfWl2dI7V2KoG/8AqUC+tITFL+w0
Z4uT7UycMZkaDuuze1dViNQlce6W4/Z8GL6vqN5dzATys6IBwUnYVHtTf3zV6yxkI7nv45TkjGR6
gH5oDMRWa/kxD635m6Gm20kz79Pgt5H/AONcxtYf3Ras/wBBfWmaB1bsVdirsVdirsVdirsVdirs
VdirsVdirsVdirsVdirTqHRlPRgQfkcEhYpING2I3/lOa1j/ANAHqwL0jGzj/mr9ftnIavsGeMfu
vVHu6/t/GzvMPaQmfXsfs/Yxe6VkZlYFWU0ZSKEEeIzm8sSDR5u4xkHcJbP3zBm5kGNzf3r/AOsf
15lx5BzAozKTDJT+Un8M2/YmGc9Xj4BdTjfutwO1Y3pMv/C5fcUJbXPABRJR/wCSTp9Bz2OWkHxf
n/WzlM8JHCjkukrxkBjb36ffmNPDKLqZ4SFl+QYQR0rl2g/vo/H7i2aT60uzpHaJfqGrRWoKJR5/
5ew+eX4sBlv0crBpjPc7Bj088s8hklYsx7n+GbGMREUHaRgIiggLr+/b5L/xEZyut/vpe97fB/dw
/qR/3IUsxWx6H+QkPqfmVYvQfuYbh9+u8TJt7/HmHrj+6LRqfofU2aN1rsVdirsVdirsVdirsVdi
rsVdirsVdirsVdirsVdirsVdiqV69ZaHLavPqZSFEFPrJIRl8KN39hvmFrOz8OoHrG/f1/H2OZo8
uYSAx2T3PJ768003ckdpK8kAP7uWReHL6Kn8c4vtH2dzYvVj/eR/2Xy6/D5PbYcWThBkKl3DdIZY
y08h7cjv9OHsvsfJnAMvTDv/AFOZEbNSqBA4A24n9Wd92dpoYJRjAUOINGvH+D5B/Ql9xSQgEUO+
d0Rb4pOAkKIttHljFFaq/wAjbjKpYgXXZezh/Aa8ipz3hfjDAD6rNx4AgrX6cqxwhjmJy6Ou4PDy
ASG6A1m71G0VYmiMLOP73qD/AKp6ZvdJ4eXeJt22n08TvzY+SSancnqc2TsGsVQ16ALkgfyofvQZ
yOqN5Ze97bF9Ef6o+5fpmmX+qXsVjYQNcXUxpHEgqT7nwA7k9MwtRqIYYGeQ8MR1Zk0+gvyl8g2P
ljUo5rhhd63PG6TSqT6UClalI/5iSKFj9Gefj2tOs1owYx+639+wJ/AatRikcZkdg9dzfOrdirsV
dirsVdirsVdirsVdirsVdirsVdirsVdirsVdirsVeQ/85D3F5aWWh3ttIY2jmnjanQ81RqEdD9jv
k4C3uvYiEJzywkLuMT8r/W8x0vznby0jv19F+nqrUofmOownH3PX6jsqUd4bju6sjjkjkQPGwdG3
VlNQcrdVKJBouf7DfI5PH9Q97j6kXikP6J+5IXdEUs5CqOpOds+IoH1ru/kMNmpWMfbmO2QyZY4x
ZY5MkcYuScWGmW9pGoHxyA19RhvX28M1GbOch35OnzT458RC7UpVcIkqhlNagioPTqDlWnEoSJga
crT5Nt0jutBtZgWtm9J/5eq/1Gb3T9tSjtkFubGaTXen3dqf30ZC9nG6n6c32DVY8o9JbBIFE6J5
R1jzLq7W9hHxhjVDc3cm0US8BuzeJ7KNznC9udrYNHxTynqaHU/jve3htEDyH3PafLvlzR/LVkbX
S1LTSAC71BxSWU+A/kTwUZ4Z297S5tdPnUByH4+/7nOw6brLmyfyqtdYjPgrn8KYPZKN66PlGX3M
e0T+6PwZvnrLzrsVdirsVdirsVdirsVdirsVdirsVdirsVdirsVdirsVdiryz/nIq3EnkqzmH2od
Qj/4FopQfxpk8fN7P2HnWskO/Gfvi+c8ufVUZp+q39g/K2lKg/ajO6H5jAQC0ZtNDKPUGRDz3aJY
vJcwOJ1GyJurE7dT9nICFF0Gt7NMBsdjsut9Jv7307i+V4LZwHiiZShZT0IDDp750X8q4Zg+FITr
nXT9r8866UtNI4yPWPl8+qdQwxQxiOJQiL0UZhSkZGy6WUjI2V+RYoLUesf0/wAMuw8y5WDkgwSN
xlxDcj9PtZLoM0pEdmm007CoH+SB+0x8M0/afacNGLBvIfpiOv6h5uVggZ8/p73p6QW1nbrZWcSW
9qlG9ONQgZmAJZgO5zwXtHtXPrJmeU2X0vSYYxgDzNNZr3LTryiAdWJ8ImI+8DOq9jhes/zD+h1/
af8AdfFmmeqPPuxV2KuxV2KuxV2KuxV2KuxV2KuxV2KuxV2KuxV2KuxV2KsA/PS39X8uL9/98S28
n3zKn/G+Thzem9kJ12hAfzhIf7En9D5fy59idiqldOUt3YGjDjxPuGBwEXs4XaEeLHXR7XFeyLH6
MqieD/fUm9P9U9RnlWLLPFLjxyMZd4fnEkSFSHEFOTS7a5+Kxk4Sf8s0poT/AKjd867Qe1ZHp1A/
zo/pH6vk63P2WDviPwKXTQTQSGOVCjjqpFM7HBqMeaPHjIlHydPkxygakKKXaj1j+n+GZmHmW/By
VbPTE9EXl8THan+7QbSSkdkr0Hi2aPtft6OAnFi9Wb7I+/z/AKPzdhi09jiltH727u8e44qFEUEe
0MCfZUfxJ7nvnGHilIzkeKcuZPX8dB0b5SvbkHp032/9iv8AxEZ5lVPpOn/ux7lmLcn3k0H9JSns
ISPvZc7D2KH+FSP+1n/dRdb2of3Y/rfoLMM9OdC7FXYq7FXYq7FXYq7FXYq7FXYq7FXYq7FXYq7F
XYq7FXYqxT81bb6x+XmuR0rxt/U7f7qdZO/+rko83d+zmTh1+I/0q+Yp8l5e+2uxVQvh/oz+1P1j
FxtZ/dl7DbmsEZrWqqa/RnlOQeo+9+b8oqZ96pkGtFJfco/Ru0FxD2DfaX/Vbrl2n1GTBLjxSMZf
f7xyKZ8MxUxxBA38Gi2zpcjlcGh9G0cUAbxkI6geHfOlj7RarNiMABCXWY7v6I6Hz6dHEGlxYjY3
8v1pTc3U9zMZZm5OdvYDsAOwGYMICIoIlIyNlRyTF6vcKVlKnYgKCPcAZ5nI2bfTMAqAX2VlcXlw
sEC8nbv2A8SfDMrRaHLqcgx4xcj9nmfJllyxxx4pM40nSLfToOKfFMw/ey9z7D2z1vsfsbFosdR3
mfql3/sec1OpllO/LuR+bhxnYq7FXYq7FXYq7FXYq7FXYq7FXYq7FXYq7FXYq7FXYq7FVG8s7W9t
JrO7iWa2uEaOaJxVWRhQg4tmLLLHITialE2C8Y86/wDOPat6l55Um4ndjplw23yilP6n/wCCywZO
97/sr22IqGqH+eP0j9XyeM6ppOp6VePZalayWl1H9qKVSp+Yr1HgRtloL32n1OPNATxyEonqEBOo
MEgIr8LH7hXFjrP7o/D73rGmsG061YbgwxkH5qM8s1IrJL+sfvfnPWCs0x/SP3onKXHdiqX6r/ur
/ZfwzZ6L6T72jMl+ZjS7FXsaafcX2pPDAN61Zj0UU6nPP+zezsuryDHjHQWegHeX0g5o48dlmWma
XbafbiKIVc/3kp6sf6e2evdldlYtFj4IfV1l1P7O4Og1GolllZRmbNodirsVdirsVdirsVdirsVd
irsVdirsVdirsVdirsVdirsVdirsVdiqV+YPLGg+YbM2esWcd1FvwZhR0J7xuKMp+Rwg05mi7Qz6
WfHikYn7D7xyLxHzl/zj3rNszy+WJhf20vwC1nZY5o+fw/bNEdVrUnY+xywZO973Se2WLLjMNQOC
dcxvE19o+1y6dNpgGmzsrTWI+rSsleJaL4GK1oaVXPM9YKzT/rS+98p1eQTzTkOsiftbzGcd2Kpd
qv2o/kf4ZtNF9B97Rl5oDMtpTjyz5X1LzDfi1s14ou89w1eEa+J8Sew75fp9PLLKg24sJmaD6Et7
W3twwhQIHPJqdzm/0ehw6aPDiiIh6CeSUuZVcy2DsVdirsVdirsVdirsVdirsVdirsVdirsVdirs
VdirsVdirsVdirsVdirsVdirHtf8kaPq3KUL9VvGqfXiA+Inu69G/X75qtb2Riz7/TPvH6WqeES9
7znXfKOs6OxaaL1bbtcxfEn+y7r9OcprOzMuDci494/GzhzxGKS5r2tLtV+1H8j/AAzaaL6D72jL
zTHyj5O1DzHecIv3VlER9ZuiNlH8q/zMfD782um0ssp25d6cOA5D5Pc9G0XT9GsI7Gwj9OFNyTuz
MerOe5OdHixRxx4Yu4x4xAUEdljN2KuxV2KuxV2KuxV2KuxV2KuxV2KuxV2KuxV2KuxV2KuxV2Ku
xV2KuxV2KuxV2KuxVzKGBVgCpFCDuCDiRasS178u9LvuU1hSyuTvxUfumPuo+z/sfuzR6zsPHk3h
6JfZ+z4NE8APLZh9r+WGs3usLb34+rWMG81wpDcweixe5p3G3fwzD0PZWSJMZ7C+f6nE/KylLfk9
V07TrLTrOKzsohDbwiiIv6z4k9znSwgIChydhGIiKCIybJ2KuxV2KuxV2KuxV2KuxV2KuxV2KuxV
2KuxV2KuxV2KuxV2KuxV2KuxV2KuxV2KuxV2KuxV2KuxV2KuxV2KuxV2KuxV2KuxV2KuxV2KuxV2
KuxV2KuxV2KuxV2KuxV2KuxV2KuxV2KuxV2KuxV2KuxV2KuxV2KuxV2KuxV2KuxV2KuxV2KuxV2K
uxV2KuxV2KuxV2KuxV2KuxV2KuxV2KuxV2KuxV2KuxV2KuxV2KuxV2KuxV2KuxV2KuxV2KuxV2Ku
xV2KuxV2KuxV2KuxV2KuxV2KuxV2KuxV2KuxV2KuxV2KpKnnbye/mM+WV1mzbzAo5HSxPH9Y2XmR
6deXLh8XHrx36YqnWKuxV2KuxV2KvFPz1/Oe98uz/wCGvLsgj1VkD397QMYFcVWNART1GU8uX7Ip
Tc7b7snswZR4k/p6DvcHVakx9MebCvL35I/mb5rsU1zVtZaza8USQi8lmluHRt1ZgPsgg1AJr7Zn
5u1dPhPBGN13VTjw0uSYsl7P+UvkPWfJmi3mnapqC6g01z60EiFyFQoq8aP0+IE7Zou0dXDPMSiO
HZztPiMBRNtfmh51udBtIbHTmCaheAsZepiiG1QD+0x2B9jjoNKMhJl9IXPl4RQ5sN0X8v8AzV5i
0g6zJqRWWcM1uk7yO8nEkVZq/DUjbrmdl1mPFLg4eTRHDKQu1b8vfPGsadrseiavNJNazSfVuMxL
PDNy4rRjU8eXwkfTg1mljKHHHnz96cOUg0Xs2aJznYq7FXYq7FXYq7FXYq7FXYq7FXYq7FWH/m95
yufJn5ba75ktFVryxgVbXkKqJp5EgiZh3CvKGI74q+W/yd/KG/8AzsGreaPOXmS9kW2uPqyBWEk7
SlVkY1l5LHGAwCqq/KlMVfR35Qfktpn5ZNq6abqt1qFrqn1bjDdBKwm39WpUpxB5+tv8I6d8VRnn
787Py48iXK2fmDVAmouocafbo884U9GdUBCA9uZFe2Kt+QPzq/Lrz5cSWnl7U/U1CJTI9hPG8E/A
GhZVcAOB34E074qmGv8A5m+TtA816V5V1S8aDWdaCnT4fTco/qOY1rIBwWrrTc4qkEn/ADkP+U36
fbQrfWfrl7GkzyvawyywqLaJ5pP3oXg1EjP2CcVeV+UZP+cePMf552vmfRtc1K48x6hcvc2ulvDJ
HbG69Jizl2iVgtAWCl/te3w4q+h/M/mry95W0eXWPMF9Hp+mw0Dzy13Y9FRVDO7HsqgnFXnWlf8A
OU/5MajqKWI1eS1aRgkdxdW8sUJJNBWQghB7vQYq9Tu9QsbOxlv7u4jt7GCMzTXUjBYkjUci7OTQ
KBvXFXkt5/zlh+S1tetbLqdxcKrcWuYbWYxdaEgsFYgeIX5VxV6b5d8z6J5j0C11/SLn6xpN4jSQ
XJV46qrFWJWQKwoykbjFXxiuuafq/wCYA1vX2P6OutR+t368S5MHq82jCj/I+AZ3/hShh4IfUI0P
e6HiEp3Llb26X/nKzQFueEOg3TWlaCVpY0kp/wAYwGX/AIfNCPZ+dbyFud+fHc9S8j+ffLvnPSzq
GjSsfSIS6tZQFmhYioDqCevYgkH6Dmo1Wknglwz/ALXLxZYzFh5T+bdy03nW5jJqLaKGJR4AoJP1
yZuOzo1iHnbiag+t7L5XiWLy1pUa9Fs4B4f7qXfNFnN5Je8ubj+kPB/Ov+i+ddUeH4WS7aVT4MTz
r95zotLvijfc6/LtMvomJxJGkg2DgMAfcVzmSKdmuwK7FXYq7FXYq7FXYq7FXYq7FXYq7FUi89eU
rLzf5Q1Xy1esY4NTgMXqgVMbgho5AO/CRVantir4oEP5zf8AOPvmZ5lQx2Ny4RpaGbTL5UqVBPw0
YAmn2ZB8sVfUn5Vfnz5f8/eV9Q1KKBrPV9HgafU9KLciFVSweJ6DmjcadKg7HsSq+ZPyM8zeTtS/
NnU/Nv5mX1tV4ZrqBr4c4mvJZEVaKQw/dxluC022p0xVd5/8xeStF/P/AEjzJ+X1xb/opZrO6n+o
jhCJGkKXMaqAOIkj+0AP2jirIf8AnNZ3j/MLQJI2KOmlqyOpoQRcykEEYq9y/LX/AJx8/LTy3pej
3/6JW616O2VrnUJ5JXLyzQ8Zv3Rf0uBDsvHjSnid8VeC6BZ2dl/zmQLSzgjtrWHVLhYoIUWONF+q
PsqqAAPliq7/AJy48zTat+auneV7m4Nvo2kxQCTf4VkuyHlmPyiKD6PfFU1/5yG1H8hdQ/Lq0h8m
T6Yda0uaCOzWxQJMbajK6O3FS678jyJNd/HFVe7vPMvmj/nDW2Wz9W5m0qcQagqAszWVlOxXYfsx
J6RPstcVS/8A5xk89fkxYaHL5a822NnBrV5dMw1LUbeKWCeNwoSIzOrekF4/Zeid61OKvq+HS9K0
vy89jpNtDZ6dDBJ9XtrZFjhRXDOeCpRQCWJ2yUPqCJcnxb+XmgW/mDzto2j3IJtru5UXCqaExJV5
AD2qqkVzvtZmOPFKQ5gOhww4pgPqT8z/AMvfK95+Xuqw22l21vNp9pLc2EkESRvG9uhcKrKBswTi
RnI6DWZI54kyJ4jR+Lts+GJgduTxD/nGvVbq0/MZbKNj6Go2s0c6V2rEvqo1PEFKfSc3/bmMHBfW
JH6nA0UqnXezL81EZfPWok9GEBX5egg/hmD2f/cj4/e35/rL27y6QfL+mEbg2kFD/wA81zQ5vrl7
y58PpDwXz/8A8plq3/Gc/qGdFo/7qPuddm+ovoa1BW2hBFCEUEHqDTOZlzdkFTAl2KuxV2KuxV2K
uxV2KuxV2KuxV2KoPV9Y0nRtPk1HVryHT9PhKCa7uZFiiT1HEac3chVq7AbnFWLec/Of5UzeUdQP
mHV9MvNCmgcTw+vDN6y0rxiRWJeSo+DjvXpir5c/5w+8v3+qecfMboXj046JPZXcyio53ckYiXfv
SN2H+riqR/kPbeStF/NG+8vfmXYWgiaKaxH6TVDDBexSqRzMnwpyCMoY+3jir6mbyf8A845213aR
HT/LUd3czRw2UQ+q+rJO7BY0iUHkzFiKAYq8D/5za/5T/Qv+2UP+omXFX2BpP/HKsv8AjBF/xAYq
+P8ATP8A1tJ/+2rcf9Qb4qhP+ct9Dn0f837LzBc2/wBY0zVLe3mUMPgka0IimhNf8hUJ9mxV71o+
gf8AOMuraNBrFpp/lsWM8YkDSraxMgIqVkVyCjL0YHpirMtFv/yz8veWrSTSLvStM8tX0zR2MsMs
EVnNO/LksT1Ebs3pN0O9Dir5q/5ys8iflPpWl2XmDy1Ja2WvXt0scunWEkZhmhaNmab0UNI+JVfi
QAGu4qa4q9n/AOcXr3Vr38ldEfUmaT02uILR33Jtop3SMb9loUHsBirwexi/wD+bkEeoKUt9H1IC
QkEn6sX2kHc1hYOM7qZ/MaY8POUft/tdGP3eTfoX0h+aPnzy3Z/lzq1xBqdtcPqNpLa6eIJkkMrz
oYgY+BNeHLkT2pnL6DSZJZ4gxI4TZ27naZ8sRA783i//ADjLoF1eeepdXCEWml2z85e3qzj00T5l
eZ+jN727mEcPD1kfucHQwud9z0D86NKlh1621EL+4u4Qhft6kRIIP+xK5rezMgMDHuLkamO9s68i
+Z9Jm8nWck11HCbCBYLpXYKU9EcQSPAqARmv1eCQymhzLkYpjh9zyNI28z+eWEKlo9QvWelNxCXL
En/Vjzck+Fh3/hDh/XP3l9E5zLsnYq7FXYq7FXYq7FXYq7FXYq7FXYq7FUn83+U9E83eXbzy9rkT
T6XfBBcRo7RsfSkWVCHQgijxqcVeTp/zh3+T63AlP6SZK19A3S8KeFRGHp/ssVereUfJflfyhpC6
T5c0+PT7FTzZI6lnegBeR2LO7UHViTirGPzA/Ij8tfPd5+kNb05k1QqEbUbSRoJmUCg50qj0AoC6
kjp0xVI/K3/OLX5T+XdZs9Yt4L27vtPnjurNrm5Yqk0LB434xCLlxZQaNUeNcVT78xPyP8h/mBql
tqfmKK4kurSD6tCYJjEvp82fcAGpq5xVnkEKQQRwx/YiUItdzRRQYqwOH8j/ACHD+YR8/JFcf4hM
73JkMx9L1HjMZ/d0pTi2Ksk83+SvK/nDSG0jzJp8eoWLMHVH5KyONg8ciFXRt6VUjbbpirysf84e
fk+Lj1SNSMdSfq5uhw+VRHz/AOGxVm2s/kt+X2r+R7DyTc2Ui+X9LlE9jBHPKHjlAkHL1CzM39++
zVG/yxVhunf84hfk7aXaXEsF/fIpr9WuLo+mfn6SxP8A8Nir2SxsbKwsoLGxgS2s7ZFit7eJQiIi
CiqqjYADFWH/AJh/lH5W878J75XtdTiXhFqFvQPx6hZFIKuoPjv4EZn6PtHJp9hvHuLRm08cnPm8
/tP+cUdIW4DXfmG4mt67xxW6RPSnTmzyj/hc2UvaCVbQF+9xh2eOpev+VfKeheVtIj0rRbYW9qh5
OSeTyOQAZJGO7MafwG2aXUaieaXFM2XNx4xAUEVrWiabrWnvY6hEJYH3HZlYdGU9iMhiyyhK4plE
SFF5/N+R1iZaw6tKkVfsPErtT/WDIPwzZDtU1vFxjpR3sr8qeRNE8t8pLUNNeSDi91LQtx68VAAC
jMPUaueXnybseIRZHmK2uxV2KuxV2KuxV2KuxV2KuxV2KuxV2KqV1dW9rA09w4jiSnJz7mg/HKdR
qIYYGczUQzx45TlwxFlj8/nNBOBDb84B1ZjRj8utM4nP7bRGSseO8fmaJ93d+OTtIdlHh3O6a6Xr
un6k0kdu59aIBpYmG6hq0rTbemdR2X2vi1seKFgjmCPwC4Wo0k8VGXI9UwzaOKxO+88XsOoatbWu
jveQ6Nwa8mSZFIR0L8gjCpoFOwxVkemajb6lp1vf2xJguY1kjrsQGFaH3HQ4ql8Wt3D+bp9FMafV
4rJboSb8yzScKdaUpiqbyzRQxNLM6xxICzyOQqqB1JJ2GKoax1jSb9mWwvbe7ZBVxBKkhUHpXgTT
FVa8vLaztZbq6kWG3hUvLIxoABiqA0DzJpOu2guLCZWO5eAsplQciql0BJXlxqK4qhfOPmmLy9py
TD03u7iQRW0MrhASSOTnvxSvxYqmWjz3lxp8U129vJLICwks2Z4GUn4SjNuajFXXms6RZSrDe31v
bSuKpHNKkbMK0qAxBOKowEEVG4PQ4qhrvVNMs6i7u4bbiodvVkRKKTxDHkRsTtiqJBDAEGoO4I6E
Yqhn1PTUcRvdwq7MUVDIoJZTxIpXqDtiq6HULCaZoYbmKWZK840dWYU2NQDXFVfFXYq7FXYq7FXY
q7FXYq7FXYq7FXYq7FUn83wNP5cvo1BZiisANySrq3b5Zqe3MfHo8g8vuILn9mT4dRE/jk8pvZdQ
sbJv3pVjQcevEH3zzKOlHEOIbvZREMkuTJPygWQz6pKwYqViHM1oWqxpXxztvZmO8+7b9LpvaIio
D3/oelZ1ry7zeKw13UPNXnCy0ye3t4rk20V5NMru4R4XX90FIFaE9cVZ7pGmQ6Xpdrp8BLRWsaxq
zdTxG5NPHriqQW//AJM27/7ZUf8AyfxVNvM+pwaXoF7fz24uooY/ityKh+RChW2barb7dMVYdpDX
J/MDTXuEsoZ5tOkd4rAMFCMeSiQnZjirOdYiWXSbxGQOGgk+EitTxNNvniqRflnFbr5N06SNEEro
/qOoHJqSuPiI3NMVQ35oxRPo+nsyKzDUbdQSATRq1H00xVmKIkaBI1CIooqqKADwAGKvOI4NHudR
87HWVhe7jJ9Mz8eaQCI+mY+W4/Z+z3p7YqynyC1y3k7STcV9T0ABy68ASI/+EpiqVaxplhqP5k2E
N9AlzDHpryCKUBkLCUqCVOx+13xVmgAUAAUA2AHQDFWDNaW0ml+Z53iVplu5gshALAK9RQ9tziqY
LZWtprPlv6vGIy8M6yFQAW4wg/FTqamuKspxV2KuxV2KuxV2KuxV2KuxV2KuxV2KuxVxAIodweox
VjuseRtF1NlZg8A5BpFiICsAakUNeP0ZpNT2Bp8sxIXHvrkf1fB2mm7Wy4hXP3p3Y2NnY2yWtnEs
MEYokaig/tPuc2+LDHHERgKiHX5csskuKRslXyxrQ1vptjbXVzdwQrHc3hU3Mo6uUBC1+QOKonFU
Oun2S3zX4hUXjxiFp/2jGDyC/KuKqs8EFxC8E8aywyArJG4DKynqCDsRiqX6f5Z0DTpVmsbCG3lX
lxkjUBvjADb9e2KpniqA03QdG0t5X0+zitWnp6piXjypWn68VVr/AE2xv4kivIVnjjdZUVugdfst
9GKonFUs1Hyz5f1K4W5v7CG5nQACR1BNB0B8R88VTJVVVCqAqqKKo2AA7DFVBtPsmvlvzCpvEjMK
z/tCMnkV+VcVRGKob9GWHpTxegvp3TF7hezs3UnFV5srVpYJTGDJbAi3bugYcTT5jFVbFXYq7FXY
q7FXYq7FXYq7FXYq7FXYq7FXYq7FXYq7FXYq7FXYq7FXYq7FXYq7FXYq7FXYq7FXYq7FXYq7FXYq
7FXYq7FXYq7FXYq7FXYq7FXYq7FXYq7FXYq7FXYq7FXYq7FXYq7FXYq7FXYq7FXYq7FXYq7FXYq7
FXYq7FXYq7FXYq7FX//Z
									</xapGImg:image>
							</rdf:li>
						</rdf:Alt>
					</xap:Thumbnails>
				</rdf:Description>
				<rdf:Description  rdf:about="" xmlns:dc="http://purl.org/dc/elements/1.1/">
					<dc:format>image/svg+xml</dc:format>
				</rdf:Description>
			</rdf:RDF>
		</x:xmpmeta>
<?xpacket begin='﻿' id='W5M0MpCehiHzreSzNTczkc9d'?><x:xmpmeta xmlns:x='adobe:ns:meta/' x:xmptk='XMP toolkit 3.0-29, framework 1.6'>
<rdf:RDF xmlns:rdf='http://www.w3.org/1999/02/22-rdf-syntax-ns#' xmlns:iX='http://ns.adobe.com/iX/1.0/'>

 <rdf:Description rdf:about=''
  xmlns:pdf='http://ns.adobe.com/pdf/1.3/'>
 </rdf:Description>

 <rdf:Description rdf:about=''
  xmlns:tiff='http://ns.adobe.com/tiff/1.0/'>
 </rdf:Description>

 <rdf:Description rdf:about=''
  xmlns:xap='http://ns.adobe.com/xap/1.0/'
  xmlns:xapGImg='http://ns.adobe.com/xap/1.0/g/img/'>
  <xap:CreateDate>2005-04-04T07:58:17Z</xap:CreateDate>
  <xap:ModifyDate>2005-04-20T12:01:23Z</xap:ModifyDate>
  <xap:CreatorTool>Illustrator</xap:CreatorTool>
  <xap:Thumbnails>
   <rdf:Alt>
    <rdf:li rdf:parseType='Resource'>
     <xapGImg:format>JPEG</xapGImg:format>
     <xapGImg:width>256</xapGImg:width>
     <xapGImg:height>256</xapGImg:height>
     <xapGImg:image>/9j/4AAQSkZJRgABAgEASABIAAD/7QAsUGhvdG9zaG9wIDMuMAA4QklNA+0AAAAAABAASAAAAAEA&#xA;AQBIAAAAAQAB/+4ADkFkb2JlAGTAAAAAAf/bAIQABgQEBAUEBgUFBgkGBQYJCwgGBggLDAoKCwoK&#xA;DBAMDAwMDAwQDA4PEA8ODBMTFBQTExwbGxscHx8fHx8fHx8fHwEHBwcNDA0YEBAYGhURFRofHx8f&#xA;Hx8fHx8fHx8fHx8fHx8fHx8fHx8fHx8fHx8fHx8fHx8fHx8fHx8fHx8fHx8f/8AAEQgBAAEAAwER&#xA;AAIRAQMRAf/EAaIAAAAHAQEBAQEAAAAAAAAAAAQFAwIGAQAHCAkKCwEAAgIDAQEBAQEAAAAAAAAA&#xA;AQACAwQFBgcICQoLEAACAQMDAgQCBgcDBAIGAnMBAgMRBAAFIRIxQVEGE2EicYEUMpGhBxWxQiPB&#xA;UtHhMxZi8CRygvElQzRTkqKyY3PCNUQnk6OzNhdUZHTD0uIIJoMJChgZhJRFRqS0VtNVKBry4/PE&#xA;1OT0ZXWFlaW1xdXl9WZ2hpamtsbW5vY3R1dnd4eXp7fH1+f3OEhYaHiImKi4yNjo+Ck5SVlpeYmZ&#xA;qbnJ2en5KjpKWmp6ipqqusra6voRAAICAQIDBQUEBQYECAMDbQEAAhEDBCESMUEFURNhIgZxgZEy&#xA;obHwFMHR4SNCFVJicvEzJDRDghaSUyWiY7LCB3PSNeJEgxdUkwgJChgZJjZFGidkdFU38qOzwygp&#xA;0+PzhJSktMTU5PRldYWVpbXF1eX1RlZmdoaWprbG1ub2R1dnd4eXp7fH1+f3OEhYaHiImKi4yNjo&#xA;+DlJWWl5iZmpucnZ6fkqOkpaanqKmqq6ytrq+v/aAAwDAQACEQMRAD8A9U4q7FXYq7FXYq7FXYq7&#xA;FXYq7FXYq7FXYq7FXYq7FXYq7FXYq7FXYq7FXYq7FXYq7FXYq7FXYq7FXYq7FXYq7FXYq7FXYq7F&#xA;XYq7FXYq7FXYq7FXYq7FXYq7FXYq7FXYq7FXYq7FXYq7FXYq7FXYq7FXYq7FXYq7FXYq7FXYq7FX&#xA;Yq7FXYq7FXYq7FXYq7FXYq7FXYq7FXYq7FXYq7FXYq7FXYq7FXYq7FXYq7FXYq7FXYq7FXYq7FXY&#xA;q7FXYq7FXYq7FXYq7FXYq0XQMFLAM32VJ3NPDImcQQCdymjzbySHYq7FXMyqCzEBRuSdhgJAFlBN&#xA;LIpopV5ROrr4qQR+GRhkjMXEghEZiQsG1+TZOxV2KuxV2KuxV2KuxV2KuxV2KuxV2KuxV2KuxV2K&#xA;uxV2KuxV2KuxV2KuxVZNPDBGZJnEca9WY0GU588MUTOZEYjqWUIGRoCyxvUvN43jsF9vXcf8RX+u&#xA;cN2p7Zc46Yf5x/QP1/J22DszrP5McmubiaUyyyM8h35k7/RnD59Tkyz45yMpd7tY44xFAbJlY+Zt&#xA;TtqK7fWIx+zJufobr9+bzQe1OrwbSPiR7pc/9Nz+duJm7Pxz5ek+TIbHzPptzRZG+ryH9mT7P0N0&#xA;++mdtoParS59pHw5f0uX+m5fOnV5uz8kOXqHkq32vWdsOKH1peyodvpbNjqu1cWMek8UvL9bpdRr&#xA;I49ucmOX2qXl4f3r0j7Rrso/r9Oc3qtdkzH1Hbu6OnzameTmdu5DxTTQvzidkbxUkH8MxseSUDcS&#xA;QWmMzE2DSa2vmW8joJ1Ey+P2W+8bfhm3wdtZI7THEPkXOxdozH1bpxa67p9xQc/Sc/sybfj0zc4O&#xA;1MOTrwnz/FOxxa3HPrR80wBBFRuD0ObEFy3Yq7FXYq7FXYq7FXYq7FXYq7FXYq7FXYq7FXYq7FXY&#xA;q7FXYq7FUq8y602j6eLpY/ULSCPfovIE8iO/TNR232hPSYOOABkTW/Ic93N0Gk8fJw3W1sKm1aXU&#xA;m9WSf1fAdAtfBe2eTa/W6jUT4s0jL7h7uj0MNMMQoClPMFk7FXYqslliijMkrBEXqx2GGMTI0OaQ&#xA;CdglUPmT1tSgt7f4LdnAeRv2h7A9M3/Z+CeMiz8Ojg9tdmYzpZ5JxHHGO39rJs3T5g7FVG7vLWzg&#xA;ae6lWGFersaD5fPG2UYmRoMQ1XzXe31YtP5WlqdjcH+9cf5I/YHv1zrOxvZPNqqnlvHi/wBkfcOn&#xA;vPyL0fZ/YMp1LJsHaV5s8w6WI0tb1/RjAVYZDzSg/wAlq0r3I3z0mHY+mhjGOMajH5/Pq9R+RxcP&#xA;DTMdK/NlDxTVbPie81uaj/gGP/G2a/P2F1xy+B/W4mTsz+afmzHS/MuhaoALK8jkkP8AuonhJ/wD&#xA;UbNPn0eXF9UT+h1+TTzh9QTPMZpdirsVdirsVdirsVdirsVdirsVdirsVdirsVdirsVdirHfP0XP&#xA;y1O1P7p42+9wv/G2aD2mhejke4xP21+l2vY0q1A8wfueWI7IwZSVYdCNs8zezIB5o+31iVaCYcx/&#xA;MNjlE8APLZxZ6UHkmcF1BOKxuCe46H7sxp4zHm4k8co80LqOr2tktGPOb9mIdfp8MuwaWWTflHvZ&#xA;4sEp+5i1/qV1eycpm+EfZjH2Rm6w4I4xQdnjwxhyQ8X94vzzJx/UHW9vf4ll/qpvZ6vf2lBFISg/&#xA;3W/xL/Z9GZ744jL/AM9xWdl6j2/78ninxfu6nux65fpdNPPljjxi5y5OVpNKc8xAMdmu59SkF3dz&#xA;i5b/AHWFP7pP9RRt9PXPU+xfZTDpankrJl/2MfcP0n4U9xoOyceAWd5N51rtnYq7FWwSDUdcVR2h&#xA;/mprFr5i0vQ7W8N2L27gtZRMfUSNZZVjNGPxVAboDmj7QwYDEkR9QHTZ1uqx4qNDd77nLuldirsV&#xA;dirsVdirsVdirsVdirsVdirsVdirsVdirsVSjzbF6vlu/Xwj5f8AAEN/DNV23Di0eQf0fu3c7s2V&#xA;aiHveQZ5S924Ak0G5PbFCsIWT4iaMOlO2WcFc2BkCkLli7ciWapqx6k5sacgLcUrov7xfnlmP6g6&#xA;jt7/ABLL/VRLMB886Ps/sjLqTf0w7/1d74hqdbDFtzl3IHUqPBRgCCeh6Z6D2NoMWnyREBv1PUur&#xA;w6vJPKJXVcq6JKLP0n9S0ka3k78d1PzU7Z2NPYaL2n1GLaf7yPnz+f67RMWsXcFFvIeaf7/h3+9T&#xA;i9fou3tNqNhLhl3S2/YUytr21ul5QSK47gdR8x1wu5XXNzBbQtNO4jiX7TN0yMpACygkDmwjXfN1&#xA;xecrezrDbbhn6O4/41Ga/NqTLYcnEyZidhyVfyyh9b8wfL6bbXsT7/5Dc/8AjXNdqT+7l7nEzfQX&#xA;2FnPOqdirsVdirsVdirsVdirsVdirsVdirsVdirsVdirsVQmsRerpF7F/PBKv3oRmJr4cWDJHvhL&#xA;7m/Sy4csT/SH3vGra0muGpGNh9pj0GeR48UpnZ77JkERumK2cduu3xP3Y5mDCIDzcQ5TJCz98om3&#xA;wY1J/eN8z+vMwOYOS3J48cpyEYiyWGXLHHEykaiOa5NmBzuOyvZuMCJ5vVL+b0+Pf93vfL/ab2sO&#xA;bDPFgFQI3keZ93d9/uVM68Ctg+TkobUP7kfPMzQ/30fj9xcnSfWl2dI7V2KoG/8AqUC+tITFL+w0&#xA;Z4uT7UycMZkaDuuze1dViNQlce6W4/Z8GL6vqN5dzATys6IBwUnYVHtTf3zV6yxkI7nv45TkjGR6&#xA;gH5oDMRWa/kxD635m6Gm20kz79Pgt5H/AONcxtYf3Ras/wBBfWmaB1bsVdirsVdirsVdirsVdirs&#xA;VdirsVdirsVdirsVdirTqHRlPRgQfkcEhYpING2I3/lOa1j/ANAHqwL0jGzj/mr9ftnIavsGeMfu&#xA;vVHu6/t/GzvMPaQmfXsfs/Yxe6VkZlYFWU0ZSKEEeIzm8sSDR5u4xkHcJbP3zBm5kGNzf3r/AOsf&#xA;15lx5BzAozKTDJT+Un8M2/YmGc9Xj4BdTjfutwO1Y3pMv/C5fcUJbXPABRJR/wCSTp9Bz2OWkHxf&#xA;n/WzlM8JHCjkukrxkBjb36ffmNPDKLqZ4SFl+QYQR0rl2g/vo/H7i2aT60uzpHaJfqGrRWoKJR5/&#xA;5ew+eX4sBlv0crBpjPc7Bj088s8hklYsx7n+GbGMREUHaRgIiggLr+/b5L/xEZyut/vpe97fB/dw&#xA;/qR/3IUsxWx6H+QkPqfmVYvQfuYbh9+u8TJt7/HmHrj+6LRqfofU2aN1rsVdirsVdirsVdirsVdi&#xA;rsVdirsVdirsVdirsVdirsVdiqV69ZaHLavPqZSFEFPrJIRl8KN39hvmFrOz8OoHrG/f1/H2OZo8&#xA;uYSAx2T3PJ768003ckdpK8kAP7uWReHL6Kn8c4vtH2dzYvVj/eR/2Xy6/D5PbYcWThBkKl3DdIZY&#xA;y08h7cjv9OHsvsfJnAMvTDv/AFOZEbNSqBA4A24n9Wd92dpoYJRjAUOINGvH+D5B/Ql9xSQgEUO+&#xA;d0Rb4pOAkKIttHljFFaq/wAjbjKpYgXXZezh/Aa8ipz3hfjDAD6rNx4AgrX6cqxwhjmJy6Ou4PDy&#xA;ASG6A1m71G0VYmiMLOP73qD/AKp6ZvdJ4eXeJt22n08TvzY+SSancnqc2TsGsVQ16ALkgfyofvQZ&#xA;yOqN5Ze97bF9Ef6o+5fpmmX+qXsVjYQNcXUxpHEgqT7nwA7k9MwtRqIYYGeQ8MR1Zk0+g/yl8g2P&#xA;ljUo5rhlu9bnjdJpVJ9KBeNSkf8AMSRQsfozz8e1p1mtGDGP3W/v2BP4DVqMUjjMjsHrmb51bsVd&#xA;irsVdirsVdirsVdirsVdirsVdirsVdirsVdirsVdiryH/nIe4vLSy0O9tpDG0c08bU6HmqNQjofs&#xA;d8nAW917EQhOeWEhdxiflf63mOl+c7eWkd+vov09ValD8x1GE4+56/UdlSjvDcd3VkcckciB42Do&#xA;26spqDlbqpRINFz/AGG+RyeP6h73H1IvFIf0T9yQu6IpZyFUdSc7Z8RQPrXd/IYbNSsY+3Mdshky&#xA;xxiyxyZI4xck4sNMt7SNQPjkBr6jDevt4ZqM2c5DvydPmnxz4iF2pSq4RJVDKa1BFQenUHKtOJQk&#xA;TA05WnybbpHdaDazAtbN6T/y9V/qM3un7alHbILc2M0mu9Pu7U/voyF7ON1P05vsGqx5R6S2CQKJ&#xA;0TyjrHmXV2t7CPjDGqG5u5Nool4Ddm8T2UbnOF7c7WwaPinlPU0Op/He9vDaIHkPue0+XfLmj+Wr&#xA;I2ulqWmkAF3qDiksp8B/Ingozwzt72lza6fOoDkPx9/3Odh03WXNk/lVa6xGfBXP4UweyUb10fKM&#xA;vuY9on90fgzfPWXnXYq7FXYq7FXYq7FXYq7FXYq7FXYq7FXYq7FXYq7FXYq7FXln/ORVuJPJVnMP&#xA;tQ6hH/wLRSg/jTJ4+b2fsPOtZId+M/fF855c+qozT9Vv7B+VtKVB+1Gd0PzGAgFozaaGUeoMiHnu&#xA;0SxeS5gcTqNkTdWJ26n7OQEKLoNb2aYDY7HZdb6Tf3vp3F8rwWzgPFEylCynoQGHT3zov5VwzB8K&#xA;QnXOun7X5510paaRxkesfL59U6hhihjEcShEXoozClIyNl0spGRsr8ixQWo9Y/p/hl2HmXKwckGC&#xA;RuMuIbkfp9rJdBmlIjs02mnYVA/yQP2mPhmn7T7ThoxYN5D9MR1/UPNysEDPn9Pe9PSC2s7dbKzi&#xA;S3tUo3pxqEDMwBLMB3OeC9o9q59ZMzymy+l6TDGMAeZprNe5adeUQDqxPhExH3gZ1XscL1n+Yf0O&#xA;v7T/ALr4s0z1R592KuxV2KuxV2KuxV2KuxV2KuxV2KuxV2KuxV2KuxV2KuxVgH56W/q/lxfv/viW&#xA;3k++ZU/43ycOb03shOu0ID+cJD/Yk/ofL+XPsTsVUrpylu7A0YceJ9wwOAi9nC7QjxY66Pa4r2RY&#xA;/RlUTwf76k3p/qnqM8qxZZ4pceORjLvD84kiQqQ4gpyaXbXPxWMnCT/lmlNCf9Ru+ddoPasj06gf&#xA;50f0j9Xydbn7LB3xH4FLpoJoJDHKhRx1Uimdjg1GPNHjxkSj5OnyY5QNSFFLtR6x/T/DMzDzLfg5&#xA;KtnpieiLy+JjtT/doNpJSOyV6DxbNH2v29HATixerN9kff5/0fm7DFp7HFLaP3t3d49xxUKIoI9o&#xA;YE+yo/iT3PfOMPFKRnI8U5cyev46Do3yle3IPTpvt/7Ff+IjPMqp9J0/92Pcsxbk+8mg/pKU9hCR&#xA;97LnYexQ/wAKkf8Aaz/uout7UP7sf1v0FmGenOhdirsVdirsVdirsVdirsVdirsVdirsVdirsVdi&#xA;rsVdirsVYp+att9Y/LzXI6V42/qdv91Osnf/AFclHm7v2cycOvxH+lXzFPkvL3212KqF8P8ARn9q&#xA;frGLjaz+7L2G3NYIzWtVU1+jPKcg9R97835RUz71TINaKS+5R+jdoLiHsG+0v+q3XLtPqMmCXHik&#xA;Yy+/3jkUz4ZipjiCBv4NFtnS5HK4ND6No4oA3jIR1A8O+dLH2i1WbEYACEusx3f0R0Pn06OINLix&#xA;Gxv5frSm5up7mYyzNyc7ewHYAdgMwYQERQRKRkbKjkmL1e4UrKVOxAUEe4AzzORs2+mYBUAvsrK4&#xA;vLhYIF5O3fsB4k+GZWi0OXU5Bjxi5H7PM+TLLljjjxSZxpOkW+nQcU+KZh+9l7n2HtnrfY/Y2LRY&#xA;6jvM/VLv/Y85qdTLKd+Xcj83DjOxV2KuxV2KuxV2KuxV2KuxV2KuxV2KuxV2KuxV2KuxV2KqN5Z2&#xA;t7aTWd3Es1tcI0c0TiqsjChBxbMWWWOQnE1KJsF4x51/5x7VvUvPKk3E7sdMuG2+UUp/U/8AwWWD&#xA;J3vf9le2xFQ1Q/zx+kfq+TxnVNJ1PSrx7LUrWS0uo/tRSqVPzFeo8CNstBe+0+px5oCeOQlE9QgJ&#xA;1BgkBFfhY/cK4sdZ/dH4fe9Y01g2nWrDcGGMg/NRnlmpFZJf1j97856wVmmP6R+9E5S47sVS/Vf9&#xA;1f7L+GbPRfSfe0ZkvzMaXYq9jTT7i+1J4YBvWrMeiinU55/2b2dl1eQY8Y6Cz0A7y+kHNHHjssy0&#xA;zS7bT7cRRCrn+8lPVj/T2z17srsrFosfBD6usup/Z3B0Go1EssrKMzZtDsVdirsVdirsVdirsVdi&#xA;rsVdirsVdirsVdirsVdirsVdirsVdirsVSvzB5Y0HzDZmz1izjuot+DMKOhPeNxRlPyOEGnM0XaG&#xA;fSz48UjE/YfeOReI+cv+ce9ZtmeXyxML+2l+AWs7LHNHz+H7Zojqtak7H2OWDJ3ve6T2yxZcZhqB&#xA;wTrmN4mvtH2uXTptMA02dlaaxH1aVkrxLRfAxWtDSq55nrBWaf8AWl975Tq8gnmnIdZE/a3mM47s&#xA;VS7VftR/I/wzaaL6D72jLzQGZbSnHlnyvqXmG/FrZrxRd57hq8I18T4k9h3y/T6eWWVBtxYTM0H0&#xA;Jb2tvbhhCgQOeTU7nN/o9Dh00eHFERD0E8kpcyq5lsHYq7FXYq7FXYq7FXYq7FXYq7FXYq7FXYq7&#xA;FXYq7FXYq7FXYq7FXYq7FXYq7FWPa/5I0fVuUoX6reNU+vEB8RPd16N+v3zVa3sjFn3+mfeP0tU8&#xA;Il73nOu+UdZ0di00Xq23a5i+JP8AZd1+nOU1nZmXBuRce8fjZw54jFJc17Wl2q/aj+R/hm00X0H3&#xA;tGXmmPlHydqHmO84RfurKIj6zdEbKP5V/mY+H35tdNpZZTty704cByHye56Noun6NYR2NhH6cKbk&#xA;ndmY9Wc9yc6PFijjjwxdxjxiAoI7LGbsVdirsVdirsVdirsVdirsVdirsVdirsVdirsVdirsVdir&#xA;sVdirsVdirsVdirsVdirmUMCrAFSKEHcEHEi1Ylr35d6XfcprCllcnfio/dMfdR9n/Y/dmj1nYeP&#xA;JvD0S+z9nwaJ4AeWzD7X8sNZvdYW3vx9WsYN5rhSG5g9Fi9zTuNu/hmHoeyskSYz2F8/1OJ+VlKW&#xA;/J6rp2nWWnWcVnZRCG3hFERf1nxJ7nOlhAQFDk7CMREUERk2TsVdirsVdirsVdirsVdirsVdirsV&#xA;dirsVdirsVdirsVdirsVdirsVdirsVdirsVdirsVdirsVdirsVdirsVdirsVdirsVdirsVdirsVd&#xA;irsVdirsVdirsVdirsVdirsVdirsVdirsVdirsVdirsVdirsVdirsVdirsVdirsVdirsVdirsVdi&#xA;rsVdirsVdirsVdirsVdirsVdirsVdirsVdirsVdirsVdirsVdirsVdirsVdirsVdirsVdirsVdir&#xA;sVdirsVdirsVdirsVdirsVdirsVdirsVdirsVdirsVdirsVSVPO3k9/MZ8srrNm3mBRyOlieP6xs&#xA;vMj068uXD4uPXjv0xVOsVdirsVdirsVeKfnr+c975dn/AMNeXZBHqrIHv72gYwK4qsaAinqMp5cv&#xA;2RSm5233ZPZgyjxJ/T0He4Oq1Jj6Y82FeXvyR/M3zXYprmray1m14okhF5LNLcOjbqzAfZBBqATX&#xA;2zPzdq6fCeCMbruqnHhpckxZL2f8pfIes+TNFvNO1TUF1Bprn1oJELkKhRV40fp8QJ2zRdo6uGeY&#xA;lEcOznafEYCiba/NDzrc6DaQ2OnME1C8BYy9TFENqgH9pjsD7HHQaUZCTL6QufLwihzYbov5f+av&#xA;MWkHWZNSKyzhmt0neR3k4kirNX4akbdczsusx4pcHDyaI4ZSF2rfl7541jTtdj0TV5pJrWaT6txm&#xA;JZ4ZuXFaManjy+Ej6cGs0sZQ448+fvThykGi9mzROc7FXYq7FXYq7FXYq7FXYq7FXYq7FXYqw/8A&#xA;N7zlc+TPy213zJaKrXljAq2vIVUTTyJBEzDuFeUMR3xV8t/k7+UN/wDnYNW80ecvMl7IttcfVkCs&#xA;JJ2lKrIxrLyWOMBgFVV+VKYq+jvyg/JbTPyybV003VbrULXVPq3GG6CVhNv6tSpTiDz9bf4R074q&#xA;jPP352flx5EuVs/MGqBNRdQ40+3R55wp6M6oCEB7cyK9sVb8gfnV+XXny4ktPL2p+pqESmR7CeN4&#xA;J+ANCyq4AcDvwJp3xVMNf/M3ydoHmvSvKuqXjQazrQU6fD6blH9RzGtZAOC1dabnFUgk/wCch/ym&#xA;/T7aFb6z9cvY0meV7WGWWFRbRPNJ+9C8GokZ+wTiryvyjJ/zjx5j/PO18z6NrmpXHmPULl7m10t4&#xA;ZI7Y3XpMWcu0SsFoCwUv9r2+HFX0P5n81eXvK2jy6x5gvo9P02GgeeWu7HoqKoZ3Y9lUE4q850n/&#xA;AJyn/JjUtRSxGryWjSNwjuLq3lihJJoKyUIQHxeg8cVeqXeoWNnYy393cR29jBGZprqRgsSRqORd&#xA;nJoFA3riryW8/wCcsPyWtr1rZdTuLhVbi1zDazGLrQkFgrEDxC/KuKvTfLvmfRPMegWuv6Rc/WNJ&#xA;vEaSC5KvHVVYqxKyBWFGUjcYq+MV1zT9X/MAa3r7H9HXWo/W79eJcmD1ebRhR/kfAM7/AMKUMPBD&#xA;6hGh73Q8QlO5cre3S/8AOVmgLc8IdBumtK0ErSxpJT/jGAy/8PmhHs/Ot5C3O/PjuepeR/Pvl3zn&#xA;pZ1DRpWPpEJdWsoCzQsRUB1BPXsQSD9BzUarSTwS4Z/2uXiyxmLDyn827lpvOtzGTUW0UMSjwBQS&#xA;frkzcdnRrEPO3E1B9b2XyvEsXlrSo16LZwDw/wB1Lvmizm8kveXNx/SHg/nX/RfOuqPD8LJdtKp8&#xA;GJ51+850Wl3xRvudfl2mX0TE4kjSQbBwGAPuK5zJFOzXYFdirsVdirsVdirsVdirsVdirsVdiqRe&#xA;evKVl5v8oar5avWMcGpwGL1QKmNwQ0cgHfhIqtT2xV8UCH85v+cffMzzKhjsblwjS0M2mXypUqCf&#xA;howBNPsyD5Yq+pPyq/Pny/5+8r6hqUUDWer6PA0+p6UW5EKqlg8T0HNG406VB2PYlV8yfkZ5m8na&#xA;l+bOp+bfzMvrarwzXUDXw5xNeSyIq0Uhh+7jLcFpttTpiq7z95i8laL/AM5AaP5j/L64txpSzWdz&#xA;ObEFIBI0hS5jCqBQSR/aAH7RxVkP/OazvH+YWgSRsUdNLVkdTQgi5lIIIxV7l+Wv/OPn5aeW9L0e&#xA;/wD0St1r0dsrXOoTySuXlmh4zfui/pcCHZePGlPE74q8F0Czs7L/AJzIFpZwR21rDqlwsUEKLHGi&#xA;/VH2VVAAHyxVd/zlx5mm1b81dO8r3NwbfRtJigEm/wAKyXZDyzH5RFB9Hviqa/8AOQ2o/kLqH5dW&#xA;kPkyfTDrWlzQR2a2KBJjbUZXR24qXXfkeRJrv44qr3d55l80f84a2y2fq3M2lTiDUFQFmaysp2K7&#xA;D9mJPSJ9lriqX/8AOMnnr8mLDQ5fLXm2xs4NavLpmGpajbxSwTxuFCRGZ1b0gvH7L0TvWpxV9Xw6&#xA;XpWl+XnsdJtobPToYJPq9tbIscKK4ZzwVKKASxO2Sh9QRLk+Lfy80C38wedtG0e5BNtd3Ki4VTQm&#xA;JKvIAe1VUiud9rMxx4pSHMB0OGHFMB9Sfmd+Xvla8/L3VYbfS7a2m0+zlubCSCJI3je3Quqqyhdm&#xA;4cSM5HQazJHPEmRPEaPxdtnwxMDtyeIf8416rdWn5jLZRsfQ1G1mjnSu1Yl9VGp4gpT6Tm/7cxg4&#xA;L6xI/U4GilU672ZfmojL561EnowgK/L0EH8Mwez/AO5Hx+9vz/WXt3l0g+X9MI3BtIKH/nmuaHN9&#xA;cveXPh9IeC+f/wDlMtW/4zn9QzotH/dR9zrs31F9DWoK20IIoQigg9QaZzMubsgqYEuxV2KuxV2K&#xA;uxV2KuxV2KuxV2KuxVB6vrGk6Np8mo6teQ6fp8JQTXdzIsUSeo4jTm7kKtXYDc4qxbzp5z/KmXyl&#xA;qH+ItW0y80KaBxcQevDN6oAJ4xIrEtJUfBx35dMVfLn/ADh95fv9U84+Y3QvHpx0Seyu5lFRzu5I&#xA;xEu/ekbsP9XFUj/Ie28laL+aN95e/MuwtBE0U1iP0mqGGC9ilUjmZPhTkEZQx9vHFX1M3k//AJxz&#xA;tru0iOn+Wo7u5mjhsoh9V9WSd2CxpEoPJmLEUAxV4H/zm1/yn+hf9sof9RMuKvsDSf8AjlWX/GCL&#xA;/iAxV8f6Z/62k/8A21bj/qDfFUJ/zlvoc+j/AJv2XmC5t/rGmapb28yhh8EjWhEU0Jr/AJCoT7Ni&#xA;r3rR9A/5xl1bRoNYtNP8tixnjEgaVbWJkBFSsiuQUZejA9MVZjouofln5f8ALNpJpF3pWmeWr6Zo&#xA;7GWGWGGzmmflyWN6iN2b0m6HehxV81/85WeRPyn0rS7LzB5aktbLXr26WOXTrCSMwzQtGzNN6KGk&#xA;fEqvxIADXcVNcVez/wDOL17q17+SuiPqTNJ6bXEFo77k20U7pGN+y0KD2AxV4PYxf4B/NyCPUFKW&#xA;+j6kBISCT9WL7SDuawsHGd1M/mNMeHnKP2/2ujH7vJv0L6Q/NHz55bs/y51a4g1O2uH1G0ltdPEE&#xA;ySGV50MQMfAmvDlyJ7Uzl9BpMks8QYkcJs7dztM+WIgd+bxf/nGXQLq889S6uEItNLtn5y9vVnHp&#xA;onzK8z9Gb3t3MI4eHrI/c4Ohhc77noH50aVLDr1tqIX9xdwhC/b1IiQQf9iVzW9mZAYGPcXI1Md7&#xA;Z15F8z6TN5Os5JrqOE2ECwXSuwUp6I4gkeBUAjNfq8EhlNDmXIxTHD7nkaRt5n88sIVLR6hes9Kb&#xA;iEuWJP8Aqx5uSfCw7/whw/rn7y+ic5l2TsVdirsVdirsVdirsVdirsVdirsVdiqT+b/KeiebvLt5&#xA;5e1yJp9LvgguI0do2PpSLKhDoQRR41OKvJ0/5w7/ACfW4Ep/STJWvoG6XhTwqIw9P9lir1byj5L8&#xA;r+UNIXSfLmnx6fYqebJHUs70ALyOxZ3ag6sScVYx+YH5Eflr57vP0hrenMmqFQjajaSNBMygUHOl&#xA;UegFAXUkdOmKpH5W/wCcWvyn8u6zZ6xbwXt3fafPHdWbXNyxVJoWDxvxiEXLiyg0ao8a4qn35ifk&#xA;f5D/ADA1S21PzFFcSXVpB9WhMExiX0+bPuADU1c4qzyCFIII4Y/sRKEWu5oooMVYHD+R/kOH8wj5&#xA;+SK4/wAQmd7kyGY+l6jxmM/u6UpxbFWSeb/JXlfzhpDaR5k0+PULFmDqj8lZHGweORCro29KqRtt&#xA;0xV5WP8AnDz8nxceqRqRjqT9XN0OHyqI+f8Aw2Ks21n8lvy+1fyPYeSbmykXy/pconsYI55Q8coE&#xA;g5eoWZm/v32ao3+WKsN07/nEL8nbS7S4lgv75FNfq1xdH0z8/SWJ/wDhsVeyWNjZWFlBY2MCW1nb&#xA;IsVvbxKEREQUVVUbAAYqw/8AMP8AKPyt534T3yva6nEvCLULegfj1CyKQVdQfHfwIzP0faOTT7De&#xA;PcWjNp45OfN5/af84o6QtwGu/MNxNb13jit0ielOnNnlH/C5spe0Eq2gL97jDs8dS9f8q+U9C8ra&#xA;RHpWi2wt7VDyck8nkcgAySMd2Y0/gNs0uo1E80uKZsubjxiAoIrWtE03WtPex1CISwPuOzKw6Mp7&#xA;EZDFllCVxTKIkKLz+b8jrEykw6tKkVdkeJXan+sGQfhmyHap6xcc6Ud7K/KnkTRPLfKS1DTXkg4v&#xA;dS0LcevFQAAozD1Grnl58m3HiEWR5itrsVdirsVdirsVdirsVdirsVdirsVdiqldXVvawNPcOI4k&#xA;pyc+5oPxynUaiGGBnM1EM8eOU5cMRZY/P5zQTgQ2/OAdWY0Y/LrTOJz+20RkrHjvH5mifd3fjk7S&#xA;HZR4dzumul67p+pNJHbufWiAaWJhuoatK023pnUdl9r4tbHihYI5gj8AuFqNJPFRlyPVMM2jisTv&#xA;vPF7DqGrW1ro73kOjcGvJkmRSEdC/IIwqaBTsMVZHpmo2+padb39sSYLmNZI67EBhWh9x0OKpfFr&#xA;dw/m6fRTGn1eKyW6Em/Ms0nCnWlKYqm8s0UMTSzOscSAs8jkKqgdSSdhiqGsdY0m/ZlsL23u2QVc&#xA;QSpIVB6V4E0xVWvLy2s7WW6upFht4VLyyMaAAYqgNA8yaTrtoLiwmVjuXgLKZUHIqpdASV5caiuK&#xA;oXzj5pi8vackw9N7u4kEVtDK4QEkjk578Ur8WKplo895cafFNdvbySyAsJLNmeBlJ+EozbmoxV15&#xA;rOkWUqw3t9b20riqRzSpGzCtKgMQTiqMBBFRuD0OKoa71TTLOou7uG24qHb1ZESik8Qx5EbE7Yqi&#xA;QQwBBqDuCOhGKoZ9T01HEb3cKuzFFQyKCWU8SKV6g7Yquh1CwmmaGG5ilmSvONHVmFNjUA1xVXxV&#xA;2KuxV2KuxV2KuxV2KuxV2KuxV2KuxVJ/N8DT+XL6NQWYorADckq6t2+WantzHx6PIPL7iC5/Zk+H&#xA;URP45PKb2XULGyb96VY0HHrxB988yjpRxDiG72URDJLkyT8oFkM+qSsGKlYhzNaFqsaV8c7b2Zjv&#xA;Pu2/S6b2iIqA9/6HpWda8u83isNd1DzV5wstMnt7eK5NtFeTTK7uEeF1/dBSBWhPXFWe6RpkOl6X&#xA;a6fAS0VrGsas3U8RuTTx64qkFv8A+TNu/wDtlR/8n8VTbzPqcGl6Be389uLqKGP4rciofkQoVtm2&#xA;q2+3TFWHaQ1yfzA017hLKGebTpHeKwDBQjHkokJ2Y4qznWIll0m8RkDhoJPhIrU8TTb54qkX5ZxW&#xA;6+TdOkjRBK6P6jqByakrj4iNzTFUN+aMUT6Pp7Misw1G3UEgE0atR9NMVZiiJGgSNQiKKKqigA8A&#xA;BirziODR7nUfOx1lYXu4yfTM/HmkAiPpmPluP2fs96e2Ksp8gtct5O0k3FfU9AAcuvAEiP8A4SmK&#xA;pVrGmWGo/mTYQ30CXMMemvIIpQGQsJSoJU7H7XfFWaABQABQDYAdAMVYM1pbSaX5nneJWmW7mCyE&#xA;AsAr1FD23OKpgtla2ms+W/q8YjLwzrIVABbjCD8VOpqa4qynFXYq7FXYq7FXYq7FXYq7FXYq7FXY&#xA;q7FXEAih3B6jFWO6x5G0XU2VmDwDkGkWIgKwBqRQ14/Rmk1PYGnyzEhce+uR/V8HaabtbLiFc/en&#xA;djY2djbJa2cSwwRiiRqKD+0+5zb4sMccRGAqIdflyyyS4pGyVfLGtDW+m2NtdXN3BCsdzeFTcyjq&#xA;5QELX5A4qicVQ66fZLfNfiFRePGIWn/aMYPIL8q4qqzwQXELwTxrLDICskbgMrKeoIOxGKpfp/ln&#xA;QNOlWaxsIbeVeXGSNQG+MANv17YqmeKoDTdB0bS3lfT7OK1aenqmJePKlafrxVWv9Nsb+JIryFZ4&#xA;43WVFboHX7LfRiqJxVLNR8s+X9SuFub+whuZ0AAkdQTQdAfEfPFUyVVVQqgKqiiqNgAOwxVQbT7J&#xA;r5b8wqbxIzCs/wC0IyeRX5VxVEYqhv0ZYelPF6C+ndMXuF7OzdScVXmytWlglMYMlsCLdu6BhxNP&#xA;mMVVsVdirsVdirsVdirsVdirsVdirsVdirsVdirsVdirsVdirsVdirsVdirsVdirsVdirsVdirsV&#xA;dirsVdirsVdirsVdirsVdirsVdirsVdirsVdirsVdirsVdirsVdirsVdirsVdirsVdirsVdirsVd&#xA;irsVdirsVdirsVdirsVdirsVdirsVf/Z</xapGImg:image>
    </rdf:li>
   </rdf:Alt>
  </xap:Thumbnails>
 </rdf:Description>

 <rdf:Description rdf:about=''
  xmlns:dc='http://purl.org/dc/elements/1.1/'>
  <dc:format>image/svg+xml</dc:format>
 </rdf:Description>

</rdf:RDF>
</x:xmpmeta>
                                                                                                                                                                                                                                                                                                                                                                                                                                                                                                                                                                                                                                                                                                                                                                                                                                                                                                                                                                                                                                                                                                                                                                                                                                                                                                                                                                                                                                                                                                                                                                                                                                                                                                                                                                                                                                                                                                                                                                                                                                                                                                                                <?xpacket end='w'?>
			</metadata>
		<g id="_x30_1">
			<rect fill="none" width="352" height="352"/> 
		</g>
		<g id="_x32_4">
			<path d="M82.136,289.623c-2.612,0-5.184-0.329-7.715-0.984v-4.279c2.772,0.754,5.231,1.131,7.378,1.131
				c2.035,0,3.625-0.457,4.771-1.37s1.718-2.211,1.718-3.894c0-1.586-0.473-2.832-1.418-3.738c-0.945-0.904-2.7-2.086-5.263-3.545
				c-2.804-1.569-4.695-3.151-5.672-4.746c-0.978-1.594-1.466-3.408-1.466-5.442c0-3.237,1.085-5.668,3.257-7.295
				c2.171-1.626,5.003-2.438,8.496-2.438c2.532,0,4.863,0.24,6.994,0.722v4.183c-2.259-0.514-4.358-0.771-6.297-0.771
				c-1.762,0-3.172,0.418-4.229,1.25c-1.058,0.834-1.586,1.988-1.586,3.462c0,1.426,0.46,2.567,1.382,3.425
				c0.922,0.857,2.496,1.902,4.723,3.137c3.076,1.715,5.135,3.373,6.177,4.975c1.041,1.603,1.562,3.404,1.562,5.408
				c0,3.604-1.069,6.309-3.208,8.11C89.601,288.723,86.398,289.623,82.136,289.623z"/>
			<path d="M119.364,288.396c-2.692,0.816-5.488,1.227-8.388,1.227c-4.198,0-7.346-1.21-9.445-3.629
				c-2.099-2.42-3.148-6.049-3.148-10.889c0-4.276,1.03-7.742,3.088-10.395c2.059-2.65,4.931-3.979,8.616-3.979
				c3.396,0,5.98,1.127,7.75,3.377c1.77,2.252,2.656,6.414,2.656,12.486h-15.309c0,3.012,0.577,5.271,1.73,6.776
				s2.884,2.259,5.191,2.259c1.923,0,4.342-0.408,7.258-1.227L119.364,288.396L119.364,288.396z M105.184,273.04h8.892
				c0-3.302-0.353-5.576-1.057-6.826c-0.705-1.249-1.73-1.874-3.077-1.874c-1.506,0-2.651,0.674-3.437,2.02
				C105.719,267.705,105.28,269.932,105.184,273.04z"/>
			<path d="M125.805,289.238v-28.096h3.797l1.273,4.662c0.785-1.634,1.867-2.863,3.245-3.689c1.378-0.824,3.052-1.236,5.023-1.236
				c0.513,0,0.889,0.016,1.129,0.049v5.383c-0.897-0.063-1.554-0.097-1.971-0.097c-2.163,0-3.701,0.478-4.614,1.431
				s-1.37,2.527-1.37,4.724v16.87H125.805L125.805,289.238z"/>
			<path d="M145.104,289.238v-24.273h-3.101v-3.82h9.589v28.094H145.104L145.104,289.238z M148.348,257.635
				c-1.057,0-1.918-0.297-2.583-0.89s-0.997-1.378-0.997-2.354c0-0.978,0.332-1.764,0.997-2.355s1.526-0.889,2.583-0.889
				c1.025,0,1.883,0.305,2.572,0.912c0.689,0.608,1.033,1.387,1.033,2.332c0,0.992-0.336,1.781-1.009,2.366
				C150.271,257.342,149.405,257.635,148.348,257.635z"/>
			<path d="M178.197,288.396c-2.692,0.816-5.488,1.227-8.388,1.227c-4.198,0-7.346-1.21-9.445-3.629
				c-2.099-2.42-3.148-6.049-3.148-10.889c0-4.276,1.029-7.742,3.088-10.395c2.059-2.65,4.931-3.979,8.616-3.979
				c3.396,0,5.98,1.127,7.75,3.377c1.771,2.252,2.656,6.414,2.656,12.486h-15.31c0,3.012,0.577,5.271,1.73,6.776
				c1.153,1.506,2.884,2.259,5.191,2.259c1.923,0,4.342-0.408,7.258-1.227v3.992H178.197z M164.018,273.04h8.893
				c0-3.302-0.353-5.576-1.058-6.826c-0.705-1.249-1.73-1.874-3.076-1.874c-1.506,0-2.652,0.674-3.437,2.02
				C164.555,267.705,164.114,269.932,164.018,273.04z"/>
			<path d="M190.693,289.623c-2.402,0-4.989-0.329-7.762-0.984v-4.184c2.739,0.834,4.998,1.25,6.776,1.25
				c1.649,0,2.894-0.324,3.726-0.975c0.834-0.647,1.25-1.621,1.25-2.92c0-0.769-0.231-1.484-0.697-2.149
				c-0.465-0.665-1.777-1.542-3.94-2.632c-1.458-0.754-2.624-1.446-3.497-2.079c-0.873-0.634-1.599-1.454-2.175-2.464
				c-0.577-1.01-0.865-2.268-0.865-3.772c0-2.5,0.921-4.454,2.765-5.864c1.843-1.41,4.205-2.115,7.09-2.115
				c2.498,0,4.773,0.313,6.824,0.938v3.989c-2.002-0.688-3.916-1.033-5.744-1.033c-1.488,0-2.604,0.305-3.34,0.913
				s-1.104,1.522-1.104,2.739c0,0.642,0.22,1.242,0.66,1.804s1.702,1.354,3.784,2.379c2.916,1.427,4.768,2.82,5.553,4.183
				c0.785,1.361,1.178,2.867,1.178,4.519c0,2.788-0.896,4.896-2.691,6.319C196.688,288.91,194.092,289.623,190.693,289.623z"/>
			<path fill="#808080" d="M112.728,302.891h4.747c1.875,0,3.24,0.438,4.098,1.316c0.857,0.876,1.286,2.284,1.286,4.223
				c0,1.899-0.515,3.357-1.544,4.375c-1.029,1.018-2.497,1.525-4.404,1.525h-1.598v6.479h-2.584L112.728,302.891L112.728,302.891z
				 M115.312,304.607v7.979h1.454c1.169,0,2.031-0.312,2.583-0.931c0.553-0.622,0.829-1.674,0.829-3.155s-0.254-2.501-0.763-3.06
				c-0.509-0.555-1.304-0.834-2.385-0.834H115.312L115.312,304.607z"/>
			<rect x="135.898" y="301.786" fill="#808080" width="2.56" height="19.022"/> 
			<path fill="#808080" d="M159.537,318.788c-0.865,1.476-2.211,2.212-4.038,2.212c-1.273,0-2.265-0.359-2.974-1.074
				c-0.709-0.72-1.063-1.722-1.063-3.012c0-1.33,0.365-2.322,1.094-2.975c0.729-0.653,1.602-1.063,2.62-1.226
				c1.017-0.166,2.255-0.247,3.713-0.247v-1.646c0-1.625-0.869-2.438-2.607-2.438c-1.001,0-2.223,0.214-3.665,0.638v-1.791
				c1.45-0.399,2.828-0.601,4.134-0.601c1.538,0,2.706,0.369,3.503,1.112c0.797,0.738,1.195,1.83,1.195,3.273v9.793h-1.394
				L159.537,318.788z M158.888,313.994h-1.43c-1.146,0-2.005,0.242-2.578,0.727c-0.573,0.485-0.859,1.209-0.859,2.17
				c0,0.785,0.174,1.371,0.523,1.762c0.348,0.387,0.871,0.582,1.568,0.582c0.881,0,1.564-0.28,2.049-0.842
				c0.485-0.562,0.727-1.322,0.727-2.283V313.994z"/>
			<path fill="#808080" d="M181.83,320.566c-1.074,0.289-2.083,0.434-3.028,0.434c-1.09,0-1.887-0.256-2.392-0.764
				c-0.505-0.51-0.757-1.319-0.757-2.434v-9.302h-1.838v-0.961l3.737-3.81h0.661v3.101h3.4v1.67h-3.4v8.882
				c0,0.76,0.124,1.262,0.372,1.508c0.248,0.244,0.625,0.365,1.13,0.365c0.521,0,1.227-0.115,2.115-0.349V320.566L181.83,320.566z"
				/>
			<path fill="#808080" d="M198.402,301.594c0.81,0,1.595,0.096,2.354,0.287v1.742c-0.753-0.24-1.382-0.359-1.887-0.359
				c-0.802,0-1.306,0.254-1.515,0.762c-0.209,0.511-0.313,1.445-0.313,2.808h2.561v1.67h-2.561v12.306h-2.561v-12.306h-1.693v-1.67
				h1.693c0-2.123,0.324-3.526,0.975-4.211C196.107,301.936,197.089,301.594,198.402,301.594L198.402,301.594z"/>
			<path fill="#808080" d="M216.611,321c-1.883,0-3.293-0.617-4.229-1.852c-0.938-1.233-1.405-3.084-1.405-5.551
				c0-2.148,0.485-3.847,1.459-5.097c0.975-1.249,2.367-1.874,4.178-1.874c1.826,0,3.222,0.616,4.187,1.852
				c0.966,1.232,1.449,2.955,1.449,5.166c0,2.275-0.451,4.069-1.353,5.385C219.994,320.344,218.566,321,216.611,321z
				 M216.611,319.354c0.986,0,1.729-0.445,2.229-1.34c0.501-0.893,0.752-2.39,0.752-4.488c0-1.481-0.256-2.726-0.769-3.731
				c-0.513-1.004-1.25-1.507-2.212-1.507c-0.978,0-1.719,0.451-2.223,1.357c-0.506,0.904-0.758,2.199-0.758,3.881
				c0,1.892,0.252,3.334,0.758,4.332C214.895,318.854,215.635,319.354,216.611,319.354z"/>
			<path fill="#808080" d="M236.909,306.832l0.589,2.331c0.777-1.644,2.131-2.464,4.063-2.464c0.256,0,0.444,0.013,0.564,0.035
				v2.332c-0.201-0.016-0.501-0.023-0.9-0.023c-1.099,0-1.904,0.262-2.416,0.788c-0.514,0.522-0.77,1.343-0.77,2.456v8.521h-2.561
				v-13.977H236.909z"/>
			<path opacity="0.65" fill="#808080" enable-background="new    " d="M272.073,320.809h-2.56v-9.627
				c0-0.929-0.177-1.629-0.523-2.096c-0.35-0.471-0.871-0.704-1.568-0.704c-0.896,0-1.588,0.353-2.072,1.058
				s-0.728,1.623-0.728,2.752v8.617h-2.56v-9.627c0-0.929-0.18-1.629-0.535-2.096c-0.356-0.471-0.891-0.704-1.604-0.704
				c-0.881,0-1.563,0.356-2.043,1.069s-0.721,1.627-0.721,2.74v8.615h-2.56v-13.976h1.43l0.517,2.065
				c0.856-1.514,2.163-2.271,3.918-2.271c0.929,0,1.699,0.177,2.313,0.528c0.611,0.353,1.063,0.881,1.353,1.586
				c0.793-1.409,2.063-2.114,3.81-2.114c1.379,0,2.412,0.372,3.101,1.117s1.034,1.858,1.034,3.341L272.073,320.809L272.073,320.809z
				"/>
			<path fill="#0F3AAC" d="M228.208,242.369c2.563,0,4.944,0.191,7.146,0.576v5.576c-1.942-0.428-4.047-0.642-6.313-0.642
				c-3.354,0-5.977,1.181-7.867,3.541c-1.89,2.36-3.049,5.901-3.477,10.623c2.072-2.009,4.935-3.013,8.588-3.013
				c4.102,0,7.221,1.303,9.357,3.908c2.135,2.606,3.203,6.334,3.203,11.185c0,5.362-1.309,9.544-3.926,12.546
				c-2.615,3.001-6.393,4.502-11.327,4.502c-4.934,0-8.657-1.752-11.168-5.255c-2.51-3.504-3.765-9.313-3.765-17.433
				c0-7.989,1.677-14.34,5.029-19.051C217.046,244.725,221.885,242.369,228.208,242.369L228.208,242.369z M223.594,285.854
				c2.157,0,3.771-0.828,4.84-2.482c1.066-1.655,1.602-4.674,1.602-9.053c0-3.291-0.502-5.764-1.506-7.418
				c-1.004-1.656-2.51-2.483-4.52-2.483c-2.093,0-3.689,0.79-4.789,2.371c-1.102,1.581-1.65,3.76-1.65,6.536
				c0,3.332,0.225,5.849,0.673,7.547c0.448,1.699,1.116,2.953,2.003,3.766S222.248,285.854,223.594,285.854z"/>
			<path opacity="0.65" fill="#0F3AAC" enable-background="new    " d="M260.316,242.369c4.935,0,8.662,1.752,11.184,5.255
				c2.521,3.504,3.781,9.688,3.781,18.554c0,9.721-1.276,16.316-3.829,19.789c-2.554,3.471-6.318,5.206-11.296,5.206
				c-4.358,0-7.647-1.153-9.87-3.461c-2.222-2.308-3.669-5.224-4.343-8.748c-0.672-3.524-1.008-7.786-1.008-12.786
				c0-8.693,1.291-14.836,3.877-18.425C251.396,244.164,255.232,242.369,260.316,242.369z M260.092,285.854
				c2.18,0,3.776-1.223,4.791-3.668c1.016-2.447,1.521-7.781,1.521-16.008c0-7.904-0.522-12.962-1.569-15.173
				s-2.628-3.315-4.743-3.315c-1.922,0-3.338,0.77-4.244,2.308c-0.908,1.538-1.476,3.546-1.699,6.024
				c-0.225,2.478-0.336,5.863-0.336,10.156c0,8.461,0.502,13.854,1.506,16.184C256.32,284.689,257.913,285.854,260.092,285.854z"/>
			<g>
				<polygon fill="#FFCC00" points="83.551,301.553 74.234,306.654 84.862,311.665 93.57,305.768 "/>
				<polygon fill="#FF9900" points="74.234,306.654 75.357,318.456 85.331,323.65 84.862,311.665 "/>
				
					<linearGradient id="XMLID_79_" gradientUnits="userSpaceOnUse" x1="-47.1431" y1="278.7324" x2="-37.1689" y2="278.7324" gradientTransform="matrix(1 0 0 -1 122.5 596.3906)">
					<stop  offset="0" style="stop-color:#FFCC66"/>
					<stop  offset="1" style="stop-color:#FF9900"/>
					<a:midPointStop  offset="0" style="stop-color:#FFCC66"/>
					<a:midPointStop  offset="0.5" style="stop-color:#FFCC66"/>
					<a:midPointStop  offset="1" style="stop-color:#FF9900"/>
				</linearGradient>
				<polygon fill="url(#XMLID_79_)" points="75.357,318.456 85.331,323.65 84.862,311.665 "/>
				<polygon fill="#F27C0E" points="93.57,305.768 84.862,311.665 85.331,323.65 93.57,317.564 "/>
			</g>
			<g>
				<polygon fill="#ABDD99" points="176.811,84.505 148.321,102.182 181.396,117.244 208.896,97.272 "/>
				<polygon fill="#46AB48" points="148.321,102.182 150.291,142.135 181.721,157.521 181.396,117.244 "/>
				<polygon fill="#16923B" points="208.896,97.272 181.396,117.244 181.721,157.521 208.245,134.602 "/>
			</g>
			<g>
				<polygon fill="#FF6699" points="145.842,103.821 115.717,121.831 150.423,140.17 179.566,119.212 "/>
				<polygon fill="#FF0066" points="150.423,140.17 115.717,121.831 119.646,166.366 152.395,184.371 "/>
				<polygon fill="#BE0151" points="179.566,119.212 150.423,140.17 152.395,184.371 179.896,159.818 "/>
			</g>
			<g>
				<polygon fill="#F5F661" points="250.023,114.932 212.693,99.54 185.518,119.518 222.518,136.871 "/>
				<polygon fill="#FFF500" points="185.518,119.518 185.846,160.119 222.193,178.786 222.518,136.871 "/>
				<polygon fill="#FFCC00" points="222.518,136.871 222.193,178.786 248.391,154.223 250.023,114.932 "/>
			</g>
			<g>
				<polygon fill="#BFE230" points="153.919,143.233 183.227,122.111 220.314,139.299 191.896,163.205 "/>
				<polygon fill="#84C322" points="153.919,143.233 155.552,187.436 191.572,207.083 191.896,163.205 "/>
				<polygon fill="#5DAA3B" points="191.896,163.205 191.572,207.083 219.734,181.211 220.314,139.299 "/>
			</g>
			<g>
				<polygon fill="#99FF66" points="147.897,58.767 176.792,42.482 210.77,55.167 182.688,73.26 "/>
				<polygon fill="#66CC33" points="147.897,58.767 148.881,99.045 182.277,114.76 182.688,73.26 "/>
				<polygon fill="#669900" points="182.688,73.26 182.277,114.76 209.783,94.787 210.77,55.167 "/>
			</g>
			<g>
				<polygon fill="#CC66FF" points="185.191,74.515 222.688,91.457 251.824,70.171 212.861,56.423 "/>
				<polygon fill="#6F348E" points="222.927,91.133 221.895,133.763 249.195,111.758 251.742,70.171 "/>
				<polygon fill="#9933CC" points="184.781,74.515 184.287,116.015 221.895,133.763 222.927,91.133 "/>
			</g>
			<g>
				<polygon fill="#FFCC00" points="127.601,43.202 95.021,61.047 132.182,78.564 162.633,57.936 "/>
				<polygon fill="#FF9900" points="95.021,61.047 98.945,102.306 133.82,120.476 132.182,78.564 "/>
				
					<linearGradient id="XMLID_80_" gradientUnits="userSpaceOnUse" x1="-23.5552" y1="496.8701" x2="11.3198" y2="496.8701" gradientTransform="matrix(1 0 0 -1 122.5 596.3906)">
					<stop  offset="0" style="stop-color:#FFCC66"/>
					<stop  offset="1" style="stop-color:#FF9900"/>
					<a:midPointStop  offset="0" style="stop-color:#FFCC66"/>
					<a:midPointStop  offset="0.5" style="stop-color:#FFCC66"/>
					<a:midPointStop  offset="1" style="stop-color:#FF9900"/>
				</linearGradient>
				<polygon fill="url(#XMLID_80_)" points="98.945,102.306 133.82,120.476 132.182,78.564 "/>
				<polygon fill="#F27C0E" points="162.633,57.936 132.182,78.564 133.82,120.476 162.633,99.189 "/>
			</g>
			<g opacity="0.65">
				<polygon fill="#0099FF" points="152.426,97.736 154.061,139.652 192.048,159.625 192.048,116.076 "/>
				<polygon fill="#00CCFF" points="152.426,97.736 183.527,77.107 221.434,93.402 192.048,116.076 "/>
				<polygon fill="#0066FF" points="192.048,116.076 192.048,159.625 220.443,136.396 221.434,93.402 "/>
			</g>
		</g>
	</svg>
