<?xml version="1.0" encoding="utf-8"?>
<!-- Generator: Adobe Illustrator 11.0, SVG Export Plug-In . SVG Version: 6.0.0 Build 78)  -->
<!DOCTYPE svg PUBLIC "-//W3C//DTD SVG 1.0//EN"    "http://www.w3.org/TR/2001/REC-SVG-20010904/DTD/svg10.dtd" [
	<!ENTITY ns_flows "http://ns.adobe.com/Flows/1.0/">
	<!ENTITY ns_svg "http://www.w3.org/2000/svg">
	<!ENTITY ns_xlink "http://www.w3.org/1999/xlink">
]>
<svg  xmlns="&ns_svg;" xmlns:xlink="&ns_xlink;" xmlns:a="http://ns.adobe.com/AdobeSVGViewerExtensions/3.0/"
	 width="352" height="352" viewBox="0 0 352 352" overflow="visible" enable-background="new 0 0 352 352" xml:space="preserve">
	<metadata>
		<x:xmpmeta  x:xmptk="XMP toolkit 3.0-29, framework 1.6" xmlns:x="adobe:ns:meta/">
			<rdf:RDF  xmlns:iX="http://ns.adobe.com/iX/1.0/" xmlns:rdf="http://www.w3.org/1999/02/22-rdf-syntax-ns#">
				<rdf:Description  rdf:about="" xmlns:pdf="http://ns.adobe.com/pdf/1.3/"></rdf:Description>
				<rdf:Description  rdf:about="" xmlns:tiff="http://ns.adobe.com/tiff/1.0/"></rdf:Description>
				<rdf:Description  rdf:about="" xmlns:xapGImg="http://ns.adobe.com/xap/1.0/g/img/" xmlns:xap="http://ns.adobe.com/xap/1.0/">
					<xap:CreateDate>2005-04-04T07:58:17Z</xap:CreateDate>
					<xap:ModifyDate>2005-04-04T09:30:16Z</xap:ModifyDate>
					<xap:CreatorTool>Illustrator</xap:CreatorTool>
					<xap:Thumbnails>
						<rdf:Alt>
							<rdf:li  rdf:parseType="Resource">
								<xapGImg:format>JPEG</xapGImg:format>
								<xapGImg:width>256</xapGImg:width>
								<xapGImg:height>256</xapGImg:height>
								<xapGImg:image>/9j/4AAQSkZJRgABAgEASABIAAD/7QAsUGhvdG9zaG9wIDMuMAA4QklNA+0AAAAAABAASAAAAAEA
AQBIAAAAAQAB/+4ADkFkb2JlAGTAAAAAAf/bAIQABgQEBAUEBgUFBgkGBQYJCwgGBggLDAoKCwoK
DBAMDAwMDAwQDA4PEA8ODBMTFBQTExwbGxscHx8fHx8fHx8fHwEHBwcNDA0YEBAYGhURFRofHx8f
Hx8fHx8fHx8fHx8fHx8fHx8fHx8fHx8fHx8fHx8fHx8fHx8fHx8fHx8fHx8f/8AAEQgBAAEAAwER
AAIRAQMRAf/EAaIAAAAHAQEBAQEAAAAAAAAAAAQFAwIGAQAHCAkKCwEAAgIDAQEBAQEAAAAAAAAA
AQACAwQFBgcICQoLEAACAQMDAgQCBgcDBAIGAnMBAgMRBAAFIRIxQVEGE2EicYEUMpGhBxWxQiPB
UtHhMxZi8CRygvElQzRTkqKyY3PCNUQnk6OzNhdUZHTD0uIIJoMJChgZhJRFRqS0VtNVKBry4/PE
1OT0ZXWFlaW1xdXl9WZ2hpamtsbW5vY3R1dnd4eXp7fH1+f3OEhYaHiImKi4yNjo+Ck5SVlpeYmZ
qbnJ2en5KjpKWmp6ipqqusra6voRAAICAQIDBQUEBQYECAMDbQEAAhEDBCESMUEFURNhIgZxgZEy
obHwFMHR4SNCFVJicvEzJDRDghaSUyWiY7LCB3PSNeJEgxdUkwgJChgZJjZFGidkdFU38qOzwygp
0+PzhJSktMTU5PRldYWVpbXF1eX1RlZmdoaWprbG1ub2R1dnd4eXp7fH1+f3OEhYaHiImKi4yNjo
+DlJWWl5iZmpucnZ6fkqOkpaanqKmqq6ytrq+v/aAAwDAQACEQMRAD8A9U4q7FXYq7FXYq7FXYq7
FXYq7FXYq7FXYq7FXYq7FXYq7FXYq7FXYq7FXYq7FXYq7FXYq7FXYq7FXYq7FXYq7FXYq7FXYq7F
XYq7FXYq7FXYq7FXYq7FXYq7FXYq7FXYq7FXYq7FXYq7FXYq7FXYq7FXYq7FXYq7FXYq7FXYq7FX
Yq7FXYq7FXYq7FXYq7FXYq7FXYq7FXYq7FXYq7FXYq7FXYq7FXYq7FXYq7FXYq7FXYq7FXYq7FXY
q7FXYq7FXYq7FXYq7FXYq0XQMFLAM32VJ3NPDImcQQCdymjzbySHYq7FXMyqCzEBRuSdhgJAFlBN
LIpopV5ROrr4qQR+GRhkjMXEghEZiQsG1+TZOxV2KuxV2KuxV2KuxV2KuxV2KuxV2KuxV2KuxV2K
uxV2KuxV2KuxV2KuxVZNPDBGZJnEca9WY0GU588MUTOZEYjqWUIGRoCyxvUvN43jsF9vXcf8RX+u
cN2p7Zc46Yf5x/QP1/J22DszrP5McmubiaUyyyM8h35k7/RnD59Tkyz45yMpd7tY44xFAbJlY+Zt
TtqK7fWIx+zJufobr9+bzQe1OrwbSPiR7pc/9Nz+duJm7Pxz5ek+TIbHzPptzRZG+ryH9mT7P0N0
++mdtoParS59pHw5f0uX+m5fOnV5uz8kOXqHkq32vWdsOKH1peyodvpbNjqu1cWMek8UvL9bpdRr
I49ucmOX2qXl4f3r0j7Rrso/r9Oc3qtdkzH1Hbu6OnzameTmdu5DxTTQvzidkbxUkH8MxseSUDcS
QWmMzE2DSa2vmW8joJ1Ey+P2W+8bfhm3wdtZI7THEPkXOxdozH1bpxa67p9xQc/Sc/sybfj0zc4O
1MOTrwnz/FOxxa3HPrR80wBBFRuD0ObEFy3Yq7FXYq7FXYq7FXYq7FXYq7FXYq7FXYq7FXYq7FXY
q7FXYq7FUq8y602j6eLpY/ULSCPfovIE8iO/TNR232hPSYOOABkTW/Ic93N0Gk8fJw3W1sKm1aXU
m9WSf1fAdAtfBe2eTa/W6jUT4s0jL7h7uj0MNMMQoClPMFk7FXYqslliijMkrBEXqx2GGMTI0OaQ
CdglUPmT1tSgt7f4LdnAeRv2h7A9M3/Z+CeMiz8Ojg9tdmYzpZ5JxHHGO39rJs3T5g7FVG7vLWzg
ae6lWGFersaD5fPG2UYmRoMQ1XzXe31YtP5WlqdjcH+9cf5I/YHv1zrOxvZPNqqnlvHi/wBkfcOn
vPyL0fZ/YMp1LJsHaV5s8w6WI0tb1/RjAVYZDzSg/wAlq0r3I3z0mHY+mhjGOMajH5/Pq9R+RxcP
DTMdK/NlDxTVbPie81uaj/gGP/G2a/P2F1xy+B/W4mTsz+afmzHS/MuhaoALK8jkkP8AuonhJ/wD
UbNPn0eXF9UT+h1+TTzh9QTPMZpdirsVdirsVdirsVdirsVdirsVdirsVdirsVdirsVdirHfP0XP
y1O1P7p42+9wv/G2aD2mhejke4xP21+l2vY0q1A8wfueWI7IwZSVYdCNs8zezIB5o+31iVaCYcx/
MNjlE8APLZxZ6UHkmcF1BOKxuCe46H7sxp4zHm4k8co80LqOr2tktGPOb9mIdfp8MuwaWWTflHvZ
4sEp+5i1/qV1eycpm+EfZjH2Rm6w4I4xQdnjwxhyQ8X94vzzJx/UHW9vf4ll/qpvZ6vf2lBFISg/
3W/xL/Z9GZ744jL/AM9xWdl6j2/78ninxfu6nux65fpdNPPljjxi5y5OVpNKc8xAMdmu59SkF3dz
i5b/AHWFP7pP9RRt9PXPU+xfZTDpankrJl/2MfcP0n4U9xoOyceAWd5N51rtnYq7FWwSDUdcVR2h
/mprFr5i0vQ7W8N2L27gtZRMfUSNZZVjNGPxVAboDmj7QwYDEkR9QHTZ1uqx4qNDd77nLuldirsV
dirsVdirsVdirsVdirsVdirsVdirsVdirsVSjzbF6vlu/Xwj5f8AAEN/DNV23Di0eQf0fu3c7s2V
aiHveQZ5S924Ak0G5PbFCsIWT4iaMOlO2WcFc2BkCkLli7ciWapqx6k5sacgLcUrov7xfnlmP6g6
jt7/ABLL/VRJIGbvS6GeXflHvfFc2ojD3pbrnxWlDuK9M7PsHSwxamAiOvP4Fr0GeUswNsejSSB/
UtpGgfvx+yfmp2z0ent9P2vlhtL1D7fmmFvr88dFvIuS/wC/ov4qcXeaftLFl2uj3FNra9tbpeUE
iuO4HUfMdcLsF1zcwW0LTTuI4l+0zdMjKQAsoJA5sI13zdcXnK3s6w224Z+juP8AjUZr82pMthyc
TJmJ2HJV/LKH1vzB8vpttexPv/kNz/41zXak/u5e5xM30F9hZzzqnYq7FXYq7FXYq7FXYq7FXYq7
FXYq7FXYq7FXYq7FUJrEXq6RexfzwSr96EZia+HFgyR74S+5v0suHLE/0h97xq2tJrhqRjYfaY9B
nkePFKZ2e+yZBEbpitnHbrt8T92OZgwiA83EOUyQs/fKJt8GNSf3jfM/rzMDmDktyUYmRocyxnMR
BJ5Bcn2hnR6HskRIlk3Pd0eF9o+2zk02SGPaNc+v7FfOkAfI0u1v/eUf62bPsYf4VD4/7kuw7M/v
QkWd89K7FUPcGCL96SY5P2WQ0avtTJRiTydhpNbmgaibHceSRavqN5dzATytIqAcFPQbe1N/fNXr
L4yO56GWQyAJ7kBmKxZr+TEPrfmboabbSTPv0+C3kf8A41zG1h/dFqz/AEF9aZoHVuxV2KuxV2Ku
xV2KuxV2KuxV2KuxV2KuxV2KuxV2KtOodGU9GBB+RwSFikg0bYjf+U5rWP8A0AerAvSMbOP+av1+
2chq+wZ4x+69Ue7r+38bO8w9pCZ9ex+z9jF7pWRmVgVZTRlIoQR4jObyxINHm7jGQdwls/fMGbmQ
Y3N/ev8A6x/XmXHkHMCm4Jjagrsc2PZenyZdRAQF+ofe42uF4J/1T9y21khICiXhN3jlFAf9Vume
jns/h/rPiXampy5DwSBgO7v+PX7kSXKHjKpQ9q9D8jmLPFKPN0MsRCB1r/eQfMZn9jf41D4/7kub
2Z/ehIs756RC3V6kNVX4pPDsPnlkMZPubseEy3PJK5JHkYs5qTmUAByc2MQNgl93/ft9H6hnPaz+
9k7uP0j+qPuUcxkvQ/yEh9T8yrF6D9zDcPv13iZNvf48w9cf3RaNT9D6mzRutdirsVdirsVdirsV
dirsVdirsVdirsVdirsVdirsVdirsVSvXrLQ5bV59TKQogp9ZJCMvhRu/sN8wtZ2fh1A9Y37+v4+
xzNHlzCQGOye55PfXmmm7kjtJXkgB/dyyLw5fRU/jnF9o+zubF6sf7yP+y+XX4fJ7bDiycIMhUu4
bpDLGWnkPbkd/pw9l9j5M4Bl6Yd/6nMiNnMoEbAeB/Vnd6HTY8FRgKFhhqR+6l/VP3JcyqwoRUZ0
5APN87y4o5BUhYXRS3EI4xvyj/31J8S/1GY09MDydHqewonfEa8juP1j7UHqF7HdBLW1jb6078BG
rKUDVHjlOmjj0+YZJ7CN/cQ6OMTps4jOO5SnWYNV04rFc27QM/STqp/1WFR+OdfotRhzjihIS/Hc
9HhhGW6S9c2LmOxVBXwAuWA8EP3qM5rUm8kve7sch7h9y/TNMv8AVL2KxsIGuLqY0jiQVJ9z4Ady
emYeo1EMMDPIeGI6qTT6C/KXyDY+WNSjmuGF3rc8bpNKpPpQKVqUj/mJIoWP0Z5+Pa06zWjBjH7r
f37An8Bq1GKRxmR2D13N86t2KuxV2KuxV2KuxV2KuxV2KuxV2KuxV2KuxV2KuxV2KuxV5D/zkPcX
lpZaHe20hjaOaeNqdDzVGoR0P2O+TgLe69iIQnPLCQu4xPyv9bzHS/OdvLSO/X0X6eqtSh+Y6jCc
fc9fqOypR3huO7qyOOSORA8bB0bdWU1Byt1UokGi232T8slDmGrMLgfcUrlmihjaSVgiLuWOwzoX
ztJxc6nrU7WulIY7cbS3LbAD59vkN8p1GphhFyPwYZ88MIuZ+DKNG8vWWmQIqj1plPMzOBXl1qo/
Z6ZzGr1ksxN7R7nldVm8bL4hG/RM7u4SRBFcRrJG1eSkAg9OqnbMHBHJilxYpGJb8Ofbdjmo+S9O
ugZNPk+rS9eBq0Z+j7S/jnVaH2tyYzw6iNjv6/t/G7nwzfFiupaHqenMfrUJEdaCZfiQ/wCyH8c7
PR9pYNQLxyvy6t8ZgtaJ5R1jzLq7W9hHxhjVDc3cm0US8RuzeJ7KNznK9t9rYNEJTynqaHU/jvd8
dqHue0+XfLmj+WrI2ulqWmkAF3qDiksp8B/Ingozwzt72lza6fOoDkPx9/3OXh03WXNk/lVa6xGf
BXP4UweyUb10fKMvuY9on90fgzfPWXnXYq7FXYq7FXYq7FXYq7FXYq7FXYq7FXYq7FXYq7FXYq7F
Xln/ADkVbiTyVZzD7UOoR/8AAtFKD+NMnj5vZ+w861kh34z98Xznlz6qjNP1W/sH5W0pUH7UZ3Q/
MYCAWjNpoZR6gyIefLSOyeS5gcTqNkTdWJ26n7OV8FF0Os7OMBsdjsqWHl3VdZeO81Xna2LUeG3o
VZlPQgHoD4nfMjP2ziAIxETl39B+18d7Q1v5cmAFz+z9rMLW1t7WBYLeMRRJsqL0zQZMkpnikbLz
GTJKZ4pGyq5Bgh7vqv05PH1bsfJDgkGoND45YQDzbQaRkEhaJ2uSBaLtLIwqN/2aftE+Ga7U5xp9
8ZPidI/jkPNyceQn6uXezAQ21pCLSyhS2tVo4iiUICzAEswHfPMNf2pn1c+PLKy93pcQEQeq3MBy
k68ogHVifCJiPvAzqvY4XrP8w/odf2n/AHXxZpnqjz7sVdirsVdirsVdirsVdirsVdirsVdirsVd
irsVdirsVdirAPz0t/V/Li/f/fEtvJ98yp/xvk4c3pvZCddoQH84SH+xJ/Q+X8ufYnYqpXTlLd2B
ow48T7hgcBF7OF2hHix10e22+oTRKI3Amh/32+9PkeozyiJMTxRPDLyfnLjsVLcIhY7W5/3mfhJ/
viQ0J/1W75udN2yRtlH+cP0j9Tjz0gO8D8FCSN42KupVh2ObzHljMcUTYcKUDE0ULd9V+nL8fVsx
8lvpwwQi5uyViP8Adxj7chH8vt4nMHV6/hPBj3n9kff+pyYwAFy5felV9fzXbjkAkSbRQr9lR/Xx
OayMKJJNyPMtc5mXuemTfb/2K/8AERnmtU+kaf8Aux7lmLcn3k0H9JSnsISPvZc7D2KH+FSP+1n/
AHUXW9qH92P636CzDPTnQuxV2KuxV2KuxV2KuxV2KuxV2KuxV2KuxV2KuxV2KuxV2KsU/NW2+sfl
5rkdK8bf1O3+6nWTv/q5KPN3fs5k4dfiP9KvmKfJeXvtrsVUL4f6M/tT9YxcbWf3Zew25rBGa1qq
mv0Z5TkHqPvfm/KKmfeqZBrRkGpOFEVwvrxdg32h8myWOcsZ4oHhLMy4hUhYUr+60u3VZ15TOa+l
buKAHxc9wPDvm4x9oZ8seH6e+Q/R5tJhCG438mPXV1PdTNNO3Jz9wHYAdhk4YxEUHHlMyNlRyTF6
vcKVlKnYgKCPcAZ5nI2bfTMAqAX2VlcXlwsEC8nbv2A8SfDMrRaHLqcgx4xcj9nmfJllyxxx4pM4
0nSLfToOKfFMw/ey9z7D2z1vsfsbFosdR3mfql3/ALHnNTqZZTvy7kfm4cZ2KuxV2KuxV2KuxV2K
uxV2KuxV2KuxV2KuxV2KuxV2KuxVRvLO1vbSazu4lmtrhGjmicVVkYUIOLZiyyxyE4mpRNgvGPOv
/OPat6l55Um4ndjplw23yilP6n/4LLBk73v+yvbYioaof54/SP1fJ4zqmk6npV49lqVrJaXUf2op
VKn5ivUeBG2WgvfafU480BPHISieoQE6gwSAivwsfuFcWOs/uj8PvesaawbTrVhuDDGQfmozyzUi
skv6x+9+c9YKzTH9I/eicpcd2Kpfqv8Aur/ZfwzZ6L6T72jMl+ZjS7FXsaafcX2pPDAN61Zj0UU6
nPP+zezsuryDHjHQWegHeX0g5o48dlmWmaXbafbiKIVc/wB5KerH+ntnr3ZXZWLRY+CH1dZdT+zu
DoNRqJZZWUZmzaHYq7FXYq7FXYq7FXYq7FXYq7FXYq7FXYq7FXYq7FXYq7FXYq7FXYqlfmDyxoPm
GzNnrFnHdRb8GYUdCe8bijKfkcINOZou0M+lnx4pGJ+w+8ci8R85f8496zbM8vliYX9tL8AtZ2WO
aPn8P2zRHVa1J2PscsGTve90ntliy4zDUDgnXMbxNfaPtcunTaYBps7K01iPq0rJXiWi+BitaGlV
zzPWCs0/60vvfKdXkE805DrIn7W8xnHdiqXar9qP5H+GbTRfQfe0ZeaAzLaU48s+V9S8w34tbNeK
LvPcNXhGvifEnsO+X6fTyyyoNuLCZmg+hLe1t7cMIUCBzyanc5v9HocOmjw4oiIegnklLmVXMtg7
FXYq7FXYq7FXYq7FXYq7FXYq7FXYq7FXYq7FXYq7FXYq7FXYq7FXYq7FXYqx7X/JGj6tylC/Vbxq
n14gPiJ7uvRv1++arW9kYs+/0z7x+lqnhEve8513yjrOjsWmi9W27XMXxJ/su6/TnKazszLg3IuP
ePxs4c8Rikua9rS7VftR/I/wzaaL6D72jLzTHyj5O1DzHecIv3VlER9ZuiNlH8q/zMfD782um0ss
p25d6cOA5D5Pc9G0XT9GsI7Gwj9OFNyTuzMerOe5OdHixRxx4Yu4x4xAUEdljN2KuxV2KuxV2Kux
V2KuxV2KuxV2KuxV2KuxV2KuxV2KuxV2KuxV2KuxV2KuxV2KuxVzKGBVgCpFCDuCDiRasS178u9L
vuU1hSyuTvxUfumPuo+z/sfuzR6zsPHk3h6JfZ+z4NE8APLZh9r+WGs3usLb34+rWMG81wpDcwei
xe5p3G3fwzD0PZWSJMZ7C+f6nE/KylLfk9V07TrLTrOKzsohDbwiiIv6z4k9znSwgIChydhGIiKC
IybJ2KuxV2KuxV2KuxV2KuxV2KuxV2KuxV2KuxV2KuxV2KuxV2KuxV2KuxV2KuxV2KuxV2KuxV2K
uxV2KuxV2KuxV2KuxV2KuxV2KuxV2KuxV2KuxV2KuxV2KuxV2KuxV2KuxV2KuxV2KuxV2KuxV2Ku
xV2KuxV2KuxV2KuxV2KuxV2KuxV2KuxV2KuxV2KuxV2KuxV2KuxV2KuxV2KuxV2KuxV2KuxV2Kux
V2KuxV2KuxV2KuxV2KuxV2KuxV2KuxV2KuxV2KuxV2KuxV2KuxV2KuxV2KuxV2KuxV2KuxV2KuxV
2KpKnnbye/mM+WV1mzbzAo5HSxPH9Y2XmR6deXLh8XHrx36YqnWKuxV2KuxV2KvOvzM/MO40mX9D
6S4W+Khrq52JiDCoVQf2iN69h+Gz0OjE/VLk42fNWwY5pX5b+ctctl1K+1A25uAHj+sPJJKyncFh
2B+eZWTW4sZ4QLruao4ZS3Jeh+RfLGoeXtOuLS9uluzJN6kTqW2XiBSjdNwc1mrzxyyBApycUDEU
V3nHzDNpsEdtanjdTgkv1KINqj3J6Y6bCJmzyC5J0kGn+V9a1Wx/SDXZDy1MSyMzM9DSpau1cyZ5
4QPDTWMZItf5X8x39rqSadfO0kMj+lSQ1aOStBue1dqYNRhiY8QTjmQaLP8ANa5DsVdirsVdirsV
dirsVdirsVdirsVdirD/AM3vOVz5M/LbXfMloqteWMCra8hVRNPIkETMO4V5QxHfFXy3+Tv5Q3/5
2DVvNHnLzJeyLbXH1ZArCSdpSqyMay8ljjAYBVVflSmKvo78oPyW0z8sm1dNN1W61C11T6txhugl
YTb+rUqU4g8/W3+EdO+Kozz9+dn5ceRLlbPzBqgTUXUONPt0eecKejOqAhAe3MivbFW/IH51fl15
8uJLTy9qfqahEpkewnjeCfgDQsquAHA78Cad8VTDX/zN8naB5r0ryrql40Gs60FOnw+m5R/UcxrW
QDgtXWm5xVIJP+ch/wApv0+2hW+s/XL2NJnle1hllhUW0TzSfvQvBqJGfsE4q8r8oyf848eY/wA8
7XzPo2ualceY9QuXubXS3hkjtjdekxZy7RKwWgLBS/2vb4cVfQ/mfzV5e8raPLrHmC+j0/TYaB55
a7seioqhndj2VQTirzrSv+cp/wAmNR1FLEavJatIwSO4ureWKEkmgrIQQg93oMVep3eoWNnYy393
cR29jBGZprqRgsSRqORdnJoFA3riryW8/wCcsPyWtr1rZdTuLhVbi1zDazGLrQkFgrEDxC/KuKvT
vLnmbRfMmg2uvaPcfWdKvUMlvcFHjqqsVaqyBWFGUjcYq+f11K1v/NQ1LVCfqk93690KFj6fPkUA
H+T8IzqeAxx8MedOr4rlZekP+d+libjHpc7QV+2zorU/1AGH/DZqx2VKvqDlfmh3M18t+aNJ8w2R
utPkJ4ELNC4pJGx6BgCevYjbMDPgliNSb4ZBIWGF+eJjJ5hlQmoiSNB7VXn/AMbZn6QVBoyn1M/0
dAmk2SDosEQ/4QZrcp9R97kR5B5r5h/c+Ybxo9isxcH3J5frza4d4D3ONP6nqiMGRWHRgD9+acuW
3irsVdirsVdirsVdirsVdirsVdirsVSLz15SsvN/lDVfLV6xjg1OAxeqBUxuCGjkA78JFVqe2Kvi
gQ/nN/zj75meZUMdjcuEaWhm0y+VKlQT8NGAJp9mQfLFX1J+VX58+X/P3lfUNSigaz1fR4Gn1PSi
3IhVUsHieg5o3GnSoOx7EqvmT8jPM3k7UvzZ1Pzb+Zl9bVeGa6ga+HOJryWRFWikMP3cZbgtNtqd
MVXef/MXkrRfz/0jzJ+X1xb/AKKWazup/qI4QiRpClzGqgDiJI/tAD9o4qyH/nNZ3j/MLQJI2KOm
lqyOpoQRcykEEYq9y/LX/nHz8tPLel6Pf/olbrXo7ZWudQnklcvLNDxm/dF/S4EOy8eNKeJ3xV4L
oFnZ2X/OZAtLOCO2tYdUuFighRY40X6o+yqoAA+WKrv+cuPM02rfmrp3le5uDb6NpMUAk3+FZLsh
5Zj8oig+j3xVNf8AnIbUfyF1D8urSHyZPph1rS5oI7NbFAkxtqMro7cVLrvyPIk138cVV7u88y+a
P+cNbZbP1bmbSpxBqCoCzNZWU7Fdh+zEnpE+y1xVL/8AnGTz1+TFhocvlrzbY2cGtXl0zDUtRt4p
YJ43ChIjM6t6QXj9l6J3rU4q+sbTS9K0vQ/qOk20Nnp0MT/V7a2RY4UV6ueCpRQCWJ2wx5hB5Pnz
yppcWq+Y9P0+aphnmAlA2JRfiYV91GdTqMhhjMg6zHG5APavOflTRbjypfRw2UMUlpA81q0aKjK0
S8gAQBseNDmh0uomMgsncudlxgxOzzf8n76aDzctup/dXcMiSL2+Aeop+Y4/jm07SgDivuLjaY+p
knnRSPMl2T+0IyP+Raj+GYul/uw25fqeiaVvpdn/AMYI/wDiAzWZPqPvcmPJ5p5n/wCO/ff8ZD+o
ZtcH0BxZ8y9ShBEKA7EKKj6M1B5uWF+BXYq7FXYq7FXYq7FXYq7FXYq7FXYqg9X1jSdG0+TUdWvI
dP0+EoJru5kWKJPUcRpzdyFWrsBucVYt5z85/lTN5R1A+YdX0y80KaBxPD68M3rLSvGJFYl5Kj4O
O9emKvlz/nD7y/f6p5x8xuhePTjok9ldzKKjndyRiJd+9I3Yf6uKpH+Q9t5K0X80b7y9+ZdhaCJo
prEfpNUMMF7FKpHMyfCnIIyhj7eOKvqZvJ//ADjnbXdpEdP8tR3dzNHDZRD6r6sk7sFjSJQeTMWI
oBirwP8A5za/5T/Qv+2UP+omXFX2BpP/AByrL/jBF/xAYq+P9M/9bSf/ALatx/1BviqE/wCct9Dn
0f8AN+y8wXNv9Y0zVLe3mUMPgka0IimhNf8AIVCfZsVe9aPoH/OMuraNBrFpp/lsWM8YkDSraxMg
IqVkVyCjL0YHpirMtFv/AMs/L3lq0k0i70rTPLV9M0djLDLBFZzTvy5LE9RG7N6TdDvQ4q+av+cr
PIn5T6Vpdl5g8tSWtlr17dLHLp1hJGYZoWjZmm9FDSPiVX4kABruKmuKvZ/+cXb3Vrz8ltEfUmaT
02uIbSR92NtFO6RjfstCg9gMVYhbJ/hfz5Gt0pWLT7wczuf3JbZx/wA825DOmkfFw7dQ60eie/R6
7518z6Pb+Ur6WK8hla7geG1EUisXaVSlV4k148qnNJpcEjlArkXNyzAiXnf5N6XNceZnvwp9Cyhb
k/bnL8Cr93I/Rmz7TyAY66lxdNG5Wy78wLJ49TiuwP3c8YXl/lodx9xGYejlcab8w3tknlvWLGTQ
bd3mRDbRiOYMQCvpim/zAzFz4yJnbm2QkKYMqnWPMZ9MErdXBanhGWqSfkubD6MfuDR9Unqmady3
Yq7FXYq7FXYq7FXYq7FXYq7FXYq7FUn83+U9E83eXbzy9rkTT6XfBBcRo7RsfSkWVCHQgijxqcVe
Tp/zh3+T63AlP6SZK19A3S8KeFRGHp/ssVereUfJflfyhpC6T5c0+PT7FTzZI6lnegBeR2LO7UHV
iTirGPzA/Ij8tfPd5+kNb05k1QqEbUbSRoJmUCg50qj0AoC6kjp0xVI/K3/OLX5T+XdZs9Yt4L27
vtPnjurNrm5Yqk0LB434xCLlxZQaNUeNcVT78xPyP8h/mBqltqfmKK4kurSD6tCYJjEvp82fcAGp
q5xVnkEKQQRwx/YiUItdzRRQYqwOH8j/ACHD+YR8/JFcf4hM73JkMx9L1HjMZ/d0pTi2Ksk83+Sv
K/nDSG0jzJp8eoWLMHVH5KyONg8ciFXRt6VUjbbpirysf84efk+Lj1SNSMdSfq5uhw+VRHz/AOGx
Vm2s/kt+X2r+R7DyTc2Ui+X9LlE9jBHPKHjlAkHL1CzM39++zVG/yxVhunf84hfk7aXaXEsF/fIp
r9WuLo+mfn6SxP8A8Nir2SxsbKwsoLGxgS2s7ZFit7eJQiIiCiqqjYADFUj81+Q9E8ycZbkNBeov
FLqKganZWB2Yf51zK0+rni5cmrJiEmKwfkdYLLWfVZZIq7okSo1P9Ys4/DMw9qnpFqGlHez7RNC0
zRLBbHToRFCp5MerOx6s7dyc1uXLLIbk5EYCIoK2oadaahatbXSc4238CD2KnscEJmJsJIBYxJ+X
NuXrHeuqfysgY/eCv6syxrT3NXg+ad6J5a07SavCDJOwo0z0rTwFOgzHy55T58mcYAJrlLN2KuxV
2KuxV2KuxV2KuxV2KuxV2KuxVSurq3tYGnuHEcSU5Ofc0H45TqNRDDAzmaiGePHKcuGIssfn85oJ
wIbfnAOrMaMfl1pnE5/baIyVjx3j8zRPu7vxydpDso8O53TXS9d0/Umkjt3PrRANLEw3UNWlabb0
zqOy+18WtjxQsEcwR+AXC1Gknioy5HqmGbRxWJ33ni9h1DVra10d7yHRuDXkyTIpCOhfkEYVNAp2
GKsj0zUbfUtOt7+2JMFzGskddiAwrQ+46HFUvi1u4fzdPopjT6vFZLdCTfmWaThTrSlMVTeWaKGJ
pZnWOJAWeRyFVQOpJOwxVDWOsaTfsy2F7b3bIKuIJUkKg9K8CaYqrXl5bWdrLdXUiw28Kl5ZGNAA
MVQGgeZNJ120FxYTKx3LwFlMqDkVUugJK8uNRXFUL5x80xeXtOSYem93cSCK2hlcICSRyc9+KV+L
FUy0ee8uNPimu3t5JZAWElmzPAyk/CUZtzUYq681nSLKVYb2+t7aVxVI5pUjZhWlQGIJxVGAgio3
B6HFVGe9s7evrzxw0AY+o6rQE0B3PjiqsCCAQag9Diqk15aKwVp4wxJUKWUGoNCOvjircd1bSOY4
5UeRftIrAkU8QMVVMVdirsVdirsVdirsVdirsVdirsVdirsVSfzfA0/ly+jUFmKKwA3JKurdvlmp
7cx8ejyDy+4guf2ZPh1ET+OTym9l1Cxsm/elWNBx68QffPMo6UcQ4hu9lEQyS5Mk/KBZDPqkrBip
WIczWharGlfHO29mY7z7tv0um9oiKgPf+h6VnWvLvN4rDXdQ81ecLLTJ7e3iuTbRXk0yu7hHhdf3
QUgVoT1xVnukaZDpel2unwEtFaxrGrN1PEbk08euKpBb/wDkzbv/ALZUf/J/FU28z6nBpegXt/Pb
i6ihj+K3IqH5EKFbZtqtvt0xVh2kNcn8wNNe4Syhnm06R3isAwUIx5KJCdmOKs51iJZdJvEZA4aC
T4SK1PE02+eKpF+WcVuvk3TpI0QSuj+o6gcmpK4+Ijc0xVDfmjFE+j6ezIrMNRt1BIBNGrUfTTFW
YoiRoEjUIiiiqooAPAAYq84jg0e51HzsdZWF7uMn0zPx5pAIj6Zj5bj9n7PentirKfILXLeTtJNx
X1PQAHLrwBIj/wCEpiqzULO1u/N9rHcxLNGtmzhHAZahyBUHY9cVZEAAAAKAdBirHDBC1nrEjIC4
ncBiNxRq7HFUULeGC/0n0lCco5AxG1aRg7+PXFU5xV2KuxV2KuxV2KuxV2KuxV2KuxV2KuxVxAIo
dweoxVjuseRtF1NlZg8A5BpFiICsAakUNeP0ZpNT2Bp8sxIXHvrkf1fB2mm7Wy4hXP3p3Y2NnY2y
WtnEsMEYokaig/tPuc2+LDHHERgKiHX5csskuKRslXyxrQ1vptjbXVzdwQrHc3hU3Mo6uUBC1+QO
KonFUOun2S3zX4hUXjxiFp/2jGDyC/KuKqs8EFxC8E8aywyArJG4DKynqCDsRiqX6f5Z0DTpVmsb
CG3lXlxkjUBvjADb9e2KpniqA03QdG0t5X0+zitWnp6piXjypWn68VVr/TbG/iSK8hWeON1lRW6B
1+y30YqicVSzUfLPl/Urhbm/sIbmdAAJHUE0HQHxHzxVMlVVUKoCqooqjYADsMVUza25uRdGMfWF
QxiTuFJrT78VVcVUfqdtwlT0xxmJaUfzE9ScVXG3hLxuUHKEERH+WooafRiqpirsVdirsVdirsVd
irsVdirsVdirsVdirsVdirsVdirsVdirsVdirsVdirsVdirsVdirsVdirsVdirsVdirsVdirsVdi
rsVdirsVdirsVdirsVdirsVdirsVdirsVdirsVdirsVdirsVdirsVdirsVdirsVdirsVdirsVdir
sVdirsVdir//2Q==
									</xapGImg:image>
							</rdf:li>
						</rdf:Alt>
					</xap:Thumbnails>
				</rdf:Description>
				<rdf:Description  rdf:about="" xmlns:dc="http://purl.org/dc/elements/1.1/">
					<dc:format>image/svg+xml</dc:format>
				</rdf:Description>
			</rdf:RDF>
		</x:xmpmeta>
<?xpacket begin='﻿' id='W5M0MpCehiHzreSzNTczkc9d'?><x:xmpmeta xmlns:x='adobe:ns:meta/' x:xmptk='XMP toolkit 3.0-29, framework 1.6'>
<rdf:RDF xmlns:rdf='http://www.w3.org/1999/02/22-rdf-syntax-ns#' xmlns:iX='http://ns.adobe.com/iX/1.0/'>

 <rdf:Description rdf:about=''
  xmlns:pdf='http://ns.adobe.com/pdf/1.3/'>
 </rdf:Description>

 <rdf:Description rdf:about=''
  xmlns:tiff='http://ns.adobe.com/tiff/1.0/'>
 </rdf:Description>

 <rdf:Description rdf:about=''
  xmlns:xap='http://ns.adobe.com/xap/1.0/'
  xmlns:xapGImg='http://ns.adobe.com/xap/1.0/g/img/'>
  <xap:CreateDate>2005-04-04T07:58:17Z</xap:CreateDate>
  <xap:ModifyDate>2005-04-20T12:01:29Z</xap:ModifyDate>
  <xap:CreatorTool>Illustrator</xap:CreatorTool>
  <xap:Thumbnails>
   <rdf:Alt>
    <rdf:li rdf:parseType='Resource'>
     <xapGImg:format>JPEG</xapGImg:format>
     <xapGImg:width>256</xapGImg:width>
     <xapGImg:height>256</xapGImg:height>
     <xapGImg:image>/9j/4AAQSkZJRgABAgEASABIAAD/7QAsUGhvdG9zaG9wIDMuMAA4QklNA+0AAAAAABAASAAAAAEA&#xA;AQBIAAAAAQAB/+4ADkFkb2JlAGTAAAAAAf/bAIQABgQEBAUEBgUFBgkGBQYJCwgGBggLDAoKCwoK&#xA;DBAMDAwMDAwQDA4PEA8ODBMTFBQTExwbGxscHx8fHx8fHx8fHwEHBwcNDA0YEBAYGhURFRofHx8f&#xA;Hx8fHx8fHx8fHx8fHx8fHx8fHx8fHx8fHx8fHx8fHx8fHx8fHx8fHx8fHx8f/8AAEQgBAAEAAwER&#xA;AAIRAQMRAf/EAaIAAAAHAQEBAQEAAAAAAAAAAAQFAwIGAQAHCAkKCwEAAgIDAQEBAQEAAAAAAAAA&#xA;AQACAwQFBgcICQoLEAACAQMDAgQCBgcDBAIGAnMBAgMRBAAFIRIxQVEGE2EicYEUMpGhBxWxQiPB&#xA;UtHhMxZi8CRygvElQzRTkqKyY3PCNUQnk6OzNhdUZHTD0uIIJoMJChgZhJRFRqS0VtNVKBry4/PE&#xA;1OT0ZXWFlaW1xdXl9WZ2hpamtsbW5vY3R1dnd4eXp7fH1+f3OEhYaHiImKi4yNjo+Ck5SVlpeYmZ&#xA;qbnJ2en5KjpKWmp6ipqqusra6voRAAICAQIDBQUEBQYECAMDbQEAAhEDBCESMUEFURNhIgZxgZEy&#xA;obHwFMHR4SNCFVJicvEzJDRDghaSUyWiY7LCB3PSNeJEgxdUkwgJChgZJjZFGidkdFU38qOzwygp&#xA;0+PzhJSktMTU5PRldYWVpbXF1eX1RlZmdoaWprbG1ub2R1dnd4eXp7fH1+f3OEhYaHiImKi4yNjo&#xA;+DlJWWl5iZmpucnZ6fkqOkpaanqKmqq6ytrq+v/aAAwDAQACEQMRAD8A9U4q7FXYq7FXYq7FXYq7&#xA;FXYq7FXYq7FXYq7FXYq7FXYq7FXYq7FXYq7FXYq7FXYq7FXYq7FXYq7FXYq7FXYq7FXYq7FXYq7F&#xA;XYq7FXYq7FXYq7FXYq7FXYq7FXYq7FXYq7FXYq7FXYq7FXYq7FXYq7FXYq7FXYq7FXYq7FXYq7FX&#xA;Yq7FXYq7FXYq7FXYq7FXYq7FXYq7FXYq7FXYq7FXYq7FXYq7FXYq7FXYq7FXYq7FXYq7FXYq7FXY&#xA;q7FXYq7FXYq7FXYq7FXYq0XQMFLAM32VJ3NPDImcQQCdymjzbySHYq7FXMyqCzEBRuSdhgJAFlBN&#xA;LIpopV5ROrr4qQR+GRhkjMXEghEZiQsG1+TZOxV2KuxV2KuxV2KuxV2KuxV2KuxV2KuxV2KuxV2K&#xA;uxV2KuxV2KuxV2KuxVZNPDBGZJnEca9WY0GU588MUTOZEYjqWUIGRoCyxvUvN43jsF9vXcf8RX+u&#xA;cN2p7Zc46Yf5x/QP1/J22DszrP5McmubiaUyyyM8h35k7/RnD59Tkyz45yMpd7tY44xFAbJlY+Zt&#xA;TtqK7fWIx+zJufobr9+bzQe1OrwbSPiR7pc/9Nz+duJm7Pxz5ek+TIbHzPptzRZG+ryH9mT7P0N0&#xA;++mdtoParS59pHw5f0uX+m5fOnV5uz8kOXqHkq32vWdsOKH1peyodvpbNjqu1cWMek8UvL9bpdRr&#xA;I49ucmOX2qXl4f3r0j7Rrso/r9Oc3qtdkzH1Hbu6OnzameTmdu5DxTTQvzidkbxUkH8MxseSUDcS&#xA;QWmMzE2DSa2vmW8joJ1Ey+P2W+8bfhm3wdtZI7THEPkXOxdozH1bpxa67p9xQc/Sc/sybfj0zc4O&#xA;1MOTrwnz/FOxxa3HPrR80wBBFRuD0ObEFy3Yq7FXYq7FXYq7FXYq7FXYq7FXYq7FXYq7FXYq7FXY&#xA;q7FXYq7FUq8y602j6eLpY/ULSCPfovIE8iO/TNR232hPSYOOABkTW/Ic93N0Gk8fJw3W1sKm1aXU&#xA;m9WSf1fAdAtfBe2eTa/W6jUT4s0jL7h7uj0MNMMQoClPMFk7FXYqslliijMkrBEXqx2GGMTI0OaQ&#xA;CdglUPmT1tSgt7f4LdnAeRv2h7A9M3/Z+CeMiz8Ojg9tdmYzpZ5JxHHGO39rJs3T5g7FVG7vLWzg&#xA;ae6lWGFersaD5fPG2UYmRoMQ1XzXe31YtP5WlqdjcH+9cf5I/YHv1zrOxvZPNqqnlvHi/wBkfcOn&#xA;vPyL0fZ/YMp1LJsHaV5s8w6WI0tb1/RjAVYZDzSg/wAlq0r3I3z0mHY+mhjGOMajH5/Pq9R+RxcP&#xA;DTMdK/NlDxTVbPie81uaj/gGP/G2a/P2F1xy+B/W4mTsz+afmzHS/MuhaoALK8jkkP8AuonhJ/wD&#xA;UbNPn0eXF9UT+h1+TTzh9QTPMZpdirsVdirsVdirsVdirsVdirsVdirsVdirsVdirsVdirHfP0XP&#xA;y1O1P7p42+9wv/G2aD2mhejke4xP21+l2vY0q1A8wfueWI7IwZSVYdCNs8zezIB5o+31iVaCYcx/&#xA;MNjlE8APLZxZ6UHkmcF1BOKxuCe46H7sxp4zHm4k8co80LqOr2tktGPOb9mIdfp8MuwaWWTflHvZ&#xA;4sEp+5i1/qV1eycpm+EfZjH2Rm6w4I4xQdnjwxhyQ8X94vzzJx/UHW9vf4ll/qpvZ6vf2lBFISg/&#xA;3W/xL/Z9GZ744jL/AM9xWdl6j2/78ninxfu6nux65fpdNPPljjxi5y5OVpNKc8xAMdmu59SkF3dz&#xA;i5b/AHWFP7pP9RRt9PXPU+xfZTDpankrJl/2MfcP0n4U9xoOyceAWd5N51rtnYq7FWwSDUdcVR2h&#xA;/mprFr5i0vQ7W8N2L27gtZRMfUSNZZVjNGPxVAboDmj7QwYDEkR9QHTZ1uqx4qNDd77nLuldirsV&#xA;dirsVdirsVdirsVdirsVdirsVdirsVdirsVSjzbF6vlu/Xwj5f8AAEN/DNV23Di0eQf0fu3c7s2V&#xA;aiHveQZ5S924Ak0G5PbFCsIWT4iaMOlO2WcFc2BkCkLli7ciWapqx6k5sacgLcUrov7xfnlmP6g6&#xA;jt7/ABLL/VRJIGbvS6GeXflHvfFc2ojD3pbrnxWlDuK9M7PsHSwxamAiOvP4Fr0GeUswNsejSSB/&#xA;UtpGgfvx+yfmp2z0ent9P2vlhtL1D7fmmFvr88dFvIuS/wC/ov4qcXeaftLFl2uj3FNra9tbpeUE&#xA;iuO4HUfMdcLsF1zcwW0LTTuI4l+0zdMjKQAsoJA5sI13zdcXnK3s6w224Z+juP8AjUZr82pMthyc&#xA;TJmJ2HJV/LKH1vzB8vpttexPv/kNz/41zXak/u5e5xM30F9hZzzqnYq7FXYq7FXYq7FXYq7FXYq7&#xA;FXYq7FXYq7FXYq7FUJrEXq6RexfzwSr96EZia+HFgyR74S+5v0suHLE/0h97xq2tJrhqRjYfaY9B&#xA;nkePFKZ2e+yZBEbpitnHbrt8T92OZgwiA83EOUyQs/fKJt8GNSf3jfM/rzMDmDktyUYmRocyxnMR&#xA;BJ5Bcn2hnSaHskRIlk3Pd0eF9o+2zk02SGPaNc+v7FfOjAfI0u1v/eUf62bPsYf4VD4/7kuw7M/v&#xA;QkWd89K7FUPcGCL96SY5P2WQ0avtTJRiTydhpNbmgaibHceSRavqN5dzATytIqAcFPQbe1N/fNXr&#xA;L4yO56GWQyAJ7kBmKxZr+TEPrfmboabbSTPv0+C3kf8A41zG1h/dFqz/AEF9aZoHVuxV2KuxV2Ku&#xA;xV2KuxV2KuxV2KuxV2KuxV2KuxV2KtOodGU9GBB+RwSFikg0bYjf+U5rWP8A0AerAvSMbOP+av1+&#xA;2chq+wZ4x+69Ue7r+38bO8w9pCZ9ex+z9jF7pWRmVgVZTRlIoQR4jObyxINHm7jGQdwls/fMGbmQ&#xA;Y3N/ev8A6x/XmXHkHMCm4Jjagrsc2PZenyZdRAQF+ofe42uF4J/1T9y21khICiXhN3jlFAf9Vume&#xA;jns/h/rPiXampy5DwSBgO7v+PX7kSXKHjKpQ9q9D8jmLPFKPN0MsRCB1r/eQfMZn9jf41D4/7kub&#xA;2Z/ehIs756RC3V6kNVX4pPDsPnlkMZPubseEy3PJK5JHkYs5qTmUAByc2MQNgl93/ft9H6hnPaz+&#xA;9k7uP0j+qPuUcxkvQ/yEh9T8yrF6D9zDcPv13iZNvf48w9cf3RaNT9D6mzRutdirsVdirsVdirsV&#xA;dirsVdirsVdirsVdirsVdirsVdirsVSvXrLQ5bV59TKQogp9ZJCMvhRu/sN8wtZ2fh1A9Y37+v4+&#xA;xzNHlzCQGOye55PfXmmm7kjtJXkgB/dyyLw5fRU/jnF9o+zubF6sf7yP+y+XX4fJ7bDiycIMhUu4&#xA;bpDLGWnkPbkd/pw9l9j5M4Bl6Yd/6nMiNnMoEbAeB/Vnd6HTY8FRgKFhhqR+6l/VP3JcyqwoRUZ0&#xA;5APN87y4o5BUhYXRS3EI4xvyj/31J8S/1GY09MDydHqewonfEa8juP1j7UHqF7HdBLW1jb6078BG&#xA;rKUDVHjlOmjj0+YZJ7CN/cQ6OMTps4jOO5SnWYNV04rFc27QM/STqp/1WFR+OdfotRhzjihIS/Hc&#xA;9HhhGW6S9c2LmOxVBXwAuWA8EP3qM5rUm8kve7sch7h9y/TNMv8AVL2KxsIGuLqY0jiQVJ9z4Ady&#xA;emYeo1EMMDPIeGI6qTT6D/KXyDY+WNSjmuGW71ueN0mlUn0oF41KR/zEkULH6M8/HtadZrRgxj91&#xA;v79gT+A1ajFI4zI7B65m+dW7FXYq7FXYq7FXYq7FXYq7FXYq7FXYq7FXYq7FXYq7FXYq8h/5yHuL&#xA;y0stDvbaQxtHNPG1Oh5qjUI6H7HfJwFvdexEITnlhIXcYn5X+t5jpfnO3lpHfr6L9PVWpQ/MdRhO&#xA;Puev1HZUo7w3Hd1ZHHJHIgeNg6NurKag5W6qUSDRbb7J+WShzDVmFwPuKVyzRQxtJKwRF3LHYZ0L&#xA;52k4udT1qdrXSkMduNpbltgB8+3yG+U6jUwwi5H4MM+eGEXM/BlGjeXrLTIEVR60ynmZnAry61Uf&#xA;s9M5jV6yWYm9o9zyuqzeNl8Qjfomd3cJIgiuI1kjavJSAQenVTtmDgjkxS4sUjEt+HPtuxzUfJen&#xA;XQMmnyfVpevA1aM/R9pfxzqtD7W5MZ4dRGx39f2/jdz4ZvixXUtD1PTmP1qEiOtBMvxIf9kP452e&#xA;j7SwagXjlfl1b4zBa0TyjrHmXV2t7CPjDGqG5u5Nool4jdm8T2UbnOV7b7WwaISnlPU0Op/He747&#xA;UPc9p8u+XNH8tWRtdLUtNIALvUHFJZT4D+RPBRnhnb3tLm10+dQHIfj7/ucvDpusubJ/Kq11iM+C&#xA;ufwpg9ko3ro+UZfcx7RP7o/Bm+esvOuxV2KuxV2KuxV2KuxV2KuxV2KuxV2KuxV2KuxV2KuxV2Kv&#xA;LP8AnIq3EnkqzmH2odQj/wCBaKUH8aZPHzez9h51rJDvxn74vnPLn1VGafqt/YPytpSoP2ozuh+Y&#xA;wEAtGbTQyj1BkQ8+Wkdk8lzA4nUbIm6sTt1P2cr4KLodZ2cYDY7HZUsPLuq6y8d5qvO1sWo8NvQq&#xA;zKehAPQHxO+ZGftnEARiInLv6D9r472hrfy5MALn9n7WYWtrb2sCwW8YiiTZUXpmgyZJTPFI2XmM&#xA;mSUzxSNlVyDBD3fVfpyePq3Y+SHBINQaHxywgHm2g0jIJC0TtckC0XaWRhUb/s0/aJ8M12pzjT74&#xA;yfE6R/HIebk48hP1cu9mAhtrSEWllCltarRxFEoQFmAJZgO+eYa/tTPq58eWVl7vS4gIg9VuYDlJ&#xA;15RAOrE+ETEfeBnVexwvWf5h/Q6/tP8AuvizTPVHn3Yq7FXYq7FXYq7FXYq7FXYq7FXYq7FXYq7F&#xA;XYq7FXYq7FWAfnpb+r+XF+/++JbeT75lT/jfJw5vTeyE67QgP5wkP9iT+h8v5c+xOxVSunKW7sDR&#xA;hx4n3DA4CL2cLtCPFjro9tt9QmiURuBND/vt96fI9RnlESYniieGXk/OXHYqW4RCx2tz/vM/CT/f&#xA;EhoT/qt3zc6btkjbKP8AOH6R+px56QHeB+ChJG8bFXUqw7HN5jyxmOKJsOFKBiaKFu+q/Tl+Pq2Y&#xA;+S304YIRc3ZKxH+7jH25CP5fbxOYOr1/CeDHvP7I+/8AU5MYAC5cvvSq+v5rtxyASJNooV+yo/r4&#xA;nNZGFEkm5HmWuczL3PTJvt/7Ff8AiIzzWqfSNP8A3Y9yzFuT7yaD+kpT2EJH3sudh7FD/CpH/az/&#xA;ALqLre1D+7H9b9BZhnpzoXYq7FXYq7FXYq7FXYq7FXYq7FXYq7FXYq7FXYq7FXYq7FWKfmrbfWPy&#xA;81yOleNv6nb/AHU6yd/9XJR5u79nMnDr8R/pV8xT5Ly99tdiqhfD/Rn9qfrGLjaz+7L2G3NYIzWt&#xA;VU1+jPKcg9R97835RUz71TINaMg1JwoiuF9eLsG+0Pk2SxzljPFA8JZmXEKkLClf3Wl26rOvKZzX&#xA;0rdxQA+LnuB4d83GPtDPljw/T3yH6PNpMIQ3G/kx66up7qZpp25OfuA7ADsMnDGIig48pmRsqOSY&#xA;vV7hSspU7EBQR7gDPM5Gzb6ZgFQC+ysri8uFggXk7d+wHiT4ZlaLQ5dTkGPGLkfs8z5MsuWOOPFJ&#xA;nGk6Rb6dBxT4pmH72XufYe2et9j9jYtFjqO8z9Uu/wDY85qdTLKd+Xcj83DjOxV2KuxV2KuxV2Ku&#xA;xV2KuxV2KuxV2KuxV2KuxV2KuxV2KqN5Z2t7aTWd3Es1tcI0c0TiqsjChBxbMWWWOQnE1KJsF4x5&#xA;1/5x7VvUvPKk3E7sdMuG2+UUp/U//BZYMne9/wBle2xFQ1Q/zx+kfq+TxnVNJ1PSrx7LUrWS0uo/&#xA;tRSqVPzFeo8CNstBe+0+px5oCeOQlE9QgJ1BgkBFfhY/cK4sdZ/dH4fe9Y01g2nWrDcGGMg/NRnl&#xA;mpFZJf1j97856wVmmP6R+9E5S47sVS/Vf91f7L+GbPRfSfe0ZkvzMaXYq9jTT7i+1J4YBvWrMeii&#xA;nU55/wBm9nZdXkGPGOgs9AO8vpBzRx47LMtM0u20+3EUQq5/vJT1Y/09s9e7K7KxaLHwQ+rrLqf2&#xA;dwdBqNRLLKyjM2bQ7FXYq7FXYq7FXYq7FXYq7FXYq7FXYq7FXYq7FXYq7FXYq7FXYq7FUr8weWNB&#xA;8w2Zs9Ys47qLfgzCjoT3jcUZT8jhBpzNF2hn0s+PFIxP2H3jkXiPnL/nHvWbZnl8sTC/tpfgFrOy&#xA;xzR8/h+2aI6rWpOx9jlgyd73uk9ssWXGYagcE65jeJr7R9rl06bTANNnZWmsR9WlZK8S0XwMVrQ0&#xA;queZ6wVmn/Wl975Tq8gnmnIdZE/a3mM47sVS7VftR/I/wzaaL6D72jLzQGZbSnHlnyvqXmG/FrZr&#xA;xRd57hq8I18T4k9h3y/T6eWWVBtxYTM0H0Jb2tvbhhCgQOeTU7nN/o9Dh00eHFERD0E8kpcyq5ls&#xA;HYq7FXYq7FXYq7FXYq7FXYq7FXYq7FXYq7FXYq7FXYq7FXYq7FXYq7FXYq7FWPa/5I0fVuUoX6re&#xA;NU+vEB8RPd16N+v3zVa3sjFn3+mfeP0tU8Il73nOu+UdZ0di00Xq23a5i+JP9l3X6c5TWdmZcG5F&#xA;x7x+NnDniMUlzXtaXar9qP5H+GbTRfQfe0ZeaY+UfJ2oeY7zhF+6soiPrN0Rso/lX+Zj4ffm102l&#xA;llO3LvThwHIfJ7no2i6fo1hHY2EfpwpuSd2Zj1Zz3Jzo8WKOOPDF3GPGICgjssZuxV2KuxV2KuxV&#xA;2KuxV2KuxV2KuxV2KuxV2KuxV2KuxV2KuxV2KuxV2KuxV2KuxV2KuZQwKsAVIoQdwQcSLViWvfl3&#xA;pd9ymsKWVyd+Kj90x91H2f8AY/dmj1nYePJvD0S+z9nwaJ4AeWzD7X8sNZvdYW3vx9WsYN5rhSG5&#xA;g9Fi9zTuNu/hmHoeyskSYz2F8/1OJ+VlKW/J6rp2nWWnWcVnZRCG3hFERf1nxJ7nOlhAQFDk7CMR&#xA;EUERk2TsVdirsVdirsVdirsVdirsVdirsVdirsVdirsVdirsVdirsVdirsVdirsVdirsVdirsVdi&#xA;rsVdirsVdirsVdirsVdirsVdirsVdirsVdirsVdirsVdirsVdirsVdirsVdirsVdirsVdirsVdir&#xA;sVdirsVdirsVdirsVdirsVdirsVdirsVdirsVdirsVdirsVdirsVdirsVdirsVdirsVdirsVdirs&#xA;VdirsVdirsVdirsVdirsVdirsVdirsVdirsVdirsVdirsVdirsVdirsVdirsVdirsVdirsVdirsV&#xA;dirsVSVPO3k9/MZ8srrNm3mBRyOlieP6xsvMj068uXD4uPXjv0xVOsVdirsVdirsVedfmZ+YdxpM&#xA;v6H0lwt8VDXVzsTEGFQqg/tEb17D8NnodGJ+qXJxs+atgxzSvy385a5bLqV9qBtzcAPH9YeSSVlO&#xA;4LDsD88ysmtxYzwgXXc1RwyluS9D8i+WNQ8vadcWl7dLdmSb1InUtsvEClG6bg5rNXnjlkCBTk4o&#xA;GIorvOPmGbTYI7a1PG6nBJfqUQbVHuT0x02ETNnkFyTpINP8r61qtj+kGuyHlqYlkZmZ6GlS1dq5&#xA;kzzwgeGmsYyRa/yv5jv7XUk06+dpIZH9Kkhq0claDc9q7UwajDEx4gnHMg0Wf5rXIdirsVdirsVd&#xA;irsVdirsVdirsVdirsVYf+b3nK58mfltrvmS0VWvLGBVteQqomnkSCJmHcK8oYjvir5b/J38ob/8&#xA;7Bq3mjzl5kvZFtrj6sgVhJO0pVZGNZeSxxgMAqqvypTFX0d+UH5LaZ+WTaumm6rdaha6p9W4w3QS&#xA;sJt/VqVKcQefrb/COnfFUZ5+/Oz8uPIlytn5g1QJqLqHGn26PPOFPRnVAQgPbmRXtirfkD86vy68&#xA;+XElp5e1P1NQiUyPYTxvBPwBoWVXADgd+BNO+Kphr/5m+TtA816V5V1S8aDWdaCnT4fTco/qOY1r&#xA;IBwWrrTc4qkEn/OQ/wCU36fbQrfWfrl7GkzyvawyywqLaJ5pP3oXg1EjP2CcVeV+UZP+cePMf552&#xA;vmfRtc1K48x6hcvc2ulvDJHbG69Jizl2iVgtAWCl/te3w4q+h/M/mry95W0eXWPMF9Hp+mw0Dzy1&#xA;3Y9FRVDO7HsqgnFXnOk/85T/AJMalqKWI1eS0aRuEdxdW8sUJJNBWShCA+L0Hjir1S71Cxs7GW/u&#xA;7iO3sYIzNNdSMFiSNRyLs5NAoG9cVeS3n/OWH5LW161sup3Fwqtxa5htZjF1oSCwViB4hflXFXp3&#xA;lzzNovmTQbXXtHuPrOlXqGS3uCjx1VWKtVZArCjKRuMVfP66la3/AJqGpaoT9Unu/XuhQsfT58ig&#xA;A/yfhGdTwGOPhjzp1fFcrL0h/wA79LE3GPS52gr9tnRWp/qAMP8Ahs1Y7KlX1ByvzQ7ma+W/NGk+&#xA;YbI3WnyE8CFmhcUkjY9AwBPXsRtmBnwSxGpN8MgkLDC/PExk8wyoTURJGg9qrz/42zP0gqDRlPqZ&#xA;/o6BNJskHRYIh/wgzW5T6j73IjyDzXzD+58w3jR7FZi4PuTy/Xm1w7wHucaf1PVEYMisOjAH7805&#xA;ctvFXYq7FXYq7FXYq7FXYq7FXYq7FXYqkXnrylZeb/KGq+Wr1jHBqcBi9UCpjcENHIB34SKrU9sV&#xA;fFAh/Ob/AJx98zPMqGOxuXCNLQzaZfKlSoJ+GjAE0+zIPlir6k/Kr8+fL/n7yvqGpRQNZ6vo8DT6&#xA;npRbkQqqWDxPQc0bjTpUHY9iVXzJ+RnmbydqX5s6n5t/My+tqvDNdQNfDnE15LIirRSGH7uMtwWm&#xA;21OmKrvP3mLyVov/ADkBo/mP8vri3GlLNZ3M5sQUgEjSFLmMKoFBJH9oAftHFWQ/85rO8f5haBJG&#xA;xR00tWR1NCCLmUggjFXuX5a/84+flp5b0vR7/wDRK3WvR2ytc6hPJK5eWaHjN+6L+lwIdl48aU8T&#xA;virwXQLOzsv+cyBaWcEdtaw6pcLFBCixxov1R9lVQAB8sVXf85ceZptW/NXTvK9zcG30bSYoBJv8&#xA;KyXZDyzH5RFB9Hviqa/85Daj+Quofl1aQ+TJ9MOtaXNBHZrYoEmNtRldHbipdd+R5Emu/jiqvd3n&#xA;mXzR/wA4a2y2fq3M2lTiDUFQFmaysp2K7D9mJPSJ9lriqX/84yeevyYsNDl8tebbGzg1q8umYalq&#xA;NvFLBPG4UJEZnVvSC8fsvRO9anFX1jaaXpWl6H9R0m2hs9Ohif6vbWyLHCivVzwVKKASxO2GPMIP&#xA;J8+eVNLi1XzHp+nzVMM8wEoGxKL8TCvuozqdRkMMZkHWY43IB7V5z8qaLceVL6OKyhhktLd5rV44&#xA;1RlaJeQAIA2bjQ5odNqJjILJ3LnZcYMTs83/ACfvpoPNy26n91dwyJIvb4B6in5jj+ObTtKAOK+4&#xA;uNpj6mSedFI8yXZP7QjI/wCRaj+GYul/uw25fqeiaVvpdn/xgj/4gM1mT6j73JjyeaeZ/wDjv33/&#xA;ABkP6hm1wfQHFnzL1KEEQoDsQoqPozUHm5YX4FdirsVdirsVdirsVdirsVdirsVdiqD1fWNJ0bT5&#xA;NR1a8h0/T4Sgmu7mRYok9RxGnN3IVauwG5xVi3nTzn+VMvlLUP8AEWraZeaFNA4uIPXhm9UAE8Yk&#xA;ViWkqPg478umKvlz/nD7y/f6p5x8xuhePTjok9ldzKKjndyRiJd+9I3Yf6uKpH+Q9t5K0X80b7y9&#xA;+ZdhaCJoprEfpNUMMF7FKpHMyfCnIIyhj7eOKvqZvJ//ADjnbXdpEdP8tR3dzNHDZRD6r6sk7sFj&#xA;SJQeTMWIoBirwP8A5za/5T/Qv+2UP+omXFX2BpP/AByrL/jBF/xAYq+P9M/9bSf/ALatx/1BviqE&#xA;/wCct9Dn0f8AN+y8wXNv9Y0zVLe3mUMPgka0IimhNf8AIVCfZsVe9aPoH/OMuraNBrFpp/lsWM8Y&#xA;kDSraxMgIqVkVyCjL0YHpirMdF1D8s/L/lm0k0i70rTPLV9M0djLDLDDZzTPy5LG9RG7N6TdDvQ4&#xA;q+a/+crPIn5T6Vpdl5g8tSWtlr17dLHLp1hJGYZoWjZmm9FDSPiVX4kABruKmuKvZ/8AnF291a8/&#xA;JbRH1Jmk9NriG0kfdjbRTukY37LQoPYDFWIWyf4X8+RrdKVi0+8HM7n9yW2cf8825DOmkfFw7dQ6&#xA;0eie/R67518z6Pb+Ur6WK8hla7geG1EUisXaVSlV4k148qnNJpcEjlArkXNyzAiXnf5N6XNceZnv&#xA;wp9Cyhbk/bnL8Cr93I/Rmz7TyAY66lxdNG5Wy78wLJ49TiuwP3c8YXl/lodx9xGYejlcab8w3tkn&#xA;lvWLGTQbd3mRDbRiOYMQCvpim/zAzFz4yJnbm2QkKYMqnWPMZ9MErdXBanhGWqSfkubD6MfuDR9U&#xA;nqmady3Yq7FXYq7FXYq7FXYq7FXYq7FXYq7FUn83+U9E83eXbzy9rkTT6XfBBcRo7RsfSkWVCHQg&#xA;ijxqcVeTp/zh3+T63AlP6SZK19A3S8KeFRGHp/ssVereUfJflfyhpC6T5c0+PT7FTzZI6lnegBeR&#xA;2LO7UHViTirGPzA/Ij8tfPd5+kNb05k1QqEbUbSRoJmUCg50qj0AoC6kjp0xVI/K3/OLX5T+XdZs&#xA;9Yt4L27vtPnjurNrm5Yqk0LB434xCLlxZQaNUeNcVT78xPyP8h/mBqltqfmKK4kurSD6tCYJjEvp&#xA;82fcAGpq5xVnkEKQQRwx/YiUItdzRRQYqwOH8j/IcP5hHz8kVx/iEzvcmQzH0vUeMxn93SlOLYqy&#xA;Tzf5K8r+cNIbSPMmnx6hYswdUfkrI42DxyIVdG3pVSNtumKvKx/zh5+T4uPVI1Ix1J+rm6HD5VEf&#xA;P/hsVZtrP5Lfl9q/kew8k3NlIvl/S5RPYwRzyh45QJBy9QszN/fvs1Rv8sVYbp3/ADiF+TtpdpcS&#xA;wX98imv1a4uj6Z+fpLE//DYq9ksbGysLKCxsYEtrO2RYre3iUIiIgoqqo2AAxVI/NfkPRPMnGW5D&#xA;QXqLxS6ioGp2VgdmH+dcytPq54uXJqyYhJisH5HWCy1n1WWSKu6JEqNT/WLOPwzMPap6RahpR3s+&#xA;0TQtM0SwWx06ERQqeTHqzserO3cnNblyyyG5ORGAiKCtqGnWmoWrW10nONt/Ag9ip7HBCZibCSAW&#xA;MSflzbF6x3rqn8rIGP3gr+rMsa09zV4PmneieWtO0mrwgyTsKNM9K08BToMx8ueU+fJnGACa5Szd&#xA;irsVdirsVdirsVdirsVdirsVdirsVUrq6t7WBp7hxHElOTn3NB+OU6jUQwwM5mohnjxynLhiLLH5&#xA;/OaCcCG35wDqzGjH5daZxOf22iMlY8d4/M0T7u78cnaQ7KPDud010vXdP1JpI7dz60QDSxMN1DVp&#xA;Wm29M6jsvtfFrY8ULBHMEfgFwtRpJ4qMuR6phm0cVid954vYdQ1a2tdHe8h0bg15MkyKQjoX5BGF&#xA;TQKdhirI9M1G31LTre/tiTBcxrJHXYgMK0PuOhxVL4tbuH83T6KY0+rxWS3Qk35lmk4U60pTFU3l&#xA;mihiaWZ1jiQFnkchVUDqSTsMVQ1jrGk37Mthe292yCriCVJCoPSvAmmKq15eW1nay3V1IsNvCpeW&#xA;RjQADFUBoHmTSddtBcWEysdy8BZTKg5FVLoCSvLjUVxVC+cfNMXl7TkmHpvd3EgitoZXCAkkcnPf&#xA;ilfixVMtHnvLjT4prt7eSWQFhJZszwMpPwlGbc1GKuvNZ0iylWG9vre2lcVSOaVI2YVpUBiCcVRg&#xA;IIqNwehxVRnvbO3r688cNAGPqOq0BNAdz44qrAggEGoPQ4qpNeWisFaeMMSVCllBqDQjr44q3HdW&#xA;0jmOOVHkX7SKwJFPEDFVTFXYq7FXYq7FXYq7FXYq7FXYq7FXYq7FUn83wNP5cvo1BZiisANySrq3&#xA;b5Zqe3MfHo8g8vuILn9mT4dRE/jk8pvZdQsbJv3pVjQcevEH3zzKOlHEOIbvZREMkuTJPygWQz6p&#xA;KwYqViHM1oWqxpXxztvZmO8+7b9LpvaIioD3/oelZ1ry7zeKw13UPNXnCy0ye3t4rk20V5NMru4R&#xA;4XX90FIFaE9cVZ7pGmQ6Xpdrp8BLRWsaxqzdTxG5NPHriqQW/wD5M27/AO2VH/yfxVNvM+pwaXoF&#xA;7fz24uooY/ityKh+RChW2barb7dMVYdpDXJ/MDTXuEsoZ5tOkd4rAMFCMeSiQnZjirOdYiWXSbxG&#xA;QOGgk+EitTxNNvniqRflnFbr5N06SNEEro/qOoHJqSuPiI3NMVQ35oxRPo+nsyKzDUbdQSATRq1H&#xA;00xVmKIkaBI1CIooqqKADwAGKvOI4NHudR87HWVhe7jJ9Mz8eaQCI+mY+W4/Z+z3p7YqynyC1y3k&#xA;7STcV9T0ABy68ASI/wDhKYqs1Cztbvzfax3MSzRrZs4RwGWocgVB2PXFWRAAAACgHQYqxwwQtZ6x&#xA;IyAuJ3AYjcUauxxVFC3hgv8ASfSUJyjkDEbVpGDv49cVTnFXYq7FXYq7FXYq7FXYq7FXYq7FXYq7&#xA;FXEAih3B6jFWO6x5G0XU2VmDwDkGkWIgKwBqRQ14/Rmk1PYGnyzEhce+uR/V8HaabtbLiFc/endj&#xA;Y2djbJa2cSwwRiiRqKD+0+5zb4sMccRGAqIdflyyyS4pGyVfLGtDW+m2NtdXN3BCsdzeFTcyjq5Q&#xA;ELX5A4qicVQ66fZLfNfiFRePGIWn/aMYPIL8q4qqzwQXELwTxrLDICskbgMrKeoIOxGKpfp/lnQN&#xA;OlWaxsIbeVeXGSNQG+MANv17YqmeKoDTdB0bS3lfT7OK1aenqmJePKlafrxVWv8ATbG/iSK8hWeO&#xA;N1lRW6B1+y30YqicVSzUfLPl/Urhbm/sIbmdAAJHUE0HQHxHzxVMlVVUKoCqooqjYADsMVUza25u&#xA;RdGMfWFQxiTuFJrT78VVcVUfqdtwlT0xxmJaUfzE9ScVXG3hLxuUHKEERH+WooafRiqpirsVdirs&#xA;VdirsVdirsVdirsVdirsVdirsVdirsVdirsVdirsVdirsVdirsVdirsVdirsVdirsVdirsVdirsV&#xA;dirsVdirsVdirsVdirsVdirsVdirsVdirsVdirsVdirsVdirsVdirsVdirsVdirsVdirsVdirsVd&#xA;irsVdirsVdirsVdir//Z</xapGImg:image>
    </rdf:li>
   </rdf:Alt>
  </xap:Thumbnails>
 </rdf:Description>

 <rdf:Description rdf:about=''
  xmlns:dc='http://purl.org/dc/elements/1.1/'>
  <dc:format>image/svg+xml</dc:format>
 </rdf:Description>

</rdf:RDF>
</x:xmpmeta>
                                                                                                                                                                                                                                                                                                                                                                                                                                                                                                                                                                                                                                                                                                                                                                                                                                                                                                                                                                                                                                                                                                                                                                                                                                                                                                                                                                                                                                                                                                                                                                                                                                                                                                                                                                                                                                                                                                                                                                                                                                                                                                                                <?xpacket end='w'?>
			</metadata>
		<g id="_x30_1">
			<rect fill="none" width="352" height="352"/> 
		</g>
		<g id="_x32_3">
			<path d="M82.136,289.623c-2.612,0-5.184-0.329-7.715-0.984v-4.279c2.772,0.754,5.231,1.131,7.378,1.131
				c2.035,0,3.625-0.457,4.771-1.37s1.718-2.211,1.718-3.894c0-1.586-0.473-2.832-1.418-3.738c-0.945-0.904-2.7-2.086-5.263-3.545
				c-2.804-1.569-4.695-3.151-5.672-4.746c-0.978-1.594-1.466-3.408-1.466-5.442c0-3.237,1.085-5.668,3.257-7.295
				c2.171-1.626,5.003-2.438,8.496-2.438c2.532,0,4.863,0.24,6.994,0.722v4.183c-2.259-0.514-4.358-0.771-6.297-0.771
				c-1.762,0-3.172,0.418-4.229,1.25c-1.058,0.834-1.586,1.988-1.586,3.462c0,1.426,0.46,2.567,1.382,3.425
				c0.922,0.857,2.496,1.902,4.723,3.137c3.076,1.715,5.135,3.373,6.177,4.975c1.041,1.603,1.562,3.404,1.562,5.408
				c0,3.604-1.069,6.309-3.208,8.11C89.601,288.723,86.398,289.623,82.136,289.623z"/>
			<path d="M119.364,288.396c-2.692,0.816-5.488,1.227-8.388,1.227c-4.198,0-7.346-1.21-9.445-3.629
				c-2.099-2.42-3.148-6.049-3.148-10.889c0-4.276,1.03-7.742,3.088-10.395c2.059-2.65,4.931-3.979,8.616-3.979
				c3.396,0,5.98,1.127,7.75,3.377c1.77,2.252,2.656,6.414,2.656,12.486h-15.309c0,3.012,0.577,5.271,1.73,6.776
				s2.884,2.259,5.191,2.259c1.923,0,4.342-0.408,7.258-1.227L119.364,288.396L119.364,288.396z M105.184,273.04h8.892
				c0-3.302-0.353-5.576-1.057-6.826c-0.705-1.249-1.73-1.874-3.077-1.874c-1.506,0-2.651,0.674-3.437,2.02
				C105.719,267.705,105.28,269.932,105.184,273.04z"/>
			<path d="M125.805,289.238v-28.096h3.797l1.273,4.662c0.785-1.634,1.867-2.863,3.245-3.689c1.378-0.824,3.052-1.236,5.023-1.236
				c0.513,0,0.889,0.016,1.129,0.049v5.383c-0.897-0.063-1.554-0.097-1.971-0.097c-2.163,0-3.701,0.478-4.614,1.431
				s-1.37,2.527-1.37,4.724v16.87H125.805L125.805,289.238z"/>
			<path d="M145.104,289.238v-24.273h-3.101v-3.82h9.589v28.094H145.104L145.104,289.238z M148.348,257.635
				c-1.057,0-1.918-0.297-2.583-0.89s-0.997-1.378-0.997-2.354c0-0.978,0.332-1.764,0.997-2.355s1.526-0.889,2.583-0.889
				c1.025,0,1.883,0.305,2.572,0.912c0.689,0.608,1.033,1.387,1.033,2.332c0,0.992-0.336,1.781-1.009,2.366
				C150.271,257.342,149.405,257.635,148.348,257.635z"/>
			<path d="M178.197,288.396c-2.692,0.816-5.488,1.227-8.388,1.227c-4.198,0-7.346-1.21-9.445-3.629
				c-2.099-2.42-3.148-6.049-3.148-10.889c0-4.276,1.029-7.742,3.088-10.395c2.059-2.65,4.931-3.979,8.616-3.979
				c3.396,0,5.98,1.127,7.75,3.377c1.771,2.252,2.656,6.414,2.656,12.486h-15.31c0,3.012,0.577,5.271,1.73,6.776
				c1.153,1.506,2.884,2.259,5.191,2.259c1.923,0,4.342-0.408,7.258-1.227v3.992H178.197z M164.018,273.04h8.893
				c0-3.302-0.353-5.576-1.058-6.826c-0.705-1.249-1.73-1.874-3.076-1.874c-1.506,0-2.652,0.674-3.437,2.02
				C164.555,267.705,164.114,269.932,164.018,273.04z"/>
			<path d="M190.693,289.623c-2.402,0-4.989-0.329-7.762-0.984v-4.184c2.739,0.834,4.998,1.25,6.776,1.25
				c1.649,0,2.894-0.324,3.726-0.975c0.834-0.647,1.25-1.621,1.25-2.92c0-0.769-0.231-1.484-0.697-2.149
				c-0.465-0.665-1.777-1.542-3.94-2.632c-1.458-0.754-2.624-1.446-3.497-2.079c-0.873-0.634-1.599-1.454-2.175-2.464
				c-0.577-1.01-0.865-2.268-0.865-3.772c0-2.5,0.921-4.454,2.765-5.864c1.843-1.41,4.205-2.115,7.09-2.115
				c2.498,0,4.773,0.313,6.824,0.938v3.989c-2.002-0.688-3.916-1.033-5.744-1.033c-1.488,0-2.604,0.305-3.34,0.913
				s-1.104,1.522-1.104,2.739c0,0.642,0.22,1.242,0.66,1.804s1.702,1.354,3.784,2.379c2.916,1.427,4.768,2.82,5.553,4.183
				c0.785,1.361,1.178,2.867,1.178,4.519c0,2.788-0.896,4.896-2.691,6.319C196.688,288.91,194.092,289.623,190.693,289.623z"/>
			<path fill="#808080" d="M112.728,302.891h4.747c1.875,0,3.24,0.438,4.098,1.316c0.857,0.876,1.286,2.284,1.286,4.223
				c0,1.899-0.515,3.357-1.544,4.375c-1.029,1.018-2.497,1.525-4.404,1.525h-1.598v6.479h-2.584L112.728,302.891L112.728,302.891z
				 M115.312,304.607v7.979h1.454c1.169,0,2.031-0.312,2.583-0.931c0.553-0.622,0.829-1.674,0.829-3.155s-0.254-2.501-0.763-3.06
				c-0.509-0.555-1.304-0.834-2.385-0.834H115.312L115.312,304.607z"/>
			<rect x="135.898" y="301.786" fill="#808080" width="2.56" height="19.022"/> 
			<path fill="#808080" d="M159.537,318.788c-0.865,1.476-2.211,2.212-4.038,2.212c-1.273,0-2.265-0.359-2.974-1.074
				c-0.709-0.72-1.063-1.722-1.063-3.012c0-1.33,0.365-2.322,1.094-2.975c0.729-0.653,1.602-1.063,2.62-1.226
				c1.017-0.166,2.255-0.247,3.713-0.247v-1.646c0-1.625-0.869-2.438-2.607-2.438c-1.001,0-2.223,0.214-3.665,0.638v-1.791
				c1.45-0.399,2.828-0.601,4.134-0.601c1.538,0,2.706,0.369,3.503,1.112c0.797,0.738,1.195,1.83,1.195,3.273v9.793h-1.394
				L159.537,318.788z M158.888,313.994h-1.43c-1.146,0-2.005,0.242-2.578,0.727c-0.573,0.485-0.859,1.209-0.859,2.17
				c0,0.785,0.174,1.371,0.523,1.762c0.348,0.387,0.871,0.582,1.568,0.582c0.881,0,1.564-0.28,2.049-0.842
				c0.485-0.562,0.727-1.322,0.727-2.283V313.994z"/>
			<path fill="#808080" d="M181.83,320.566c-1.074,0.289-2.083,0.434-3.028,0.434c-1.09,0-1.887-0.256-2.392-0.764
				c-0.505-0.51-0.757-1.319-0.757-2.434v-9.302h-1.838v-0.961l3.737-3.81h0.661v3.101h3.4v1.67h-3.4v8.882
				c0,0.76,0.124,1.262,0.372,1.508c0.248,0.244,0.625,0.365,1.13,0.365c0.521,0,1.227-0.115,2.115-0.349V320.566L181.83,320.566z"
				/>
			<path fill="#808080" d="M198.402,301.594c0.81,0,1.595,0.096,2.354,0.287v1.742c-0.753-0.24-1.382-0.359-1.887-0.359
				c-0.802,0-1.306,0.254-1.515,0.762c-0.209,0.511-0.313,1.445-0.313,2.808h2.561v1.67h-2.561v12.306h-2.561v-12.306h-1.693v-1.67
				h1.693c0-2.123,0.324-3.526,0.975-4.211C196.107,301.936,197.089,301.594,198.402,301.594L198.402,301.594z"/>
			<path fill="#808080" d="M216.611,321c-1.883,0-3.293-0.617-4.229-1.852c-0.938-1.233-1.405-3.084-1.405-5.551
				c0-2.148,0.485-3.847,1.459-5.097c0.975-1.249,2.367-1.874,4.178-1.874c1.826,0,3.222,0.616,4.187,1.852
				c0.966,1.232,1.449,2.955,1.449,5.166c0,2.275-0.451,4.069-1.353,5.385C219.994,320.344,218.566,321,216.611,321z
				 M216.611,319.354c0.986,0,1.729-0.445,2.229-1.34c0.501-0.893,0.752-2.39,0.752-4.488c0-1.481-0.256-2.726-0.769-3.731
				c-0.513-1.004-1.25-1.507-2.212-1.507c-0.978,0-1.719,0.451-2.223,1.357c-0.506,0.904-0.758,2.199-0.758,3.881
				c0,1.892,0.252,3.334,0.758,4.332C214.895,318.854,215.635,319.354,216.611,319.354z"/>
			<path opacity="0.65" fill="#808080" enable-background="new    " d="M236.909,306.832l0.589,2.331
				c0.777-1.644,2.131-2.464,4.063-2.464c0.256,0,0.444,0.013,0.564,0.035v2.332c-0.201-0.016-0.501-0.023-0.9-0.023
				c-1.099,0-1.904,0.262-2.416,0.788c-0.514,0.522-0.77,1.343-0.77,2.456v8.521h-2.561v-13.977H236.909z"/>
			<path opacity="0.4" fill="#808080" enable-background="new    " d="M272.073,320.809h-2.56v-9.627
				c0-0.929-0.177-1.629-0.523-2.096c-0.35-0.471-0.871-0.704-1.568-0.704c-0.896,0-1.588,0.353-2.072,1.058
				s-0.728,1.623-0.728,2.752v8.617h-2.56v-9.627c0-0.929-0.18-1.629-0.535-2.096c-0.356-0.471-0.891-0.704-1.604-0.704
				c-0.881,0-1.563,0.356-2.043,1.069s-0.721,1.627-0.721,2.74v8.615h-2.56v-13.976h1.43l0.517,2.065
				c0.856-1.514,2.163-2.271,3.918-2.271c0.929,0,1.699,0.177,2.313,0.528c0.611,0.353,1.063,0.881,1.353,1.586
				c0.793-1.409,2.063-2.114,3.81-2.114c1.379,0,2.412,0.372,3.101,1.117s1.034,1.858,1.034,3.341L272.073,320.809L272.073,320.809z
				"/>
			<path opacity="0.65" fill="#0F3AAC" enable-background="new    " d="M228.208,242.369c2.563,0,4.944,0.191,7.146,0.576v5.576
				c-1.942-0.428-4.047-0.642-6.313-0.642c-3.354,0-5.977,1.181-7.867,3.541c-1.89,2.36-3.049,5.901-3.477,10.623
				c2.072-2.009,4.935-3.013,8.588-3.013c4.102,0,7.221,1.303,9.357,3.908c2.135,2.606,3.203,6.334,3.203,11.185
				c0,5.362-1.309,9.544-3.926,12.546c-2.615,3.001-6.393,4.502-11.327,4.502c-4.934,0-8.657-1.752-11.168-5.255
				c-2.51-3.504-3.765-9.313-3.765-17.433c0-7.989,1.677-14.34,5.029-19.051C217.046,244.725,221.885,242.369,228.208,242.369
				L228.208,242.369z M223.594,285.854c2.157,0,3.771-0.828,4.84-2.482c1.066-1.655,1.602-4.674,1.602-9.053
				c0-3.291-0.502-5.764-1.506-7.418c-1.004-1.656-2.51-2.483-4.52-2.483c-2.093,0-3.689,0.79-4.789,2.371
				c-1.102,1.581-1.65,3.76-1.65,6.536c0,3.332,0.225,5.849,0.673,7.547c0.448,1.699,1.116,2.953,2.003,3.766
				S222.248,285.854,223.594,285.854z"/>
			<path opacity="0.4" fill="#0F3AAC" enable-background="new    " d="M260.316,242.369c4.935,0,8.662,1.752,11.184,5.255
				c2.521,3.504,3.781,9.688,3.781,18.554c0,9.721-1.276,16.316-3.829,19.789c-2.554,3.471-6.318,5.206-11.296,5.206
				c-4.358,0-7.647-1.153-9.87-3.461c-2.222-2.308-3.669-5.224-4.343-8.748c-0.672-3.524-1.008-7.786-1.008-12.786
				c0-8.693,1.291-14.836,3.877-18.425C251.396,244.164,255.232,242.369,260.316,242.369z M260.092,285.854
				c2.18,0,3.776-1.223,4.791-3.668c1.016-2.447,1.521-7.781,1.521-16.008c0-7.904-0.522-12.962-1.569-15.173
				s-2.628-3.315-4.743-3.315c-1.922,0-3.338,0.77-4.244,2.308c-0.908,1.538-1.476,3.546-1.699,6.024
				c-0.225,2.478-0.336,5.863-0.336,10.156c0,8.461,0.502,13.854,1.506,16.184C256.32,284.689,257.913,285.854,260.092,285.854z"/>
			<g>
				<polygon fill="#FFCC00" points="83.551,301.553 74.234,306.654 84.862,311.665 93.57,305.768 "/>
				<polygon fill="#FF9900" points="74.234,306.654 75.357,318.456 85.331,323.65 84.862,311.665 "/>
				
					<linearGradient id="XMLID_83_" gradientUnits="userSpaceOnUse" x1="-47.1431" y1="278.7324" x2="-37.1689" y2="278.7324" gradientTransform="matrix(1 0 0 -1 122.5 596.3906)">
					<stop  offset="0" style="stop-color:#FFCC66"/>
					<stop  offset="1" style="stop-color:#FF9900"/>
					<a:midPointStop  offset="0" style="stop-color:#FFCC66"/>
					<a:midPointStop  offset="0.5" style="stop-color:#FFCC66"/>
					<a:midPointStop  offset="1" style="stop-color:#FF9900"/>
				</linearGradient>
				<polygon fill="url(#XMLID_83_)" points="75.357,318.456 85.331,323.65 84.862,311.665 "/>
				<polygon fill="#F27C0E" points="93.57,305.768 84.862,311.665 85.331,323.65 93.57,317.564 "/>
			</g>
			<g>
				<polygon fill="#ABDD99" points="176.811,84.505 148.321,102.182 181.396,117.244 208.896,97.272 "/>
				<polygon fill="#46AB48" points="148.321,102.182 150.291,142.135 181.721,157.521 181.396,117.244 "/>
				<polygon fill="#16923B" points="208.896,97.272 181.396,117.244 181.721,157.521 208.245,134.602 "/>
			</g>
			<g>
				<polygon fill="#FF6699" points="145.842,103.821 115.717,121.831 150.423,140.17 179.566,119.212 "/>
				<polygon fill="#FF0066" points="150.423,140.17 115.717,121.831 119.646,166.366 152.395,184.371 "/>
				<polygon fill="#BE0151" points="179.566,119.212 150.423,140.17 152.395,184.371 179.896,159.818 "/>
			</g>
			<g>
				<polygon fill="#F5F661" points="250.023,114.932 212.693,99.54 185.518,119.518 222.518,136.871 "/>
				<polygon fill="#FFF500" points="185.518,119.518 185.846,160.119 222.193,178.786 222.518,136.871 "/>
				<polygon fill="#FFCC00" points="222.518,136.871 222.193,178.786 248.391,154.223 250.023,114.932 "/>
			</g>
			<g>
				<polygon fill="#BFE230" points="153.919,143.233 183.227,122.111 220.314,139.299 191.896,163.205 "/>
				<polygon fill="#84C322" points="153.919,143.233 155.552,187.436 191.572,207.083 191.896,163.205 "/>
				<polygon fill="#5DAA3B" points="191.896,163.205 191.572,207.083 219.734,181.211 220.314,139.299 "/>
			</g>
			<g>
				<polygon fill="#99FF66" points="147.897,58.767 176.792,42.482 210.77,55.167 182.688,73.26 "/>
				<polygon fill="#66CC33" points="147.897,58.767 148.881,99.045 182.277,114.76 182.688,73.26 "/>
				<polygon fill="#669900" points="182.688,73.26 182.277,114.76 209.783,94.787 210.77,55.167 "/>
			</g>
			<g>
				<polygon fill="#CC66FF" points="185.191,74.515 222.688,91.457 251.824,70.171 212.861,56.423 "/>
				<polygon fill="#6F348E" points="222.927,91.133 221.895,133.763 249.195,111.758 251.742,70.171 "/>
				<polygon fill="#9933CC" points="184.781,74.515 184.287,116.015 221.895,133.763 222.927,91.133 "/>
			</g>
			<g>
				<polygon fill="#FFCC00" points="127.601,43.202 95.021,61.047 132.182,78.564 162.633,57.936 "/>
				<polygon fill="#FF9900" points="95.021,61.047 98.945,102.306 133.82,120.476 132.182,78.564 "/>
				
					<linearGradient id="XMLID_84_" gradientUnits="userSpaceOnUse" x1="-23.5552" y1="496.8701" x2="11.3198" y2="496.8701" gradientTransform="matrix(1 0 0 -1 122.5 596.3906)">
					<stop  offset="0" style="stop-color:#FFCC66"/>
					<stop  offset="1" style="stop-color:#FF9900"/>
					<a:midPointStop  offset="0" style="stop-color:#FFCC66"/>
					<a:midPointStop  offset="0.5" style="stop-color:#FFCC66"/>
					<a:midPointStop  offset="1" style="stop-color:#FF9900"/>
				</linearGradient>
				<polygon fill="url(#XMLID_84_)" points="98.945,102.306 133.82,120.476 132.182,78.564 "/>
				<polygon fill="#F27C0E" points="162.633,57.936 132.182,78.564 133.82,120.476 162.633,99.189 "/>
			</g>
			<g opacity="0.4">
				<polygon fill="#0099FF" points="152.426,97.736 154.061,139.652 192.048,159.625 192.048,116.076 "/>
				<polygon fill="#00CCFF" points="152.426,97.736 183.527,77.107 221.434,93.402 192.048,116.076 "/>
				<polygon fill="#0066FF" points="192.048,116.076 192.048,159.625 220.443,136.396 221.434,93.402 "/>
			</g>
		</g>
	</svg>
