<?xml version="1.0" encoding="utf-8"?>
<!-- Generator: Adobe Illustrator 11.0, SVG Export Plug-In . SVG Version: 6.0.0 Build 78)  -->
<!DOCTYPE svg PUBLIC "-//W3C//DTD SVG 1.0//EN"    "http://www.w3.org/TR/2001/REC-SVG-20010904/DTD/svg10.dtd" [
	<!ENTITY ns_flows "http://ns.adobe.com/Flows/1.0/">
	<!ENTITY ns_svg "http://www.w3.org/2000/svg">
	<!ENTITY ns_xlink "http://www.w3.org/1999/xlink">
]>
<svg  xmlns="&ns_svg;" xmlns:xlink="&ns_xlink;" xmlns:a="http://ns.adobe.com/AdobeSVGViewerExtensions/3.0/"
	 width="352" height="352" viewBox="0 0 352 352" overflow="visible" enable-background="new 0 0 352 352" xml:space="preserve">
	<metadata>
		<x:xmpmeta  x:xmptk="XMP toolkit 3.0-29, framework 1.6" xmlns:x="adobe:ns:meta/">
			<rdf:RDF  xmlns:iX="http://ns.adobe.com/iX/1.0/" xmlns:rdf="http://www.w3.org/1999/02/22-rdf-syntax-ns#">
				<rdf:Description  rdf:about="" xmlns:pdf="http://ns.adobe.com/pdf/1.3/"></rdf:Description>
				<rdf:Description  rdf:about="" xmlns:tiff="http://ns.adobe.com/tiff/1.0/"></rdf:Description>
				<rdf:Description  rdf:about="" xmlns:xapGImg="http://ns.adobe.com/xap/1.0/g/img/" xmlns:xap="http://ns.adobe.com/xap/1.0/">
					<xap:CreateDate>2005-04-04T07:58:17Z</xap:CreateDate>
					<xap:ModifyDate>2005-04-04T09:29:06Z</xap:ModifyDate>
					<xap:CreatorTool>Illustrator</xap:CreatorTool>
					<xap:Thumbnails>
						<rdf:Alt>
							<rdf:li  rdf:parseType="Resource">
								<xapGImg:format>JPEG</xapGImg:format>
								<xapGImg:width>256</xapGImg:width>
								<xapGImg:height>256</xapGImg:height>
								<xapGImg:image>/9j/4AAQSkZJRgABAgEASABIAAD/7QAsUGhvdG9zaG9wIDMuMAA4QklNA+0AAAAAABAASAAAAAEA
AQBIAAAAAQAB/+4ADkFkb2JlAGTAAAAAAf/bAIQABgQEBAUEBgUFBgkGBQYJCwgGBggLDAoKCwoK
DBAMDAwMDAwQDA4PEA8ODBMTFBQTExwbGxscHx8fHx8fHx8fHwEHBwcNDA0YEBAYGhURFRofHx8f
Hx8fHx8fHx8fHx8fHx8fHx8fHx8fHx8fHx8fHx8fHx8fHx8fHx8fHx8fHx8f/8AAEQgBAAEAAwER
AAIRAQMRAf/EAaIAAAAHAQEBAQEAAAAAAAAAAAQFAwIGAQAHCAkKCwEAAgIDAQEBAQEAAAAAAAAA
AQACAwQFBgcICQoLEAACAQMDAgQCBgcDBAIGAnMBAgMRBAAFIRIxQVEGE2EicYEUMpGhBxWxQiPB
UtHhMxZi8CRygvElQzRTkqKyY3PCNUQnk6OzNhdUZHTD0uIIJoMJChgZhJRFRqS0VtNVKBry4/PE
1OT0ZXWFlaW1xdXl9WZ2hpamtsbW5vY3R1dnd4eXp7fH1+f3OEhYaHiImKi4yNjo+Ck5SVlpeYmZ
qbnJ2en5KjpKWmp6ipqqusra6voRAAICAQIDBQUEBQYECAMDbQEAAhEDBCESMUEFURNhIgZxgZEy
obHwFMHR4SNCFVJicvEzJDRDghaSUyWiY7LCB3PSNeJEgxdUkwgJChgZJjZFGidkdFU38qOzwygp
0+PzhJSktMTU5PRldYWVpbXF1eX1RlZmdoaWprbG1ub2R1dnd4eXp7fH1+f3OEhYaHiImKi4yNjo
+DlJWWl5iZmpucnZ6fkqOkpaanqKmqq6ytrq+v/aAAwDAQACEQMRAD8A9U4q7FXYq7FXYq7FXYq7
FXYq7FXYq7FXYq7FXYq7FXYq7FXYq7FXYq7FXYq7FXYq7FXYq7FXYq7FXYq7FXYq7FXYq7FXYq7F
XYq7FXYq7FXYq7FXYq7FXYq7FXYq7FXYq7FXYq7FXYq7FXYq7FXYq7FXYq7FXYq7FXYq7FXYq7FX
Yq7FXYq7FXYq7FXYq7FXYq7FXYq7FXYq7FXYq7FXYq7FXYq7FXYq7FXYq7FXYq7FXYq7FXYq7FXY
q7FXYq7FXYq7FXYq7FXYq7FXYq7FXYq4kAVOwxVpWVhVSCPEYBIHkgEFvCl2KuxV2KuxV2KuxV2K
uxV2KuxV2KuxV2KuxV2KuxV2KuxV2KuxV2KuxV2KuxV2KuxV2KuxVQmu4o9h8TeAyjJqIx8y1Tyg
IGW4llPxHb+UdMwMmaU+bizyGXNYrMpqpIPiMrEiOTEEjkiI7+VdnAcfccyYauQ57t0c5HNFR3kD
9+J8DtmVDURl5N0csSrZe2uxV2KuxV2KuxV2KuxV2KuxV2KuxV2KuxV2KuxV2KuxV2KuxV2KuxV2
KuxV2KuxVK9YvpbeSNF+w6ksOh6+OYWrmRQDj55EbIOK7hk2rxbwO2YLiq+KuxVZJLHEheRgqjqT
ikC0nvdZd6pb/And/wBo/LwyJLdHH3sp0j/jmW3vGpPzIrm4wfQPc5Q5IvLUuxV2KuxV2KuxV2Ku
xV2KuxV2KuxV2KuxV2KuxV2KuxV2KuxV2KuxV2KuxV2KpH5jH7yA+zfrGYGs5hxdRzCT5hOOqxXM
0f2W2/lO4wqqT6ykUVSlZD9kV2zF1etxaePFklX3/JyNPpp5TUQkl1fT3L8pGr4DsPkM4zX+0mTJ
6cXoj3/xfs/G70ml7JhDee5+xRDsPfMTSdv6jFsTxx8+fz5/e35uzcU+XpPl+pmGi+YNNNrDbSSe
jLGoX95spIHZun353fZvtRpMsRGR8OX9Ll8+Xzp1mXs/JDl6h5J4CCAQag9CM6cEEWHBIdhV2Kux
V2KuxV2KuxV2KuxV2KuxV2KuxV2KuxV2KuxV2KuxV2KuxV2KuxV2KpJ5jHxW58Qw+6mYOs6ONqOi
TZguMl76rHIWSAjkpIavUEbdM5HtP2inAmGKNf0j+gfr+T0el7E2EsnI9B+tDMzMasanxOcflzTy
S4pkyl5u8hjjAVEUGsrZuxV2Krv8RzaOnqC4KL2h+0G+SnNt2Zr9Xhl+5kQO7+H5fgsJaKObYj4s
48savJrGh22oyII3n51Reg4SMg6/6uetdm6mWbBGcq4jfLlsSHnddpxhymA3qvutNMznEdirsVdi
rsVdirsVdirsVdirsVdirsVdirsVdirsVdirsVdirsVdirsVSXzJ0tz2+P8A41zB1nRxtR0Ypeax
FFVIaSSeP7I/rmrnmA5ODLKByYnPI/1mSStHLFqjbcmuef62P76f9YvqPZsuPTYyf5g+5FW+rzJR
ZR6i+PRs188APLZtnpQeWyZQXlvOP3bfF/Kdj92Y08ZjzcOeOUeatkGCTan5ihgrFa0ll6F/2V/r
mx0+gJ3nsO5y8OlJ3lsGNTTzTyGSZy7nqxzbRiIihydjGIAoPafy6/5Q3T/+e3/J989C7E/xSHx/
3ReG7Z/xqfw/3IZJm1dY7FXYq7FXYq7FXYq7FXYq7FXYq7FXYq7FXYq7FXYq7FXYq7FXYq7FUq13
zNpGixcryX96RWO3T4pG+jsPc7Yubo+z8uoPoG3f0ebeYPzC1PUjGsNskdqpb1IGapcGnH4qChH3
Zi6rFKY2c3tH2YzGIOKQkesTtfuP60Ba6xptywQsbWc/7qm2B/1X6HNLkwEGuTxmfBPDLhyRMJdx
/Qeqy7RkuHVhQ7H7xnD9qQ4dRIfjk+ldgyvRw+P3lRzAdw2isx+HqO/hhAtiSOqjq15eemkDTMY2
B5L4/M9TmRp8MQbrdjjxRu6SrMxyXYq9r/Ll0Pk+wUMCw9ao7j9++d72FlidNGII4hdj/OLwvbI/
wmXw/wByGS5uXVuxV2KuxV2KuxV2KuxV2KuxV2KuxV2KuxV2KuxV2KuxV2KuxVRvL20s7dri6lWG
FPtSOaDFsxYpZJcMRZee+Y/zOlk5W+ir6adDeOPiP+op6fM/cMXqND7PgerNuf5v6ywOaaaeVpZn
aSVzV5HJZifEk4vSxgIigKCzFk06I68XAYeByMoiQotGo02PNHhyREo9xRdkoWAKCSFNACa0Hhvn
m3tLgGPVbcjEH7x+hxNNosemj4ePaHOudWmNtYSygO3wR+Pc/LNNjwGW55JyZhHYc0Q8aRrxQUGX
SiAKDUJE80j1f7UZ/wBb+GHB1czEl+XtrsVep+SSR5asiDQj1KEf8ZXycZGJsGi8d2r/AIxL4fcG
Q2GtvLqEdkCJeXLm/wDLxUnr33ze9jdu5cmpjgJ4wbs9RQJ59XAyaSsZmdk8ztnBdirsVdirsVdi
rsVdirsVdirsVdirsVdirsVdirsVdirsVeQ/85D3F5aWWh3ttIY2jmnjanQ81RqEdD9jvk4C3uvY
iEJzywkLuMT8r/W8x0vznby0jv19F+nqrUofmOownH3PX6jsqUd4bju6sjjkjkQPGwdG3VlNQcrd
VKJBorsUKVzc29rA89xIsUKCrOxoBitN+RfM9jrOp3FvHYXElvDul5QeiDTf1ASCK/sjc+2cn7Sa
OHHHLKQuq4evP9rr+1cgwxBlIRvp1Z1MQRt0zmpEHk6zHIEWEun75hzcyCR6v0T5nBg5lzMSW5kN
yc6F5YvNUPrMfq9iv27h+hp1CjviSALLgavXxw7D1T7mZLNDaWUen2HJbaIEcyfiapJP3k5qNTrT
L0w5OnGIzmcmT6ijvKq11iM+Cufwpm09ko3ro+UZfc1don90fgzfPWXnXYq7FXYq7FXYq7FXYq7F
XYq7FXYq7FXYq7FXYq7FXYq7FXln/ORVuJPJVnMPtQ6hH/wLRSg/jTJ4+b2fsPOtZId+M/fF855c
+qozT9Vv7B+VtKVB+1Gd0PzGAgFozaaGUeoMjXz5aR2Ty3MDi4QbIm6sTt1P2crON0Wq7POPcG4l
X0XyXr/myePUfMLPZaUDygslqruO1Afsg/zHc9s5ztT2gx4Lhi9WTv6D9ZeW7S7ex6e4YfXk7+g/
WXqOn6dY6daR2djCtvbRCiRoKD5nxJ7k5wmfPPLIzmeKReGz555ZGczxSKuyhuv35WCQnBqZ4jcS
hLm1koSnxDw74yNvQ6TteEtp+k/Z+z8bsf1ZW+BaHlypTvXBh5l6LFIVd7InTtJs7NRfaztAm4gr
Qk9uXj/qjLJxyT9OP6nQdoe0EIXGHLrL9TL726Z+MKAR26BfTjUcQBQU2GaPLqp5BUvsXTYxXF1K
FyhyU68ogHVifCJiPvAzqvY4XrP8w/odf2n/AHXxZpnqjz7sVdirsVdirsVdirsVdirsVdirsVdi
rsVdirsVdirsVdirAPz0t/V/Li/f/fEtvJ98yp/xvk4c3pvZCddoQH84SH+xJ/Q+X8ufYnYqpXTl
Ld2Bow48T7hgcBF7OF2hHix10e32mq3VtRa+pEP2G8PY9s8kljBfnSGYhOrTVLW5oobhJ/I2xPy8
cx5YyHJjkEkZlbY7FUBql/YWCC4uAGlFfRWg5k+39cvwaeWSVBE9WccDGzwnp3sJ1PVbrUJ/UmNF
H93GPsqP8++dBg08cQoOmy5TM2XpM32/9iv/ABEZ5zVPo+n/ALse5Zi3J95NB/SUp7CEj72XOw9i
h/hUj/tZ/wB1F1vah/dj+t+gswz050LsVdirsVdirsVdirsVdirsVdirsVdirsVdirsVdirsVdir
FPzVtvrH5ea5HSvG39Tt/up1k7/6uSjzd37OZOHX4j/Sr5inyXl77a7FVC+H+jP7U/WMXG1n92Xs
NuawRmtaqpr9GeU5B6j735vyipn3qmQa0fZ6xcQUWT97H4E/EPkcrniBbo5iOaJ1HzNa21qHiBed
6hIyKAEd2P8ATJafRSyHf6WWTUiI25sNu7u4u52nncvI3c9h4DwGb7HjjAVHk62czI2VHJsHq9wp
WUqdiAoI9wBnmcjZt9MwCoBfZWVxeXCwQLydu/YDxJ8MytFocupyDHjFyP2eZ8mWXLHHHikzjSdI
t9Og4p8UzD97L3PsPbPW+x+xsWix1HeZ+qXf+x5zU6mWU78u5H5uHGdirsVdirsVdirsVdirsVdi
rsVdirsVdirsVdirsVdirsVUbyztb20ms7uJZra4Ro5onFVZGFCDi2YssschOJqUTYLxjzr/AM49
q3qXnlSbid2OmXDbfKKU/qf/AILLBk73v+yvbYioaof54/SP1fJ4zqmk6npV49lqVrJaXUf2opVK
n5ivUeBG2WgvfafU480BPHISieoQE6gwSAivwsfuFcWOs/uj8PvesaawbTrVhuDDGQfmozyzUisk
v6x+9+c9YKzTH9I/eicpcd2Kpfqv+6v9l/DNnovpPvaMyX5mNLsVexpp9xfak8MA3rVmPRRTqc8/
7N7Oy6vIMeMdBZ6Ad5fSDmjjx2WZaZpdtp9uIohVz/eSnqx/p7Z692V2Vi0WPgh9XWXU/s7g6DUa
iWWVlGZs2h2KuxV2KuxV2KuxV2KuxV2KuxV2KuxV2KuxV2KuxV2KuxV2KuxV2KpX5g8saD5hszZ6
xZx3UW/BmFHQnvG4oyn5HCDTmaLtDPpZ8eKRifsPvHIvEfOX/OPes2zPL5YmF/bS/ALWdljmj5/D
9s0R1WtSdj7HLBk73vdJ7ZYsuMw1A4J1zG8TX2j7XLp02mAabOytNYj6tKyV4lovgYrWhpVc8z1g
rNP+tL73ynV5BPNOQ6yJ+1vMZx3Yql2q/aj+R/hm00X0H3tGXmgMy2lOPLPlfUvMN+LWzXii7z3D
V4Rr4nxJ7Dvl+n08ssqDbiwmZoPoS3tbe3DCFAgc8mp3Ob/R6HDpo8OKIiHoJ5JS5lVzLYOxV2Ku
xV2KuxV2KuxV2KuxV2KuxV2KuxV2KuxV2KuxV2KuxV2KuxV2KuxV2Kse1/yRo+rcpQv1W8ap9eID
4ie7r0b9fvmq1vZGLPv9M+8fpap4RL3vOdd8o6zo7FpovVtu1zF8Sf7Luv05yms7My4NyLj3j8bO
HPEYpLmva0u1X7UfyP8ADNpovoPvaMvNMfKPk7UPMd5wi/dWURH1m6I2Ufyr/Mx8Pvza6bSyynbl
3pw4DkPk9z0bRdP0awjsbCP04U3JO7Mx6s57k50eLFHHHhi7jHjEBQR2WM3Yq7FXYq7FXYq7FXYq
7FXYq7FXYq7FXYq7FXYq7FXYq7FXYq7FXYq7FXYq7FXYq7FXMoYFWAKkUIO4IOJFqxLXvy70u+5T
WFLK5O/FR+6Y+6j7P+x+7NHrOw8eTeHol9n7Pg0TwA8tmH2v5Yaze6wtvfj6tYwbzXCkNzB6LF7m
ncbd/DMPQ9lZIkxnsL5/qcT8rKUt+T1XTtOstOs4rOyiENvCKIi/rPiT3OdLCAgKHJ2EYiIoIjJs
nYq7FXYq7FXYq7FXYq7FXYq7FXYq7FXYq7FXYq7FXYq7FXYq7FXYq7FXYq7FXYq7FXYq7FXYq7FX
Yq7FXYq7FXYq7FXYq7FXYq7FXYq7FXYq7FXYq7FXYq7FXYq7FXYq7FXYq7FXYq7FXYq7FXYq7FXY
q7FXYq7FXYq7FXYq7FXYq7FXYq7FXYq7FXYq7FXYq7FXYq7FXYq7FXYq7FXYq7FXYq7FXYq7FXYq
7FXYq7FXYq7FXYq7FXYq7FXYq7FXYq7FXYq7FXYq7FXYq7FXYq7FXYq7FXYq7FXYq7FXYq7FXYqh
Rq2mG+NgLqI3oFTb8xz6V+z403piqKxV2KuxV2KuxV2KuxV2KuxV2KuxV2KuxV2KuxV2KuxV2Kux
V2KuxV2KuxV2KsP/ADe85XPkz8ttd8yWiq15YwKtryFVE08iQRMw7hXlDEd8VfLf5O/lDf8A52DV
vNHnLzJeyLbXH1ZArCSdpSqyMay8ljjAYBVVflSmKvo78oPyW0z8sm1dNN1W61C11T6txhuglYTb
+rUqU4g8/W3+EdO+Kozz9+dn5ceRLlbPzBqgTUXUONPt0eecKejOqAhAe3MivbFW/IH51fl158uJ
LTy9qfqahEpkewnjeCfgDQsquAHA78Cad8VT7VPOXl/S9csdDvbgxajqPH6rHwYq3Jii1cDiKsKb
4qlq/mp5Ik1kaRb6h9ZuzzqYUd4x6aM7fvAOJ+FT9knFUu0xvJN95uj1C1u53vppDJHblGEfqcTU
1K1p3pX+mKs6uLiC3iMszhIx1JxVAx+YdKdwnqla7BmUgffiqZYq7FXYq7FXYq7FXYq7FXYq7FXY
q7FXYq7FXYq7FXYq7FXYq7FXYq7FUi89eUrLzf5Q1Xy1esY4NTgMXqgVMbgho5AO/CRVantir4oE
P5zf84++ZnmVDHY3LhGloZtMvlSpUE/DRgCafZkHyxV9SflV+fPl/wA/eV9Q1KKBrPV9HgafU9KL
ciFVSweJ6DmjcadKg7HsSq+ZPyM8zeTtS/NnU/Nv5mX1tV4ZrqBr4c4mvJZEVaKQw/dxluC022p0
xVd5/wDMXkrRfz/0jzJ+X1xb/opZrO6n+ojhCJGkKXMaqAOIkj+0AP2jir2f/nIxmXzXpbKSrLZA
qw2IImfcYq9L8m/lX5Q0az0+8WyE2qxxK0l5I7sTI8dH+DlwC/ERSnTFUjs4oovzQEcSLHGtw4VF
ACgekegGKsq8y3Bk1FLdm4xRgV+bbk/diqprb6O9iotTH6sZAXgKHj3xVNPL8zS6VDyNSlUr7Kdv
wxVMcVdirsVdirsVdirsVdirsVdirsVdirsVdirsVdirsVdirsVdirsVQer6xpOjafJqOrXkOn6f
CUE13cyLFEnqOI05u5CrV2A3OKsW85+c/wAqZvKOoHzDq+mXmhTQOJ4fXhm9ZaV4xIrEvJUfBx3r
0xV8uf8AOH3l+/1Tzj5jdC8enHRJ7K7mUVHO7kjES796Ruw/1cVSP8h7byVov5o33l78y7C0ETRT
WI/SaoYYL2KVSOZk+FOQRlDH28cVfUzeT/8AnHO2u7SI6f5aju7maOGyiH1X1ZJ3YLGkSg8mYsRQ
DFWFf85Hf8pTpn/MCP8Ak8+KvfLD/eG3/wCMSf8AERirzaD/AMmof+Yl/wDk0cVZN5lhMWppMy8o
5FU+x47EYqnEUOgSRCVUg4EV34inzriqNtVtVhH1YKITUrwpxPjSmKquKuxV2KuxV2KuxV2KuxV2
KuxV2KuxV2KuxV2KuxV2KuxV2KuxV2KpP5v8p6J5u8u3nl7XImn0u+CC4jR2jY+lIsqEOhBFHjU4
q8nT/nDv8n1uBKf0kyVr6Bul4U8KiMPT/ZYq9W8o+S/K/lDSF0ny5p8en2KnmyR1LO9AC8jsWd2o
OrEnFWMfmB+RH5a+e7z9Ia3pzJqhUI2o2kjQTMoFBzpVHoBQF1JHTpiqR+Vv+cWvyn8u6zZ6xbwX
t3fafPHdWbXNyxVJoWDxvxiEXLiyg0ao8a4qzTzZ+W3ljzVew3mrJK00EfoxmOQoOPItuB7tirJ4
o1jjSNfsoAq/ICmKpQvlLR11r9MhX+u8zJXmePIjj9n5YqmlzaW91F6U6B060PY+xGKpd/hjTOVf
3lPDlt+rFUyt4IreFYYhxjTZRUn374qqYq7FXYq7FXYq7FXYq7FXYq7FXYq7FXYq7FXYq7FXYq7F
XYq7FXYqpXV1b2sDT3DiOJKcnPuaD8cp1GohhgZzNRDPHjlOXDEWWPz+c0E4ENvzgHVmNGPy60zi
c/ttEZKx47x+Zon3d345O0h2UeHc7prpeu6fqTSR27n1ogGliYbqGrStNt6Z1HZfa+LWx4oWCOYI
/ALhajSTxUZcj1TDNo4rE77zxew6hq1ta6O95Do3BryZJkUhHQvyCMKmgU7DFWR6ZqNvqWnW9/bE
mC5jWSOuxAYVofcdDiqXxa3cP5un0Uxp9XisluhJvzLNJwp1pSmKpw8iRozyMERRVmY0AA7knFVG
21CwuiwtbmKcruwidXp8+JOKqssscUbSSMFRRVmPQDFVGzvra8j5wuD4pUchvQVA6VxVddXAgQHY
sTRQTTFVSIsyAsVJPddxiq7FXYq7FXYq7FXYq7FXYq7FXYq7FXYq7FXYq7FXYq7FXYq7FUn83wNP
5cvo1BZiisANySrq3b5Zqe3MfHo8g8vuILn9mT4dRE/jk8pvZdQsbJv3pVjQcevEH3zzKOlHEOIb
vZREMkuTJPygWQz6pKwYqViHM1oWqxpXxztvZmO8+7b9LpvaIioD3/oelZ1ry7zeKw13UPNXnCy0
ye3t4rk20V5NMru4R4XX90FIFaE9cVZ7pGmQ6Xpdrp8BLRWsaxqzdTxG5NPHriqQW/8A5M27/wC2
VH/yfxVPdavYrLS7m6li9dI03iO4appQ7HbffFUgsDN/iqzaZbeOWS0dmS1BoFJqORPU4qyi6UNb
SgioKNt17Yqg9BVBpcDKByIPIjqaMeuKq2oAekm37a4qigABQbDFXYq7FXYq7FXYq7FXYq7FXYq7
FXYq7FXYq7FXYq7FXYq7FXYq4gEUO4PUYqx3WPI2i6mysweAcg0ixEBWANSKGvH6M0mp7A0+WYkL
j31yP6vg7TTdrZcQrn707sbGzsbZLWziWGCMUSNRQf2n3ObfFhjjiIwFRDr8uWWSXFI2Sr5Y1oa3
02xtrq5u4IVjubwqbmUdXKAha/IHFUTiqHXT7Jb5r8QqLx4xC0/7RjB5BflXFVaWKOWNo5UDxuKO
jAEEHsQcVQtro2l2jiS2tY4nWtGUUPxdd/oxVGYqowWdrbljBEsZf7XEUriqq6I4AYVANR88VbxV
2KuxV2KuxV2KuxV2KuxV2KuxV2KuxV2KuxV2KuxV2KuxV2KuxV2KuxV2KuxV2KuxV2KuxV2KuxV2
KuxV2KuxV2KuxV2KuxV2KuxV2KuxV2KuxV2KuxV2KuxV2KuxV2KuxV2KuxV2KuxV2KuxV2KuxV2K
uxV2KuxV2KuxV2KuxV2KuxV2KuxV2KuxV2KuxV2Kv//Z
									</xapGImg:image>
							</rdf:li>
						</rdf:Alt>
					</xap:Thumbnails>
				</rdf:Description>
				<rdf:Description  rdf:about="" xmlns:dc="http://purl.org/dc/elements/1.1/">
					<dc:format>image/svg+xml</dc:format>
				</rdf:Description>
			</rdf:RDF>
		</x:xmpmeta>
<?xpacket begin='﻿' id='W5M0MpCehiHzreSzNTczkc9d'?><x:xmpmeta xmlns:x='adobe:ns:meta/' x:xmptk='XMP toolkit 3.0-29, framework 1.6'>
<rdf:RDF xmlns:rdf='http://www.w3.org/1999/02/22-rdf-syntax-ns#' xmlns:iX='http://ns.adobe.com/iX/1.0/'>

 <rdf:Description rdf:about=''
  xmlns:pdf='http://ns.adobe.com/pdf/1.3/'>
 </rdf:Description>

 <rdf:Description rdf:about=''
  xmlns:tiff='http://ns.adobe.com/tiff/1.0/'>
 </rdf:Description>

 <rdf:Description rdf:about=''
  xmlns:xap='http://ns.adobe.com/xap/1.0/'
  xmlns:xapGImg='http://ns.adobe.com/xap/1.0/g/img/'>
  <xap:CreateDate>2005-04-04T07:58:17Z</xap:CreateDate>
  <xap:ModifyDate>2005-04-20T12:01:53Z</xap:ModifyDate>
  <xap:CreatorTool>Illustrator</xap:CreatorTool>
  <xap:Thumbnails>
   <rdf:Alt>
    <rdf:li rdf:parseType='Resource'>
     <xapGImg:format>JPEG</xapGImg:format>
     <xapGImg:width>256</xapGImg:width>
     <xapGImg:height>256</xapGImg:height>
     <xapGImg:image>/9j/4AAQSkZJRgABAgEASABIAAD/7QAsUGhvdG9zaG9wIDMuMAA4QklNA+0AAAAAABAASAAAAAEA&#xA;AQBIAAAAAQAB/+4ADkFkb2JlAGTAAAAAAf/bAIQABgQEBAUEBgUFBgkGBQYJCwgGBggLDAoKCwoK&#xA;DBAMDAwMDAwQDA4PEA8ODBMTFBQTExwbGxscHx8fHx8fHx8fHwEHBwcNDA0YEBAYGhURFRofHx8f&#xA;Hx8fHx8fHx8fHx8fHx8fHx8fHx8fHx8fHx8fHx8fHx8fHx8fHx8fHx8fHx8f/8AAEQgBAAEAAwER&#xA;AAIRAQMRAf/EAaIAAAAHAQEBAQEAAAAAAAAAAAQFAwIGAQAHCAkKCwEAAgIDAQEBAQEAAAAAAAAA&#xA;AQACAwQFBgcICQoLEAACAQMDAgQCBgcDBAIGAnMBAgMRBAAFIRIxQVEGE2EicYEUMpGhBxWxQiPB&#xA;UtHhMxZi8CRygvElQzRTkqKyY3PCNUQnk6OzNhdUZHTD0uIIJoMJChgZhJRFRqS0VtNVKBry4/PE&#xA;1OT0ZXWFlaW1xdXl9WZ2hpamtsbW5vY3R1dnd4eXp7fH1+f3OEhYaHiImKi4yNjo+Ck5SVlpeYmZ&#xA;qbnJ2en5KjpKWmp6ipqqusra6voRAAICAQIDBQUEBQYECAMDbQEAAhEDBCESMUEFURNhIgZxgZEy&#xA;obHwFMHR4SNCFVJicvEzJDRDghaSUyWiY7LCB3PSNeJEgxdUkwgJChgZJjZFGidkdFU38qOzwygp&#xA;0+PzhJSktMTU5PRldYWVpbXF1eX1RlZmdoaWprbG1ub2R1dnd4eXp7fH1+f3OEhYaHiImKi4yNjo&#xA;+DlJWWl5iZmpucnZ6fkqOkpaanqKmqq6ytrq+v/aAAwDAQACEQMRAD8A9U4q7FXYq7FXYq7FXYq7&#xA;FXYq7FXYq7FXYq7FXYq7FXYq7FXYq7FXYq7FXYq7FXYq7FXYq7FXYq7FXYq7FXYq7FXYq7FXYq7F&#xA;XYq7FXYq7FXYq7FXYq7FXYq7FXYq7FXYq7FXYq7FXYq7FXYq7FXYq7FXYq7FXYq7FXYq7FXYq7FX&#xA;Yq7FXYq7FXYq7FXYq7FXYq7FXYq7FXYq7FXYq7FXYq7FXYq7FXYq7FXYq7FXYq7FXYq7FXYq7FXY&#xA;q7FXYq7FXYq7FXYq7FXYq7FXYq7FXYq4kAVOwxVpWVhVSCPEYBIHkgEFvCl2KuxV2KuxV2KuxV2K&#xA;uxV2KuxV2KuxV2KuxV2KuxV2KuxV2KuxV2KuxV2KuxV2KuxV2KuxVQmu4o9h8TeAyjJqIx8y1Tyg&#xA;IGW4llPxHb+UdMwMmaU+bizyGXNYrMpqpIPiMrEiOTEEjkiI7+VdnAcfccyYauQ57t0c5HNFR3kD&#xA;9+J8DtmVDURl5N0csSrZe2uxV2KuxV2KuxV2KuxV2KuxV2KuxV2KuxV2KuxV2KuxV2KuxV2KuxV2&#xA;KuxV2KuxVK9YvpbeSNF+w6ksOh6+OYWrmRQDj55EbIOK7hk2rxbwO2YLiq+KuxVZJLHEheRgqjqT&#xA;ikC0nvdZd6pb/And/wBo/LwyJLdHH3sp0j/jmW3vGpPzIrm4wfQPc5Q5IvLUuxV2KuxV2KuxV2Ku&#xA;xV2KuxV2KuxV2KuxV2KuxV2KuxV2KuxV2KuxV2KuxV2KpH5jH7yA+zfrGYGs5hxdRzCT5hOOqxXM&#xA;0f2W2/lO4wqqT6ykUVSlZD9kV2zF1etxaePFklX3/JyNPpp5TUQkl1fT3L8pGr4DsPkM4zX+0mTJ&#xA;6cXoj3/xfs/G70ml7JhDee5+xRDsPfMTSdv6jFsTxx8+fz5/e35uzcU+XpPl+pmGi+YNNNrDbSSe&#xA;jLGoX95spIHZun353fZvtRpMsRGR8OX9Ll8+Xzp1mXs/JDl6h5J4CCAQag9CM6cEEWHBIdhV2Kux&#xA;V2KuxV2KuxV2KuxV2KuxV2KuxV2KuxV2KuxV2KuxV2KuxV2KuxV2KpJ5jHxW58Qw+6mYOs6ONqOi&#xA;TZguMl76rHIWSAjkpIavUEbdM5HtP2inAmGKNf0j+gfr+T0el7E2EsnI9B+tDMzMasanxOcflzTy&#xA;S4pkyl5u8hjjAVEUGsrZuxV2Krv8RzaOnqC4KL2h+0G+SnNt2Zr9Xhl+5kQO7+H5fgsJaKObYj4s&#xA;48savJrGh22oyII3n51Reg4SMg6/6uetdm6mWbBGcq4jfLlsSHnddpxhymA3qvutNMznEdirsVdi&#xA;rsVdirsVdirsVdirsVdirsVdirsVdirsVdirsVdirsVdirsVSXzJ0tz2+P8A41zB1nRxtR0Ypeax&#xA;FFVIaSSeP7I/rmrnmA5ODLKByYnPI/1mSStHLFqjbcmuef62P76f9YvqPZsuPTYyf5g+5FW+rzJR&#xA;ZR6i+PRs188APLZtnpQeWyZQXlvOP3bfF/Kdj92Y08ZjzcOeOUeatkGCTan5ihgrFa0ll6F/2V/r&#xA;mx0+gJ3nsO5y8OlJ3lsGNTTzTyGSZy7nqxzbRiIihydjGIAoPafy6/5Q3T/+e3/J989C7E/xSHx/&#xA;3ReG7Z/xqfw/3IZJm1dY7FXYq7FXYq7FXYq7FXYq7FXYq7FXYq7FXYq7FXYq7FXYq7FXYq7FUq13&#xA;zNpGixcryX96RWO3T4pG+jsPc7Yubo+z8uoPoG3f0ebeYPzC1PUjGsNskdqpb1IGapcGnH4qChH3&#xA;Zi6rFKY2c3tH2YzGIOKQkesTtfuP60Ba6xptywQsbWc/7qm2B/1X6HNLkwEGuTxmfBPDLhyRMJdx&#xA;/Qeqy7RkuHVhQ7H7xnD9qQ4dRIfjk+ldgyvRw+P3lRzAdw2isx+HqO/hhAtiSOqjq15eemkDTMY2&#xA;B5L4/M9TmRp8MQbrdjjxRu6SrMxyXYq9r/Ll0Pk+wUMCw9ao7j9++d72FlidNGII4hdj/OLwvbI/&#xA;wmXw/wByGS5uXVuxV2KuxV2KuxV2KuxV2KuxV2KuxV2KuxV2KuxV2KuxV2KuxVRvL20s7dri6lWG&#xA;FPtSOaDFsxYpZJcMRZee+Y/zOlk5W+ir6adDeOPiP+op6fM/cMXqND7PgerNuf5v6ywOaaaeVpZn&#xA;aSVzV5HJZifEk4vSxgIigKCzFk06I68XAYeByMoiQotGo02PNHhyREo9xRdkoWAKCSFNACa0Hhvn&#xA;m3tLgGPVbcjEH7x+hxNNosemj4ePaHOudWmNtYSygO3wR+Pc/LNNjwGW55JyZhHYc0Q8aRrxQUGX&#xA;SiAKDUJE80j1f7UZ/wBb+GHB1czEl+XtrsVep+SSR5asiDQj1KEf8ZXycZGJsGi8d2r/AIxL4fcG&#xA;RWGtvLqEdkCJeXLm/wDLxUnr33ze9jdu5cmpjgJ4wbs9RQJ59XAyaSsZmdk7ztnBdirsVdirsVdi&#xA;rsVdirsVdirsVdirsVdirsVdirsVdirsVeQ/85D3F5aWWh3ttIY2jmnjanQ81RqEdD9jvk4C3uvY&#xA;iEJzywkLuMT8r/W8x0vznby0jv19F+nqrUofmOownH3PX6jsqUd4bju6sjjkjkQPGwdG3VlNQcrd&#xA;VKJBorsUKVzc29rA89xIsUKCrOxoBitN+RfM9jrOp3FvHYXElvDul5QeiDTf1ASCK/sjc+2cn7Sa&#xA;OHHHLKQuq4evP9rr+1cgwxBlIRvp1Z1MQRt0zmpEHk6zHIEWEun75hzcyCR6v0T5nBg5lzMSW5kN&#xA;yc6F5YvNUPrMfq9iv27h+hp1CjviSALLgavXxw7D1T7mZLNDaWUen2HJbaIEcyfiapJP3k5qNTrT&#xA;L0w5OnGIzmcmT6ijvKq11iM+Cufwpm09ko3ro+UZfc1don90fgzfPWXnXYq7FXYq7FXYq7FXYq7F&#xA;XYq7FXYq7FXYq7FXYq7FXYq7FXln/ORVuJPJVnMPtQ6hH/wLRSg/jTJ4+b2fsPOtZId+M/fF855c&#xA;+qozT9Vv7B+VtKVB+1Gd0PzGAgFozaaGUeoMjXz5aR2Ty3MDi4QbIm6sTt1P2crON0Wq7POPcG4l&#xA;X0XyXr/myePUfMLPZaUDygslqruO1Afsg/zHc9s5ztT2gx4Lhi9WTv6D9ZeW7S7ex6e4YfXk7+g/&#xA;WXqOn6dY6daR2djCtvbRCiRoKD5nxJ7k5wmfPPLIzmeKReGz555ZGczxSKuyhuv35WCQnBqZ4jcS&#xA;hLm1koSnxDw74yNvQ6TteEtp+k/Z+z8bsf1ZW+BaHlypTvXBh5l6LFIVd7InTtJs7NRfaztAm4gr&#xA;Qk9uXj/qjLJxyT9OP6nQdoe0EIXGHLrL9TL726Z+MKAR26BfTjUcQBQU2GaPLqp5BUvsXTYxXF1K&#xA;FyhyU68ogHVifCJiPvAzqvY4XrP8w/odf2n/AHXxZpnqjz7sVdirsVdirsVdirsVdirsVdirsVdi&#xA;rsVdirsVdirsVdirAPz0t/V/Li/f/fEtvJ98yp/xvk4c3pvZCddoQH84SH+xJ/Q+X8ufYnYqpXTl&#xA;Ld2Bow48T7hgcBF7OF2hHix10e32mq3VtRa+pEP2G8PY9s8kljBfnSGYhOrTVLW5oobhJ/I2xPy8&#xA;cx5YyHJjkEkZlbY7FUBql/YWCC4uAGlFfRWg5k+39cvwaeWSVBE9WccDGzwnp3sJ1PVbrUJ/UmNF&#xA;H93GPsqP8++dBg08cQoOmy5TM2XpM32/9iv/ABEZ5zVPo+n/ALse5Zi3J95NB/SUp7CEj72XOw9i&#xA;h/hUj/tZ/wB1F1vah/dj+t+gswz050LsVdirsVdirsVdirsVdirsVdirsVdirsVdirsVdirsVdir&#xA;FPzVtvrH5ea5HSvG39Tt/up1k7/6uSjzd37OZOHX4j/Sr5inyXl77a7FVC+H+jP7U/WMXG1n92Xs&#xA;NuawRmtaqpr9GeU5B6j735vyipn3qmQa0fZ6xcQUWT97H4E/EPkcrniBbo5iOaJ1HzNa21qHiBed&#xA;6hIyKAEd2P8ATJafRSyHf6WWTUiI25sNu7u4u52nncvI3c9h4DwGb7HjjAVHk62czI2VHJsHq9wp&#xA;WUqdiAoI9wBnmcjZt9MwCoBfZWVxeXCwQLydu/YDxJ8MytFocupyDHjFyP2eZ8mWXLHHHikzjSdI&#xA;t9Og4p8UzD97L3PsPbPW+x+xsWix1HeZ+qXf+x5zU6mWU78u5H5uHGdirsVdirsVdirsVdirsVdi&#xA;rsVdirsVdirsVdirsVdirsVUbyztb20ms7uJZra4Ro5onFVZGFCDi2YssschOJqUTYLxjzr/AM49&#xA;q3qXnlSbid2OmXDbfKKU/qf/AILLBk73v+yvbYioaof54/SP1fJ4zqmk6npV49lqVrJaXUf2opVK&#xA;n5ivUeBG2WgvfafU480BPHISieoQE6gwSAivwsfuFcWOs/uj8PvesaawbTrVhuDDGQfmozyzUisk&#xA;v6x+9+c9YKzTH9I/eicpcd2Kpfqv+6v9l/DNnovpPvaMyX5mNLsVexpp9xfak8MA3rVmPRRTqc8/&#xA;7N7Oy6vIMeMdBZ6Ad5fSDmjjx2WZaZpdtp9uIohVz/eSnqx/p7Z692V2Vi0WPgh9XWXU/s7g6DUa&#xA;iWWVlGZs2h2KuxV2KuxV2KuxV2KuxV2KuxV2KuxV2KuxV2KuxV2KuxV2KuxV2KpX5g8saD5hszZ6&#xA;xZx3UW/BmFHQnvG4oyn5HCDTmaLtDPpZ8eKRifsPvHIvEfOX/OPes2zPL5YmF/bS/ALWdljmj5/D&#xA;9s0R1WtSdj7HLBk73vdJ7ZYsuMw1A4J1zG8TX2j7XLp02mAabOytNYj6tKyV4lovgYrWhpVc8z1g&#xA;rNP+tL73ynV5BPNOQ6yJ+1vMZx3Yql2q/aj+R/hm00X0H3tGXmgMy2lOPLPlfUvMN+LWzXii7z3D&#xA;V4Rr4nxJ7Dvl+n08ssqDbiwmZoPoS3tbe3DCFAgc8mp3Ob/R6HDpo8OKIiHoJ5JS5lVzLYOxV2Ku&#xA;xV2KuxV2KuxV2KuxV2KuxV2KuxV2KuxV2KuxV2KuxV2KuxV2KuxV2Kse1/yRo+rcpQv1W8ap9eID&#xA;4ie7r0b9fvmq1vZGLPv9M+8fpap4RL3vOdd8o6zo7FpovVtu1zF8Sf7Luv05yms7My4NyLj3j8bO&#xA;HPEYpLmva0u1X7UfyP8ADNpovoPvaMvNMfKPk7UPMd5wi/dWURH1m6I2Ufyr/Mx8Pvza6bSyynbl&#xA;3pw4DkPk9z0bRdP0awjsbCP04U3JO7Mx6s57k50eLFHHHhi7jHjEBQR2WM3Yq7FXYq7FXYq7FXYq&#xA;7FXYq7FXYq7FXYq7FXYq7FXYq7FXYq7FXYq7FXYq7FXYq7FXMoYFWAKkUIO4IOJFqxLXvy70u+5T&#xA;WFLK5O/FR+6Y+6j7P+x+7NHrOw8eTeHol9n7Pg0TwA8tmH2v5Yaze6wtvfj6tYwbzXCkNzB6LF7m&#xA;ncbd/DMPQ9lZIkxnsL5/qcT8rKUt+T1XTtOstOs4rOyiENvCKIi/rPiT3OdLCAgKHJ2EYiIoIjJs&#xA;nYq7FXYq7FXYq7FXYq7FXYq7FXYq7FXYq7FXYq7FXYq7FXYq7FXYq7FXYq7FXYq7FXYq7FXYq7FX&#xA;Yq7FXYq7FXYq7FXYq7FXYq7FXYq7FXYq7FXYq7FXYq7FXYq7FXYq7FXYq7FXYq7FXYq7FXYq7FXY&#xA;q7FXYq7FXYq7FXYq7FXYq7FXYq7FXYq7FXYq7FXYq7FXYq7FXYq7FXYq7FXYq7FXYq7FXYq7FXYq&#xA;7FXYq7FXYq7FXYq7FXYq7FXYq7FXYq7FXYq7FXYq7FXYq7FXYq7FXYq7FXYq7FXYq7FXYq7FXYqh&#xA;Rq2mG+NgLqI3oFTb8xz6V+z403piqKxV2KuxV2KuxV2KuxV2KuxV2KuxV2KuxV2KuxV2KuxV2Kux&#xA;V2KuxV2KuxV2KsP/ADe85XPkz8ttd8yWiq15YwKtryFVE08iQRMw7hXlDEd8VfLf5O/lDf8A52DV&#xA;vNHnLzJeyLbXH1ZArCSdpSqyMay8ljjAYBVVflSmKvo78oPyW0z8sm1dNN1W61C11T6txhuglYTb&#xA;+rUqU4g8/W3+EdO+Kozz9+dn5ceRLlbPzBqgTUXUONPt0eecKejOqAhAe3MivbFW/IH51fl158uJ&#xA;LTy9qfqahEpkewnjeCfgDQsquAHA78Cad8VT7VPOXl/S9csdDvbgxajqPH6rHwYq3Jii1cDiKsKb&#xA;4qlq/mp5Ik1kaRb6h9ZuzzqYUd4x6aM7fvAOJ+FT9knFUu0xvJN95uj1C1u53vppDJHblGEfqcTU&#xA;1K1p3pX+mKs6uLiC3iMszhIx1JxVAx+YdKkfh6pWuwZlIH34qmWKuxV2KuxV2KuxV2KuxV2KuxV2&#xA;KuxV2KuxV2KuxV2KuxV2KuxV2KuxVIvPXlKy83+UNV8tXrGODU4DF6oFTG4IaOQDvwkVWp7Yq+KB&#xA;D+c3/OPvmZ5lQx2Ny4RpaGbTL5UqVBPw0YAmn2ZB8sVfUn5Vfnz5f8/eV9Q1KKBrPV9HgafU9KLc&#xA;iFVSweJ6DmjcadKg7HsSq+ZPyM8zeTtS/NnU/Nv5mX1tV4ZrqBr4c4mvJZEVaKQw/dxluC022p0x&#xA;Vd5+8xeStF/5yA0fzH+X1xbjSlms7mc2IKQCRpClzGFUCgkj+0AP2jir2f8A5yMZl816Wykqy2QK&#xA;sNiCJn3GKvS/Jv5V+UNGs9PvFshNqscStJeSO7EyPHR/g5cAvxEUp0xVI7OKKL80BHEixxrcOFRQ&#xA;AoHpHoBirKvMtwZNRS3ZuMUYFfm25P3Yqqa2+jvYqLUx+rGQF4Ch498VTTy/M0ulQ8jUpVK+ynb8&#xA;MVTHFXYq7FXYq7FXYq7FXYq7FXYq7FXYq7FXYq7FXYq7FXYq7FXYq7FUHq+saTo2nyajq15Dp+nw&#xA;lBNd3MixRJ6jiNObuQq1dgNzirFvOnnP8qZfKWof4i1bTLzQpoHFxB68M3qgAnjEisS0lR8HHfl0&#xA;xV8uf84feX7/AFTzj5jdC8enHRJ7K7mUVHO7kjES796Ruw/1cVSP8h7byVov5o33l78y7C0ETRTW&#xA;I/SaoYYL2KVSOZk+FOQRlDH28cVfUzeT/wDnHO2u7SI6f5aju7maOGyiH1X1ZJ3YLGkSg8mYsRQD&#xA;FWFf85Hf8pTpn/MCP+Tz4q98sP8AeG3/AOMSf8RGKvNoP/JqH/mJf/k0cVZN5lhMWppMy8o5FU+x&#xA;47EYqnEUOgSRCVUg4EV34inzriqNtVtVhH1YKITUrwpxPj0xVVxV2KuxV2KuxV2KuxV2KuxV2Kux&#xA;V2KuxV2KuxV2KuxV2KuxV2KuxVJ/N/lPRPN3l288va5E0+l3wQXEaO0bH0pFlQh0IIo8anFXk6f8&#xA;4d/k+twJT+kmStfQN0vCnhURh6f7LFXq3lHyX5X8oaQuk+XNPj0+xU82SOpZ3oAXkdizu1B1Yk4q&#xA;xj8wPyI/LXz3efpDW9OZNUKhG1G0kaCZlAoOdKo9AKAupI6dMVSPyt/zi1+U/l3WbPWLeC9u77T5&#xA;47qza5uWKpNCweN+MQi5cWUGjVHjXFWaebPy28sear2G81ZJWmgj9GMxyFBx5FtwPdsVZPFGscaR&#xA;r9lAFX5AUxVKF8paOutfpkK/13mZK8zx5Ecfs/LFU0ubS3uovSnQOnWh7H2IxVLv8MaZyr+8p4ct&#xA;v1YqmVvBFbwrDEOMabKKk+/fFVTFXYq7FXYq7FXYq7FXYq7FXYq7FXYq7FXYq7FXYq7FXYq7FXYq&#xA;7FVK6ure1gae4cRxJTk59zQfjlOo1EMMDOZqIZ48cpy4Yiyx+fzmgnAht+cA6sxox+XWmcTn9toj&#xA;JWPHePzNE+7u/HJ2kOyjw7ndNdL13T9SaSO3c+tEA0sTDdQ1aVptvTOo7L7Xxa2PFCwRzBH4BcLU&#xA;aSeKjLkeqYZtHFYnfeeL2HUNWtrXR3vIdG4NeTJMikI6F+QRhU0CnYYqyPTNRt9S063v7YkwXMay&#xA;R12IDCtD7jocVS+LW7h/N0+imNPq8Vkt0JN+ZZpOFOtKUxVOHkSNGeRgiKKszGgAHck4qo22oWF0&#xA;WFrcxTld2ETq9PnxJxVVlljijaSRgqKKsx6AYqo2d9bXkfOFwfFKjkN6CoHSuKrrq4ECA7FiaKCa&#xA;YqqRFmQFipJ7ruMVXYq7FXYq7FXYq7FXYq7FXYq7FXYq7FXYq7FXYq7FXYq7FXYqk/m+Bp/Ll9Go&#xA;LMUVgBuSVdW7fLNT25j49HkHl9xBc/syfDqIn8cnlN7LqFjZN+9KsaDj14g++eZR0o4hxDd7KIhk&#xA;lyZJ+UCyGfVJWDFSsQ5mtC1WNK+Odt7Mx3n3bfpdN7REVAe/9D0rOteXebxWGu6h5q84WWmT29vF&#xA;cm2ivJpld3CPC6/ugpArQnrirPdI0yHS9LtdPgJaK1jWNWbqeI3Jp49cVSC3/wDJm3f/AGyo/wDk&#xA;/iqe61exWWl3N1LF66RpvEdw1TSh2O2++KpBYGb/ABVZtMtvHLJaOzJag0Ck1HInqcVZRdKGtpQR&#xA;UFG269sVQegqg0uBlA5EHkR1NGPXFVbUAPSTb9tcVRQAAoNhirsVdirsVdirsVdirsVdirsVdirs&#xA;VdirsVdirsVdirsVdirsVcQCKHcHqMVY7rHkbRdTZWYPAOQaRYiArAGpFDXj9GaTU9gafLMSFx76&#xA;5H9Xwdppu1suIVz96d2NjZ2NslrZxLDBGKJGooP7T7nNviwxxxEYCoh1+XLLJLikbJV8sa0Nb6bY&#xA;211c3cEKx3N4VNzKOrlAQtfkDiqJxVDrp9kt81+IVF48Yhaf9oxg8gvyriqtLFHLG0cqB43FHRgC&#xA;CD2IOKoW10bS7RxJbWscTrWjKKH4uu/0YqjMVUYLO1tyxgiWMv8Aa4ilcVVXRHADCoBqPnireKux&#xA;V2KuxV2KuxV2KuxV2KuxV2KuxV2KuxV2KuxV2KuxV2KuxV2KuxV2KuxV2KuxV2KuxV2KuxV2KuxV&#xA;2KuxV2KuxV2KuxV2KuxV2KuxV2KuxV2KuxV2KuxV2KuxV2KuxV2KuxV2KuxV2KuxV2KuxV2KuxV2&#xA;KuxV2KuxV2KuxV2KuxV2KuxV2KuxV2KuxV2KuxV//9k=</xapGImg:image>
    </rdf:li>
   </rdf:Alt>
  </xap:Thumbnails>
 </rdf:Description>

 <rdf:Description rdf:about=''
  xmlns:dc='http://purl.org/dc/elements/1.1/'>
  <dc:format>image/svg+xml</dc:format>
 </rdf:Description>

</rdf:RDF>
</x:xmpmeta>
                                                                                                                                                                                                                                                                                                                                                                                                                                                                                                                                                                                                                                                                                                                                                                                                                                                                                                                                                                                                                                                                                                                                                                                                                                                                                                                                                                                                                                                                                                                                                                                                                                                                                                                                                                                                                                                                                                                                                                                                                                                                                                                                <?xpacket end='w'?>
			</metadata>
		<g id="_x30_1">
			<rect fill="none" width="352" height="352"/> 
		</g>
		<g id="_x31_9">
			<path d="M82.136,289.623c-2.612,0-5.184-0.329-7.715-0.984v-4.279c2.772,0.754,5.231,1.131,7.378,1.131
				c2.035,0,3.625-0.457,4.771-1.37s1.718-2.211,1.718-3.894c0-1.586-0.473-2.832-1.418-3.738c-0.945-0.904-2.7-2.086-5.263-3.545
				c-2.804-1.569-4.695-3.151-5.672-4.746c-0.978-1.594-1.466-3.408-1.466-5.442c0-3.237,1.085-5.668,3.257-7.295
				c2.171-1.626,5.003-2.438,8.496-2.438c2.532,0,4.863,0.24,6.994,0.722v4.183c-2.259-0.514-4.358-0.771-6.297-0.771
				c-1.762,0-3.172,0.418-4.229,1.25c-1.058,0.834-1.586,1.988-1.586,3.462c0,1.426,0.46,2.567,1.382,3.425
				c0.922,0.857,2.496,1.902,4.723,3.137c3.076,1.715,5.135,3.373,6.177,4.975c1.041,1.603,1.562,3.404,1.562,5.408
				c0,3.604-1.069,6.309-3.208,8.11C89.601,288.723,86.398,289.623,82.136,289.623z"/>
			<path d="M119.364,288.396c-2.692,0.816-5.488,1.227-8.388,1.227c-4.198,0-7.346-1.21-9.445-3.629
				c-2.099-2.42-3.148-6.049-3.148-10.889c0-4.276,1.03-7.742,3.088-10.395c2.059-2.65,4.931-3.979,8.616-3.979
				c3.396,0,5.98,1.127,7.75,3.377c1.77,2.252,2.656,6.414,2.656,12.486h-15.309c0,3.012,0.577,5.271,1.73,6.776
				s2.884,2.259,5.191,2.259c1.923,0,4.342-0.408,7.258-1.227L119.364,288.396L119.364,288.396z M105.184,273.04h8.892
				c0-3.302-0.353-5.576-1.057-6.826c-0.705-1.249-1.73-1.874-3.077-1.874c-1.506,0-2.651,0.674-3.437,2.02
				C105.719,267.705,105.28,269.932,105.184,273.04z"/>
			<path opacity="0.65" enable-background="new    " d="M125.805,289.238v-28.096h3.797l1.273,4.662
				c0.785-1.634,1.867-2.863,3.245-3.689c1.378-0.824,3.052-1.236,5.023-1.236c0.513,0,0.889,0.016,1.129,0.049v5.383
				c-0.897-0.063-1.554-0.097-1.971-0.097c-2.163,0-3.701,0.478-4.614,1.431s-1.37,2.527-1.37,4.724v16.87H125.805L125.805,289.238z
				"/>
			<path opacity="0.4" enable-background="new    " d="M145.104,289.238v-24.273h-3.101v-3.82h9.589v28.094H145.104L145.104,289.238
				z M148.348,257.635c-1.057,0-1.918-0.297-2.583-0.89s-0.997-1.378-0.997-2.354c0-0.978,0.332-1.764,0.997-2.355
				s1.526-0.889,2.583-0.889c1.025,0,1.883,0.305,2.572,0.912c0.689,0.608,1.033,1.387,1.033,2.332c0,0.992-0.336,1.781-1.009,2.366
				C150.271,257.342,149.405,257.635,148.348,257.635z"/>
			<path opacity="0.2" enable-background="new    " d="M178.197,288.396c-2.692,0.816-5.488,1.227-8.388,1.227
				c-4.198,0-7.346-1.21-9.445-3.629c-2.099-2.42-3.148-6.049-3.148-10.889c0-4.276,1.029-7.742,3.088-10.395
				c2.059-2.65,4.931-3.979,8.616-3.979c3.396,0,5.98,1.127,7.75,3.377c1.771,2.252,2.656,6.414,2.656,12.486h-15.31
				c0,3.012,0.577,5.271,1.73,6.776c1.153,1.506,2.884,2.259,5.191,2.259c1.923,0,4.342-0.408,7.258-1.227v3.992H178.197z
				 M164.018,273.04h8.893c0-3.302-0.353-5.576-1.058-6.826c-0.705-1.249-1.73-1.874-3.076-1.874c-1.506,0-2.652,0.674-3.437,2.02
				C164.555,267.705,164.114,269.932,164.018,273.04z"/>
			<path fill="#808080" d="M112.728,302.891h4.747c1.875,0,3.24,0.438,4.098,1.316c0.857,0.876,1.286,2.284,1.286,4.223
				c0,1.899-0.515,3.357-1.544,4.375c-1.029,1.018-2.497,1.525-4.404,1.525h-1.598v6.479h-2.584L112.728,302.891L112.728,302.891z
				 M115.312,304.607v7.979h1.454c1.169,0,2.031-0.312,2.583-0.931c0.553-0.622,0.829-1.674,0.829-3.155s-0.254-2.501-0.763-3.06
				c-0.509-0.555-1.304-0.834-2.385-0.834H115.312L115.312,304.607z"/>
			<rect x="135.898" y="301.786" fill="#808080" width="2.56" height="19.022"/> 
			<path opacity="0.65" fill="#808080" enable-background="new    " d="M159.537,318.788c-0.865,1.476-2.211,2.212-4.038,2.212
				c-1.273,0-2.265-0.359-2.974-1.074c-0.709-0.72-1.063-1.722-1.063-3.012c0-1.33,0.365-2.322,1.094-2.975
				c0.729-0.653,1.602-1.063,2.62-1.226c1.017-0.166,2.255-0.247,3.713-0.247v-1.646c0-1.625-0.869-2.438-2.607-2.438
				c-1.001,0-2.223,0.214-3.665,0.638v-1.791c1.45-0.399,2.828-0.601,4.134-0.601c1.538,0,2.706,0.369,3.503,1.112
				c0.797,0.738,1.195,1.83,1.195,3.273v9.793h-1.394L159.537,318.788z M158.888,313.994h-1.43c-1.146,0-2.005,0.242-2.578,0.727
				c-0.573,0.485-0.859,1.209-0.859,2.17c0,0.785,0.174,1.371,0.523,1.762c0.348,0.387,0.871,0.582,1.568,0.582
				c0.881,0,1.564-0.28,2.049-0.842c0.485-0.562,0.727-1.322,0.727-2.283V313.994z"/>
			<path opacity="0.4" fill="#808080" enable-background="new    " d="M181.83,320.566c-1.074,0.289-2.083,0.434-3.028,0.434
				c-1.09,0-1.887-0.256-2.392-0.764c-0.505-0.51-0.757-1.319-0.757-2.434v-9.302h-1.838v-0.961l3.737-3.81h0.661v3.101h3.4v1.67
				h-3.4v8.882c0,0.76,0.124,1.262,0.372,1.508c0.248,0.244,0.625,0.365,1.13,0.365c0.521,0,1.227-0.115,2.115-0.349V320.566
				L181.83,320.566z"/>
			<path opacity="0.2" fill="#808080" enable-background="new    " d="M198.402,301.594c0.81,0,1.595,0.096,2.354,0.287v1.742
				c-0.753-0.24-1.382-0.359-1.887-0.359c-0.802,0-1.306,0.254-1.515,0.762c-0.209,0.511-0.313,1.445-0.313,2.808h2.561v1.67h-2.561
				v12.306h-2.561v-12.306h-1.693v-1.67h1.693c0-2.123,0.324-3.526,0.975-4.211C196.107,301.936,197.089,301.594,198.402,301.594
				L198.402,301.594z"/>
			<g>
				<polygon fill="#FFCC00" points="83.551,301.553 74.234,306.654 84.862,311.665 93.57,305.768 "/>
				<polygon fill="#FF9900" points="74.234,306.654 75.357,318.456 85.331,323.65 84.862,311.665 "/>
				
					<linearGradient id="XMLID_99_" gradientUnits="userSpaceOnUse" x1="-47.1431" y1="278.7324" x2="-37.1689" y2="278.7324" gradientTransform="matrix(1 0 0 -1 122.5 596.3906)">
					<stop  offset="0" style="stop-color:#FFCC66"/>
					<stop  offset="1" style="stop-color:#FF9900"/>
					<a:midPointStop  offset="0" style="stop-color:#FFCC66"/>
					<a:midPointStop  offset="0.5" style="stop-color:#FFCC66"/>
					<a:midPointStop  offset="1" style="stop-color:#FF9900"/>
				</linearGradient>
				<polygon fill="url(#XMLID_99_)" points="75.357,318.456 85.331,323.65 84.862,311.665 "/>
				<polygon fill="#F27C0E" points="93.57,305.768 84.862,311.665 85.331,323.65 93.57,317.564 "/>
			</g>
			<g>
				<polygon fill="#ABDD99" points="176.811,84.505 148.321,102.182 181.396,117.244 208.896,97.272 "/>
				<polygon fill="#46AB48" points="148.321,102.182 150.291,142.135 181.721,157.521 181.396,117.244 "/>
				<polygon fill="#16923B" points="208.896,97.272 181.396,117.244 181.721,157.521 208.245,134.602 "/>
			</g>
			<g>
				<polygon fill="#FF6699" points="145.842,103.821 115.717,121.831 150.423,140.17 179.566,119.212 "/>
				<polygon fill="#FF0066" points="150.423,140.17 115.717,121.831 119.646,166.366 152.395,184.371 "/>
				<polygon fill="#BE0151" points="179.566,119.212 150.423,140.17 152.395,184.371 179.896,159.818 "/>
			</g>
			<g>
				<polygon fill="#F5F661" points="250.023,114.932 212.693,99.54 185.518,119.518 222.518,136.871 "/>
				<polygon fill="#FFF500" points="185.518,119.518 185.846,160.119 222.193,178.786 222.518,136.871 "/>
				<polygon fill="#FFCC00" points="222.518,136.871 222.193,178.786 248.391,154.223 250.023,114.932 "/>
			</g>
			<g>
				<polygon fill="#BFE230" points="153.919,143.233 183.227,122.111 220.314,139.299 191.896,163.205 "/>
				<polygon fill="#84C322" points="153.919,143.233 155.552,187.436 191.572,207.083 191.896,163.205 "/>
				<polygon fill="#5DAA3B" points="191.896,163.205 191.572,207.083 219.734,181.211 220.314,139.299 "/>
			</g>
			<g opacity="0.4">
				<polygon fill="#99FF66" points="147.897,58.767 176.792,42.482 210.77,55.167 182.688,73.26 "/>
				<polygon fill="#66CC33" points="147.897,58.767 148.881,99.045 182.277,114.76 182.688,73.26 "/>
				<polygon fill="#669900" points="182.688,73.26 182.277,114.76 209.783,94.787 210.77,55.167 "/>
			</g>
			<g>
				<polygon fill="#FFCC00" points="198.502,67.302 165.922,85.147 203.082,102.665 233.533,82.036 "/>
				<polygon fill="#FF9900" points="165.922,85.147 169.846,126.406 204.721,144.576 203.082,102.665 "/>
				
					<linearGradient id="XMLID_100_" gradientUnits="userSpaceOnUse" x1="47.3462" y1="472.7695" x2="82.2207" y2="472.7695" gradientTransform="matrix(1 0 0 -1 122.5 596.3906)">
					<stop  offset="0" style="stop-color:#FFCC66"/>
					<stop  offset="1" style="stop-color:#FF9900"/>
					<a:midPointStop  offset="0" style="stop-color:#FFCC66"/>
					<a:midPointStop  offset="0.5" style="stop-color:#FFCC66"/>
					<a:midPointStop  offset="1" style="stop-color:#FF9900"/>
				</linearGradient>
				<polygon fill="url(#XMLID_100_)" points="169.846,126.406 204.721,144.576 203.082,102.665 "/>
				<polygon fill="#F27C0E" points="233.533,82.036 203.082,102.665 204.721,144.576 233.533,123.289 "/>
			</g>
		</g>
	</svg>
