<?xml version="1.0" encoding="utf-8"?>
<!-- Generator: Adobe Illustrator 11.0, SVG Export Plug-In . SVG Version: 6.0.0 Build 78)  -->
<!DOCTYPE svg PUBLIC "-//W3C//DTD SVG 1.0//EN"    "http://www.w3.org/TR/2001/REC-SVG-20010904/DTD/svg10.dtd" [
	<!ENTITY ns_flows "http://ns.adobe.com/Flows/1.0/">
	<!ENTITY ns_svg "http://www.w3.org/2000/svg">
	<!ENTITY ns_xlink "http://www.w3.org/1999/xlink">
]>
<svg  xmlns="&ns_svg;" xmlns:xlink="&ns_xlink;" xmlns:a="http://ns.adobe.com/AdobeSVGViewerExtensions/3.0/"
	 width="352" height="352" viewBox="0 0 352 352" overflow="visible" enable-background="new 0 0 352 352" xml:space="preserve">
	<metadata>
		<x:xmpmeta  x:xmptk="XMP toolkit 3.0-29, framework 1.6" xmlns:x="adobe:ns:meta/">
			<rdf:RDF  xmlns:iX="http://ns.adobe.com/iX/1.0/" xmlns:rdf="http://www.w3.org/1999/02/22-rdf-syntax-ns#">
				<rdf:Description  rdf:about="" xmlns:pdf="http://ns.adobe.com/pdf/1.3/"></rdf:Description>
				<rdf:Description  rdf:about="" xmlns:tiff="http://ns.adobe.com/tiff/1.0/"></rdf:Description>
				<rdf:Description  rdf:about="" xmlns:xapGImg="http://ns.adobe.com/xap/1.0/g/img/" xmlns:xap="http://ns.adobe.com/xap/1.0/">
					<xap:CreateDate>2005-04-04T07:58:17Z</xap:CreateDate>
					<xap:ModifyDate>2005-04-04T09:30:40Z</xap:ModifyDate>
					<xap:CreatorTool>Illustrator</xap:CreatorTool>
					<xap:Thumbnails>
						<rdf:Alt>
							<rdf:li  rdf:parseType="Resource">
								<xapGImg:format>JPEG</xapGImg:format>
								<xapGImg:width>256</xapGImg:width>
								<xapGImg:height>256</xapGImg:height>
								<xapGImg:image>/9j/4AAQSkZJRgABAgEASABIAAD/7QAsUGhvdG9zaG9wIDMuMAA4QklNA+0AAAAAABAASAAAAAEA
AQBIAAAAAQAB/+4ADkFkb2JlAGTAAAAAAf/bAIQABgQEBAUEBgUFBgkGBQYJCwgGBggLDAoKCwoK
DBAMDAwMDAwQDA4PEA8ODBMTFBQTExwbGxscHx8fHx8fHx8fHwEHBwcNDA0YEBAYGhURFRofHx8f
Hx8fHx8fHx8fHx8fHx8fHx8fHx8fHx8fHx8fHx8fHx8fHx8fHx8fHx8fHx8f/8AAEQgBAAEAAwER
AAIRAQMRAf/EAaIAAAAHAQEBAQEAAAAAAAAAAAQFAwIGAQAHCAkKCwEAAgIDAQEBAQEAAAAAAAAA
AQACAwQFBgcICQoLEAACAQMDAgQCBgcDBAIGAnMBAgMRBAAFIRIxQVEGE2EicYEUMpGhBxWxQiPB
UtHhMxZi8CRygvElQzRTkqKyY3PCNUQnk6OzNhdUZHTD0uIIJoMJChgZhJRFRqS0VtNVKBry4/PE
1OT0ZXWFlaW1xdXl9WZ2hpamtsbW5vY3R1dnd4eXp7fH1+f3OEhYaHiImKi4yNjo+Ck5SVlpeYmZ
qbnJ2en5KjpKWmp6ipqqusra6voRAAICAQIDBQUEBQYECAMDbQEAAhEDBCESMUEFURNhIgZxgZEy
obHwFMHR4SNCFVJicvEzJDRDghaSUyWiY7LCB3PSNeJEgxdUkwgJChgZJjZFGidkdFU38qOzwygp
0+PzhJSktMTU5PRldYWVpbXF1eX1RlZmdoaWprbG1ub2R1dnd4eXp7fH1+f3OEhYaHiImKi4yNjo
+DlJWWl5iZmpucnZ6fkqOkpaanqKmqq6ytrq+v/aAAwDAQACEQMRAD8A9U4q7FXYq7FXYq7FXYq7
FXYq7FXYq7FXYq7FXYq7FXYq7FXYq7FXYq7FXYq7FXYq7FXYq7FXYq7FXYq7FXYq7FXYq7FXYq7F
XYq7FXYq7FXYq7FXYq7FXYq7FXYq7FXYq7FXYq7FXYq7FXYq7FXYq7FXYq7FXYq7FXYq7FXYq7FX
Yq7FXYq7FXYq7FXYq7FXYq7FXYq7FXYq7FXYq7FXYq7FXYq7FXYq7FXYq7FXYq7FXYq7FXYq7FXY
q7FXYq7FXYq7FXYq7FXYq0XQMFLAM32VJ3NPDImcQQCdymjzbySHYq7FXMyqCzEBRuSdhgJAFlBN
LIpopV5ROrr4qQR+GRhkjMXEghEZiQsG1+TZOxV2KuxV2KuxV2KuxV2KuxV2KuxV2KuxV2KuxV2K
uxV2KuxV2KuxV2KuxVZNPDBGZJnEca9WY0GU588MUTOZEYjqWUIGRoCyxvUvN43jsF9vXcf8RX+u
cN2p7Zc46Yf5x/QP1/J22DszrP5McmubiaUyyyM8h35k7/RnD59Tkyz45yMpd7tY44xFAbJlY+Zt
TtqK7fWIx+zJufobr9+bzQe1OrwbSPiR7pc/9Nz+duJm7Pxz5ek+TIbHzPptzRZG+ryH9mT7P0N0
++mdtoParS59pHw5f0uX+m5fOnV5uz8kOXqHkq32vWdsOKH1peyodvpbNjqu1cWMek8UvL9bpdRr
I49ucmOX2qXl4f3r0j7Rrso/r9Oc3qtdkzH1Hbu6OnzameTmdu5DxTTQvzidkbxUkH8MxseSUDcS
QWmMzE2DSa2vmW8joJ1Ey+P2W+8bfhm3wdtZI7THEPkXOxdozH1bpxa67p9xQc/Sc/sybfj0zc4O
1MOTrwnz/FOxxa3HPrR80wBBFRuD0ObEFy3Yq7FXYq7FXYq7FXYq7FXYq7FXYq7FXYq7FXYq7FXY
q7FXYq7FUq8y602j6eLpY/ULSCPfovIE8iO/TNR232hPSYOOABkTW/Ic93N0Gk8fJw3W1sKm1aXU
m9WSf1fAdAtfBe2eTa/W6jUT4s0jL7h7uj0MNMMQoClPMFk7FXYqslliijMkrBEXqx2GGMTI0OaQ
CdglUPmT1tSgt7f4LdnAeRv2h7A9M3/Z+CeMiz8Ojg9tdmYzpZ5JxHHGO39rJs3T5g7FVG7vLWzg
ae6lWGFersaD5fPG2UYmRoMQ1XzXe31YtP5WlqdjcH+9cf5I/YHv1zrOxvZPNqqnlvHi/wBkfcOn
vPyL0fZ/YMp1LJsHaV5s8w6WI0tb1/RjAVYZDzSg/wAlq0r3I3z0mHY+mhjGOMajH5/Pq9R+RxcP
DTMdK/NlDxTVbPie81uaj/gGP/G2a/P2F1xy+B/W4mTsz+afmzHS/MuhaoALK8jkkP8AuonhJ/wD
UbNPn0eXF9UT+h1+TTzh9QTPMZpdirsVdirsVdirsVdirsVdirsVdirsVdirsVdirsVdirHfP0XP
y1O1P7p42+9wv/G2aD2mhejke4xP21+l2vY0q1A8wfueWI7IwZSVYdCNs8zezIB5o+31iVaCYcx/
MNjlE8APLZxZ6UHkmcF1BOKxuCe46H7sxp4zHm4k8co80LqOr2tktGPOb9mIdfp8MuwaWWTflHvZ
4sEp+5i1/qV1eycpm+EfZjH2Rm6w4I4xQdnjwxhyQ8X94vzzJx/UHW9vf4ll/qpvZ6vf2lBFISg/
3W/xL/Z9GZ744jL/AM9xWdl6j2/78ninxfu6nux65fpdNPPljjxi5y5OVpNKc8xAMdmu59SkF3dz
i5b/AHWFP7pP9RRt9PXPU+xfZTDpankrJl/2MfcP0n4U9xoOyceAWd5N51rtnYq7FWwSDUdcVR2h
/mprFr5i0vQ7W8N2L27gtZRMfUSNZZVjNGPxVAboDmj7QwYDEkR9QHTZ1uqx4qNDd77nLuldirsV
dirsVdirsVdirsVdirsVdirsVdirsVdirsVSjzbF6vlu/Xwj5f8AAEN/DNV23Di0eQf0fu3c7s2V
aiHveQZ5S924Ak0G5PbFCsIWT4iaMOlO2WcFc2BkCkLli7ciWapqx6k5sacgLcUrov7xfnlmP6g6
jt7/ABLL/VRDyBfc+Gdf2P7OZ9aeL6MX84/70dfu83wrXdqY8G31T7v19yhJSQFXAZT1Uioz1Tsz
sfT6KHDjG/WR5n8d3J5LP2jmyTE+IgjlW1e5Ln0aNHMtlI1pKevDdD80O2bOnqey/bvWaeo5f30P
PaX+m6/EFr6/qNrtewerGP8Aj4g3/wCCTrgfR+y/a7Q6ygJcE/5s9vkeR+d+SNtr21ul5QSK47gd
R8x1wvTrrm5gtoWmncRxL9pm6ZGUgBZQSBzYRrvm64vOVvZ1httwz9Hcf8ajNfm1JlsOTiZMxOw5
Kv5ZQ+t+YPl9Ntr2J9/8huf/ABrmu1J/dy9ziZvoL7CznnVOxV2KuxV2KuxV2KuxV2KuxV2KuxV2
KuxV2KuxV2KoTWIvV0i9i/nglX70IzE18OLBkj3wl9zfpZcOWJ/pD73jVtaTXDUjGw+0x6DPI8eK
Uzs99kyCI3TFbOO3Xb4n7sczBhEB5uIcpkhZ++UTb4Mak/vG+Z/XmYHMHJaSB1y3DhnlmIQFykaA
as+eGGByTPDCIsnuC5QQa989T7C9iIYqyar1z/mfwj3/AM77ve+Ie1X/AAQ5aqMtPpBw4jsZn6pe
4fwj/Zf1W89BAAFDk+Wk27CrsVdiqU6ymk28f1i4rDMa+m8R4yMfanX6ctxYZZDQen7E9oO0NORH
FPigP4Zbx/WP80hhGr6leXkyieVnRAPTViNqj2A3981WuFZDG+T7Rh1Es2KE5bGUQfmLQGYbNmv5
MQ+t+ZuhpttJM+/T4LeR/wDjXMbWH90WrP8AQX1pmgdW7FXYq7FXYq7FXYq7FXYq7FXYq7FXYq7F
XYq7FXYq06h0ZT0YEH5HBIWKSDRtiN/5TmtY/wDQB6sC9Ixs4/5q/X7ZyGr7BnjH7r1R7uv7fxs7
zD2kJn17H7P2MXulZGZWBVlNGUihBHiM5vLEg0ebuMZB3CWz98wZuZBjc396/wDrH9eZceQcwIe6
WtrN7Ix+4ZvvZrHOXaGExF1khfkOIW6j2ghxdn5x/tU/siSk9vf3MGytyT+Rtxn0ZPDGT8yTxRlz
TO31W3k2f923v0+/MaWGQ83DnppDlujAQRUbg9DlLj03iqUaz5ht7AGKKkt1/J+yv+t/TMzT6Q5N
ztFz9LoZZNztH72F3V3cXUxmncvI3c9h4Adhm4hjERQd9jxxgKiKCDuf74/Jf+IjOL7Q/v5+99b0
P+L4/wDhcP8AchSzDcp6H+QkPqfmVYvQfuYbh9+u8TJt7/HmHrj+6LRqfofU2aN1rsVdirsVdirs
VdirsVdirsVdirsVdirsVdirsVdirsVdiqV69ZaHLavPqZSFEFPrJIRl8KN39hvmFrOz8OoHrG/f
1/H2OZo8uYSAx2T3PJ768003ckdpK8kAP7uWReHL6Kn8c4vtH2dzYvVj/eR/2Xy6/D5PbYcWThBk
Kl3DdIZYy08h7cjv9OHsvsfJnAMvTDv/AFOZEbLbhQLWUAbcG/VnoPZWmhgyQjAUOKP3uF2xEHRZ
h/tU/wDcli2ervy67FVaC7uIP7tyB/Kdx92QljjLmwljjLmFHWfMd2kKwwqInkB5TDrT/J8Mlp9J
EmzvTbpdBAniO47mLkkkkmpO5JzaO2diqleAC4IH8qH70GcLrDeaX9Yvrel/uYf1I/7kL9M0y/1S
9isbCBri6mNI4kFSfc+AHcnpmBqNRDDAzyHhiOreTT6C/KXyDY+WNSjmuGF3rc8bpNKpPpQKVqUj
/mJIoWP0Z5+Pa06zWjBjH7rf37An8Bq1GKRxmR2D13N86t2KuxV2KuxV2KuxV2KuxV2KuxV2KuxV
2KuxV2KuxV2KuxV5D/zkPcXlpZaHe20hjaOaeNqdDzVGoR0P2O+TgLe69iIQnPLCQu4xPyv9bzHS
/OdvLSO/X0X6eqtSh+Y6jCcfc9fqOypR3huO7qyOOSORA8bB0bdWU1Byt1UokGi6UVicD+U/qy3A
anH3hxNdEnBMD+ZL7mJ56m/KrsVdiqVa31h/2X8MyNNzPw/S5+l+n4pZmW5LsVTbQ/KOseZdWa3s
I+MMaxm5u5Nool4Ddm8T2UbnPMO3e18OjMp5T1NDqfx3vrmAVjgP6Mfue0+XfLmj+WrI2ulqWmkA
F3qDiksp8B/Ingozwvt72lza6fOoDkPx9/3Oxw6brLmyfyqtdYjPgrn8KYPZKN66PlGX3Me0T+6P
wZvnrLzrsVdirsVdirsVdirsVdirsVdirsVdirsVdirsVdirsVdiryz/AJyKtxJ5Ks5h9qHUI/8A
gWilB/GmTx83s/YedayQ78Z++L5zy59VRmn6rf2D8raUqD9qM7ofmMBALRm00Mo9QZF/ju0Sxkku
YHE6igRN1YnbqemQEKILz+u7MMYkA7S2+xa0MyJG8kTxLKoeP1EZCynoQGAz0jSa7BqYmWKcZgbG
jdHuPc/I+s0WXTZDjyx4ZD4/IjY/BbmW4rsVSrW/tQ/Jv4Zkabmfh+lz9L9PxSzMtyU00TQLnVJG
fl6FlEf9Iu2FVX2UftOeyjOe9oPaPB2bjuXqyy+mA5y/4mPfI/Czs5el0ksp7ojmfx1e9Q21vY2s
djZxrDaxgHgihOTFRV2A6sc+Se0+1s+tynJlO5L7Fo8EYQHU03mtcxOvKIB1YnwiYj7wM6r2OF6z
/MP6HX9p/wB18WaZ6o8+7FXYq7FXYq7FXYq7FXYq7FXYq7FXYq7FXYq7FXYq7FXYqwD89Lf1fy4v
3/3xLbyffMqf8b5OHN6b2QnXaEB/OEh/sSf0Pl/Ln2J2KqV05S3dgaMOPE+4YHARezhdoR4sddHt
K3PKH6vcRrc23++ZBUD/AFT1XPLtNqcunn4mGUsc++Jr59/xfm+YjkjwzAlHzSy78rW1xV9Kl4yf
8scxAJ/1H6H6c9K7G/4IpFQ1sf8AkpAf7qP6Y/6V57V+zwPqwH/NP6D+v5sdubW5tZjDcRtFKvVW
FDnp2k1mHU4xkxSE4HqHmc2GeOXDMGJSXW/tQ/Jv4ZsdNzPw/S5Wl+n4o7QvK5uIl1DUi0GnH+7Q
bSzkdo69F8Wzkfab2yhorwaesmp6/wA2H9bz7o/Ouu70mgMxxz2h9p9362QzTh0SGKNYLWEUgt02
VB/EnuTuc8fy5Z5chyZJGeSXOR5n9Q7hyDtyRVAVEdHqE32/9iv/ABEZ5fVPpWn/ALse5Zi3J95N
B/SUp7CEj72XOw9ih/hUj/tZ/wB1F1vah/dj+t+gswz050LsVdirsVdirsVdirsVdirsVdirsVdi
rsVdirsVdirsVdirFPzVtvrH5ea5HSvG39Tt/up1k7/6uSjzd37OZOHX4j/Sr5inyXl77a7FVC+H
+jP7U/WMXG1n92XsNuawRmtaqpr9GeU5B6j735vyipn3qmQa1c3EU8P1e+iW6g7B/tr/AKr9RmXo
dfn0mTxMEzjl5cj7xyPxY5scMseHIBIfjkUkvtA8u29zHesXu1UH0LGUUUP4yMPtKPDv3zuD7ea/
PpziiI48h2lkj3f0R0kepvbpRdZj7KwYZWCZDpE/p8lC5uZrmUyytyY7AdAAOgA7AZzMYCI2cqUj
I2VLJMXq9wpWUqdiAoI9wBnmcjZt9MwCoBfZWVxeXCwQLydu/YDxJ8MytFocupyDHjFyP2eZ8mWX
LHHHikzjSdIt9Og4p8UzD97L3PsPbPW+x+xsWix1HeZ+qXf+x5zU6mWU78u5H5uHGdirsVdirsVd
irsVdirsVdirsVdirsVdirsVdirsVdirsVUbyztb20ms7uJZra4Ro5onFVZGFCDi2YssschOJqUT
YLxjzr/zj2repeeVJuJ3Y6ZcNt8opT+p/wDgssGTve/7K9tiKhqh/nj9I/V8njOqaTqelXj2WpWs
lpdR/ailUqfmK9R4EbZaC99p9TjzQE8chKJ6hATqDBICK/Cx+4VxY6z+6Pw+96xprBtOtWG4MMZB
+ajPLNSKyS/rH735z1grNMf0j96Jylx3Yql+q/7q/wBl/DNnovpPvaMyX5mNLsVexpp9xfak8MA3
rVmPRRTqc8/7N7Oy6vIMeMdBZ6Ad5fSDmjjx2WZaZpdtp9uIohVz/eSnqx/p7Z692V2Vi0WPgh9X
WXU/s7g6DUaiWWVlGZs2h2KuxV2KuxV2KuxV2KuxV2KuxV2KuxV2KuxV2KuxV2KuxV2KuxV2KpX5
g8saD5hszZ6xZx3UW/BmFHQnvG4oyn5HCDTmaLtDPpZ8eKRifsPvHIvEfOX/ADj3rNszy+WJhf20
vwC1nZY5o+fw/bNEdVrUnY+xywZO973Se2WLLjMNQOCdcxvE19o+1y6dNpgGmzsrTWI+rSsleJaL
4GK1oaVXPM9YKzT/AK0vvfKdXkE805DrIn7W8xnHdiqXar9qP5H+GbTRfQfe0ZeaAzLaU48s+V9S
8w34tbNeKLvPcNXhGvifEnsO+X6fTyyyoNuLCZmg+hLe1t7cMIUCBzyanc5v9HocOmjw4oiIegnk
lLmVXMtg7FXYq7FXYq7FXYq7FXYq7FXYq7FXYq7FXYq7FXYq7FXYq7FXYq7FXYq7FXYqx7X/ACRo
+rcpQv1W8ap9eID4ie7r0b9fvmq1vZGLPv8ATPvH6WqeES97znXfKOs6OxaaL1bbtcxfEn+y7r9O
cprOzMuDci494/GzhzxGKS5r2tLtV+1H8j/DNpovoPvaMvNMfKPk7UPMd5wi/dWURH1m6I2Ufyr/
ADMfD782um0ssp25d6cOA5D5Pc9G0XT9GsI7Gwj9OFNyTuzMerOe5OdHixRxx4Yu4x4xAUEdljN2
KuxV2KuxV2KuxV2KuxV2KuxV2KuxV2KuxV2KuxV2KuxV2KuxV2KuxV2KuxV2KuxVzKGBVgCpFCDu
CDiRasS178u9LvuU1hSyuTvxUfumPuo+z/sfuzR6zsPHk3h6JfZ+z4NE8APLZh9r+WGs3usLb34+
rWMG81wpDcweixe5p3G3fwzD0PZWSJMZ7C+f6nE/KylLfk9V07TrLTrOKzsohDbwiiIv6z4k9znS
wgIChydhGIiKCIybJ2KuxV2KuxV2KuxV2KuxV2KuxV2KuxV2KuxV2KuxV2KuxV2KuxV2KuxV2Kux
V2KuxV2KuxV2KuxV2KuxV2KuxV2KuxV2KuxV2KuxV2KuxV2KuxV2KuxV2KuxV2KuxV2KuxV2KuxV
2KuxV2KuxV2KuxV2KuxV2KuxV2KuxV2KuxV2KuxV2KuxV2KuxV2KuxV2KuxV2KuxV2KuxV2KuxV2
KuxV2KuxV2KuxV2KuxV2KuxV2KuxV2KuxV2KuxV2KuxV2KuxV2KuxV2KuxV2KuxV2KuxV2KuxV2K
uxV2KuxV2KuxV2KpKnnbye/mM+WV1mzbzAo5HSxPH9Y2XmR6deXLh8XHrx36YqnWKuxV2KuxV2Kv
FPz1/Oe98uz/AOGvLsgj1VkD397QMYFcVWNART1GU8uX7IpTc7b7snswZR4k/p6DvcHVakx9MebC
vL35I/mb5rsU1zVtZaza8USQi8lmluHRt1ZgPsgg1AJr7Zn5u1dPhPBGN13VTjw0uSYsl7P+UvkP
WfJmi3mnapqC6g01z60EiFyFQoq8aP0+IE7Zou0dXDPMSiOHZztPiMBRNsf/AD7/ADSvvKOn2ula
M4j1nUlZ2uKAtBAvw8lB25O2yntQ96Zk9kaAZpGU/pj9pa9XnMBQ5l5l5Y/Jz8wfOnlw+Z5tdZJ7
sO9lFdSTSSTBSVq8lTwDMDTr45ts/aWHBPwxHYc6rZxcemnOPFaJ/Jr81vMui+bIfKvmO5mubC5n
+pBLli8trc8uCgO1Tx5/Cy1oOo6bw7T7PxzxnJjFEC9uoTptRKMuGXJ9O5ybtXYq7FXYq7FXYq7F
XYq7FXYq7FXYq7FWH/m95yufJn5ba75ktFVryxgVbXkKqJp5EgiZh3CvKGI74q+W/wAnfyhv/wA7
Bq3mjzl5kvZFtrj6sgVhJO0pVZGNZeSxxgMAqqvypTFX0d+UH5LaZ+WTaumm6rdaha6p9W4w3QSs
Jt/VqVKcQefrb/COnfFUZ5+/Oz8uPIlytn5g1QJqLqHGn26PPOFPRnVAQgPbmRXtirfkD86vy68+
XElp5e1P1NQiUyPYTxvBPwBoWVXADgd+BNO+Kphr/wCZvk7QPNeleVdUvGg1nWgp0+H03KP6jmNa
yAcFq603OKpBJ/zkP+U36fbQrfWfrl7GkzyvawyywqLaJ5pP3oXg1EjP2CcVeV+UZP8AnHjzH+ed
r5n0bXNSuPMeoXL3NrpbwyR2xuvSYs5dolYLQFgpf7Xt8OKvofzP5q8veVtHl1jzBfR6fpsNA88t
d2PRUVQzux7KoJxV51pX/OU/5MajqKWI1eS1aRgkdxdW8sUJJNBWQghB7vQYq9Tu9QsbOxlv7u4j
t7GCMzTXUjBYkjUci7OTQKBvXFXkt5/zlh+S1tetbLqdxcKrcWuYbWYxdaEgsFYgeIX5VxV6b5d8
z6J5j0C11/SLn6xpN4jSQXJV46qrFWJWQKwoykbjFXxiuuafq/5gDW9fY/o661H63frxLkwerzaM
KP8AI+AZ3/hShh4IfUI0Pe6HiEp3Llb26X/nKzQFueEOg3TWlaCVpY0kp/xjAZf+HzQj2fnW8hbn
fnx3PUvI/n3y75z0s6ho0rH0iEurWUBZoWIqA6gnr2IJB+g5qNVpJ4JcM/7XLxZYzFh80f8AORl+
9z+aN7CzVFjb20CDwDRCan3zE51XYsK04PeT+r9Dq9abyF9OeQoEt/I/l6FPsx6baLWlK/uEqdvH
OT1ZvNM/0j97tcQ9A9z5H/NKth+aWvyWx4PHqDzodtnZhITtT9o52mg9Wnhf8102fbIfe+0oJVmg
jlUELIocA9aMK5whFGnehfgV2KuxV2KuxV2KuxV2KuxV2KuxV2KpF568pWXm/wAoar5avWMcGpwG
L1QKmNwQ0cgHfhIqtT2xV8UCH85v+cffMzzKhjsblwjS0M2mXypUqCfhowBNPsyD5Yq+pPyq/Pny
/wCfvK+oalFA1nq+jwNPqelFuRCqpYPE9BzRuNOlQdj2JVfMn5GeZvJ2pfmzqfm38zL62q8M11A1
8OcTXksiKtFIYfu4y3BabbU6Yqu8/wDmLyVov5/6R5k/L64t/wBFLNZ3U/1EcIRI0hS5jVQBxEkf
2gB+0cVZD/zms7x/mFoEkbFHTS1ZHU0IIuZSCCMVe5flr/zj5+WnlvS9Hv8A9Erda9HbK1zqE8kr
l5ZoeM37ov6XAh2XjxpTxO+KvBdAs7Oy/wCcyBaWcEdtaw6pcLFBCixxov1R9lVQAB8sVXf85ceZ
ptW/NXTvK9zcG30bSYoBJv8ACsl2Q8sx+URQfR74qmv/ADkNqP5C6h+XVpD5Mn0w61pc0EdmtigS
Y21GV0duKl135HkSa7+OKq93eeZfNH/OGtstn6tzNpU4g1BUBZmsrKdiuw/ZiT0ifZa4ql//ADjJ
56/Jiw0OXy15tsbODWry6ZhqWo28UsE8bhQkRmdW9ILx+y9E71qcVfV8Ol6Vpfl57HSbaGz06GCT
6vbWyLHCiuGc8FSigEsTtkofUES5Pi38vNAt/MHnbRtHuQTbXdyouFU0JiSryAHtVVIrnfazMceK
UhzAdDhhxTAfUn5n/l75XvPy91WG20u2t5tPtJbmwkgiSN43t0LhVZQNmCcSM5HQazJHPEmRPEaP
xdtnwxMDtyeIf8416rdWn5jLZRsfQ1G1mjnSu1Yl9VGp4gpT6Tm/7cxg4L6xI/U4GilU670t/wCc
gY3T82daZhtItqy/L6pEv61y3sc/4NH4/eWOr/vD+Oj6p8lkHydoJBqDp1oQR/xgTOQ1X97L+sfv
dvi+ke58h/nD/wCTO8xf8xbf8RGdr2b/AIvD3Ol1P94X2dYKy2NurAqyxIGU7EEKNjnCz5l3g5K+
RS7FXYq7FXYq7FXYq7FXYq7FXYq7FUHq+saTo2nyajq15Dp+nwlBNd3MixRJ6jiNObuQq1dgNzir
FvOfnP8AKmbyjqB8w6vpl5oU0DieH14ZvWWleMSKxLyVHwcd69MVfLn/ADh95fv9U84+Y3QvHpx0
Seyu5lFRzu5IxEu/ekbsP9XFUj/Ie28laL+aN95e/MuwtBE0U1iP0mqGGC9ilUjmZPhTkEZQx9vH
FX1M3k//AJxztru0iOn+Wo7u5mjhsoh9V9WSd2CxpEoPJmLEUAxV4H/zm1/yn+hf9sof9RMuKvsD
Sf8AjlWX/GCL/iAxV8f6Z/62k/8A21bj/qDfFUJ/zlvoc+j/AJv2XmC5t/rGmapb28yhh8EjWhEU
0Jr/AJCoT7Nir3rR9A/5xl1bRoNYtNP8tixnjEgaVbWJkBFSsiuQUZejA9MVZlot/wDln5e8tWkm
kXelaZ5avpmjsZYZYIrOad+XJYnqI3ZvSbod6HFXzV/zlZ5E/KfStLsvMHlqS1stevbpY5dOsJIz
DNC0bM03ooaR8Sq/EgANdxU1xV7P/wA4vXurXv5K6I+pM0nptcQWjvuTbRTukY37LQoPYDFXg9jF
/gH83II9QUpb6PqQEhIJP1YvtIO5rCwcZ3Uz+Y0x4eco/b/a6Mfu8m/QvpD80fPnluz/AC51a4g1
O2uH1G0ltdPEEySGV50MQMfAmvDlyJ7Uzl9BpMks8QYkcJs7dztM+WIgd+bxf/nGXQLq889S6uEI
tNLtn5y9vVnHponzK8z9Gb3t3MI4eHrI/c4Ohhc77kR/zlB5fuLXzfZa2qH6pqNqsRkA29a3JDAn
/UZafTkOwcwOIw6xP2FOuhUge961+U3nzy7c/lnpk9xqEFu2j2iWt+krqjRfVl4AsCejIoIPf55p
u0dJMaiQAJ4jY+LmafLE4xvyfOMcL+e/zXYWqM0Os6o8gFCSts0pdmav8kIqc6gn8vpt/wCGP2/2
usrxMnvL7TzhHeOxV2KuxV2KuxV2KuxV2KuxV2KuxV2KpP5v8p6J5u8u3nl7XImn0u+CC4jR2jY+
lIsqEOhBFHjU4q8nT/nDv8n1uBKf0kyVr6Bul4U8KiMPT/ZYq9W8o+S/K/lDSF0ny5p8en2KnmyR
1LO9AC8jsWd2oOrEnFWMfmB+RH5a+e7z9Ia3pzJqhUI2o2kjQTMoFBzpVHoBQF1JHTpiqR+Vv+cW
vyn8u6zZ6xbwXt3fafPHdWbXNyxVJoWDxvxiEXLiyg0ao8a4qn35ifkf5D/MDVLbU/MUVxJdWkH1
aEwTGJfT5s+4ANTVzirPIIUggjhj+xEoRa7miigxVgcP5H+Q4fzCPn5Irj/EJne5MhmPpeo8ZjP7
ulKcWxVknm/yV5X84aQ2keZNPj1CxZg6o/JWRxsHjkQq6NvSqkbbdMVeVj/nDz8nxceqRqRjqT9X
N0OHyqI+f/DYqzbWfyW/L7V/I9h5JubKRfL+lyiexgjnlDxygSDl6hZmb+/fZqjf5Yqw3Tv+cQvy
dtLtLiWC/vkU1+rXF0fTPz9JYn/4bFXsljY2VhZQWNjAltZ2yLFb28ShEREFFVVGwAGKsP8AzD/K
Pyt534T3yva6nEvCLULegfj1CyKQVdQfHfwIzP0faOTT7DePcWjNp45OfN5/af8AOKOkLcBrvzDc
TW9d44rdInpTpzZ5R/wubKXtBKtoC/e4w7PHUvX/ACr5T0LytpEelaLbC3tUPJyTyeRyADJIx3Zj
T+A2zS6jUTzS4pmy5uPGICgu80eVtE80aPLpOs24ntJaEdnjcfZkjbqrDx+jpg0+onilxQNFcmMT
FF47c/8AOKOlNccrXzDPFb1NI5bdJHpTYc1eMf8AC5vI+0Eq3gL97hHs8d70L8vfyk8reSA89gJL
rUpl4S6hcEGTgSCUQKAqKSPn4nNZrO0cmo2ltHuDk4dPHHy5s2zAb3Yq7FXYq7FXYq7FXYq7FXYq
7FXYq7FVK6ure1gae4cRxJTk59zQfjlOo1EMMDOZqIZ48cpy4Yiyx+fzmgnAht+cA6sxox+XWmcT
n9tojJWPHePzNE+7u/HJ2kOyjw7ndNdL13T9SaSO3c+tEA0sTDdQ1aVptvTOo7L7Xxa2PFCwRzBH
4BcLUaSeKjLkeqYZtHFYnfeeL2HUNWtrXR3vIdG4NeTJMikI6F+QRhU0CnYYqyPTNRt9S063v7Yk
wXMayR12IDCtD7jocVS+LW7h/N0+imNPq8Vkt0JN+ZZpOFOtKUxVN5ZooYmlmdY4kBZ5HIVVA6kk
7DFUNY6xpN+zLYXtvdsgq4glSQqD0rwJpiqteXltZ2st1dSLDbwqXlkY0AAxVAaB5k0nXbQXFhMr
HcvAWUyoORVS6Akry41FcVQvnHzTF5e05Jh6b3dxIIraGVwgJJHJz34pX4sVTLR57y40+Ka7e3kl
kBYSWbM8DKT8JRm3NRirrzWdIspVhvb63tpXFUjmlSNmFaVAYgnFUYCCKjcHocVQ13qmmWdRd3cN
txUO3qyIlFJ4hjyI2J2xVEghgCDUHcEdCMVQMmu6HHKsMmo2ySs5jWNpowxdW4soBNahtiPHFV9t
rGk3Vy9rbXtvPcx19SCOVHdeJoaqpJFDiqLxV2KuxV2KuxV2KuxV2KuxV2KuxV2KuxVJ/N8DT+XL
6NQWYorADckq6t2+WantzHx6PIPL7iC5/Zk+HURP45PKb2XULGyb96VY0HHrxB988yjpRxDiG72U
RDJLkyT8oFkM+qSsGKlYhzNaFqsaV8c7b2ZjvPu2/S6b2iIqA9/6HpWda8u83isNd1DzV5wstMnt
7eK5NtFeTTK7uEeF1/dBSBWhPXFWe6RpkOl6Xa6fAS0VrGsas3U8RuTTx64qkFv/AOTNu/8AtlR/
8n8VTbzPqcGl6Be389uLqKGP4rciofkQoVtm2q2+3TFWHaQ1yfzA017hLKGebTpHeKwDBQjHkokJ
2Y4qznWIll0m8RkDhoJPhIrU8TTb54qkX5ZxW6+TdOkjRBK6P6jqByakrj4iNzTFUN+aMUT6Pp7M
isw1G3UEgE0atR9NMVZiiJGgSNQiKKKqigA8ABirziODR7nUfOx1lYXu4yfTM/HmkAiPpmPluP2f
s96e2Ksp8gtct5O0k3FfU9AAcuvAEiP/AISmKpVrGmWGo/mTYQ30CXMMemvIIpQGQsJSoJU7H7Xf
FWaABQABQDYAdAMVeTyadYzaD57upYEe5TUbkRzMoLqEkDDi3UbnFU5j0uw0/wAy+SPqcKwmW2uk
mKAKX4WqsC9KcjyYmpxVn+KuxV2KuxV2KuxV2KuxV2KuxV2KuxV2KuIBFDuD1GKsd1jyNoupsrMH
gHINIsRAVgDUihrx+jNJqewNPlmJC499cj+r4O003a2XEK5+9O7Gxs7G2S1s4lhgjFEjUUH9p9zm
3xYY44iMBUQ6/LllklxSNkq+WNaGt9Nsba6ubuCFY7m8Km5lHVygIWvyBxVE4qh10+yW+a/EKi8e
MQtP+0YweQX5VxVVngguIXgnjWWGQFZI3AZWU9QQdiMVS/T/ACzoGnSrNY2ENvKvLjJGoDfGAG36
9sVTPFUBpug6Npbyvp9nFatPT1TEvHlStP14qrX+m2N/EkV5Cs8cbrKit0Dr9lvoxVE4qlmo+WfL
+pXC3N/YQ3M6AASOoJoOgPiPniqZKqqoVQFVRRVGwAHYYqoNp9k18t+YVN4kZhWf9oRk8ivyriqI
xVAfoLR/QvLf6qno37tLeJvSR3NWZvniqq2l6e09pO0CmaxDLZv3jDqEYL81FMVRWKuxV2KuxV2K
uxV2KuxV2KuxV2KuxV2KuxV2KuxV2KuxV2KuxV2KuxV2KuxV2KuxV2KuxV2KuxV2KuxV2KuxV2Ku
xV2KuxV2KuxV2KuxV2KuxV2KuxV2KuxV2KuxV2KuxV2KuxV2KuxV2KuxV2KuxV2KuxV2KuxV2Kux
V2KuxV2KuxV2Kv8A/9k=
									</xapGImg:image>
							</rdf:li>
						</rdf:Alt>
					</xap:Thumbnails>
				</rdf:Description>
				<rdf:Description  rdf:about="" xmlns:dc="http://purl.org/dc/elements/1.1/">
					<dc:format>image/svg+xml</dc:format>
				</rdf:Description>
			</rdf:RDF>
		</x:xmpmeta>
<?xpacket begin='﻿' id='W5M0MpCehiHzreSzNTczkc9d'?><x:xmpmeta xmlns:x='adobe:ns:meta/' x:xmptk='XMP toolkit 3.0-29, framework 1.6'>
<rdf:RDF xmlns:rdf='http://www.w3.org/1999/02/22-rdf-syntax-ns#' xmlns:iX='http://ns.adobe.com/iX/1.0/'>

 <rdf:Description rdf:about=''
  xmlns:pdf='http://ns.adobe.com/pdf/1.3/'>
 </rdf:Description>

 <rdf:Description rdf:about=''
  xmlns:tiff='http://ns.adobe.com/tiff/1.0/'>
 </rdf:Description>

 <rdf:Description rdf:about=''
  xmlns:xap='http://ns.adobe.com/xap/1.0/'
  xmlns:xapGImg='http://ns.adobe.com/xap/1.0/g/img/'>
  <xap:CreateDate>2005-04-04T07:58:17Z</xap:CreateDate>
  <xap:ModifyDate>2005-04-20T12:01:18Z</xap:ModifyDate>
  <xap:CreatorTool>Illustrator</xap:CreatorTool>
  <xap:Thumbnails>
   <rdf:Alt>
    <rdf:li rdf:parseType='Resource'>
     <xapGImg:format>JPEG</xapGImg:format>
     <xapGImg:width>256</xapGImg:width>
     <xapGImg:height>256</xapGImg:height>
     <xapGImg:image>/9j/4AAQSkZJRgABAgEASABIAAD/7QAsUGhvdG9zaG9wIDMuMAA4QklNA+0AAAAAABAASAAAAAEA&#xA;AQBIAAAAAQAB/+4ADkFkb2JlAGTAAAAAAf/bAIQABgQEBAUEBgUFBgkGBQYJCwgGBggLDAoKCwoK&#xA;DBAMDAwMDAwQDA4PEA8ODBMTFBQTExwbGxscHx8fHx8fHx8fHwEHBwcNDA0YEBAYGhURFRofHx8f&#xA;Hx8fHx8fHx8fHx8fHx8fHx8fHx8fHx8fHx8fHx8fHx8fHx8fHx8fHx8fHx8f/8AAEQgBAAEAAwER&#xA;AAIRAQMRAf/EAaIAAAAHAQEBAQEAAAAAAAAAAAQFAwIGAQAHCAkKCwEAAgIDAQEBAQEAAAAAAAAA&#xA;AQACAwQFBgcICQoLEAACAQMDAgQCBgcDBAIGAnMBAgMRBAAFIRIxQVEGE2EicYEUMpGhBxWxQiPB&#xA;UtHhMxZi8CRygvElQzRTkqKyY3PCNUQnk6OzNhdUZHTD0uIIJoMJChgZhJRFRqS0VtNVKBry4/PE&#xA;1OT0ZXWFlaW1xdXl9WZ2hpamtsbW5vY3R1dnd4eXp7fH1+f3OEhYaHiImKi4yNjo+Ck5SVlpeYmZ&#xA;qbnJ2en5KjpKWmp6ipqqusra6voRAAICAQIDBQUEBQYECAMDbQEAAhEDBCESMUEFURNhIgZxgZEy&#xA;obHwFMHR4SNCFVJicvEzJDRDghaSUyWiY7LCB3PSNeJEgxdUkwgJChgZJjZFGidkdFU38qOzwygp&#xA;0+PzhJSktMTU5PRldYWVpbXF1eX1RlZmdoaWprbG1ub2R1dnd4eXp7fH1+f3OEhYaHiImKi4yNjo&#xA;+DlJWWl5iZmpucnZ6fkqOkpaanqKmqq6ytrq+v/aAAwDAQACEQMRAD8A9U4q7FXYq7FXYq7FXYq7&#xA;FXYq7FXYq7FXYq7FXYq7FXYq7FXYq7FXYq7FXYq7FXYq7FXYq7FXYq7FXYq7FXYq7FXYq7FXYq7F&#xA;XYq7FXYq7FXYq7FXYq7FXYq7FXYq7FXYq7FXYq7FXYq7FXYq7FXYq7FXYq7FXYq7FXYq7FXYq7FX&#xA;Yq7FXYq7FXYq7FXYq7FXYq7FXYq7FXYq7FXYq7FXYq7FXYq7FXYq7FXYq7FXYq7FXYq7FXYq7FXY&#xA;q7FXYq7FXYq7FXYq7FXYq0XQMFLAM32VJ3NPDImcQQCdymjzbySHYq7FXMyqCzEBRuSdhgJAFlBN&#xA;LIpopV5ROrr4qQR+GRhkjMXEghEZiQsG1+TZOxV2KuxV2KuxV2KuxV2KuxV2KuxV2KuxV2KuxV2K&#xA;uxV2KuxV2KuxV2KuxVZNPDBGZJnEca9WY0GU588MUTOZEYjqWUIGRoCyxvUvN43jsF9vXcf8RX+u&#xA;cN2p7Zc46Yf5x/QP1/J22DszrP5McmubiaUyyyM8h35k7/RnD59Tkyz45yMpd7tY44xFAbJlY+Zt&#xA;TtqK7fWIx+zJufobr9+bzQe1OrwbSPiR7pc/9Nz+duJm7Pxz5ek+TIbHzPptzRZG+ryH9mT7P0N0&#xA;++mdtoParS59pHw5f0uX+m5fOnV5uz8kOXqHkq32vWdsOKH1peyodvpbNjqu1cWMek8UvL9bpdRr&#xA;I49ucmOX2qXl4f3r0j7Rrso/r9Oc3qtdkzH1Hbu6OnzameTmdu5DxTTQvzidkbxUkH8MxseSUDcS&#xA;QWmMzE2DSa2vmW8joJ1Ey+P2W+8bfhm3wdtZI7THEPkXOxdozH1bpxa67p9xQc/Sc/sybfj0zc4O&#xA;1MOTrwnz/FOxxa3HPrR80wBBFRuD0ObEFy3Yq7FXYq7FXYq7FXYq7FXYq7FXYq7FXYq7FXYq7FXY&#xA;q7FXYq7FUq8y602j6eLpY/ULSCPfovIE8iO/TNR232hPSYOOABkTW/Ic93N0Gk8fJw3W1sKm1aXU&#xA;m9WSf1fAdAtfBe2eTa/W6jUT4s0jL7h7uj0MNMMQoClPMFk7FXYqslliijMkrBEXqx2GGMTI0OaQ&#xA;CdglUPmT1tSgt7f4LdnAeRv2h7A9M3/Z+CeMiz8Ojg9tdmYzpZ5JxHHGO39rJs3T5g7FVG7vLWzg&#xA;ae6lWGFersaD5fPG2UYmRoMQ1XzXe31YtP5WlqdjcH+9cf5I/YHv1zrOxvZPNqqnlvHi/wBkfcOn&#xA;vPyL0fZ/YMp1LJsHaV5s8w6WI0tb1/RjAVYZDzSg/wAlq0r3I3z0mHY+mhjGOMajH5/Pq9R+RxcP&#xA;DTMdK/NlDxTVbPie81uaj/gGP/G2a/P2F1xy+B/W4mTsz+afmzHS/MuhaoALK8jkkP8AuonhJ/wD&#xA;UbNPn0eXF9UT+h1+TTzh9QTPMZpdirsVdirsVdirsVdirsVdirsVdirsVdirsVdirsVdirHfP0XP&#xA;y1O1P7p42+9wv/G2aD2mhejke4xP21+l2vY0q1A8wfueWI7IwZSVYdCNs8zezIB5o+31iVaCYcx/&#xA;MNjlE8APLZxZ6UHkmcF1BOKxuCe46H7sxp4zHm4k8co80LqOr2tktGPOb9mIdfp8MuwaWWTflHvZ&#xA;4sEp+5i1/qV1eycpm+EfZjH2Rm6w4I4xQdnjwxhyQ8X94vzzJx/UHW9vf4ll/qpvZ6vf2lBFISg/&#xA;3W/xL/Z9GZ744jL/AM9xWdl6j2/78ninxfu6nux65fpdNPPljjxi5y5OVpNKc8xAMdmu59SkF3dz&#xA;i5b/AHWFP7pP9RRt9PXPU+xfZTDpankrJl/2MfcP0n4U9xoOyceAWd5N51rtnYq7FWwSDUdcVR2h&#xA;/mprFr5i0vQ7W8N2L27gtZRMfUSNZZVjNGPxVAboDmj7QwYDEkR9QHTZ1uqx4qNDd77nLuldirsV&#xA;dirsVdirsVdirsVdirsVdirsVdirsVdirsVSjzbF6vlu/Xwj5f8AAEN/DNV23Di0eQf0fu3c7s2V&#xA;aiHveQZ5S924Ak0G5PbFCsIWT4iaMOlO2WcFc2BkCkLli7ciWapqx6k5sacgLcUrov7xfnlmP6g6&#xA;jt7/ABLL/VRDyBfc+Gdf2P7OZ9aeL6MX84/70dfu83wrXdqY8G31T7v19yhJSQFXAZT1Uioz1Tsz&#xA;sfT6KHDjG/WR5n8d3J5LP2jmyTE+IgjlW1e5Ln0aNHMtlI1pKevDdD80O2bOnqey/bvWaeo5f30P&#xA;PaX+m6/EFr6/qNrtewerGP8Aj4g3/wCCTrgfR+y/a7Q6ygJcE/5s9vkeR+d+SNtr21ul5QSK47gd&#xA;R8x1wvTrrm5gtoWmncRxL9pm6ZGUgBZQSBzYRrvm64vOVvZ1httwz9Hcf8ajNfm1JlsOTiZMxOw5&#xA;Kv5ZQ+t+YPl9Ntr2J9/8huf/ABrmu1J/dy9ziZvoL7CznnVOxV2KuxV2KuxV2KuxV2KuxV2KuxV2&#xA;KuxV2KuxV2KoTWIvV0i9i/nglX70IzE18OLBkj3wl9zfpZcOWJ/pD73jVtaTXDUjGw+0x6DPI8eK&#xA;Uzs99kyCI3TFbOO3Xb4n7sczBhEB5uIcpkhZ++UTb4Mak/vG+Z/XmYHMHJaSB1y3DhnlmIQFykaA&#xA;as+eGGByTPDCIsnuC5RQ1756n2F7EQxVk1Xrn/M/hHv/AJ33e98Q9qv+CHLVRlp9IOHEdjM/VL3D&#xA;+Ef7L+q3noIAAocny0m3YVdirsVSnWU0m3j+sXFYZjX03iPGRj7U6/TluLDLIaD0/YntB2hpyI4p&#xA;8UB/DLeP6x/mkMI1fUry8mUTys6IB6asRtUewG/vmq1wrIY3yfaMOolmxQnLYyiD8xaAzDZs1/Ji&#xA;H1vzN0NNtpJn36fBbyP/AMa5jaw/ui1Z/oL60zQOrdirsVdirsVdirsVdirsVdirsVdirsVdirsV&#xA;dirsVadQ6Mp6MCD8jgkLFJBo2xG/8pzWsf8AoA9WBekY2cf81fr9s5DV9gzxj916o93X9v42d5h7&#xA;SEz69j9n7GL3SsjMrAqymjKRQgjxGc3liQaPN3GMg7hLZ++YM3Mgxub+9f8A1j+vMuPIOYEPdLW1&#xA;m9kY/cM33s1jnLtDCYi6yQvyHELdR7QQ4uz84/2qf2RJSe3v7mDZW5J/I24z6MnhjJ+ZJ4oy5pnb&#xA;6rbybP8Au29+n35jSwyHm4c9NIct0YCCKjcHocpcem8VSjWfMNvYAxRUluv5P2V/1v6ZmafSHJud&#xA;oufpdDLJudo/ewu6u7i6mM07l5G7nsPADsM3EMYiKDvseOMBURQQdz/fH5L/AMRGcX2h/fz9763o&#xA;f8Xx/wDC4f7kKWYblPQ/yEh9T8yrF6D9zDcPv13iZNvf48w9cf3RaNT9D6mzRutdirsVdirsVdir&#xA;sVdirsVdirsVdirsVdirsVdirsVdirsVSvXrLQ5bV59TKQogp9ZJCMvhRu/sN8wtZ2fh1A9Y37+v&#xA;4+xzNHlzCQGOye55PfXmmm7kjtJXkgB/dyyLw5fRU/jnF9o+zubF6sf7yP8Asvl1+Hye2w4snCDI&#xA;VLuG6Qyxlp5D25Hf6cPZfY+TOAZemHf+pzIjZbcKBaygDbg36s9B7K00MGSEYChxR+9wu2Ig6LMP&#xA;9qn/ALksWz1d+XXYqrQXdxB/duQP5TuPuyEscZc2EscZcwo6z5ju0hWGFRE8gPKYdaf5PhktPpIk&#xA;2d6bdLoIE8R3Hcxckkkk1J3JObR2zsVUrwAXBA/lQ/egzhdYbzS/rF9b0v8Acw/qR/3IX6Zpl/ql&#xA;7FY2EDXF1MaRxIKk+58AO5PTMDUaiGGBnkPDEdW8mn0H+UvkGx8salHNcMt3rc8bpNKpPpQLxqUj&#xA;/mJIoWP0Z5+Pa06zWjBjH7rf37An8Bq1GKRxmR2D1zN86t2KuxV2KuxV2KuxV2KuxV2KuxV2KuxV&#xA;2KuxV2KuxV2KuxV5D/zkPcXlpZaHe20hjaOaeNqdDzVGoR0P2O+TgLe69iIQnPLCQu4xPyv9bzHS&#xA;/OdvLSO/X0X6eqtSh+Y6jCcfc9fqOypR3huO7qyOOSORA8bB0bdWU1Byt1UokGi6UVicD+U/qy3A&#xA;anH3hxNdEnBMD+ZL7mJ56m/KrsVdiqVa31h/2X8MyNNzPw/S5+l+n4pZmW5LsVTbQ/KOseZdWa3s&#xA;I+MMaxm5u5Nool4Ddm8T2UbnPMO3e18OjMp5T1NDqfx3vrmAVjgP6Mfue0+XfLmj+WrI2ulqWmkA&#xA;F3qDiksp8B/Ingozwvt72lza6fOoDkPx9/3Oxw6brLmyfyqtdYjPgrn8KYPZKN66PlGX3Me0T+6P&#xA;wZvnrLzrsVdirsVdirsVdirsVdirsVdirsVdirsVdirsVdirsVdiryz/AJyKtxJ5Ks5h9qHUI/8A&#xA;gWilB/GmTx83s/YedayQ78Z++L5zy59VRmn6rf2D8raUqD9qM7ofmMBALRm00Mo9QZF/ju0Sxkku&#xA;YHE6igRN1YnbqemQEKILz+u7MMYkA7S2+xa0MyJG8kTxLKoeP1EZCynoQGAz0jSa7BqYmWKcZgbG&#xA;jdHuPc/I+s0WXTZDjyx4ZD4/IjY/BbmW4rsVSrW/tQ/Jv4Zkabmfh+lz9L9PxSzMtyU00TQLnVJG&#xA;fl6FlEf9Iu2FVX2UftOeyjOe9oPaPB2bjuXqyy+mA5y/4mPfI/Czs5el0ksp7ojmfx1e9Q21vY2s&#xA;djZxrDaxgHgihOTFRV2A6sc+Se0+1s+tynJlO5L7Fo8EYQHU03mtcxOvKIB1YnwiYj7wM6r2OF6z&#xA;/MP6HX9p/wB18WaZ6o8+7FXYq7FXYq7FXYq7FXYq7FXYq7FXYq7FXYq7FXYq7FXYqwD89Lf1fy4v&#xA;3/3xLbyffMqf8b5OHN6b2QnXaEB/OEh/sSf0Pl/Ln2J2KqV05S3dgaMOPE+4YHARezhdoR4sddHt&#xA;K3PKH6vcRrc23++ZBUD/AFT1XPLtNqcunn4mGUsc++Jr59/xfm+YjkjwzAlHzSy78rW1xV9Kl4yf&#xA;8scxAJ/1H6H6c9K7G/4IpFQ1sf8AkpAf7qP6Y/6V57V+zwPqwH/NP6D+v5sdubW5tZjDcRtFKvVW&#xA;FDnp2k1mHU4xkxSE4HqHmc2GeOXDMGJSXW/tQ/Jv4ZsdNzPw/S5Wl+n4o7QvK5uIl1DUi0GnH+7Q&#xA;bSzkdo69F8Wzkfab2yhorwaesmp6/wA2H9bz7o/Ouu70mgMxxz2h9p9362QzTh0SGKNYLWEUgt02&#xA;VB/EnuTuc8fy5Z5chyZJGeSXOR5n9Q7hyDtyRVAVEdHqE32/9iv/ABEZ5fVPpWn/ALse5Zi3J95N&#xA;B/SUp7CEj72XOw9ih/hUj/tZ/wB1F1vah/dj+t+gswz050LsVdirsVdirsVdirsVdirsVdirsVdi&#xA;rsVdirsVdirsVdirFPzVtvrH5ea5HSvG39Tt/up1k7/6uSjzd37OZOHX4j/Sr5inyXl77a7FVC+H&#xA;+jP7U/WMXG1n92XsNuawRmtaqpr9GeU5B6j735vyipn3qmQa1c3EU8P1e+iW6g7B/tr/AKr9RmXo&#xA;dfn0mTxMEzjl5cj7xyPxY5scMseHIBIfjkUkvtA8u29zHesXu1UH0LGUUUP4yMPtKPDv3zuD7ea/&#xA;PpziiI48h2lkj3f0R0kepvbpRdZj7KwYZWCZDpE/p8lC5uZrmUyytyY7AdAAOgA7AZzMYCI2cqUj&#xA;I2VLJMXq9wpWUqdiAoI9wBnmcjZt9MwCoBfZWVxeXCwQLydu/YDxJ8MytFocupyDHjFyP2eZ8mWX&#xA;LHHHikzjSdIt9Og4p8UzD97L3PsPbPW+x+xsWix1HeZ+qXf+x5zU6mWU78u5H5uHGdirsVdirsVd&#xA;irsVdirsVdirsVdirsVdirsVdirsVdirsVUbyztb20ms7uJZra4Ro5onFVZGFCDi2YssschOJqUT&#xA;YLxjzr/zj2repeeVJuJ3Y6ZcNt8opT+p/wDgssGTve/7K9tiKhqh/nj9I/V8njOqaTqelXj2WpWs&#xA;lpdR/ailUqfmK9R4EbZaC99p9TjzQE8chKJ6hATqDBICK/Cx+4VxY6z+6Pw+96xprBtOtWG4MMZB&#xA;+ajPLNSKyS/rH735z1grNMf0j96Jylx3Yql+q/7q/wBl/DNnovpPvaMyX5mNLsVexpp9xfak8MA3&#xA;rVmPRRTqc8/7N7Oy6vIMeMdBZ6Ad5fSDmjjx2WZaZpdtp9uIohVz/eSnqx/p7Z692V2Vi0WPgh9X&#xA;WXU/s7g6DUaiWWVlGZs2h2KuxV2KuxV2KuxV2KuxV2KuxV2KuxV2KuxV2KuxV2KuxV2KuxV2KpX5&#xA;g8saD5hszZ6xZx3UW/BmFHQnvG4oyn5HCDTmaLtDPpZ8eKRifsPvHIvEfOX/ADj3rNszy+WJhf20&#xA;vwC1nZY5o+fw/bNEdVrUnY+xywZO973Se2WLLjMNQOCdcxvE19o+1y6dNpgGmzsrTWI+rSsleJaL&#xA;4GK1oaVXPM9YKzT/AK0vvfKdXkE805DrIn7W8xnHdiqXar9qP5H+GbTRfQfe0ZeaAzLaU48s+V9S&#xA;8w34tbNeKLvPcNXhGvifEnsO+X6fTyyyoNuLCZmg+hLe1t7cMIUCBzyanc5v9HocOmjw4oiIegnk&#xA;lLmVXMtg7FXYq7FXYq7FXYq7FXYq7FXYq7FXYq7FXYq7FXYq7FXYq7FXYq7FXYq7FXYqx7X/ACRo&#xA;+rcpQv1W8ap9eID4ie7r0b9fvmq1vZGLPv8ATPvH6WqeES97znXfKOs6OxaaL1bbtcxfEn+y7r9O&#xA;cprOzMuDci494/GzhzxGKS5r2tLtV+1H8j/DNpovoPvaMvNMfKPk7UPMd5wi/dWURH1m6I2Ufyr/&#xA;ADMfD782um0ssp25d6cOA5D5Pc9G0XT9GsI7Gwj9OFNyTuzMerOe5OdHixRxx4Yu4x4xAUEdljN2&#xA;KuxV2KuxV2KuxV2KuxV2KuxV2KuxV2KuxV2KuxV2KuxV2KuxV2KuxV2KuxV2KuxVzKGBVgCpFCDu&#xA;CDiRasS178u9LvuU1hSyuTvxUfumPuo+z/sfuzR6zsPHk3h6JfZ+z4NE8APLZh9r+WGs3usLb34+&#xA;rWMG81wpDcweixe5p3G3fwzD0PZWSJMZ7C+f6nE/KylLfk9V07TrLTrOKzsohDbwiiIv6z4k9znS&#xA;wgIChydhGIiKCIybJ2KuxV2KuxV2KuxV2KuxV2KuxV2KuxV2KuxV2KuxV2KuxV2KuxV2KuxV2Kux&#xA;V2KuxV2KuxV2KuxV2KuxV2KuxV2KuxV2KuxV2KuxV2KuxV2KuxV2KuxV2KuxV2KuxV2KuxV2KuxV&#xA;2KuxV2KuxV2KuxV2KuxV2KuxV2KuxV2KuxV2KuxV2KuxV2KuxV2KuxV2KuxV2KuxV2KuxV2KuxV2&#xA;KuxV2KuxV2KuxV2KuxV2KuxV2KuxV2KuxV2KuxV2KuxV2KuxV2KuxV2KuxV2KuxV2KuxV2KuxV2K&#xA;uxV2KuxV2KuxV2KpKnnbye/mM+WV1mzbzAo5HSxPH9Y2XmR6deXLh8XHrx36YqnWKuxV2KuxV2Kv&#xA;FPz1/Oe98uz/AOGvLsgj1VkD397QMYFcVWNART1GU8uX7IpTc7b7snswZR4k/p6DvcHVakx9MebC&#xA;vL35I/mb5rsU1zVtZaza8USQi8lmluHRt1ZgPsgg1AJr7Zn5u1dPhPBGN13VTjw0uSYsl7P+UvkP&#xA;WfJmi3mnapqC6g01z60EiFyFQoq8aP0+IE7Zou0dXDPMSiOHZztPiMBRNsf/AD7/ADSvvKOn2ula&#xA;M4j1nUlZ2uKAtBAvw8lB25O2yntQ96Zk9kaAZpGU/pj9pa9XnMBQ5l5l5Y/Jz8wfOnlw+Z5tdZJ7&#xA;sO9lFdSTSSTBSVq8lTwDMDTr45ts/aWHBPwxHYc6rZxcemnOPFaJ/Jr81vMui+bIfKvmO5mubC5n&#xA;+pBLli8trc8uCgO1Tx5/Cy1oOo6bw7T7PxzxnJjFEC9uoTptRKMuGXJ9O5ybtXYq7FXYq7FXYq7F&#xA;XYq7FXYq7FXYq7FWH/m95yufJn5ba75ktFVryxgVbXkKqJp5EgiZh3CvKGI74q+W/wAnfyhv/wA7&#xA;Bq3mjzl5kvZFtrj6sgVhJO0pVZGNZeSxxgMAqqvypTFX0d+UH5LaZ+WTaumm6rdaha6p9W4w3QSs&#xA;Jt/VqVKcQefrb/COnfFUZ5+/Oz8uPIlytn5g1QJqLqHGn26PPOFPRnVAQgPbmRXtirfkD86vy68+&#xA;XElp5e1P1NQiUyPYTxvBPwBoWVXADgd+BNO+Kphr/wCZvk7QPNeleVdUvGg1nWgp0+H03KP6jmNa&#xA;yAcFq603OKpBJ/zkP+U36fbQrfWfrl7GkzyvawyywqLaJ5pP3oXg1EjP2CcVeV+UZP8AnHjzH+ed&#xA;r5n0bXNSuPMeoXL3NrpbwyR2xuvSYs5dolYLQFgpf7Xt8OKvofzP5q8veVtHl1jzBfR6fpsNA88t&#xA;d2PRUVQzux7KoJxV5zpP/OU/5MalqKWI1eS0aRuEdxdW8sUJJNBWShCA+L0Hjir1S71Cxs7GW/u7&#xA;iO3sYIzNNdSMFiSNRyLs5NAoG9cVeS3n/OWH5LW161sup3Fwqtxa5htZjF1oSCwViB4hflXFXpvl&#xA;3zPonmPQLXX9IufrGk3iNJBclXjqqsVYlZArCjKRuMVfGK65p+r/AJgDW9fY/o661H63frxLkwer&#xA;zaMKP8j4Bnf+FKGHgh9QjQ97oeISncuVvbpf+crNAW54Q6DdNaVoJWljSSn/ABjAZf8Ah80I9n51&#xA;vIW5358dz1LyP598u+c9LOoaNKx9IhLq1lAWaFiKgOoJ69iCQfoOajVaSeCXDP8AtcvFljMWHzR/&#xA;zkZfvc/mjews1RY29tAg8A0Qmp98xOdV2LCtOD3k/q/Q6vWm8hfTnkKBLfyP5ehT7Mem2i1pSv7h&#xA;Knbxzk9WbzTP9I/e7XEPQPc+R/zSrYfmlr8lseDx6g86HbZ2YSE7U/aOdpoPVp4X/NdNn2yH3vtK&#xA;CVZoI5VBCyKHAPWjCucIRRp3oX4FdirsVdirsVdirsVdirsVdirsVdiqReevKVl5v8oar5avWMcG&#xA;pwGL1QKmNwQ0cgHfhIqtT2xV8UCH85v+cffMzzKhjsblwjS0M2mXypUqCfhowBNPsyD5Yq+pPyq/&#xA;Pny/5+8r6hqUUDWer6PA0+p6UW5EKqlg8T0HNG406VB2PYlV8yfkZ5m8nal+bOp+bfzMvrarwzXU&#xA;DXw5xNeSyIq0Uhh+7jLcFpttTpiq7z95i8laL/zkBo/mP8vri3GlLNZ3M5sQUgEjSFLmMKoFBJH9&#xA;oAftHFWQ/wDOazvH+YWgSRsUdNLVkdTQgi5lIIIxV7l+Wv8Azj5+WnlvS9Hv/wBErda9HbK1zqE8&#xA;krl5ZoeM37ov6XAh2XjxpTxO+KvBdAs7Oy/5zIFpZwR21rDqlwsUEKLHGi/VH2VVAAHyxVd/zlx5&#xA;mm1b81dO8r3NwbfRtJigEm/wrJdkPLMflEUH0e+Kpr/zkNqP5C6h+XVpD5Mn0w61pc0EdmtigSY2&#xA;1GV0duKl135HkSa7+OKq93eeZfNH/OGtstn6tzNpU4g1BUBZmsrKdiuw/ZiT0ifZa4ql/wDzjJ56&#xA;/Jiw0OXy15tsbODWry6ZhqWo28UsE8bhQkRmdW9ILx+y9E71qcVfV8Ol6Vpfl57HSbaGz06GCT6v&#xA;bWyLHCiuGc8FSigEsTtkofUES5Pi38vNAt/MHnbRtHuQTbXdyouFU0JiSryAHtVVIrnfazMceKUh&#xA;zAdDhhxTAfUn5nfl75WvPy91WG30u2tptPs5bmwkgiSN43t0LqqsoXZuHEjOR0GsyRzxJkTxGj8X&#xA;bZ8MTA7cniH/ADjXqt1afmMtlGx9DUbWaOdK7ViX1UaniClPpOb/ALcxg4L6xI/U4GilU670t/5y&#xA;BjdPzZ1pmG0i2rL8vqkS/rXLexz/AINH4/eWOr/vD+Oj6p8lkHydoJBqDp1oQR/xgTOQ1X97L+sf&#xA;vdvi+ke58h/nD/5M7zF/zFt/xEZ2vZv+Lw9zpdT/AHhfZ1grLY26sCrLEgZTsQQo2OcLPmXeDkr5&#xA;FLsVdirsVdirsVdirsVdirsVdirsVQer6xpOjafJqOrXkOn6fCUE13cyLFEnqOI05u5CrV2A3OKs&#xA;W86ec/ypl8pah/iLVtMvNCmgcXEHrwzeqACeMSKxLSVHwcd+XTFXy5/zh95fv9U84+Y3QvHpx0Se&#xA;yu5lFRzu5IxEu/ekbsP9XFUj/Ie28laL+aN95e/MuwtBE0U1iP0mqGGC9ilUjmZPhTkEZQx9vHFX&#xA;1M3k/wD5xztru0iOn+Wo7u5mjhsoh9V9WSd2CxpEoPJmLEUAxV4H/wA5tf8AKf6F/wBsof8AUTLi&#xA;r7A0n/jlWX/GCL/iAxV8f6Z/62k//bVuP+oN8VQn/OW+hz6P+b9l5gubf6xpmqW9vMoYfBI1oRFN&#xA;Ca/5CoT7Nir3rR9A/wCcZdW0aDWLTT/LYsZ4xIGlW1iZARUrIrkFGXowPTFWY6LqH5Z+X/LNpJpF&#xA;3pWmeWr6Zo7GWGWGGzmmflyWN6iN2b0m6HehxV81/wDOVnkT8p9K0uy8weWpLWy169uljl06wkjM&#xA;M0LRszTeihpHxKr8SAA13FTXFXs//OL17q17+SuiPqTNJ6bXEFo77k20U7pGN+y0KD2AxV4PYxf4&#xA;B/NyCPUFKW+j6kBISCT9WL7SDuawsHGd1M/mNMeHnKP2/wBrox+7yb9C+kPzR8+eW7P8udWuINTt&#xA;rh9RtJbXTxBMkhledDEDHwJrw5cie1M5fQaTJLPEGJHCbO3c7TPliIHfm8X/AOcZdAurzz1Lq4Qi&#xA;00u2fnL29WcemifMrzP0Zve3cwjh4esj9zg6GFzvuRH/ADlB5fuLXzfZa2qH6pqNqsRkA29a3JDA&#xA;n/UZafTkOwcwOIw6xP2FOuhUge961+U3nzy7c/lnpk9xqEFu2j2iWt+krqjRfVl4AsCejIoIPf55&#xA;pu0dJMaiQAJ4jY+LmafLE4xvyfOMcL+e/wA12FqjNDrOqPIBQkrbNKXZmr/JCKnOoJ/L6bf+GP2/&#xA;2usrxMnvL7TzhHeOxV2KuxV2KuxV2KuxV2KuxV2KuxV2KpP5v8p6J5u8u3nl7XImn0u+CC4jR2jY&#xA;+lIsqEOhBFHjU4q8nT/nDv8AJ9bgSn9JMla+gbpeFPCojD0/2WKvVvKPkvyv5Q0hdJ8uafHp9ip5&#xA;skdSzvQAvI7FndqDqxJxVjH5gfkR+Wvnu8/SGt6cyaoVCNqNpI0EzKBQc6VR6AUBdSR06Yqkflb/&#xA;AJxa/Kfy7rNnrFvBe3d9p88d1Ztc3LFUmhYPG/GIRcuLKDRqjxriqffmJ+R/kP8AMDVLbU/MUVxJ&#xA;dWkH1aEwTGJfT5s+4ANTVzirPIIUggjhj+xEoRa7miigxVgcP5H+Q4fzCPn5Irj/ABCZ3uTIZj6X&#xA;qPGYz+7pSnFsVZJ5v8leV/OGkNpHmTT49QsWYOqPyVkcbB45EKujb0qpG23TFXlY/wCcPPyfFx6p&#xA;GpGOpP1c3Q4fKoj5/wDDYqzbWfyW/L7V/I9h5JubKRfL+lyiexgjnlDxygSDl6hZmb+/fZqjf5Yq&#xA;w3Tv+cQvydtLtLiWC/vkU1+rXF0fTPz9JYn/AOGxV7JY2NlYWUFjYwJbWdsixW9vEoRERBRVVRsA&#xA;BirD/wAw/wAo/K3nfhPfK9rqcS8ItQt6B+PULIpBV1B8d/AjM/R9o5NPsN49xaM2njk583n9p/zi&#xA;jpC3Aa78w3E1vXeOK3SJ6U6c2eUf8Lmyl7QSraAv3uMOzx1L1/yr5T0LytpEelaLbC3tUPJyTyeR&#xA;yADJIx3ZjT+A2zS6jUTzS4pmy5uPGICgu80eVtE80aPLpOs24ntJaEdnjcfZkjbqrDx+jpg0+oni&#xA;lxQNFcmMTFF47c/84o6U1wWtvMM8VvU0jlt0kenb41eMf8Lm8j7QSreAv3uEezx3vQvy9/KTyt5I&#xA;Dz2AkutSmXhLqFwQZOBIJRAoCopI+fic1ms7RyajaW0e4OTh08cfLmzbMBvdirsVdirsVdirsVdi&#xA;rsVdirsVdirsVUrq6t7WBp7hxHElOTn3NB+OU6jUQwwM5mohnjxynLhiLLH5/OaCcCG35wDqzGjH&#xA;5daZxOf22iMlY8d4/M0T7u78cnaQ7KPDud010vXdP1JpI7dz60QDSxMN1DVpWm29M6jsvtfFrY8U&#xA;LBHMEfgFwtRpJ4qMuR6phm0cVid954vYdQ1a2tdHe8h0bg15MkyKQjoX5BGFTQKdhirI9M1G31LT&#xA;re/tiTBcxrJHXYgMK0PuOhxVL4tbuH83T6KY0+rxWS3Qk35lmk4U60pTFU3lmihiaWZ1jiQFnkch&#xA;VUDqSTsMVQ1jrGk37Mthe292yCriCVJCoPSvAmmKq15eW1nay3V1IsNvCpeWRjQADFUBoHmTSddt&#xA;BcWEysdy8BZTKg5FVLoCSvLjUVxVC+cfNMXl7TkmHpvd3EgitoZXCAkkcnPfilfixVMtHnvLjT4p&#xA;rt7eSWQFhJZszwMpPwlGbc1GKuvNZ0iylWG9vre2lcVSOaVI2YVpUBiCcVRgIIqNwehxVDXeqaZZ&#xA;1F3dw23FQ7erIiUUniGPIjYnbFUSCGAINQdwR0IxVAya7occqwyajbJKzmNY2mjDF1biygE1qG2I&#xA;8cVX22saTdXL2tte289zHX1II5Ud14mhqqkkUOKovFXYq7FXYq7FXYq7FXYq7FXYq7FXYq7FUn83&#xA;wNP5cvo1BZiisANySrq3b5Zqe3MfHo8g8vuILn9mT4dRE/jk8pvZdQsbJv3pVjQcevEH3zzKOlHE&#xA;OIbvZREMkuTJPygWQz6pKwYqViHM1oWqxpXxztvZmO8+7b9LpvaIioD3/oelZ1ry7zeKw13UPNXn&#xA;Cy0ye3t4rk20V5NMru4R4XX90FIFaE9cVZ7pGmQ6Xpdrp8BLRWsaxqzdTxG5NPHriqQW/wD5M27/&#xA;AO2VH/yfxVNvM+pwaXoF7fz24uooY/ityKh+RChW2barb7dMVYdpDXJ/MDTXuEsoZ5tOkd4rAMFC&#xA;MeSiQnZjirOdYiWXSbxGQOGgk+EitTxNNvniqRflnFbr5N06SNEEro/qOoHJqSuPiI3NMVQ35oxR&#xA;Po+nsyKzDUbdQSATRq1H00xVmKIkaBI1CIooqqKADwAGKvOI4NHudR87HWVhe7jJ9Mz8eaQCI+mY&#xA;+W4/Z+z3p7YqynyC1y3k7STcV9T0ABy68ASI/wDhKYqlWsaZYaj+ZNhDfQJcwx6a8gilAZCwlKgl&#xA;Tsftd8VZoAFAAFANgB0AxV5PJp1jNoPnu6lgR7lNRuRHMyguoSQMOLdRucVTmPS7DT/Mvkj6nCsJ&#xA;ltrpJigCl+FqrAvSnI8mJqcVZ/irsVdirsVdirsVdirsVdirsVdirsVdiriARQ7g9RirHdY8jaLq&#xA;bKzB4ByDSLEQFYA1Ioa8fozSansDT5ZiQuPfXI/q+DtNN2tlxCufvTuxsbOxtktbOJYYIxRI1FB/&#xA;afc5t8WGOOIjAVEOvy5ZZJcUjZKvljWhrfTbG2urm7ghWO5vCpuZR1coCFr8gcVROKoddPslvmvx&#xA;CovHjELT/tGMHkF+VcVVZ4ILiF4J41lhkBWSNwGVlPUEHYjFUv0/yzoGnSrNY2ENvKvLjJGoDfGA&#xA;G369sVTPFUBpug6Npbyvp9nFatPT1TEvHlStP14qrX+m2N/EkV5Cs8cbrKit0Dr9lvoxVE4qlmo+&#xA;WfL+pXC3N/YQ3M6AASOoJoOgPiPniqZKqqoVQFVRRVGwAHYYqoNp9k18t+YVN4kZhWf9oRk8ivyr&#xA;iqIxVAfoLR/QvLf6qno37tLeJvSR3NWZvniqq2l6e09pO0CmaxDLZv3jDqEYL81FMVRWKuxV2Kux&#xA;V2KuxV2KuxV2KuxV2KuxV2KuxV2KuxV2KuxV2KuxV2KuxV2KuxV2KuxV2KuxV2KuxV2KuxV2KuxV&#xA;2KuxV2KuxV2KuxV2KuxV2KuxV2KuxV2KuxV2KuxV2KuxV2KuxV2KuxV2KuxV2KuxV2KuxV2KuxV2&#xA;KuxV2KuxV2KuxV2Kv//Z</xapGImg:image>
    </rdf:li>
   </rdf:Alt>
  </xap:Thumbnails>
 </rdf:Description>

 <rdf:Description rdf:about=''
  xmlns:dc='http://purl.org/dc/elements/1.1/'>
  <dc:format>image/svg+xml</dc:format>
 </rdf:Description>

</rdf:RDF>
</x:xmpmeta>
                                                                                                                                                                                                                                                                                                                                                                                                                                                                                                                                                                                                                                                                                                                                                                                                                                                                                                                                                                                                                                                                                                                                                                                                                                                                                                                                                                                                                                                                                                                                                                                                                                                                                                                                                                                                                                                                                                                                                                                                                                                                                                                                <?xpacket end='w'?>
			</metadata>
		<g id="_x30_1">
			<rect fill="none" width="352" height="352"/> 
		</g>
		<g id="_x32_5">
			<path d="M82.136,289.623c-2.612,0-5.184-0.329-7.715-0.984v-4.279c2.772,0.754,5.231,1.131,7.378,1.131
				c2.035,0,3.625-0.457,4.771-1.37s1.718-2.211,1.718-3.894c0-1.586-0.473-2.832-1.418-3.738c-0.945-0.904-2.7-2.086-5.263-3.545
				c-2.804-1.569-4.695-3.151-5.672-4.746c-0.978-1.594-1.466-3.408-1.466-5.442c0-3.237,1.085-5.668,3.257-7.295
				c2.171-1.626,5.003-2.438,8.496-2.438c2.532,0,4.863,0.24,6.994,0.722v4.183c-2.259-0.514-4.358-0.771-6.297-0.771
				c-1.762,0-3.172,0.418-4.229,1.25c-1.058,0.834-1.586,1.988-1.586,3.462c0,1.426,0.46,2.567,1.382,3.425
				c0.922,0.857,2.496,1.902,4.723,3.137c3.076,1.715,5.135,3.373,6.177,4.975c1.041,1.603,1.562,3.404,1.562,5.408
				c0,3.604-1.069,6.309-3.208,8.11C89.601,288.723,86.398,289.623,82.136,289.623z"/>
			<path d="M119.364,288.396c-2.692,0.816-5.488,1.227-8.388,1.227c-4.198,0-7.346-1.21-9.445-3.629
				c-2.099-2.42-3.148-6.049-3.148-10.889c0-4.276,1.03-7.742,3.088-10.395c2.059-2.65,4.931-3.979,8.616-3.979
				c3.396,0,5.98,1.127,7.75,3.377c1.77,2.252,2.656,6.414,2.656,12.486h-15.309c0,3.012,0.577,5.271,1.73,6.776
				s2.884,2.259,5.191,2.259c1.923,0,4.342-0.408,7.258-1.227L119.364,288.396L119.364,288.396z M105.184,273.04h8.892
				c0-3.302-0.353-5.576-1.057-6.826c-0.705-1.249-1.73-1.874-3.077-1.874c-1.506,0-2.651,0.674-3.437,2.02
				C105.719,267.705,105.28,269.932,105.184,273.04z"/>
			<path d="M125.805,289.238v-28.096h3.797l1.273,4.662c0.785-1.634,1.867-2.863,3.245-3.689c1.378-0.824,3.052-1.236,5.023-1.236
				c0.513,0,0.889,0.016,1.129,0.049v5.383c-0.897-0.063-1.554-0.097-1.971-0.097c-2.163,0-3.701,0.478-4.614,1.431
				s-1.37,2.527-1.37,4.724v16.87H125.805L125.805,289.238z"/>
			<path d="M145.104,289.238v-24.273h-3.101v-3.82h9.589v28.094H145.104L145.104,289.238z M148.348,257.635
				c-1.057,0-1.918-0.297-2.583-0.89s-0.997-1.378-0.997-2.354c0-0.978,0.332-1.764,0.997-2.355s1.526-0.889,2.583-0.889
				c1.025,0,1.883,0.305,2.572,0.912c0.689,0.608,1.033,1.387,1.033,2.332c0,0.992-0.336,1.781-1.009,2.366
				C150.271,257.342,149.405,257.635,148.348,257.635z"/>
			<path d="M178.197,288.396c-2.692,0.816-5.488,1.227-8.388,1.227c-4.198,0-7.346-1.21-9.445-3.629
				c-2.099-2.42-3.148-6.049-3.148-10.889c0-4.276,1.029-7.742,3.088-10.395c2.059-2.65,4.931-3.979,8.616-3.979
				c3.396,0,5.98,1.127,7.75,3.377c1.771,2.252,2.656,6.414,2.656,12.486h-15.31c0,3.012,0.577,5.271,1.73,6.776
				c1.153,1.506,2.884,2.259,5.191,2.259c1.923,0,4.342-0.408,7.258-1.227v3.992H178.197z M164.018,273.04h8.893
				c0-3.302-0.353-5.576-1.058-6.826c-0.705-1.249-1.73-1.874-3.076-1.874c-1.506,0-2.652,0.674-3.437,2.02
				C164.555,267.705,164.114,269.932,164.018,273.04z"/>
			<path d="M190.693,289.623c-2.402,0-4.989-0.329-7.762-0.984v-4.184c2.739,0.834,4.998,1.25,6.776,1.25
				c1.649,0,2.894-0.324,3.726-0.975c0.834-0.647,1.25-1.621,1.25-2.92c0-0.769-0.231-1.484-0.697-2.149
				c-0.465-0.665-1.777-1.542-3.94-2.632c-1.458-0.754-2.624-1.446-3.497-2.079c-0.873-0.634-1.599-1.454-2.175-2.464
				c-0.577-1.01-0.865-2.268-0.865-3.772c0-2.5,0.921-4.454,2.765-5.864c1.843-1.41,4.205-2.115,7.09-2.115
				c2.498,0,4.773,0.313,6.824,0.938v3.989c-2.002-0.688-3.916-1.033-5.744-1.033c-1.488,0-2.604,0.305-3.34,0.913
				s-1.104,1.522-1.104,2.739c0,0.642,0.22,1.242,0.66,1.804s1.702,1.354,3.784,2.379c2.916,1.427,4.768,2.82,5.553,4.183
				c0.785,1.361,1.178,2.867,1.178,4.519c0,2.788-0.896,4.896-2.691,6.319C196.688,288.91,194.092,289.623,190.693,289.623z"/>
			<path fill="#808080" d="M112.728,302.891h4.747c1.875,0,3.24,0.438,4.098,1.316c0.857,0.876,1.286,2.284,1.286,4.223
				c0,1.899-0.515,3.357-1.544,4.375c-1.029,1.018-2.497,1.525-4.404,1.525h-1.598v6.479h-2.584L112.728,302.891L112.728,302.891z
				 M115.312,304.607v7.979h1.454c1.169,0,2.031-0.312,2.583-0.931c0.553-0.622,0.829-1.674,0.829-3.155s-0.254-2.501-0.763-3.06
				c-0.509-0.555-1.304-0.834-2.385-0.834H115.312L115.312,304.607z"/>
			<rect x="135.898" y="301.786" fill="#808080" width="2.56" height="19.022"/> 
			<path fill="#808080" d="M159.537,318.788c-0.865,1.476-2.211,2.212-4.038,2.212c-1.273,0-2.265-0.359-2.974-1.074
				c-0.709-0.72-1.063-1.722-1.063-3.012c0-1.33,0.365-2.322,1.094-2.975c0.729-0.653,1.602-1.063,2.62-1.226
				c1.017-0.166,2.255-0.247,3.713-0.247v-1.646c0-1.625-0.869-2.438-2.607-2.438c-1.001,0-2.223,0.214-3.665,0.638v-1.791
				c1.45-0.399,2.828-0.601,4.134-0.601c1.538,0,2.706,0.369,3.503,1.112c0.797,0.738,1.195,1.83,1.195,3.273v9.793h-1.394
				L159.537,318.788z M158.888,313.994h-1.43c-1.146,0-2.005,0.242-2.578,0.727c-0.573,0.485-0.859,1.209-0.859,2.17
				c0,0.785,0.174,1.371,0.523,1.762c0.348,0.387,0.871,0.582,1.568,0.582c0.881,0,1.564-0.28,2.049-0.842
				c0.485-0.562,0.727-1.322,0.727-2.283V313.994z"/>
			<path fill="#808080" d="M181.83,320.566c-1.074,0.289-2.083,0.434-3.028,0.434c-1.09,0-1.887-0.256-2.392-0.764
				c-0.505-0.51-0.757-1.319-0.757-2.434v-9.302h-1.838v-0.961l3.737-3.81h0.661v3.101h3.4v1.67h-3.4v8.882
				c0,0.76,0.124,1.262,0.372,1.508c0.248,0.244,0.625,0.365,1.13,0.365c0.521,0,1.227-0.115,2.115-0.349V320.566L181.83,320.566z"
				/>
			<path fill="#808080" d="M198.402,301.594c0.81,0,1.595,0.096,2.354,0.287v1.742c-0.753-0.24-1.382-0.359-1.887-0.359
				c-0.802,0-1.306,0.254-1.515,0.762c-0.209,0.511-0.313,1.445-0.313,2.808h2.561v1.67h-2.561v12.306h-2.561v-12.306h-1.693v-1.67
				h1.693c0-2.123,0.324-3.526,0.975-4.211C196.107,301.936,197.089,301.594,198.402,301.594L198.402,301.594z"/>
			<path fill="#808080" d="M216.611,321c-1.883,0-3.293-0.617-4.229-1.852c-0.938-1.233-1.405-3.084-1.405-5.551
				c0-2.148,0.485-3.847,1.459-5.097c0.975-1.249,2.367-1.874,4.178-1.874c1.826,0,3.222,0.616,4.187,1.852
				c0.966,1.232,1.449,2.955,1.449,5.166c0,2.275-0.451,4.069-1.353,5.385C219.994,320.344,218.566,321,216.611,321z
				 M216.611,319.354c0.986,0,1.729-0.445,2.229-1.34c0.501-0.893,0.752-2.39,0.752-4.488c0-1.481-0.256-2.726-0.769-3.731
				c-0.513-1.004-1.25-1.507-2.212-1.507c-0.978,0-1.719,0.451-2.223,1.357c-0.506,0.904-0.758,2.199-0.758,3.881
				c0,1.892,0.252,3.334,0.758,4.332C214.895,318.854,215.635,319.354,216.611,319.354z"/>
			<path fill="#808080" d="M236.909,306.832l0.589,2.331c0.777-1.644,2.131-2.464,4.063-2.464c0.256,0,0.444,0.013,0.564,0.035
				v2.332c-0.201-0.016-0.501-0.023-0.9-0.023c-1.099,0-1.904,0.262-2.416,0.788c-0.514,0.522-0.77,1.343-0.77,2.456v8.521h-2.561
				v-13.977H236.909z"/>
			<path fill="#808080" d="M272.073,320.809h-2.56v-9.627c0-0.929-0.177-1.629-0.523-2.096c-0.35-0.471-0.871-0.704-1.568-0.704
				c-0.896,0-1.588,0.353-2.072,1.058s-0.728,1.623-0.728,2.752v8.617h-2.56v-9.627c0-0.929-0.18-1.629-0.535-2.096
				c-0.356-0.471-0.891-0.704-1.604-0.704c-0.881,0-1.563,0.356-2.043,1.069s-0.721,1.627-0.721,2.74v8.615h-2.56v-13.976h1.43
				l0.517,2.065c0.856-1.514,2.163-2.271,3.918-2.271c0.929,0,1.699,0.177,2.313,0.528c0.611,0.353,1.063,0.881,1.353,1.586
				c0.793-1.409,2.063-2.114,3.81-2.114c1.379,0,2.412,0.372,3.101,1.117s1.034,1.858,1.034,3.341L272.073,320.809L272.073,320.809z
				"/>
			<path fill="#0F3AAC" d="M228.208,242.369c2.563,0,4.944,0.191,7.146,0.576v5.576c-1.942-0.428-4.047-0.642-6.313-0.642
				c-3.354,0-5.977,1.181-7.867,3.541c-1.89,2.36-3.049,5.901-3.477,10.623c2.072-2.009,4.935-3.013,8.588-3.013
				c4.102,0,7.221,1.303,9.357,3.908c2.135,2.606,3.203,6.334,3.203,11.185c0,5.362-1.309,9.544-3.926,12.546
				c-2.615,3.001-6.393,4.502-11.327,4.502c-4.934,0-8.657-1.752-11.168-5.255c-2.51-3.504-3.765-9.313-3.765-17.433
				c0-7.989,1.677-14.34,5.029-19.051C217.046,244.725,221.885,242.369,228.208,242.369L228.208,242.369z M223.594,285.854
				c2.157,0,3.771-0.828,4.84-2.482c1.066-1.655,1.602-4.674,1.602-9.053c0-3.291-0.502-5.764-1.506-7.418
				c-1.004-1.656-2.51-2.483-4.52-2.483c-2.093,0-3.689,0.79-4.789,2.371c-1.102,1.581-1.65,3.76-1.65,6.536
				c0,3.332,0.225,5.849,0.673,7.547c0.448,1.699,1.116,2.953,2.003,3.766S222.248,285.854,223.594,285.854z"/>
			<path fill="#0F3AAC" d="M260.316,242.369c4.935,0,8.662,1.752,11.184,5.255c2.521,3.504,3.781,9.688,3.781,18.554
				c0,9.721-1.276,16.316-3.829,19.789c-2.554,3.471-6.318,5.206-11.296,5.206c-4.358,0-7.647-1.153-9.87-3.461
				c-2.222-2.308-3.669-5.224-4.343-8.748c-0.672-3.524-1.008-7.786-1.008-12.786c0-8.693,1.291-14.836,3.877-18.425
				C251.396,244.164,255.232,242.369,260.316,242.369z M260.092,285.854c2.18,0,3.776-1.223,4.791-3.668
				c1.016-2.447,1.521-7.781,1.521-16.008c0-7.904-0.522-12.962-1.569-15.173s-2.628-3.315-4.743-3.315
				c-1.922,0-3.338,0.77-4.244,2.308c-0.908,1.538-1.476,3.546-1.699,6.024c-0.225,2.478-0.336,5.863-0.336,10.156
				c0,8.461,0.502,13.854,1.506,16.184C256.32,284.689,257.913,285.854,260.092,285.854z"/>
			<g>
				<polygon fill="#FFCC00" points="83.551,301.553 74.234,306.654 84.862,311.665 93.57,305.768 "/>
				<polygon fill="#FF9900" points="74.234,306.654 75.357,318.456 85.331,323.65 84.862,311.665 "/>
				
					<linearGradient id="XMLID_75_" gradientUnits="userSpaceOnUse" x1="-47.1431" y1="278.7324" x2="-37.1689" y2="278.7324" gradientTransform="matrix(1 0 0 -1 122.5 596.3906)">
					<stop  offset="0" style="stop-color:#FFCC66"/>
					<stop  offset="1" style="stop-color:#FF9900"/>
					<a:midPointStop  offset="0" style="stop-color:#FFCC66"/>
					<a:midPointStop  offset="0.5" style="stop-color:#FFCC66"/>
					<a:midPointStop  offset="1" style="stop-color:#FF9900"/>
				</linearGradient>
				<polygon fill="url(#XMLID_75_)" points="75.357,318.456 85.331,323.65 84.862,311.665 "/>
				<polygon fill="#F27C0E" points="93.57,305.768 84.862,311.665 85.331,323.65 93.57,317.564 "/>
			</g>
			<g>
				<polygon fill="#ABDD99" points="176.811,84.505 148.321,102.182 181.396,117.244 208.896,97.272 "/>
				<polygon fill="#46AB48" points="148.321,102.182 150.291,142.135 181.721,157.521 181.396,117.244 "/>
				<polygon fill="#16923B" points="208.896,97.272 181.396,117.244 181.721,157.521 208.245,134.602 "/>
			</g>
			<g>
				<polygon fill="#FF6699" points="145.842,103.821 115.717,121.831 150.423,140.17 179.566,119.212 "/>
				<polygon fill="#FF0066" points="150.423,140.17 115.717,121.831 119.646,166.366 152.395,184.371 "/>
				<polygon fill="#BE0151" points="179.566,119.212 150.423,140.17 152.395,184.371 179.896,159.818 "/>
			</g>
			<g>
				<polygon fill="#F5F661" points="250.023,114.932 212.693,99.54 185.518,119.518 222.518,136.871 "/>
				<polygon fill="#FFF500" points="185.518,119.518 185.846,160.119 222.193,178.786 222.518,136.871 "/>
				<polygon fill="#FFCC00" points="222.518,136.871 222.193,178.786 248.391,154.223 250.023,114.932 "/>
			</g>
			<g>
				<polygon fill="#BFE230" points="153.919,143.233 183.227,122.111 220.314,139.299 191.896,163.205 "/>
				<polygon fill="#84C322" points="153.919,143.233 155.552,187.436 191.572,207.083 191.896,163.205 "/>
				<polygon fill="#5DAA3B" points="191.896,163.205 191.572,207.083 219.734,181.211 220.314,139.299 "/>
			</g>
			<g>
				<polygon fill="#99FF66" points="147.897,58.767 176.792,42.482 210.77,55.167 182.688,73.26 "/>
				<polygon fill="#66CC33" points="147.897,58.767 148.881,99.045 182.277,114.76 182.688,73.26 "/>
				<polygon fill="#669900" points="182.688,73.26 182.277,114.76 209.783,94.787 210.77,55.167 "/>
			</g>
			<g>
				<polygon fill="#CC66FF" points="185.191,74.515 222.688,91.457 251.824,70.171 212.861,56.423 "/>
				<polygon fill="#6F348E" points="222.927,91.133 221.895,133.763 249.195,111.758 251.742,70.171 "/>
				<polygon fill="#9933CC" points="184.781,74.515 184.287,116.015 221.895,133.763 222.927,91.133 "/>
			</g>
			<g>
				<polygon fill="#FFCC00" points="127.601,43.202 95.021,61.047 132.182,78.564 162.633,57.936 "/>
				<polygon fill="#FF9900" points="95.021,61.047 98.945,102.306 133.82,120.476 132.182,78.564 "/>
				
					<linearGradient id="XMLID_76_" gradientUnits="userSpaceOnUse" x1="-23.5552" y1="496.8701" x2="11.3198" y2="496.8701" gradientTransform="matrix(1 0 0 -1 122.5 596.3906)">
					<stop  offset="0" style="stop-color:#FFCC66"/>
					<stop  offset="1" style="stop-color:#FF9900"/>
					<a:midPointStop  offset="0" style="stop-color:#FFCC66"/>
					<a:midPointStop  offset="0.5" style="stop-color:#FFCC66"/>
					<a:midPointStop  offset="1" style="stop-color:#FF9900"/>
				</linearGradient>
				<polygon fill="url(#XMLID_76_)" points="98.945,102.306 133.82,120.476 132.182,78.564 "/>
				<polygon fill="#F27C0E" points="162.633,57.936 132.182,78.564 133.82,120.476 162.633,99.189 "/>
			</g>
			<g>
				<polygon fill="#0099FF" points="152.426,97.736 154.061,139.652 192.048,159.625 192.048,116.076 "/>
				<polygon fill="#00CCFF" points="152.426,97.736 183.527,77.107 221.434,93.402 192.048,116.076 "/>
				<polygon fill="#0066FF" points="192.048,116.076 192.048,159.625 220.443,136.396 221.434,93.402 "/>
			</g>
		</g>
	</svg>
