<?xml version="1.0" encoding="utf-8"?>
<!-- Generator: Adobe Illustrator 11.0, SVG Export Plug-In . SVG Version: 6.0.0 Build 78)  -->
<!DOCTYPE svg PUBLIC "-//W3C//DTD SVG 1.0//EN"    "http://www.w3.org/TR/2001/REC-SVG-20010904/DTD/svg10.dtd" [
	<!ENTITY ns_flows "http://ns.adobe.com/Flows/1.0/">
	<!ENTITY ns_svg "http://www.w3.org/2000/svg">
	<!ENTITY ns_xlink "http://www.w3.org/1999/xlink">
]>
<svg  xmlns="&ns_svg;" xmlns:xlink="&ns_xlink;" xmlns:a="http://ns.adobe.com/AdobeSVGViewerExtensions/3.0/"
	 width="352" height="352" viewBox="0 0 352 352" overflow="visible" enable-background="new 0 0 352 352" xml:space="preserve">
	<metadata>
		<x:xmpmeta  x:xmptk="XMP toolkit 3.0-29, framework 1.6" xmlns:x="adobe:ns:meta/">
			<rdf:RDF  xmlns:iX="http://ns.adobe.com/iX/1.0/" xmlns:rdf="http://www.w3.org/1999/02/22-rdf-syntax-ns#">
				<rdf:Description  rdf:about="" xmlns:pdf="http://ns.adobe.com/pdf/1.3/"></rdf:Description>
				<rdf:Description  rdf:about="" xmlns:tiff="http://ns.adobe.com/tiff/1.0/"></rdf:Description>
				<rdf:Description  rdf:about="" xmlns:xapGImg="http://ns.adobe.com/xap/1.0/g/img/" xmlns:xap="http://ns.adobe.com/xap/1.0/">
					<xap:CreateDate>2005-04-04T07:58:17Z</xap:CreateDate>
					<xap:ModifyDate>2005-04-04T09:29:58Z</xap:ModifyDate>
					<xap:CreatorTool>Illustrator</xap:CreatorTool>
					<xap:Thumbnails>
						<rdf:Alt>
							<rdf:li  rdf:parseType="Resource">
								<xapGImg:format>JPEG</xapGImg:format>
								<xapGImg:width>256</xapGImg:width>
								<xapGImg:height>256</xapGImg:height>
								<xapGImg:image>/9j/4AAQSkZJRgABAgEASABIAAD/7QAsUGhvdG9zaG9wIDMuMAA4QklNA+0AAAAAABAASAAAAAEA
AQBIAAAAAQAB/+4ADkFkb2JlAGTAAAAAAf/bAIQABgQEBAUEBgUFBgkGBQYJCwgGBggLDAoKCwoK
DBAMDAwMDAwQDA4PEA8ODBMTFBQTExwbGxscHx8fHx8fHx8fHwEHBwcNDA0YEBAYGhURFRofHx8f
Hx8fHx8fHx8fHx8fHx8fHx8fHx8fHx8fHx8fHx8fHx8fHx8fHx8fHx8fHx8f/8AAEQgBAAEAAwER
AAIRAQMRAf/EAaIAAAAHAQEBAQEAAAAAAAAAAAQFAwIGAQAHCAkKCwEAAgIDAQEBAQEAAAAAAAAA
AQACAwQFBgcICQoLEAACAQMDAgQCBgcDBAIGAnMBAgMRBAAFIRIxQVEGE2EicYEUMpGhBxWxQiPB
UtHhMxZi8CRygvElQzRTkqKyY3PCNUQnk6OzNhdUZHTD0uIIJoMJChgZhJRFRqS0VtNVKBry4/PE
1OT0ZXWFlaW1xdXl9WZ2hpamtsbW5vY3R1dnd4eXp7fH1+f3OEhYaHiImKi4yNjo+Ck5SVlpeYmZ
qbnJ2en5KjpKWmp6ipqqusra6voRAAICAQIDBQUEBQYECAMDbQEAAhEDBCESMUEFURNhIgZxgZEy
obHwFMHR4SNCFVJicvEzJDRDghaSUyWiY7LCB3PSNeJEgxdUkwgJChgZJjZFGidkdFU38qOzwygp
0+PzhJSktMTU5PRldYWVpbXF1eX1RlZmdoaWprbG1ub2R1dnd4eXp7fH1+f3OEhYaHiImKi4yNjo
+DlJWWl5iZmpucnZ6fkqOkpaanqKmqq6ytrq+v/aAAwDAQACEQMRAD8A9U4q7FXYq7FXYq7FXYq7
FXYq7FXYq7FXYq7FXYq7FXYq7FXYq7FXYq7FXYq7FXYq7FXYq7FXYq7FXYq7FXYq7FXYq7FXYq7F
XYq7FXYq7FXYq7FXYq7FXYq7FXYq7FXYq7FXYq7FXYq7FXYq7FXYq7FXYq7FXYq7FXYq7FXYq7FX
Yq7FXYq7FXYq7FXYq7FXYq7FXYq7FXYq7FXYq7FXYq7FXYq7FXYq7FXYq7FXYq7FXYq7FXYq7FXY
q7FXYq7FXYq7FXYq7FXYq7FXYq7FXYq5mVQWYgKNyTsMBIAsoJpZFNFKvKJ1dfFSCPwyMMkZi4kE
IjMSFg2vybJ2KuxV2KuxV2KuxV2KuxV2KuxV2KuxV2KuxV2KuxV2KuxV2KuxV2KuxV2KuxV2KuxV
2KuxVLr/AF20taop9aYfsKdh8zms1famPFsPVLucPPrYQ2G5Y3fapeXh/evSPtGuyj+v05zWq12T
MfUdu7o6fNqZ5OZ27kPFNNC/OJ2RvFSQfwzGx5JQNxJBaYzMTYNJra+ZbyOgnUTL4/Zb7xt+GbfB
21kjtMcQ+Rc7F2jMfVunFrrun3FBz9Jz+zJt+PTNzg7Uw5OvCfP8U7HFrcc+tHzTAEEVG4PQ5sQX
LdirsVdirsVdirsVdirsVdirsVdirsVdirsVdirsVdirsVdirsVdirsVdirsVSrUvMVhZVQH15x/
utDsP9Zugznu1PaXTaW4g+Jk7h+k9Pv8nNwaGeTfkGMax5q1adYxbRAQ8SLiJWozGuxVqeHbOaye
1njgRkDj763B/S0dpdkZyP3Rsd3I/j4pdb6xZyt6bkwTf76lHE/R2OMJxkLibDyOXDPGeGQIPmjc
k1uxVRu7y1s4GnupVhhXq7Gg+XzxtlGJkaDC9Z85Xd5yh07la2x2Nwf71x/kj9gfjm77P7EyZ6lP
0Q+0+7u95d5o+yCfVNknl7XNVstOtVguG4LGv7t/jXxOxr1z0XT9n4Y4owEdgHoxpocIFMqsfPSm
i31vTxki6f8AAt/XKcnZn80/Nono/wCaWQWWsaZe0+rXCux/3Wfhb/gTQ5r8mnnD6g4s8Uo8wjMp
a3Yq7FXYq7FXYq7FXYq7FXYq7FXYq7FXYq7FXYq7FXYq7FXYqgdR1mwsBSZ6y9ol3b+z6c1HaXbe
n0Y9crn/ADRuf2fFycGlnk5DbvYrqXmS/vKoh9CA/sIdyP8AKbPO+1PafUam4xPh4+4c/if7A7nB
oIY9z6ilOc45zsVU5oIZl4yoHXwIyePLKBuJppzafHlFTiJDzQ6211a72VwVQf7pl+NPo7jNvg7Y
kNpi/c85q/ZmEt8R4fI7j58/vQGo+eI7G0ZmgD3HLghVgYq+JbrTOi00TnMYwG8u/Z509mZI5vCn
tIMSu9Qu9TlFzdz+uf8Adar/AHaf6i9PpztuzuxMeGpT9c/sHuH6fuej0nZ8MQ7yp5vXPZtpopp9
sP8AipD96g5t8X0D3No5InLEuxVE6b531CDVrLTYLg3AuJ4oXEnxqgdwp3O9d+xzW6vHio0N3Dzw
hR23epZpXXOxV2KuxV2KuxV2KuxV2KuxV2KuxV2KuxV2KuxV2KuxV2KvItZvLm012/jB5Ri4kIRu
wLEinfoc8f7WwD8zkH9OX3vc6XFGeGB68I+5fb6nby0DH038G6fQc08sBHLdjPTyj5ozKWh2Koe8
vra0j9Sd+P8AKvVj8hlmLDLIaizhjMjQYvqWt3N4Si/urf8AkHU/6xzodF2ZW/2/qcmRx4efqmkW
tf8AHPX/AFs7XsTFGGaAHefuL5x2nmlPtKRPcPuY/GZIm5QuY29uh+YzuzjBc+GqkOe6Oh1d1oLh
Kj+dP4jKzAhzMeojJ6PpU8Mun23puGpElQOo+Eds22P6R7nMCImmihjMkrBEXqxyRIHNSaY5qevS
3FYrescPQt+039BmJkzE7Dk0TyXyXeTY/U81aUu21yjb/wCSeX8Mxc30FoyfSXv+alwXYq7FXYq7
FXYq7FXYq7FXYq7FXYq7FXYq7FXYq7FXYq7FXknnWL0/M16OzMjj/ZRqf1nPLfaCHDrMnwPzAe47
Klenj8fvKSZpnYq9vfXEGyNVf5TuMhKAlzap4Yy5q195haGEBIqTP0LH4R74cGg45c9nHGlHMn0h
jk8808hlmcu7dSc6bTaGMBv8mjLrKHDj2CzNg4CC1v8A3hT/AFs3XYw/fw+P3F4vXf8AGhL3D/cp
BncOQ2qljQfSew+eEAlWXQyNbQx1bi6KBVTvUDtm0jDanLw5px5LL28uLll9VywAHFT0FRmBqPqp
zpSJQ2UMGR/l5H6nnLTV22aRt/8AJidv4ZTqPoLDL9Je65q3CdirsVdirsVdirsVdirsVdirsVdi
rsVdirsVdirsVdirsVeX/mHFw8xFqf3kMbfdVf8AjXPN/amFau++I/V+h7HsSV4PcSxuON5G4oKk
5zsYkmg7YyA5osWgiWrfE/4DMgYuHm0nJfJKNa/Y/wBl/DMnRf3g94Zy/u5e5KVdhnSkOlIVFkU9
dsjTExQut/7wJ/rZuexf7+Hx/wByXidd/wAaEvcP9ykVAByc8V7eJ+Wd5CBLdKQCvDaSTAGQenD1
EY6t7nLbEdgyx4JT3ltFM2lkZuRYknGOSQNguxEQqNP8QDDsu4+QzW5dZ+8IkHIMfuC5WVuhrlsM
kZcixplv5Xx8/OFs237uOVt/9Qrt/wAFlWpPoas30vbM1rhuxV2KuxV2KuxV2KuxV2KuxV2KuxV2
KuxV2KuxV2KuxV2KsG8+6RNdapazj4YfR9N5KdwzEAe++cT7T6OWTNCf8PDV/EvR9jakQxyj1tIx
bQ26cIxTxPc/PNEMYgKDsfEMjZQdxmNNyIJDrI+FD88lpD6/iHJ/gPuSfOndK4CuTx45TPDEWVQV
/dw3KRWFrG0188vpqoZfT51Gx99+mdFotPHSyGTLtw2T8i8D2tnOPXbxNyru7qvmvl8v32nOr6jE
RO32Sd0H+qR8JzqMGuxZxeOVh2WDBE7nctZe5rsVXTgCTb+Vf+IjOfzn1n3uUV9lZ3V5cpbWsbSz
yGiIvX+wZj5M0cUeKRoBBer/AJf6Bb6PqMYlYXOpSqyyyg/BEvGpVP5jUbnNBpvaiWp1ccEReM3v
12BLDNgPhmZ2ejZ0zrXYq7FXYq7FXYq7FXYq7FXYq7FXYq7FXYq7FXYq7FXYq7FXkX/OQt1fWNpo
V9aTNFJFPMlVJoeaowqOn7GSEBIESFh7n2JxwyTywmLBjH9P62C6F+aPMLBq6UPQTr0+n/P6c0Gu
9nIT3xHhPceX7HpNZ7PV6sXyZfHfWt5CJbaRZEYVBBzidbo8uCVZI1+O90UsMoGpCkq1cfAp9/4Z
i6Y+tujyPuSKWWKGJppnEcSCrOxoBnbaPQ5M5qPLvdKBaSJd6x5iuGsdDjMVqNp716qAPn+z8hvn
TcOn0ELP1fafx8mOo1GLTR4sh36DqWb+XfKmnaLbRog+sXKNzNzIBy51Bqo349M5XX9oT1Mje0Tt
Xl+l4jXaj8xm8UgA9PKmQveq6+ncIJI2+0CAQfmp2zU4seTCeLFIxbMeo/nJVeeVtOugZLGT0JOv
Ddoz9H2l/HOk0XtXPGeHUR+P4/Hm5sMt8t2Oaho+oWB/0iIhK0Eq/Eh/2Q/jnZaTtDDqBeOV+XVu
jIFW0zQr/V7wxWy0jRVM1w+0ca8Rux/UM57tPX49PxSmep2cw9zPdOsLDSLc2+ngl3FJ7thSST2H
8q+2eV9r9u5NVKgag5uDS1vLmnflVa6xGfBXP4Uy/wBko3ro+UZfcjtE/uj8Gb56y867FXYq7FXY
q7FXYq7FXYq7FXYq7FXYq7FXYq7FXYq7FXYq8s/5yKtxJ5Ks5h9qHUI/+BaKUH8aZPHzez9h51rJ
Dvxn74vnPLn1VG6dq+oadJztJininVT8xleXDDJHhmAR5tGfTY8oqQZLL+YVu2ns15A31iOhVY/s
uenU9M5yXsvgGUTiSI9Y/t5j8cnntV2V4W8T6Su0rynrPmKSO+1svaab9qC0AKs69iAegP8AMd/D
Nlqu2cOGPh4KlIfIftfPO0e1Y6cmGP1T7+g/W9AsrG0sbZLa0iWGCMUVFFB/affOVy5pZJGUjZLy
GXLLJIykbJV8qa1OXtkos4rAxU1BoR3GEgEUWYNckSuoiKFnuyPqw2kZh19qftE+GYcoHEbxEifd
+OXvciOooerl3pzKY4kFvbxrDbCjCNAFBLAGpA75yOr7Qzak3kNl67S4oiIl1KlmG5SdeUQDqxPh
ExH3gZ1XscL1n+Yf0Ov7T/uvizTPVHn3Yq7FXYq7FXYq7FXYq7FXYq7FXYq7FXYq7FXYq7FXYq7F
WAfnpb+r+XF+/wDviW3k++ZU/wCN8nDm9N7ITrtCA/nCQ/2JP6Hy/lz7E7FVK6cpbuwNGHHifcMD
gIvZwu0I8WOuj2621K4gAQ0lhH+637fI9s8mrexsX5zGQ8juExgntbnaJuEn++n2J/1T3zIhqiPr
+YTwCX0rmVlNGFDmbGQkLDUQRzUpe2TiyioXNxb2kPr3Jop/u4x9pz7e3vlcshJ4Yc/sDKRERZYx
qGpXF9Lyk+GNf7uJfsqP6+Jy/FiEPM9S4WTIZF6XN9v/AGK/8RGeb1T6Rp/7se5Zi3J95NB/SUp7
CEj72XOw9ih/hUj/ALWf91F1vah/dj+t+gswz050LsVdirsVdirsVdirsVdirsVdirsVdirsVdir
sVdirsVdirFPzVtvrH5ea5HSvG39Tt/up1k7/wCrko83d+zmTh1+I/0q+Yp8l5e+2uxVQvh/oz+1
P1jFxtZ/dl7DbmsEZrWqqa/RnlOQeo+9+b8oqZ96pkGtHW2qzRgRzD1ovBvtD5HAAQbjsWwZOh3b
1DWLC2hWWMGWVq+nCwoAfFj4DM3DLJkFcu8/qROcYCxuxa6u57qdpp3LyN37AeAHYZsMeMQFBwZz
MjZUcmxer3ClZSp2ICgj3AGeZyNm30zAKgF9lZXF5cLBAvJ279gPEnwzK0Why6nIMeMXI/Z5nyZZ
cscceKTONJ0i306DinxTMP3svc+w9s9b7H7GxaLHUd5n6pd/7HnNTqZZTvy7kfm4cZ2KuxV2KuxV
2KuxV2KuxV2KuxV2KuxV2KuxV2KuxV2KuxVRvLO1vbSazu4lmtrhGjmicVVkYUIOLZiyyxyE4mpR
NgvGPOv/ADj2repeeVJuJ3Y6ZcNt8opT+p/+CywZO97/ALK9tiKhqh/nj9I/V8njOqaTqelXj2Wp
WslpdR/ailUqfmK9R4EbZaC99p9TjzQE8chKJ6hATqDBICK/Cx+4VxY6z+6Pw+96xprBtOtWG4MM
ZB+ajPLNSKyS/rH735z1grNMf0j96Jylx3Yql+q/7q/2X8M2ei+k+9ozJfmY0uxV7Gmn3F9qTwwD
etWY9FFOpzz/ALN7Oy6vIMeMdBZ6Ad5fSDmjjx2WZaZpdtp9uIohVz/eSnqx/p7Z692V2Vi0WPgh
9XWXU/s7g6DUaiWWVlGZs2h2KuxV2KuxV2KuxV2KuxV2KuxV2KuxV2KuxV2KuxV2KuxV2KuxV2Kp
X5g8saD5hszZ6xZx3UW/BmFHQnvG4oyn5HCDTmaLtDPpZ8eKRifsPvHIvEfOX/OPes2zPL5YmF/b
S/ALWdljmj5/D9s0R1WtSdj7HLBk73vdJ7ZYsuMw1A4J1zG8TX2j7XLp02mAabOytNYj6tKyV4lo
vgYrWhpVc8z1grNP+tL73ynV5BPNOQ6yJ+1vMZx3Yql2q/aj+R/hm00X0H3tGXmgMy2lOPLPlfUv
MN+LWzXii7z3DV4Rr4nxJ7Dvl+n08ssqDbiwmZoPoS3tbe3DCFAgc8mp3Ob/AEehw6aPDiiIh6Ce
SUuZVcy2DsVdirsVdirsVdirsVdirsVdirsVdirsVdirsVdirsVdirsVdirsVdirsVdirHtf8kaP
q3KUL9VvGqfXiA+Inu69G/X75qtb2Riz7/TPvH6WqeES97znXfKOs6OxaaL1bbtcxfEn+y7r9Ocp
rOzMuDci494/GzhzxGKS5r2tLtV+1H8j/DNpovoPvaMvNMfKPk7UPMd5wi/dWURH1m6I2Ufyr/Mx
8Pvza6bSyynbl3pw4DkPk9z0bRdP0awjsbCP04U3JO7Mx6s57k50eLFHHHhi7jHjEBQR2WM3Yq7F
XYq7FXYq7FXYq7FXYq7FXYq7FXYq7FXYq7FXYq7FXYq7FXYq7FXYq7FXYq7FXMoYFWAKkUIO4IOJ
FqxLXvy70u+5TWFLK5O/FR+6Y+6j7P8AsfuzR6zsPHk3h6JfZ+z4NE8APLZh9r+WGs3usLb34+rW
MG81wpDcweixe5p3G3fwzD0PZWSJMZ7C+f6nE/KylLfk9V07TrLTrOKzsohDbwiiIv6z4k9znSwg
IChydhGIiKCIybJ2KuxV2KuxV2KuxV2KuxV2KuxV2KuxV2KuxV2KuxV2KuxV2KuxV2KuxV2KuxV2
KuxV2KuxV2KuxV2KuxV2KuxV2KuxV2KuxV2KuxV2KuxV2KuxV2KuxV2KuxV2KuxV2KuxV2KuxV2K
uxV2KuxV2KuxV2KuxV2KuxV2KuxV2KuxV2KuxV2KuxV2KuxV2KuxV2KuxV2KuxV2KuxV2KuxV2Ku
xV2KuxV2KuxV2KuxV2KuxV2KuxV2KuxV2KuxV2KuxV2KuxV2KuxV2KuxV2KuxV2KuxV2KuxV2Kux
V2KuxV2KuxV2KpKnnbye/mM+WV1mzbzAo5HSxPH9Y2XmR6deXLh8XHrx36YqnWKuxV2KuxV2KsV8
3+aZbF/qFi3G5IrNL14A9APcjfMzTacS9R5NOTJWwSmy8p6/qMIu7m6MRlHJfVZ2cg7gnwy6eohE
0AwGMndlXlvR7rS7WWC4mE5aTkjCuwoBTf3zDz5BM2A3QjQVdY1B7ZFjiNJZN+XgMGOF80ylSX2+
l3t1B9YM1C1SgYkk/M5YcgBpgIkrtL1GeK5FvOxZGPCjblW6Y5IAiwmMk/zGbHYq7FXYq7FXYq7F
XYq7FXYq7FXYq7FWH/m95yufJn5ba75ktFVryxgVbXkKqJp5EgiZh3CvKGI74q+W/wAnfyhv/wA7
Bq3mjzl5kvZFtrj6sgVhJO0pVZGNZeSxxgMAqqvypTFX0d+UH5LaZ+WTaumm6rdaha6p9W4w3QSs
Jt/VqVKcQefrb/COnfFUZ5+/Oz8uPIlytn5g1QJqLqHGn26PPOFPRnVAQgPbmRXtirfkD86vy68+
XElp5e1P1NQiUyPYTxvBPwBoWVXADgd+BNO+Kphr/wCZvk7QPNeleVdUvGg1nWgp0+H03KP6jmNa
yAcFq603OKpBJ/zkP+U36fbQrfWfrl7GkzyvawyywqLaJ5pP3oXg1EjP2CcVeV+UZP8AnHjzH+ed
r5n0bXNSuPMeoXL3NrpbwyR2xuvSYs5dolYLQFgpf7Xt8OKvofzP5q8veVtHl1jzBfR6fpsNA88t
d2PRUVQzux7KoJxV51pX/OU/5MajqKWI1eS1aRgkdxdW8sUJJNBWQghB7vQYq9Vnu7WC1e7mmSO1
jQySTswCKgFSxY7UpirBbj88/wAu4bgwi9llCmhmjgkKeBoSAT9AxVmWkaxp2r6ZBqmny+tY3Cl4
pSrJUAlT8LhWFCD2xV5kLuG51r63eE+hJP6kwpX4OVStPltm54SIUO5w7s2WWN+YtmJKLZyGP+Ys
oNP9Xf8AXmH+SPe3eMGQaTrNjqtuZrVj8O0kbbMpPiMxsmIwNFsjIFKNcctqDj+RVA+6v8cuxD0s
J82QWahbSADtGv6hmPLmWwcmNah8GoTFdiHJHz65lQ+lqPNlQNQD475htzsVdirsVdirsVdirsVd
irsVdirsVdiqReevKVl5v8oar5avWMcGpwGL1QKmNwQ0cgHfhIqtT2xV8UCH85v+cffMzzKhjsbl
wjS0M2mXypUqCfhowBNPsyD5Yq+pPyq/Pny/5+8r6hqUUDWer6PA0+p6UW5EKqlg8T0HNG406VB2
PYlV8yfkZ5m8nal+bOp+bfzMvrarwzXUDXw5xNeSyIq0Uhh+7jLcFpttTpiq7z/5i8laL+f+keZP
y+uLf9FLNZ3U/wBRHCESNIUuY1UAcRJH9oAftHFWQ/8AOazvH+YWgSRsUdNLVkdTQgi5lIIIxV7l
+Wv/ADj5+WnlvS9Hv/0St1r0dsrXOoTySuXlmh4zfui/pcCHZePGlPE74q8F0Czs7L/nMgWlnBHb
WsOqXCxQQoscaL9UfZVUAAfLFV3/ADlx5mm1b81dO8r3NwbfRtJigEm/wrJdkPLMflEUH0e+Kpr/
AM5Daj+Quofl1aQ+TJ9MOtaXNBHZrYoEmNtRldHbipdd+R5Emu/jirKPJ+pa55j/AOcWNP8ATLzz
aZIba74glmtbSZuH0Rx+nX2XFUz/ACa8zfl5baa+j67bW8Wo3ExYXd3EjxSKwUKhkYHhxp0b4e9a
nFXudvZWNlpv1axhjt7SNG9KGFQsahqt8KrsBU9sI5qXl+iWSXurWtrJ/dySAOB/KNz+Azc5ZcMS
XDiLL0HzBouny6LcKlvGjwRM8JRQpBQVoCPGlM1mHLITG7kTiKYn5DuJI9cESn4J42Vx2+Ecgfwz
N1cbhbViO7INaBGpS+/Gn/AjMbF9LZLmyG1/3lh/1F/UMxZc2wMa1P8A3vn/ANbMuH0hqlzZSn2F
+QzDLc3irsVdirsVdirsVdirsVdirsVdirsVQer6xpOjafJqOrXkOn6fCUE13cyLFEnqOI05u5Cr
V2A3OKsW85+c/wAqZvKOoHzDq+mXmhTQOJ4fXhm9ZaV4xIrEvJUfBx3r0xV8uf8AOH3l+/1Tzj5j
dC8enHRJ7K7mUVHO7kjES796Ruw/1cVSP8h7byVov5o33l78y7C0ETRTWI/SaoYYL2KVSOZk+FOQ
RlDH28cVfUzeT/8AnHO2u7SI6f5aju7maOGyiH1X1ZJ3YLGkSg8mYsRQDFXgf/ObX/Kf6F/2yh/1
Ey4q+wNJ/wCOVZf8YIv+IDFXx/pn/raT/wDbVuP+oN8VQn/OW+hz6P8Am/ZeYLm3+saZqlvbzKGH
wSNaERTQmv8AkKhPs2KvetH0D/nGXVtGg1i00/y2LGeMSBpVtYmQEVKyK5BRl6MD0xVm/l2X8vdG
8uWzaBNptj5du5XWzktXiS0llYsG9NlPBixjbod6Yq8n/PDyx5GsbK31XR3ht9TuZgr2lsymOSMq
zNJ6amiUIG67GuKvRPyWub64/LrTWvCW4GWOBm3JhSRlX6BTiPYYqkkK/obzKgmFEtZxyP8AxXX7
X/Amubc+vHt1DifTJnXmDWLCLQ7l0nRzPE0cPBgSxccdqHtWua/DjJmNnInIUxXyDZyS6u1zT93b
xmrduT/CB91czNZKo13tOIbsk8wQstyktPhdaV9x/ZmLhO1NswmWm3kDWEZZwvpKFcE0px2yqcTb
KJ2SIA3mo/CKiWQn/Y1r+rMj6YtfMsqzDbnYq7FXYq7FXYq7FXYq7FXYq7FXYq7FUn83+U9E83eX
bzy9rkTT6XfBBcRo7RsfSkWVCHQgijxqcVeTp/zh3+T63AlP6SZK19A3S8KeFRGHp/ssVereUfJf
lfyhpC6T5c0+PT7FTzZI6lnegBeR2LO7UHViTirGPzA/Ij8tfPd5+kNb05k1QqEbUbSRoJmUCg50
qj0AoC6kjp0xVI/K3/OLX5T+XdZs9Yt4L27vtPnjurNrm5Yqk0LB434xCLlxZQaNUeNcVT78xPyP
8h/mBqltqfmKK4kurSD6tCYJjEvp82fcAGpq5xVnkEKQQRwx/YiUItdzRRQYqwOH8j/IcP5hHz8k
Vx/iEzvcmQzH0vUeMxn93SlOLYqyTzf5K8r+cNIbSPMmnx6hYswdUfkrI42DxyIVdG3pVSNtumKv
Kx/zh5+T4uPVI1Ix1J+rm6HD5VEfP/hsVehv+V3kw+ULHyilo8Wh6a3qWcCzSFkf4/i9RmZmr6rd
T3xVJrT8hPy/gnWWSO6uVU19GWb4D8/TCN+OKvQba2t7W3jtraNYbeFQkUSAKqqooAAOgGKpbrfl
rTtWo8wMdwoosydaeDA9Rl2LPKHLkwlAFJo/y6tg9ZL12T+VUCn7yW/Vl51p7mHg+bJtO02z062F
vapwjG57lj4se5zFnMyNltEQOSrcW8VxEY5Vqp+8HxGREiFItK28uR8vhnIXwKgn76jLvG8mPAjr
LTbe0qUq0h2Lt1p7ZXKZLIRpFZBLsVdirsVdirsVdirsVdirsVdirsVdiqldXVvawNPcOI4kpyc+
5oPxynUaiGGBnM1EM8eOU5cMRZY/P5zQTgQ2/OAdWY0Y/LrTOJz+20RkrHjvH5mifd3fjk7SHZR4
dzumul67p+pNJHbufWiAaWJhuoatK023pnUdl9r4tbHihYI5gj8AuFqNJPFRlyPVMM2jisTvvPF7
DqGrW1ro73kOjcGvJkmRSEdC/IIwqaBTsMVZHpmo2+padb39sSYLmNZI67EBhWh9x0OKpfFrdw/m
6fRTGn1eKyW6Em/Ms0nCnWlKYqm8s0UMTSzOscSAs8jkKqgdSSdhiqGsdY0m/ZlsL23u2QVcQSpI
VB6V4E0xVWvLy2s7WW6upFht4VLyyMaAAYqgNA8yaTrtoLiwmVjuXgLKZUHIqpdASV5caiuKoXzj
5pi8vackw9N7u4kEVtDK4QEkjk578Ur8WKplo895cafFNdvbySyAsJLNmeBlJ+EozbmoxVVuNQsL
Z1juLmKF23VJHVSR02BIxVXxVTkuLeKvqyolBU8mA2O1d8VVAQRUdMVWmaIGhdQa0pUdcVcssbMV
V1LDqAQTiq7FXYq7FXYq7FXYq7FXYq7FXYq7FXYq7FUn83wNP5cvo1BZiisANySrq3b5Zqe3MfHo
8g8vuILn9mT4dRE/jk8pvZdQsbJv3pVjQcevEH3zzKOlHEOIbvZREMkuTJPygWQz6pKwYqViHM1o
WqxpXxztvZmO8+7b9LpvaIioD3/oelZ1ry7zeKw13UPNXnCy0ye3t4rk20V5NMru4R4XX90FIFaE
9cVZ7pGmQ6Xpdrp8BLRWsaxqzdTxG5NPHriqQW//AJM27/7ZUf8AyfxVNvM+pwaXoF7fz24uooY/
ityKh+RChW2barb7dMVYdpDXJ/MDTXuEsoZ5tOkd4rAMFCMeSiQnZjirOdYiWXSbxGQOGgk+EitT
xNNvniqRflnFbr5N06SNEEro/qOoHJqSuPiI3NMVQ35oxRPo+nsyKzDUbdQSATRq1H00xVmKIkaB
I1CIooqqKADwAGKsSSLT5rvzGdREbTr9kyU5LEE+ArXp26e2Kp15XMx8v2Jlrz9IUr141PH/AIWm
KtXVvDPrsKzIJFEBYKwqK8qdD88VTUAAUHTFUuKIYbxiAWDtQ9+uKqojRJ7TiKVVq07/AA4qjMVd
irsVdirsVdirsVdirsVdirsVdirsVcQCKHcHqMVY7rHkbRdTZWYPAOQaRYiArAGpFDXj9GaTU9ga
fLMSFx765H9Xwdppu1suIVz96d2NjZ2NslrZxLDBGKJGooP7T7nNviwxxxEYCoh1+XLLJLikbJV8
sa0Nb6bY211c3cEKx3N4VNzKOrlAQtfkDiqJxVDrp9kt81+IVF48Yhaf9oxg8gvyriqrPBBcQvBP
GssMgKyRuAysp6gg7EYql+n+WdA06VZrGwht5V5cZI1Ab4wA2/XtiqZ4qgNN0HRtLeV9Ps4rVp6e
qYl48qVp+vFVa/02xv4kivIVnjjdZUVugdfst9GKonFUHd6NpV5Ks11axzSrsHZQTQdj44qjAAAA
BQDYAdKYqsMMRmExUeqF4h+9OtMVX4qs9GLiy8RRzVh4k4q36aVU03T7J8K7YquxV2KuxV2KuxV2
KuxV2KuxV2KuxV2KuxV2KuxV2KuxV2KuxV2KuxV2KuxV2KuxV2KuxV2KuxV2KuxV2KuxV2KuxV2K
uxV2KuxV2KuxV2KuxV2KuxV2KuxV2KuxV2KuxV2KuxV2KuxV2KuxV2KuxV2KuxV2KuxV2KuxV2Ku
xV2KuxV2KuxV/9k=
									</xapGImg:image>
							</rdf:li>
						</rdf:Alt>
					</xap:Thumbnails>
				</rdf:Description>
				<rdf:Description  rdf:about="" xmlns:dc="http://purl.org/dc/elements/1.1/">
					<dc:format>image/svg+xml</dc:format>
				</rdf:Description>
			</rdf:RDF>
		</x:xmpmeta>
<?xpacket begin='﻿' id='W5M0MpCehiHzreSzNTczkc9d'?><x:xmpmeta xmlns:x='adobe:ns:meta/' x:xmptk='XMP toolkit 3.0-29, framework 1.6'>
<rdf:RDF xmlns:rdf='http://www.w3.org/1999/02/22-rdf-syntax-ns#' xmlns:iX='http://ns.adobe.com/iX/1.0/'>

 <rdf:Description rdf:about=''
  xmlns:pdf='http://ns.adobe.com/pdf/1.3/'>
 </rdf:Description>

 <rdf:Description rdf:about=''
  xmlns:tiff='http://ns.adobe.com/tiff/1.0/'>
 </rdf:Description>

 <rdf:Description rdf:about=''
  xmlns:xap='http://ns.adobe.com/xap/1.0/'
  xmlns:xapGImg='http://ns.adobe.com/xap/1.0/g/img/'>
  <xap:CreateDate>2005-04-04T07:58:17Z</xap:CreateDate>
  <xap:ModifyDate>2005-04-20T12:01:36Z</xap:ModifyDate>
  <xap:CreatorTool>Illustrator</xap:CreatorTool>
  <xap:Thumbnails>
   <rdf:Alt>
    <rdf:li rdf:parseType='Resource'>
     <xapGImg:format>JPEG</xapGImg:format>
     <xapGImg:width>256</xapGImg:width>
     <xapGImg:height>256</xapGImg:height>
     <xapGImg:image>/9j/4AAQSkZJRgABAgEASABIAAD/7QAsUGhvdG9zaG9wIDMuMAA4QklNA+0AAAAAABAASAAAAAEA&#xA;AQBIAAAAAQAB/+4ADkFkb2JlAGTAAAAAAf/bAIQABgQEBAUEBgUFBgkGBQYJCwgGBggLDAoKCwoK&#xA;DBAMDAwMDAwQDA4PEA8ODBMTFBQTExwbGxscHx8fHx8fHx8fHwEHBwcNDA0YEBAYGhURFRofHx8f&#xA;Hx8fHx8fHx8fHx8fHx8fHx8fHx8fHx8fHx8fHx8fHx8fHx8fHx8fHx8fHx8f/8AAEQgBAAEAAwER&#xA;AAIRAQMRAf/EAaIAAAAHAQEBAQEAAAAAAAAAAAQFAwIGAQAHCAkKCwEAAgIDAQEBAQEAAAAAAAAA&#xA;AQACAwQFBgcICQoLEAACAQMDAgQCBgcDBAIGAnMBAgMRBAAFIRIxQVEGE2EicYEUMpGhBxWxQiPB&#xA;UtHhMxZi8CRygvElQzRTkqKyY3PCNUQnk6OzNhdUZHTD0uIIJoMJChgZhJRFRqS0VtNVKBry4/PE&#xA;1OT0ZXWFlaW1xdXl9WZ2hpamtsbW5vY3R1dnd4eXp7fH1+f3OEhYaHiImKi4yNjo+Ck5SVlpeYmZ&#xA;qbnJ2en5KjpKWmp6ipqqusra6voRAAICAQIDBQUEBQYECAMDbQEAAhEDBCESMUEFURNhIgZxgZEy&#xA;obHwFMHR4SNCFVJicvEzJDRDghaSUyWiY7LCB3PSNeJEgxdUkwgJChgZJjZFGidkdFU38qOzwygp&#xA;0+PzhJSktMTU5PRldYWVpbXF1eX1RlZmdoaWprbG1ub2R1dnd4eXp7fH1+f3OEhYaHiImKi4yNjo&#xA;+DlJWWl5iZmpucnZ6fkqOkpaanqKmqq6ytrq+v/aAAwDAQACEQMRAD8A9U4q7FXYq7FXYq7FXYq7&#xA;FXYq7FXYq7FXYq7FXYq7FXYq7FXYq7FXYq7FXYq7FXYq7FXYq7FXYq7FXYq7FXYq7FXYq7FXYq7F&#xA;XYq7FXYq7FXYq7FXYq7FXYq7FXYq7FXYq7FXYq7FXYq7FXYq7FXYq7FXYq7FXYq7FXYq7FXYq7FX&#xA;Yq7FXYq7FXYq7FXYq7FXYq7FXYq7FXYq7FXYq7FXYq7FXYq7FXYq7FXYq7FXYq7FXYq7FXYq7FXY&#xA;q7FXYq7FXYq7FXYq7FXYq7FXYq7FXYq5mVQWYgKNyTsMBIAsoJpZFNFKvKJ1dfFSCPwyMMkZi4kE&#xA;IjMSFg2vybJ2KuxV2KuxV2KuxV2KuxV2KuxV2KuxV2KuxV2KuxV2KuxV2KuxV2KuxV2KuxV2KuxV&#xA;2KuxVLr/AF20taop9aYfsKdh8zms1famPFsPVLucPPrYQ2G5Y3fapeXh/evSPtGuyj+v05zWq12T&#xA;MfUdu7o6fNqZ5OZ27kPFNNC/OJ2RvFSQfwzGx5JQNxJBaYzMTYNJra+ZbyOgnUTL4/Zb7xt+GbfB&#xA;21kjtMcQ+Rc7F2jMfVunFrrun3FBz9Jz+zJt+PTNzg7Uw5OvCfP8U7HFrcc+tHzTAEEVG4PQ5sQX&#xA;LdirsVdirsVdirsVdirsVdirsVdirsVdirsVdirsVdirsVdirsVdirsVdirsVSrUvMVhZVQH15x/&#xA;utDsP9Zugznu1PaXTaW4g+Jk7h+k9Pv8nNwaGeTfkGMax5q1adYxbRAQ8SLiJWozGuxVqeHbOaye&#xA;1njgRkDj763B/S0dpdkZyP3Rsd3I/j4pdb6xZyt6bkwTf76lHE/R2OMJxkLibDyOXDPGeGQIPmjc&#xA;k1uxVRu7y1s4GnupVhhXq7Gg+XzxtlGJkaDC9Z85Xd5yh07la2x2Nwf71x/kj9gfjm77P7EyZ6lP&#xA;0Q+0+7u95d5o+yCfVNknl7XNVstOtVguG4LGv7t/jXxOxr1z0XT9n4Y4owEdgHoxpocIFMqsfPSm&#xA;i31vTxki6f8AAt/XKcnZn80/Nono/wCaWQWWsaZe0+rXCux/3Wfhb/gTQ5r8mnnD6g4s8Uo8wjMp&#xA;a3Yq7FXYq7FXYq7FXYq7FXYq7FXYq7FXYq7FXYq7FXYq7FXYqgdR1mwsBSZ6y9ol3b+z6c1HaXbe&#xA;n0Y9crn/ADRuf2fFycGlnk5DbvYrqXmS/vKoh9CA/sIdyP8AKbPO+1PafUam4xPh4+4c/if7A7nB&#xA;oIY9z6ilOc45zsVU5oIZl4yoHXwIyePLKBuJppzafHlFTiJDzQ6211a72VwVQf7pl+NPo7jNvg7Y&#xA;kNpi/c85q/ZmEt8R4fI7j58/vQGo+eI7G0ZmgD3HLghVgYq+JbrTOi00TnMYwG8u/Z509mZI5vCn&#xA;tIMSu9Qu9TlFzdz+uf8Adar/AHaf6i9PpztuzuxMeGpT9c/sHuH6fuej0nZ8MQ7yp5vXPZtpopp9&#xA;sP8AipD96g5t8X0D3No5InLEuxVE6b531CDVrLTYLg3AuJ4oXEnxqgdwp3O9d+xzW6vHio0N3Dzw&#xA;hR23epZpXXOxV2KuxV2KuxV2KuxV2KuxV2KuxV2KuxV2KuxV2KuxV2KvItZvLm012/jB5Ri4kIRu&#xA;wLEinfoc8f7WwD8zkH9OX3vc6XFGeGB68I+5fb6nby0DH038G6fQc08sBHLdjPTyj5ozKWh2Koe8&#xA;vra0j9Sd+P8AKvVj8hlmLDLIaizhjMjQYvqWt3N4Si/urf8AkHU/6xzodF2ZW/2/qcmRx4efqmkW&#xA;tf8AHPX/AFs7XsTFGGaAHefuL5x2nmlPtKRPcPuY/GZIm5QuY29uh+YzuzjBc+GqkOe6Oh1d1oLh&#xA;Kj+dP4jKzAhzMeojJ6PpU8Mun23puGpElQOo+Eds22P6R7nMCImmihjMkrBEXqxyRIHNSaY5qevS&#xA;3FYrescPQt+039BmJkzE7Dk0TyXyXeTY/U81aUu21yjb/wCSeX8Mxc30FoyfSXv+alwXYq7FXYq7&#xA;FXYq7FXYq7FXYq7FXYq7FXYq7FXYq7FXYq7FXknnWL0/M16OzMjj/ZRqf1nPLfaCHDrMnwPzAe47&#xA;Klenj8fvKSZpnYq9vfXEGyNVf5TuMhKAlzap4Yy5q195haGEBIqTP0LH4R74cGg45c9nHGlHMn0h&#xA;jk8808hlmcu7dSc6bTaGMBv8mjLrKHDj2CzNg4CC1v8A3hT/AFs3XYw/fw+P3F4vXf8AGhL3D/cp&#xA;BncOQ2qljQfSew+eEAlWXQyNbQx1bi6KBVTvUDtm0jDanLw5px5LL28uLll9VywAHFT0FRmBqPqp&#xA;zpSJQ2UMGR/l5H6nnLTV22aRt/8AJidv4ZTqPoLDL9Je65q3CdirsVdirsVdirsVdirsVdirsVdi&#xA;rsVdirsVdirsVdirsVeX/mHFw8xFqf3kMbfdVf8AjXPN/amFau++I/V+h7HsSV4PcSxuON5G4oKk&#xA;5zsYkmg7YyA5osWgiWrfE/4DMgYuHm0nJfJKNa/Y/wBl/DMnRf3g94Zy/u5e5KVdhnSkOlIVFkU9&#xA;dsjTExQut/7wJ/rZuexf7+Hx/wByXidd/wAaEvcP9ykVAByc8V7eJ+Wd5CBLdKQCvDaSTAGQenD1&#xA;EY6t7nLbEdgyx4JT3ltFM2lkZuRYknGOSQNguxEQqNP8QDDsu4+QzW5dZ+8IkHIMfuC5WVuhrlsM&#xA;kZcixplv5Xx8/OFs237uOVt/9Qrt/wAFlWpPoas30vbM1rhuxV2KuxV2KuxV2KuxV2KuxV2KuxV2&#xA;KuxV2KuxV2KuxV2KsG8+6RNdapazj4YfR9N5KdwzEAe++cT7T6OWTNCf8PDV/EvR9jakQxyj1tIx&#xA;bQ26cIxTxPc/PNEMYgKDsfEMjZQdxmNNyIJDrI+FD88lpD6/iHJ/gPuSfOndK4CuTx45TPDEWVQV&#xA;/dw3KRWFrG0188vpqoZfT51Gx99+mdFotPHSyGTLtw2T8i8D2tnOPXbxNyru7qvmvl8v32nOr6jE&#xA;RO32Sd0H+qR8JzqMGuxZxeOVh2WDBE7nctZe5rsVXTgCTb+Vf+IjOfzn1n3uUV9lZ3V5cpbWsbSz&#xA;yGiIvX+wZj5M0cUeKRoBBer/AJf6Bb6PqMYlYXOpSqyyyAnhEvGpVP5jUbnNBpvaiWp1ccERcDe/&#xA;XYEsM2A+GZnYPRs6Z1rsVdirsVdirsVdirsVdirsVdirsVdirsVdirsVdirsVdiryL/nIW6vrG00&#xA;K+tJmikinmSqk0PNUYVHT9jJCAkCJCw9z7E44ZJ5YTFgxj+n9bBdC/NHmFg1dKHoJ16fT/n9OaDX&#xA;ezkJ74jwnuPL9j0ms9nq9WL5MvjvrW8hEttIsiMKgg5xOt0eXBKska/He6KWGUDUhSVauPgU+/8A&#xA;DMXTH1t0eR9yRSyxQxNNM4jiQVZ2NAM7bR6HJnNR5d7pQLSRLvWPMVw1jocZitRtPevVQB8/2fkN&#xA;86bh0+ghZ+r7T+Pkx1GoxaaPFkO/QdSzfy75U07RbaNEH1i5RuZuZAOXOoNVG/HpnK6/tCepkb2i&#xA;dq8v0vEa7UfmM3ikAHp5UyF71XX07hBJG32gQCD81O2anFjyYTxYpGLZj1H85Krzytp10DJYyehJ&#xA;14btGfo+0v450mi9q54zw6iPx/H483NhlvluxzUNH1CwP+kREJWglX4kP+yH8c7LSdoYdQLxyvy6&#xA;t0ZAq2maFf6veGK2WkaKpmuH2jjXiN2P6hnPdp6/Hp+KUz1OzmHuZ7p1hYaRbm308Eu4pPdsKSSe&#xA;w/lX2zyvtft3JqpUDUHNwaWt5c078qrXWIz4K5/CmX+yUb10fKMvuR2if3R+DN89ZeddirsVdirs&#xA;VdirsVdirsVdirsVdirsVdirsVdirsVdirsVeWf85FW4k8lWcw+1DqEf/AtFKD+NMnj5vZ+w861k&#xA;h34z98Xznlz6qjdO1fUNOk52kxTxTqp+YyvLhhkjwzAI82jPpseUVIMll/MK3bT2a8gb6xHQqsf2&#xA;XPTqemc5L2XwDKJxJEesf28x+OTz2q7K8LeJ9JXaV5T1nzFJHfa2XtNN+1BaAFWdexAPQH+Y7+Gb&#xA;LVds4cMfDwVKQ+Q/a+edo9qx05MMfqn39B+t6BZWNpY2yW1pEsMEYoqKKD+0++crlzSySMpGyXkM&#xA;uWWSRlI2Sr5U1qcvbJRZxWBipqDQjuMJAIoswa5IldREULPdkfVhtIzDr7U/aJ8Mw5QOI3iJE+78&#xA;cve5EdRQ9XLvTmUxxILe3jWG2FGEaAKCWANSB3zkdX2hm1JvIbL12lxRERLqVLMNyk68ogHVifCJ&#xA;iPvAzqvY4XrP8w/odf2n/dfFmmeqPPuxV2KuxV2KuxV2KuxV2KuxV2KuxV2KuxV2KuxV2KuxV2Ks&#xA;A/PS39X8uL9/98S28n3zKn/G+Thzem9kJ12hAfzhIf7En9D5fy59idiqldOUt3YGjDjxPuGBwEXs&#xA;4XaEeLHXR7dbalcQAIaSwj/db9vke2eTVvY2L85jIeR3CYwT2tztE3CT/fT7E/6p75kQ1RH1/MJ4&#xA;BL6VzKymjChzNjISFhqII5qUvbJxZRULm4t7SH17k0U/3cY+059vb3yuWQk8MOf2BlIiIssY1DUr&#xA;i+l5SfDGv93Ev2VH9fE5fixCHmepcLJkMi9Lm+3/ALFf+IjPN6p9I0/92Pcsxbk+8mg/pKU9hCR9&#xA;7LnYexQ/wqR/2s/7qLre1D+7H9b9BZhnpzoXYq7FXYq7FXYq7FXYq7FXYq7FXYq7FXYq7FXYq7FX&#xA;Yq7FWKfmrbfWPy81yOleNv6nb/dTrJ3/ANXJR5u79nMnDr8R/pV8xT5Ly99tdiqhfD/Rn9qfrGLj&#xA;az+7L2G3NYIzWtVU1+jPKcg9R97835RUz71TINaOttVmjAjmHrReDfaHyOAAg3HYtgydDu3qGsWF&#xA;tCssYMsrV9OFhQA+LHwGZuGWTIK5d5/Uic4wFjdi11dz3U7TTuXkbv2A8AOwzYY8YgKDgzmZGyo5&#xA;Ni9XuFKylTsQFBHuAM8zkbNvpmAVAL7KyuLy4WCBeTt37AeJPhmVotDl1OQY8YuR+zzPkyy5Y448&#xA;UmcaTpFvp0HFPimYfvZe59h7Z632P2Ni0WOo7zP1S7/2POanUyynfl3I/Nw4zsVdirsVdirsVdir&#xA;sVdirsVdirsVdirsVdirsVdirsVdiqjeWdre2k1ndxLNbXCNHNE4qrIwoQcWzFlljkJxNSibBeMe&#xA;df8AnHtW9S88qTcTux0y4bb5RSn9T/8ABZYMne9/2V7bEVDVD/PH6R+r5PGdU0nU9KvHstStZLS6&#xA;j+1FKpU/MV6jwI2y0F77T6nHmgJ45CUT1CAnUGCQEV+Fj9wrix1n90fh971jTWDadasNwYYyD81G&#xA;eWakVkl/WP3vznrBWaY/pH70TlLjuxVL9V/3V/sv4Zs9F9J97RmS/Mxpdir2NNPuL7UnhgG9asx6&#xA;KKdTnn/ZvZ2XV5BjxjoLPQDvL6Qc0ceOyzLTNLttPtxFEKuf7yU9WP8AT2z17srsrFosfBD6usup&#xA;/Z3B0Go1EssrKMzZtDsVdirsVdirsVdirsVdirsVdirsVdirsVdirsVdirsVdirsVdirsVSvzB5Y&#xA;0HzDZmz1izjuot+DMKOhPeNxRlPyOEGnM0XaGfSz48UjE/YfeOReI+cv+ce9ZtmeXyxML+2l+AWs&#xA;7LHNHz+H7Zojqtak7H2OWDJ3ve6T2yxZcZhqBwTrmN4mvtH2uXTptMA02dlaaxH1aVkrxLRfAxWt&#xA;DSq55nrBWaf9aX3vlOryCeach1kT9reYzjuxVLtV+1H8j/DNpovoPvaMvNAZltKceWfK+peYb8Wt&#xA;mvFF3nuGrwjXxPiT2HfL9Pp5ZZUG3FhMzQfQlva29uGEKBA55NTuc3+j0OHTR4cUREPQTySlzKrm&#xA;WwdirsVdirsVdirsVdirsVdirsVdirsVdirsVdirsVdirsVdirsVdirsVdirsVY9r/kjR9W5Shfq&#xA;t41T68QHxE93Xo36/fNVreyMWff6Z94/S1TwiXvec675R1nR2LTRerbdrmL4k/2XdfpzlNZ2Zlwb&#xA;kXHvH42cOeIxSXNe1pdqv2o/kf4ZtNF9B97Rl5pj5R8nah5jvOEX7qyiI+s3RGyj+Vf5mPh9+bXT&#xA;aWWU7cu9OHAch8nuejaLp+jWEdjYR+nCm5J3ZmPVnPcnOjxYo448MXcY8YgKCOyxm7FXYq7FXYq7&#xA;FXYq7FXYq7FXYq7FXYq7FXYq7FXYq7FXYq7FXYq7FXYq7FXYq7FXYq5lDAqwBUihB3BBxItWJa9+&#xA;Xel33KawpZXJ34qP3TH3UfZ/2P3Zo9Z2Hjybw9Evs/Z8GieAHlsw+1/LDWb3WFt78fVrGDea4Uhu&#xA;YPRYvc07jbv4Zh6HsrJEmM9hfP8AU4n5WUpb8nqunadZadZxWdlEIbeEURF/WfEnuc6WEBAUOTsI&#xA;xERQRGTZOxV2KuxV2KuxV2KuxV2KuxV2KuxV2KuxV2KuxV2KuxV2KuxV2KuxV2KuxV2KuxV2KuxV&#xA;2KuxV2KuxV2KuxV2KuxV2KuxV2KuxV2KuxV2KuxV2KuxV2KuxV2KuxV2KuxV2KuxV2KuxV2KuxV2&#xA;KuxV2KuxV2KuxV2KuxV2KuxV2KuxV2KuxV2KuxV2KuxV2KuxV2KuxV2KuxV2KuxV2KuxV2KuxV2K&#xA;uxV2KuxV2KuxV2KuxV2KuxV2KuxV2KuxV2KuxV2KuxV2KuxV2KuxV2KuxV2KuxV2KuxV2KuxV2Ku&#xA;xV2KuxVJU87eT38xnyyus2beYFHI6WJ4/rGy8yPTry5cPi49eO/TFU6xV2KuxV2KuxVivm/zTLYv&#xA;9QsW43JFZpevAHoB7kb5mabTiXqPJpyZK2CU2XlPX9RhF3c3RiMo5L6rOzkHcE+GXT1EImgGAxk7&#xA;sq8t6PdaXaywXEwnLSckYV2FAKb++YefIJmwG6EaCrrGoPbIscRpLJvy8BgxwvmmUqS+30u9uoPr&#xA;BmoWqUDEkn5nLDkANMBEldpeozxXIt52LIx4Ubcq3THJAEWExkn+YzY7FXYq7FXYq7FXYq7FXYq7&#xA;FXYq7FXYqw/83vOVz5M/LbXfMloqteWMCra8hVRNPIkETMO4V5QxHfFXy3+Tv5Q3/wCdg1bzR5y8&#xA;yXsi21x9WQKwknaUqsjGsvJY4wGAVVX5Upir6O/KD8ltM/LJtXTTdVutQtdU+rcYboJWE2/q1KlO&#xA;IPP1t/hHTviqM8/fnZ+XHkS5Wz8waoE1F1DjT7dHnnCnozqgIQHtzIr2xVvyB+dX5defLiS08van&#xA;6moRKZHsJ43gn4A0LKrgBwO/AmnfFUw1/wDM3ydoHmvSvKuqXjQazrQU6fD6blH9RzGtZAOC1dab&#xA;nFUgk/5yH/Kb9PtoVvrP1y9jSZ5XtYZZYVFtE80n70LwaiRn7BOKvK/KMn/OPHmP887XzPo2ualc&#xA;eY9QuXubXS3hkjtjdekxZy7RKwWgLBS/2vb4cVfQ/mfzV5e8raPLrHmC+j0/TYaB55a7seioqhnd&#xA;j2VQTirznSf+cp/yY1LUUsRq8lo0jcI7i6t5YoSSaCslCEB8XoPHFXq093awWr3c0yR2saGSSdmA&#xA;RUAqWLHalMVYLcfnn+XcNwYReyyhTQzRwSFPA0JAJ+gYqzLSNY07V9Mg1TT5fWsbhS8UpVkqASp+&#xA;FwrChB7Yq8yF3Dc619bvCfQkn9SYUr8HKpWny2zc8JEKHc4d2bLLG/MWzElFs5DH/MWUGn+rv+vM&#xA;P8ke9u8YMg0nWbHVbczWrH4dpI22ZSfEZjZMRgaLZGQKUa45bUHH8iqB91f45diHpYT5sgs1C2kA&#xA;HaNf1DMeXMtg5Ma1D4NQmK7EOSPn1zKh9LUebKgagHx3zDbnYq7FXYq7FXYq7FXYq7FXYq7FXYq7&#xA;FUi89eUrLzf5Q1Xy1esY4NTgMXqgVMbgho5AO/CRVantir4oEP5zf84++ZnmVDHY3LhGloZtMvlS&#xA;pUE/DRgCafZkHyxV9SflV+fPl/z95X1DUooGs9X0eBp9T0otyIVVLB4noOaNxp0qDsexKr5k/Izz&#xA;N5O1L82dT82/mZfW1XhmuoGvhzia8lkRVopDD93GW4LTbanTFV3n7zF5K0X/AJyA0fzH+X1xbjSl&#xA;ms7mc2IKQCRpClzGFUCgkj+0AP2jirIf+c1neP8AMLQJI2KOmlqyOpoQRcykEEYq9y/LX/nHz8tP&#xA;Lel6Pf8A6JW616O2VrnUJ5JXLyzQ8Zv3Rf0uBDsvHjSnid8VeC6BZ2dl/wA5kC0s4I7a1h1S4WKC&#xA;FFjjRfqj7KqgAD5Yqu/5y48zTat+auneV7m4Nvo2kxQCTf4VkuyHlmPyiKD6PfFU1/5yG1H8hdQ/&#xA;Lq0h8mT6Yda0uaCOzWxQJMbajK6O3FS678jyJNd/HFWUeT9S1zzH/wA4saf6ZeebTJDbXfEEs1ra&#xA;TNw+iOP06+y4qmf5NeZvy8ttNfR9dtreLUbiYsLu7iR4pFYKFQyMDw406N8PetTir3O3srGy036t&#xA;Ywx29pGjelDCoWNQ1W+FV2Aqe2Ec1Ly/RLJL3VrW1k/u5JAHA/lG5/AZucsuGJLhxFl6Dr+i6fLo&#xA;twqW8aNBEzwlFCkFBUAEeNKZrMOWQmN3JnEUxPyHcSR64IlPwTxsrjt8I5A/hmbq43C2nEd2Qa0C&#xA;NSl9+NP+BGY2L6WyXNkNr/vLD/qL+oZiy5tgY1qf+98/+tmXD6Q1S5spT7C/IZhlubxV2KuxV2Ku&#xA;xV2KuxV2KuxV2KuxV2KoPV9Y0nRtPk1HVryHT9PhKCa7uZFiiT1HEac3chVq7AbnFWLedPOf5Uy+&#xA;UtQ/xFq2mXmhTQOLiD14ZvVABPGJFYlpKj4OO/Lpir5c/wCcPvL9/qnnHzG6F49OOiT2V3MoqOd3&#xA;JGIl370jdh/q4qkf5D23krRfzRvvL35l2FoImimsR+k1QwwXsUqkczJ8KcgjKGPt44q+pm8n/wDO&#xA;Odtd2kR0/wAtR3dzNHDZRD6r6sk7sFjSJQeTMWIoBirwP/nNr/lP9C/7ZQ/6iZcVfYGk/wDHKsv+&#xA;MEX/ABAYq+P9M/8AW0n/AO2rcf8AUG+KoT/nLfQ59H/N+y8wXNv9Y0zVLe3mUMPgka0IimhNf8hU&#xA;J9mxV71o+gf84y6to0GsWmn+WxYzxiQNKtrEyAipWRXIKMvRgemKs38uTfl7o/ly1fQJdNsfLt3K&#xA;ws5LZ4o7SWVi3L02B4MSY26daYq8n/PDyx5GsbK31XR3ht9TuZgr2lsymOSMqzNJ6amiUIG67GuK&#xA;vRPyWub64/LrTWvCW4GWOBm3JhSRlX6BTiPYYqkkK/obzKgmFEtZxyP/ABXX7X/Amubc+vHt1Dif&#xA;TJnXmDWLCLQ7l0nRzPE0cPBgSxccdqHtWua/DjJmNnInIUxXyDZyS6u1zT93bxmrduT/AAgfdXMz&#xA;WSqNd7TiG7JPMELLcpLT4XWlfcf2Zi4TtTbMJlpt5A1hGWcL6ShXBNKcdsqnE2yidkiAN5qPwiol&#xA;kJ/2Na/qzI+mLXzLKsw252KuxV2KuxV2KuxV2KuxV2KuxV2KuxVJ/N/lPRPN3l288va5E0+l3wQX&#xA;EaO0bH0pFlQh0IIo8anFXk6f84d/k+twJT+kmStfQN0vCnhURh6f7LFXq3lHyX5X8oaQuk+XNPj0&#xA;+xU82SOpZ3oAXkdizu1B1Yk4qxj8wPyI/LXz3efpDW9OZNUKhG1G0kaCZlAoOdKo9AKAupI6dMVS&#xA;Pyt/zi1+U/l3WbPWLeC9u77T547qza5uWKpNCweN+MQi5cWUGjVHjXFU+/MT8j/If5gapban5iiu&#xA;JLq0g+rQmCYxL6fNn3ABqaucVZ5BCkEEcMf2IlCLXc0UUGKsDh/I/wAhw/mEfPyRXH+ITO9yZDMf&#xA;S9R4zGf3dKU4tirJPN/kryv5w0htI8yafHqFizB1R+SsjjYPHIhV0belVI226Yq8rH/OHn5Pi49U&#xA;jUjHUn6ubocPlUR8/wDhsVehv+V3kw+ULHyilo8Wh6a3qWcCzSFkf4/i9RmZmr6rdT3xVJrT8hPy&#xA;/gnWWSO6uVU19GWb4D8/TCN+OKvQba2t7W3jtraNYbeFQkUSAKqqooAAOgGKpbrflrTtWo8wMdwo&#xA;osydaeDA9Rl2LPKHLkwlAFJo/wAurYPWS9dk/lVAp+8lv1Zedae5h4PmybTtNs9Othb2qcIxue5Y&#xA;+LHucxZzMjZbREDkq3FvFcRGOVaqfvB8RkRIhSLStvLkfL4ZyF8CoJ++oy7xvJjwI6y023tKlKtI&#xA;di7dae2VymSyEaRWQS7FXYq7FXYq7FXYq7FXYq7FXYq7FXYqpXV1b2sDT3DiOJKcnPuaD8cp1Goh&#xA;hgZzNRDPHjlOXDEWWPz+c0E4ENvzgHVmNGPy60zic/ttEZKx47x+Zon3d345O0h2UeHc7prpeu6f&#xA;qTSR27n1ogGliYbqGrStNt6Z1HZfa+LWx4oWCOYI/ALhajSTxUZcj1TDNo4rE77zxew6hq1ta6O9&#xA;5Do3BryZJkUhHQvyCMKmgU7DFWR6ZqNvqWnW9/bEmC5jWSOuxAYVofcdDiqXxa3cP5un0Uxp9Xis&#xA;luhJvzLNJwp1pSmKpvLNFDE0szrHEgLPI5CqoHUknYYqhrHWNJv2ZbC9t7tkFXEEqSFQeleBNMVV&#xA;ry8trO1lurqRYbeFS8sjGgAGKoDQPMmk67aC4sJlY7l4CymVByKqXQEleXGoriqF84+aYvL2nJMP&#xA;Te7uJBFbQyuEBJI5Oe/FK/FiqZaPPeXGnxTXb28ksgLCSzZngZSfhKM25qMVVbjULC2dY7i5ihdt&#xA;1SR1UkdNgSMVV8VU5Li3ir6sqJQVPJgNjtXfFVQEEVHTFVpmiBoXUGtKVHXFXLLGzFVdSw6gEE4q&#xA;uxV2KuxV2KuxV2KuxV2KuxV2KuxV2KuxVJ/N8DT+XL6NQWYorADckq6t2+WantzHx6PIPL7iC5/Z&#xA;k+HURP45PKb2XULGyb96VY0HHrxB988yjpRxDiG72URDJLkyT8oFkM+qSsGKlYhzNaFqsaV8c7b2&#xA;ZjvPu2/S6b2iIqA9/wCh6VnWvLvN4rDXdQ81ecLLTJ7e3iuTbRXk0yu7hHhdf3QUgVoT1xVnukaZ&#xA;Dpel2unwEtFaxrGrN1PEbk08euKpBb/+TNu/+2VH/wAn8VTbzPqcGl6Be389uLqKGP4rciofkQoV&#xA;tm2q2+3TFWHaQ1yfzA017hLKGebTpHeKwDBQjHkokJ2Y4qznWIll0m8RkDhoJPhIrU8TTb54qkX5&#xA;ZxW6+TdOkjRBK6P6jqByakrj4iNzTFUN+aMUT6Pp7Misw1G3UEgE0atR9NMVZiiJGgSNQiKKKqig&#xA;A8ABirEki0+a78xnURG06/ZMlOSxBPgK16duntiqdeVzMfL9iZa8/SFK9eNTx/4WmKtXVvDPrsKz&#xA;IJFEBYKwqK8qdD88VTUAAUHTFUuKIYbxiAWDtQ9+uKqojRJ7TiKVVq07/DiqMxV2KuxV2KuxV2Ku&#xA;xV2KuxV2KuxV2KuxVxAIodweoxVjuseRtF1NlZg8A5BpFiICsAakUNeP0ZpNT2Bp8sxIXHvrkf1f&#xA;B2mm7Wy4hXP3p3Y2NnY2yWtnEsMEYokaig/tPuc2+LDHHERgKiHX5csskuKRslXyxrQ1vptjbXVz&#xA;dwQrHc3hU3Mo6uUBC1+QOKonFUOun2S3zX4hUXjxiFp/2jGDyC/KuKqs8EFxC8E8aywyArJG4DKy&#xA;nqCDsRiqX6f5Z0DTpVmsbCG3lXlxkjUBvjADb9e2KpniqA03QdG0t5X0+zitWnp6piXjypWn68VV&#xA;r/TbG/iSK8hWeON1lRW6B1+y30YqicVQd3o2lXkqzXVrHNKuwdlBNB2PjiqMAAAAFANgB0piqwwx&#xA;GYTFR6oXiH7060xVfiqz0YuLLxFHNWHiTirfppVTTdPsnwrtiq7FXYq7FXYq7FXYq7FXYq7FXYq7&#xA;FXYq7FXYq7FXYq7FXYq7FXYq7FXYq7FXYq7FXYq7FXYq7FXYq7FXYq7FXYq7FXYq7FXYq7FXYq7F&#xA;XYq7FXYq7FXYq7FXYq7FXYq7FXYq7FXYq7FXYq7FXYq7FXYq7FXYq7FXYq7FXYq7FXYq7FXYq7FX&#xA;/9k=</xapGImg:image>
    </rdf:li>
   </rdf:Alt>
  </xap:Thumbnails>
 </rdf:Description>

 <rdf:Description rdf:about=''
  xmlns:dc='http://purl.org/dc/elements/1.1/'>
  <dc:format>image/svg+xml</dc:format>
 </rdf:Description>

</rdf:RDF>
</x:xmpmeta>
                                                                                                                                                                                                                                                                                                                                                                                                                                                                                                                                                                                                                                                                                                                                                                                                                                                                                                                                                                                                                                                                                                                                                                                                                                                                                                                                                                                                                                                                                                                                                                                                                                                                                                                                                                                                                                                                                                                                                                                                                                                                                                                                <?xpacket end='w'?>
			</metadata>
		<g id="_x30_1">
			<rect fill="none" width="352" height="352"/> 
		</g>
		<g id="_x32_2">
			<path d="M82.136,289.623c-2.612,0-5.184-0.329-7.715-0.984v-4.279c2.772,0.754,5.231,1.131,7.378,1.131
				c2.035,0,3.625-0.457,4.771-1.37s1.718-2.211,1.718-3.894c0-1.586-0.473-2.832-1.418-3.738c-0.945-0.904-2.7-2.086-5.263-3.545
				c-2.804-1.569-4.695-3.151-5.672-4.746c-0.978-1.594-1.466-3.408-1.466-5.442c0-3.237,1.085-5.668,3.257-7.295
				c2.171-1.626,5.003-2.438,8.496-2.438c2.532,0,4.863,0.24,6.994,0.722v4.183c-2.259-0.514-4.358-0.771-6.297-0.771
				c-1.762,0-3.172,0.418-4.229,1.25c-1.058,0.834-1.586,1.988-1.586,3.462c0,1.426,0.46,2.567,1.382,3.425
				c0.922,0.857,2.496,1.902,4.723,3.137c3.076,1.715,5.135,3.373,6.177,4.975c1.041,1.603,1.562,3.404,1.562,5.408
				c0,3.604-1.069,6.309-3.208,8.11C89.601,288.723,86.398,289.623,82.136,289.623z"/>
			<path d="M119.364,288.396c-2.692,0.816-5.488,1.227-8.388,1.227c-4.198,0-7.346-1.21-9.445-3.629
				c-2.099-2.42-3.148-6.049-3.148-10.889c0-4.276,1.03-7.742,3.088-10.395c2.059-2.65,4.931-3.979,8.616-3.979
				c3.396,0,5.98,1.127,7.75,3.377c1.77,2.252,2.656,6.414,2.656,12.486h-15.309c0,3.012,0.577,5.271,1.73,6.776
				s2.884,2.259,5.191,2.259c1.923,0,4.342-0.408,7.258-1.227L119.364,288.396L119.364,288.396z M105.184,273.04h8.892
				c0-3.302-0.353-5.576-1.057-6.826c-0.705-1.249-1.73-1.874-3.077-1.874c-1.506,0-2.651,0.674-3.437,2.02
				C105.719,267.705,105.28,269.932,105.184,273.04z"/>
			<path d="M125.805,289.238v-28.096h3.797l1.273,4.662c0.785-1.634,1.867-2.863,3.245-3.689c1.378-0.824,3.052-1.236,5.023-1.236
				c0.513,0,0.889,0.016,1.129,0.049v5.383c-0.897-0.063-1.554-0.097-1.971-0.097c-2.163,0-3.701,0.478-4.614,1.431
				s-1.37,2.527-1.37,4.724v16.87H125.805L125.805,289.238z"/>
			<path d="M145.104,289.238v-24.273h-3.101v-3.82h9.589v28.094H145.104L145.104,289.238z M148.348,257.635
				c-1.057,0-1.918-0.297-2.583-0.89s-0.997-1.378-0.997-2.354c0-0.978,0.332-1.764,0.997-2.355s1.526-0.889,2.583-0.889
				c1.025,0,1.883,0.305,2.572,0.912c0.689,0.608,1.033,1.387,1.033,2.332c0,0.992-0.336,1.781-1.009,2.366
				C150.271,257.342,149.405,257.635,148.348,257.635z"/>
			<path d="M178.197,288.396c-2.692,0.816-5.488,1.227-8.388,1.227c-4.198,0-7.346-1.21-9.445-3.629
				c-2.099-2.42-3.148-6.049-3.148-10.889c0-4.276,1.029-7.742,3.088-10.395c2.059-2.65,4.931-3.979,8.616-3.979
				c3.396,0,5.98,1.127,7.75,3.377c1.771,2.252,2.656,6.414,2.656,12.486h-15.31c0,3.012,0.577,5.271,1.73,6.776
				c1.153,1.506,2.884,2.259,5.191,2.259c1.923,0,4.342-0.408,7.258-1.227v3.992H178.197z M164.018,273.04h8.893
				c0-3.302-0.353-5.576-1.058-6.826c-0.705-1.249-1.73-1.874-3.076-1.874c-1.506,0-2.652,0.674-3.437,2.02
				C164.555,267.705,164.114,269.932,164.018,273.04z"/>
			<path opacity="0.65" enable-background="new    " d="M190.693,289.623c-2.402,0-4.989-0.329-7.762-0.984v-4.184
				c2.739,0.834,4.998,1.25,6.776,1.25c1.649,0,2.894-0.324,3.726-0.975c0.834-0.647,1.25-1.621,1.25-2.92
				c0-0.769-0.231-1.484-0.697-2.149c-0.465-0.665-1.777-1.542-3.94-2.632c-1.458-0.754-2.624-1.446-3.497-2.079
				c-0.873-0.634-1.599-1.454-2.175-2.464c-0.577-1.01-0.865-2.268-0.865-3.772c0-2.5,0.921-4.454,2.765-5.864
				c1.843-1.41,4.205-2.115,7.09-2.115c2.498,0,4.773,0.313,6.824,0.938v3.989c-2.002-0.688-3.916-1.033-5.744-1.033
				c-1.488,0-2.604,0.305-3.34,0.913s-1.104,1.522-1.104,2.739c0,0.642,0.22,1.242,0.66,1.804s1.702,1.354,3.784,2.379
				c2.916,1.427,4.768,2.82,5.553,4.183c0.785,1.361,1.178,2.867,1.178,4.519c0,2.788-0.896,4.896-2.691,6.319
				C196.688,288.91,194.092,289.623,190.693,289.623z"/>
			<path fill="#808080" d="M112.728,302.891h4.747c1.875,0,3.24,0.438,4.098,1.316c0.857,0.876,1.286,2.284,1.286,4.223
				c0,1.899-0.515,3.357-1.544,4.375c-1.029,1.018-2.497,1.525-4.404,1.525h-1.598v6.479h-2.584L112.728,302.891L112.728,302.891z
				 M115.312,304.607v7.979h1.454c1.169,0,2.031-0.312,2.583-0.931c0.553-0.622,0.829-1.674,0.829-3.155s-0.254-2.501-0.763-3.06
				c-0.509-0.555-1.304-0.834-2.385-0.834H115.312L115.312,304.607z"/>
			<rect x="135.898" y="301.786" fill="#808080" width="2.56" height="19.022"/> 
			<path fill="#808080" d="M159.537,318.788c-0.865,1.476-2.211,2.212-4.038,2.212c-1.273,0-2.265-0.359-2.974-1.074
				c-0.709-0.72-1.063-1.722-1.063-3.012c0-1.33,0.365-2.322,1.094-2.975c0.729-0.653,1.602-1.063,2.62-1.226
				c1.017-0.166,2.255-0.247,3.713-0.247v-1.646c0-1.625-0.869-2.438-2.607-2.438c-1.001,0-2.223,0.214-3.665,0.638v-1.791
				c1.45-0.399,2.828-0.601,4.134-0.601c1.538,0,2.706,0.369,3.503,1.112c0.797,0.738,1.195,1.83,1.195,3.273v9.793h-1.394
				L159.537,318.788z M158.888,313.994h-1.43c-1.146,0-2.005,0.242-2.578,0.727c-0.573,0.485-0.859,1.209-0.859,2.17
				c0,0.785,0.174,1.371,0.523,1.762c0.348,0.387,0.871,0.582,1.568,0.582c0.881,0,1.564-0.28,2.049-0.842
				c0.485-0.562,0.727-1.322,0.727-2.283V313.994z"/>
			<path fill="#808080" d="M181.83,320.566c-1.074,0.289-2.083,0.434-3.028,0.434c-1.09,0-1.887-0.256-2.392-0.764
				c-0.505-0.51-0.757-1.319-0.757-2.434v-9.302h-1.838v-0.961l3.737-3.81h0.661v3.101h3.4v1.67h-3.4v8.882
				c0,0.76,0.124,1.262,0.372,1.508c0.248,0.244,0.625,0.365,1.13,0.365c0.521,0,1.227-0.115,2.115-0.349V320.566L181.83,320.566z"
				/>
			<path fill="#808080" d="M198.402,301.594c0.81,0,1.595,0.096,2.354,0.287v1.742c-0.753-0.24-1.382-0.359-1.887-0.359
				c-0.802,0-1.306,0.254-1.515,0.762c-0.209,0.511-0.313,1.445-0.313,2.808h2.561v1.67h-2.561v12.306h-2.561v-12.306h-1.693v-1.67
				h1.693c0-2.123,0.324-3.526,0.975-4.211C196.107,301.936,197.089,301.594,198.402,301.594L198.402,301.594z"/>
			<path opacity="0.65" fill="#808080" enable-background="new    " d="M216.611,321c-1.883,0-3.293-0.617-4.229-1.852
				c-0.938-1.233-1.405-3.084-1.405-5.551c0-2.148,0.485-3.847,1.459-5.097c0.975-1.249,2.367-1.874,4.178-1.874
				c1.826,0,3.222,0.616,4.187,1.852c0.966,1.232,1.449,2.955,1.449,5.166c0,2.275-0.451,4.069-1.353,5.385
				C219.994,320.344,218.566,321,216.611,321z M216.611,319.354c0.986,0,1.729-0.445,2.229-1.34c0.501-0.893,0.752-2.39,0.752-4.488
				c0-1.481-0.256-2.726-0.769-3.731c-0.513-1.004-1.25-1.507-2.212-1.507c-0.978,0-1.719,0.451-2.223,1.357
				c-0.506,0.904-0.758,2.199-0.758,3.881c0,1.892,0.252,3.334,0.758,4.332C214.895,318.854,215.635,319.354,216.611,319.354z"/>
			<path opacity="0.4" fill="#808080" enable-background="new    " d="M236.909,306.832l0.589,2.331
				c0.777-1.644,2.131-2.464,4.063-2.464c0.256,0,0.444,0.013,0.564,0.035v2.332c-0.201-0.016-0.501-0.023-0.9-0.023
				c-1.099,0-1.904,0.262-2.416,0.788c-0.514,0.522-0.77,1.343-0.77,2.456v8.521h-2.561v-13.977H236.909z"/>
			<path opacity="0.2" fill="#808080" enable-background="new    " d="M272.073,320.809h-2.56v-9.627
				c0-0.929-0.177-1.629-0.523-2.096c-0.35-0.471-0.871-0.704-1.568-0.704c-0.896,0-1.588,0.353-2.072,1.058
				s-0.728,1.623-0.728,2.752v8.617h-2.56v-9.627c0-0.929-0.18-1.629-0.535-2.096c-0.356-0.471-0.891-0.704-1.604-0.704
				c-0.881,0-1.563,0.356-2.043,1.069s-0.721,1.627-0.721,2.74v8.615h-2.56v-13.976h1.43l0.517,2.065
				c0.856-1.514,2.163-2.271,3.918-2.271c0.929,0,1.699,0.177,2.313,0.528c0.611,0.353,1.063,0.881,1.353,1.586
				c0.793-1.409,2.063-2.114,3.81-2.114c1.379,0,2.412,0.372,3.101,1.117s1.034,1.858,1.034,3.341L272.073,320.809L272.073,320.809z
				"/>
			<path opacity="0.4" fill="#0F3AAC" enable-background="new    " d="M228.208,242.369c2.563,0,4.944,0.191,7.146,0.576v5.576
				c-1.942-0.428-4.047-0.642-6.313-0.642c-3.354,0-5.977,1.181-7.867,3.541c-1.89,2.36-3.049,5.901-3.477,10.623
				c2.072-2.009,4.935-3.013,8.588-3.013c4.102,0,7.221,1.303,9.357,3.908c2.135,2.606,3.203,6.334,3.203,11.185
				c0,5.362-1.309,9.544-3.926,12.546c-2.615,3.001-6.393,4.502-11.327,4.502c-4.934,0-8.657-1.752-11.168-5.255
				c-2.51-3.504-3.765-9.313-3.765-17.433c0-7.989,1.677-14.34,5.029-19.051C217.046,244.725,221.885,242.369,228.208,242.369
				L228.208,242.369z M223.594,285.854c2.157,0,3.771-0.828,4.84-2.482c1.066-1.655,1.602-4.674,1.602-9.053
				c0-3.291-0.502-5.764-1.506-7.418c-1.004-1.656-2.51-2.483-4.52-2.483c-2.093,0-3.689,0.79-4.789,2.371
				c-1.102,1.581-1.65,3.76-1.65,6.536c0,3.332,0.225,5.849,0.673,7.547c0.448,1.699,1.116,2.953,2.003,3.766
				S222.248,285.854,223.594,285.854z"/>
			<path opacity="0.2" fill="#0F3AAC" enable-background="new    " d="M260.316,242.369c4.935,0,8.662,1.752,11.184,5.255
				c2.521,3.504,3.781,9.688,3.781,18.554c0,9.721-1.276,16.316-3.829,19.789c-2.554,3.471-6.318,5.206-11.296,5.206
				c-4.358,0-7.647-1.153-9.87-3.461c-2.222-2.308-3.669-5.224-4.343-8.748c-0.672-3.524-1.008-7.786-1.008-12.786
				c0-8.693,1.291-14.836,3.877-18.425C251.396,244.164,255.232,242.369,260.316,242.369z M260.092,285.854
				c2.18,0,3.776-1.223,4.791-3.668c1.016-2.447,1.521-7.781,1.521-16.008c0-7.904-0.522-12.962-1.569-15.173
				s-2.628-3.315-4.743-3.315c-1.922,0-3.338,0.77-4.244,2.308c-0.908,1.538-1.476,3.546-1.699,6.024
				c-0.225,2.478-0.336,5.863-0.336,10.156c0,8.461,0.502,13.854,1.506,16.184C256.32,284.689,257.913,285.854,260.092,285.854z"/>
			<g>
				<polygon fill="#FFCC00" points="83.551,301.553 74.234,306.654 84.862,311.665 93.57,305.768 "/>
				<polygon fill="#FF9900" points="74.234,306.654 75.357,318.456 85.331,323.65 84.862,311.665 "/>
				
					<linearGradient id="XMLID_87_" gradientUnits="userSpaceOnUse" x1="-47.1431" y1="278.7324" x2="-37.1689" y2="278.7324" gradientTransform="matrix(1 0 0 -1 122.5 596.3906)">
					<stop  offset="0" style="stop-color:#FFCC66"/>
					<stop  offset="1" style="stop-color:#FF9900"/>
					<a:midPointStop  offset="0" style="stop-color:#FFCC66"/>
					<a:midPointStop  offset="0.5" style="stop-color:#FFCC66"/>
					<a:midPointStop  offset="1" style="stop-color:#FF9900"/>
				</linearGradient>
				<polygon fill="url(#XMLID_87_)" points="75.357,318.456 85.331,323.65 84.862,311.665 "/>
				<polygon fill="#F27C0E" points="93.57,305.768 84.862,311.665 85.331,323.65 93.57,317.564 "/>
			</g>
			<g>
				<polygon fill="#ABDD99" points="176.811,84.505 148.321,102.182 181.396,117.244 208.896,97.272 "/>
				<polygon fill="#46AB48" points="148.321,102.182 150.291,142.135 181.721,157.521 181.396,117.244 "/>
				<polygon fill="#16923B" points="208.896,97.272 181.396,117.244 181.721,157.521 208.245,134.602 "/>
			</g>
			<g>
				<polygon fill="#FF6699" points="145.842,103.821 115.717,121.831 150.423,140.17 179.566,119.212 "/>
				<polygon fill="#FF0066" points="150.423,140.17 115.717,121.831 119.646,166.366 152.395,184.371 "/>
				<polygon fill="#BE0151" points="179.566,119.212 150.423,140.17 152.395,184.371 179.896,159.818 "/>
			</g>
			<g>
				<polygon fill="#F5F661" points="250.023,114.932 212.693,99.54 185.518,119.518 222.518,136.871 "/>
				<polygon fill="#FFF500" points="185.518,119.518 185.846,160.119 222.193,178.786 222.518,136.871 "/>
				<polygon fill="#FFCC00" points="222.518,136.871 222.193,178.786 248.391,154.223 250.023,114.932 "/>
			</g>
			<g>
				<polygon fill="#BFE230" points="153.919,143.233 183.227,122.111 220.314,139.299 191.896,163.205 "/>
				<polygon fill="#84C322" points="153.919,143.233 155.552,187.436 191.572,207.083 191.896,163.205 "/>
				<polygon fill="#5DAA3B" points="191.896,163.205 191.572,207.083 219.734,181.211 220.314,139.299 "/>
			</g>
			<g>
				<polygon fill="#99FF66" points="147.897,58.767 176.792,42.482 210.77,55.167 182.688,73.26 "/>
				<polygon fill="#66CC33" points="147.897,58.767 148.881,99.045 182.277,114.76 182.688,73.26 "/>
				<polygon fill="#669900" points="182.688,73.26 182.277,114.76 209.783,94.787 210.77,55.167 "/>
			</g>
			<g opacity="0.65">
				<polygon fill="#CC66FF" points="185.191,74.515 222.688,91.457 251.824,70.171 212.861,56.423 "/>
				<polygon fill="#6F348E" points="222.927,91.133 221.895,133.763 249.195,111.758 251.742,70.171 "/>
				<polygon fill="#9933CC" points="184.781,74.515 184.287,116.015 221.895,133.763 222.927,91.133 "/>
			</g>
			<g>
				<polygon fill="#FFCC00" points="143.801,59.9 111.221,77.746 148.382,95.263 178.832,74.634 "/>
				<polygon fill="#FF9900" points="111.221,77.746 115.145,119.004 150.02,137.174 148.382,95.263 "/>
				
					<linearGradient id="XMLID_88_" gradientUnits="userSpaceOnUse" x1="-7.355" y1="480.1719" x2="27.52" y2="480.1719" gradientTransform="matrix(1 0 0 -1 122.5 596.3906)">
					<stop  offset="0" style="stop-color:#FFCC66"/>
					<stop  offset="1" style="stop-color:#FF9900"/>
					<a:midPointStop  offset="0" style="stop-color:#FFCC66"/>
					<a:midPointStop  offset="0.5" style="stop-color:#FFCC66"/>
					<a:midPointStop  offset="1" style="stop-color:#FF9900"/>
				</linearGradient>
				<polygon fill="url(#XMLID_88_)" points="115.145,119.004 150.02,137.174 148.382,95.263 "/>
				<polygon fill="#F27C0E" points="178.832,74.634 148.382,95.263 150.02,137.174 178.832,115.888 "/>
			</g>
			<g opacity="0.2">
				<polygon fill="#0099FF" points="152.426,97.736 154.061,139.652 192.048,159.625 192.048,116.076 "/>
				<polygon fill="#00CCFF" points="152.426,97.736 183.527,77.107 221.434,93.402 192.048,116.076 "/>
				<polygon fill="#0066FF" points="192.048,116.076 192.048,159.625 220.443,136.396 221.434,93.402 "/>
			</g>
		</g>
	</svg>
