<?xml version="1.0" encoding="utf-8"?>
<!-- Generator: Adobe Illustrator 11.0, SVG Export Plug-In . SVG Version: 6.0.0 Build 78)  -->
<!DOCTYPE svg PUBLIC "-//W3C//DTD SVG 1.0//EN"    "http://www.w3.org/TR/2001/REC-SVG-20010904/DTD/svg10.dtd" [
	<!ENTITY ns_flows "http://ns.adobe.com/Flows/1.0/">
	<!ENTITY ns_svg "http://www.w3.org/2000/svg">
	<!ENTITY ns_xlink "http://www.w3.org/1999/xlink">
]>
<svg  xmlns="&ns_svg;" xmlns:xlink="&ns_xlink;" xmlns:a="http://ns.adobe.com/AdobeSVGViewerExtensions/3.0/"
	 width="352" height="352" viewBox="0 0 352 352" overflow="visible" enable-background="new 0 0 352 352" xml:space="preserve">
	<metadata>
		<x:xmpmeta  x:xmptk="XMP toolkit 3.0-29, framework 1.6" xmlns:x="adobe:ns:meta/">
			<rdf:RDF  xmlns:iX="http://ns.adobe.com/iX/1.0/" xmlns:rdf="http://www.w3.org/1999/02/22-rdf-syntax-ns#">
				<rdf:Description  rdf:about="" xmlns:pdf="http://ns.adobe.com/pdf/1.3/"></rdf:Description>
				<rdf:Description  rdf:about="" xmlns:tiff="http://ns.adobe.com/tiff/1.0/"></rdf:Description>
				<rdf:Description  rdf:about="" xmlns:xapGImg="http://ns.adobe.com/xap/1.0/g/img/" xmlns:xap="http://ns.adobe.com/xap/1.0/">
					<xap:CreateDate>2005-04-04T07:58:17Z</xap:CreateDate>
					<xap:ModifyDate>2005-04-04T09:29:28Z</xap:ModifyDate>
					<xap:CreatorTool>Illustrator</xap:CreatorTool>
					<xap:Thumbnails>
						<rdf:Alt>
							<rdf:li  rdf:parseType="Resource">
								<xapGImg:format>JPEG</xapGImg:format>
								<xapGImg:width>256</xapGImg:width>
								<xapGImg:height>256</xapGImg:height>
								<xapGImg:image>/9j/4AAQSkZJRgABAgEASABIAAD/7QAsUGhvdG9zaG9wIDMuMAA4QklNA+0AAAAAABAASAAAAAEA
AQBIAAAAAQAB/+4ADkFkb2JlAGTAAAAAAf/bAIQABgQEBAUEBgUFBgkGBQYJCwgGBggLDAoKCwoK
DBAMDAwMDAwQDA4PEA8ODBMTFBQTExwbGxscHx8fHx8fHx8fHwEHBwcNDA0YEBAYGhURFRofHx8f
Hx8fHx8fHx8fHx8fHx8fHx8fHx8fHx8fHx8fHx8fHx8fHx8fHx8fHx8fHx8f/8AAEQgBAAEAAwER
AAIRAQMRAf/EAaIAAAAHAQEBAQEAAAAAAAAAAAQFAwIGAQAHCAkKCwEAAgIDAQEBAQEAAAAAAAAA
AQACAwQFBgcICQoLEAACAQMDAgQCBgcDBAIGAnMBAgMRBAAFIRIxQVEGE2EicYEUMpGhBxWxQiPB
UtHhMxZi8CRygvElQzRTkqKyY3PCNUQnk6OzNhdUZHTD0uIIJoMJChgZhJRFRqS0VtNVKBry4/PE
1OT0ZXWFlaW1xdXl9WZ2hpamtsbW5vY3R1dnd4eXp7fH1+f3OEhYaHiImKi4yNjo+Ck5SVlpeYmZ
qbnJ2en5KjpKWmp6ipqqusra6voRAAICAQIDBQUEBQYECAMDbQEAAhEDBCESMUEFURNhIgZxgZEy
obHwFMHR4SNCFVJicvEzJDRDghaSUyWiY7LCB3PSNeJEgxdUkwgJChgZJjZFGidkdFU38qOzwygp
0+PzhJSktMTU5PRldYWVpbXF1eX1RlZmdoaWprbG1ub2R1dnd4eXp7fH1+f3OEhYaHiImKi4yNjo
+DlJWWl5iZmpucnZ6fkqOkpaanqKmqq6ytrq+v/aAAwDAQACEQMRAD8A9U4q7FXYq7FXYq7FXYq7
FXYq7FXYq7FXYq7FXYq7FXYq7FXYq7FXYq7FXYq7FXYq7FXYq7FXYq7FXYq7FXYq7FXYq7FXYq7F
XYq7FXYq7FXYq7FXYq7FXYq7FXYq7FXYq7FXYq7FXYq7FXYq7FXYq7FXYq7FXYq7FXYq7FXYq7FX
Yq7FXYq7FXYq7FXYq7FXYq7FXYq7FXYq7FXYq7FXYq7FXYq7FXYq7FXYq7FXYq7FXYq7FXYq7FXY
q7FXYq7FXYq7FXYq7FXYq7FXYq7FXYq4kAEk0A6k4CaW1qSRuOSMGHiDXBGYkLBtAkDyXZJLsVdi
rsVdirsVdirsVdirsVdirsVdirsVdirsVdirsVdirsVdirsVdirsVdirsVdirsVdiqEutTggqo/e
SfyjoPmcw8+thj2G5cfLqIx8ylFzez3B+NqL2QbDNNm1M8nM7dzr8maU+akkkkbckYqfEGmVRmYm
waYRkRyRsGsXCbSgSDx6HM7F2jMfVu5MNXIc90wg1O0l25cG8G2/Hpmxxa3HPrR83LhqYS8kUDXc
Zlt7sVdirsVdirsVdirsVdirsVdirsVdirsVdirsVdirsVdirsVdirsVdirsVdirsVY95n1e4sp4
Yk3ikQlwNjsadc1XaOWUaAOxcHVzIoBLLfU7SagDcH/lbbNQ4KLxV2Kqc9xBbxGWZxHGOrNgSATy
Yrq3muWWsNjWOPoZT9o/Lwy2GIy8g5uLS9ZMx8vXU6aPZkOd4lJB33IqeudZpsUfCiPJ2cYCk5j1
IdJF+lf6ZM4e5BxomO4hk+wwJ8OhyoxIYGJCpkUOxV2KuxV2KuxV2KuxV2KuxV2KuxV2KuxV2Kux
V2KuxV2KuxV2KuxV2KsR88qPXtG7lXH3Ef1zT9qc4uv1vMMXzVuEiLe/uoNkeq/yNuMVRF35nS2t
TI0JMvRRX4fme+IFmg24sfGaYrfand38nqTych+yo+yPkMy8eEDc7l2mPCIoXLm16joi8dHsh/xR
GfvUHOj04/dx9wb48kblyXYqvh1GVZ44VblzYKa7gVNMpmA1yATnMdqdirsVdirsVdirsVdirsVd
irsVdirsVdirsVdirsVdirsVdirsVdirE/PS/HZt2IkH3cf65qO1BvH4uBrejFc1TgrgpPTMLV9o
YsA9Z37urmaXQZc59A27+jpLSCVOEq818DnLant7NOXo9AHzep0fY2LELl6pJZceXgCWtJCh/kfc
ffmy0ftTIbZo35jn8v7GWbswHeB+aWzQ3VsaXERUfzjdfvGdTpO0MOoH7uQPl1+TrMunnj+oPUdH
I/RNkK7iCIH/AIAZ2GD6I+4JHJFswUVJoMsShJrlm+FNl8e5yBkxJb08VvYf9cH7shLkwPJk+UNb
sVdirsVdirsVdirsVdirsVdirsVdirsVdirsVdirsVdirsVdirsVYp58IVbJmNFHq1J6D7GaXtnI
IREpchf6HFz4ZZZxhEXIsYRVIDVDA9COmee67t6cvTjHCO/r+x3ej7BhDfL6j3dP2qmc9KRJs7l3
0YgChydgS7FWiAQQRUHqDhBINhSLak8zJpgSFiJG2WOEbEDoNx0Gdn2L7Sa2BEZfvMf9Ln8Dz+dt
B7Mjk3HpZJK7sfiNadM9UlzecKzIoRelCt/CPcn7lJyMuSJcmSZS1uxV2KuxV2KuxV2KuxV2KuxV
2KuxV2KuxV2KuxV2KuxV2KuxV2KpVrvmbSNFi5Xkv70isdunxSN9HYe52xc3R9n5dQfQNu/o818x
ee9Q1gxQJAkNpyYSRseRIYjiwagoy/cc1XbOCWTTzrpE/c7iXs9lx5ceTHIERkDIHb31+pLIbmeE
1jcjxHY/Rnk8oA83oJ44y5plb6xG2068D/MNx/XMaenPRxJ6YjlumCOjryRgynuN8xyCObjEU53S
NC7sFRd2YmgAwgEmgoFse1PzIWrFZbDoZz1/2IP682mn0Fbz+TnYdJ1kkiOzTqzEsxYEsdyTXNpD
YinMkPSXqK6j8VJV/wBkP6Z3uHtzesg+I/U+fyx9yJjljkFUYH275ucOpx5RcCC1EEJjowrfofAM
fwpls+TGXJkOUtbsVdirsVdirsVdirsVdirsVdirsVdirsVdirsVdirsVdiqjeXtpZ27XF1KsMKf
akc0GLZixSyS4Yiy898x/mdLJyt9FX006G8cfEf9RT0+Z+4YvUaH2fA9Wbc/zf1lgc0008rSzO0k
rmryOSzE+JJxeljARFAUFoNCD4ZVmhxQMe8EJKYZ4y4zsVVYHnRuUTFfEjpjwcXNrnGJ5pdquoXd
xMY5XqiH4UGw+dPHM3T4IwFgbssOGMRYQOZDeui/vU/1h+vCObGfIvRX+0c3R5vCFuJJHcLGCXPS
nXBx8G90xT/QbkR6jHbEiaVg3qP2QBSaA9zUZl9l+0GTNqY4Pqibs9RQJTl0pGMzOzKc7F17sVdi
rsVdirsVdirsVdirsVdirsVdirsVdirsVdirsVdiryH/AJyHuLy0stDvbaQxtHNPG1Oh5qjUI6H7
HfJwFvdexEITnlhIXcYn5X+t5jpfnO3lpHfr6L9PVWpQ/MdRhOPuev1HZUo7w3Hd1ZHHJHIgeNg6
NurKag5W6qUSDRXYoTBd1HuM8a1EOHJKPdIj7XFKOg05yOc3wr2Tufn4ZOGnPMuPPOOQXTKFFAKA
dBhmKYxNsdvv96pPmP1Zfi+kObHkoZYyXRf3qf6w/XhHNjPkXpSW7zSGlAqgF3OwAp3za5ssYCy8
JVmg3LdJGhhtahTs8p2Zv6DOW13aUshqO0XZafSVvLmjPKq11iM+Cufwpmw9ko3ro+UZfcjtE/uj
8Gb56y867FXYq7FXYq7FXYq7FXYq7FXYq7FXYq7FXYq7FXYq7FXYq8s/5yKtxJ5Ks5h9qHUI/wDg
WilB/GmTx83s/YedayQ78Z++L5zy59VRmn6rf2D8raUqD9qM7ofmMBALRm00Mo9QZGvny0jsnluY
HFwg2RN1Ynbqfs5WcbotV2ece4NxL0byc63mi21/c20lvdyKCY5l4090FWPE9idz4Z5nrsGKGpmR
ISJkT8zy97x+r1kDlOOMgfd+PsCaz98w8iwS6fvmHNy4Md1Af6W/vT9Qy7D9LmQ5IfLGaaafpsUa
rfaixgs0Ian7b9wFB8ciROXpx/U6HtLtzFguI9R6+X6yzi9umkb01ASEUIRRQbitTmhz6vJl+ouL
pcURHiHMoXMdyk68ogHVifCJiPvAzqvY4XrP8w/odf2n/dfFmmeqPPuxV2KuxV2KuxV2KuxV2Kux
V2KuxV2KuxV2KuxV2KuxV2KsA/PS39X8uL9/98S28n3zKn/G+Thzem9kJ12hAfzhIf7En9D5fy59
idiqldOUt3YGjDjxPuGBwEXs4XaEeLHXR7faardW1Fr6kQ/Ybw9j2zySWMF+dIZiE3t7+0uwFVvT
lP7Dd/l45TKMo+53ej7WnDY+oefP5qV1DIgJI28R0yib1Gj12LN9J37jzY9eQyS33pxKXdqUUZbh
PpdockYQ4pGgEwWzsdHgF1qBEtwf7qAb7/x+eXYsUspqPJ4/tb2gMgYw9MftP6gx/U9VutQn9SY0
Uf3cY+yo/wA++b3Bp44hQeLy5TM2XpM32/8AYr/xEZ5zVPo+n/ux7lmLcn3k0H9JSnsISPvZc7D2
KH+FSP8AtZ/3UXW9qH92P636CzDPTnQuxV2KuxV2KuxV2KuxV2KuxV2KuxV2KuxV2KuxV2KuxV2K
sU/NW2+sfl5rkdK8bf1O3+6nWTv/AKuSjzd37OZOHX4j/Sr5inyXl77a7FVC+H+jP7U/WMXG1n92
XsNuawRmtaqpr9GeU5B6j735vyipn3qmQa0fZ6xcQAJJ+9j8Cdx8jlc8QLdDMQqXmu6bZQma2iBu
ptgpFKU/mPgPAZLTaKUz3RcrVdpzlECUjKuTEru7uLudp53LyN3PYeA8Bm+x44wFR5OlnMyNlRyb
B6vcKVlKnYgKCPcAZ5nI2bfTMAqAX2VlcXlwsEC8nbv2A8SfDMrRaHLqcgx4xcj9nmfJllyxxx4p
M40nSLfToOKfFMw/ey9z7D2z1vsfsbFosdR3mfql3/sec1OpllO/LuR+bhxnYq7FXYq7FXYq7FXY
q7FXYq7FXYq7FXYq7FXYq7FXYq7FVG8s7W9tJrO7iWa2uEaOaJxVWRhQg4tmLLLHITialE2C8Y86
/wDOPat6l55Um4ndjplw23yilP6n/wCCywZO97/sr22IqGqH+eP0j9XyeM6ppOp6VePZalayWl1H
9qKVSp+Yr1HgRtloL32n1OPNATxyEonqEBOoMEgIr8LH7hXFjrP7o/D73rGmsG061YbgwxkH5qM8
s1IrJL+sfvfnPWCs0x/SP3onKXHdiqX6r/ur/ZfwzZ6L6T72jMl+ZjS7FXsaafcX2pPDAN61Zj0U
U6nPP+zezsuryDHjHQWegHeX0g5o48dlmWmaXbafbiKIVc/3kp6sf6e2evdldlYtFj4IfV1l1P7O
4Og1GolllZRmbNodirsVdirsVdirsVdirsVdirsVdirsVdirsVdirsVdirsVdirsVdiqV+YPLGg+
YbM2esWcd1FvwZhR0J7xuKMp+Rwg05mi7Qz6WfHikYn7D7xyLxHzl/zj3rNszy+WJhf20vwC1nZY
5o+fw/bNEdVrUnY+xywZO973Se2WLLjMNQOCdcxvE19o+1y6dNpgGmzsrTWI+rSsleJaL4GK1oaV
XPM9YKzT/rS+98p1eQTzTkOsiftbzGcd2Kpdqv2o/kf4ZtNF9B97Rl5oDMtpTjyz5X1LzDfi1s14
ou89w1eEa+J8Sew75fp9PLLKg24sJmaD6Et7W3twwhQIHPJqdzm/0ehw6aPDiiIh6CeSUuZVcy2D
sVdirsVdirsVdirsVdirsVdirsVdirsVdirsVdirsVdirsVdirsVdirsVdirHtf8kaPq3KUL9VvG
qfXiA+Inu69G/X75qtb2Riz7/TPvH6WqeES97znXfKOs6OxaaL1bbtcxfEn+y7r9OcprOzMuDci4
94/GzhzxGKS5r2tLtV+1H8j/AAzaaL6D72jLzTHyj5O1DzHecIv3VlER9ZuiNlH8q/zMfD782um0
ssp25d6cOA5D5Pc9G0XT9GsI7Gwj9OFNyTuzMerOe5OdHixRxx4Yu4x4xAUEdljN2KuxV2KuxV2K
uxV2KuxV2KuxV2KuxV2KuxV2KuxV2KuxV2KuxV2KuxV2KuxV2KuxVzKGBVgCpFCDuCDiRasS178u
9LvuU1hSyuTvxUfumPuo+z/sfuzR6zsPHk3h6JfZ+z4NE8APLZh9r+WGs3usLb34+rWMG81wpDcw
eixe5p3G3fwzD0PZWSJMZ7C+f6nE/KylLfk9V07TrLTrOKzsohDbwiiIv6z4k9znSwgIChydhGIi
KCIybJ2KuxV2KuxV2KuxV2KuxV2KuxV2KuxV2KuxV2KuxV2KuxV2KuxV2KuxV2KuxV2KuxV2KuxV
2KuxV2KuxV2KuxV2KuxV2KuxV2KuxV2KuxV2KuxV2KuxV2KuxV2KuxV2KuxV2KuxV2KuxV2KuxV2
KuxV2KuxV2KuxV2KuxV2KuxV2KuxV2KuxV2KuxV2KuxV2KuxV2KuxV2KuxV2KuxV2KuxV2KuxV2K
uxV2KuxV2KuxV2KuxV2KuxV2KuxV2KuxV2KuxV2KuxV2KuxV2KuxV2KuxV2KuxV2KuxV2KuxV2Ku
xV2KpcvmPQG1c6Muo251UCpshIvq7DlThWteO9OtN8VTHFXYq7FXYq7FXYq7FXYq7FXYq7FXYq7F
XYq7FXYq7FXYq7FXYq7FXYq7FXYqw/8AN7zlc+TPy213zJaKrXljAq2vIVUTTyJBEzDuFeUMR3xV
8t/k7+UN/wDnYNW80ecvMl7IttcfVkCsJJ2lKrIxrLyWOMBgFVV+VKYq+jvyg/JbTPyybV003Vbr
ULXVPq3GG6CVhNv6tSpTiDz9bf4R074qjPP352flx5EuVs/MGqBNRdQ40+3R55wp6M6oCEB7cyK9
sVb8gfnV+XXny4ktPL2p+pqESmR7CeN4J+ANCyq4AcDvwJp3xVMNf/M3ydoHmvSvKuqXjQazrQU6
fD6blH9RzGtZAOC1dabnFUjT/nIH8qpvMw8uWesfXdRIl5NbRSSQD0I2lcesF4NRYz9gnFWP6C/5
T6v+ZcOs6fqV5Lq91M00Nk0brCZ+BJbkyA0oCacuvttir13UNRstPtmur2ZYIE6u3iewA3J9hiqR
235h+Vp5xCLloyxoryIyoT86bfTirI2kRULswCAVLE7U8a4qlreY9KV+PqM3+UFNMVTCCeKeFZom
5RvupoR7d8VX4q7FXYq7FXYq7FXYq7FXYq7FXYq7FXYq7FXYq7FXYq7FXYqkXnrylZeb/KGq+Wr1
jHBqcBi9UCpjcENHIB34SKrU9sVfFAh/Ob/nH3zM8yoY7G5cI0tDNpl8qVKgn4aMATT7Mg+WKvqT
8qvz58v+fvK+oalFA1nq+jwNPqelFuRCqpYPE9BzRuNOlQdj2JVfMn5GeZvJ2pfmzqfm38zL62q8
M11A18OcTXksiKtFIYfu4y3BabbU6Yqu8/8AmLyVov5/6R5k/L64t/0Us1ndT/URwhEjSFLmNVAH
ESR/aAH7RxVkP/OazvH+YWgSRsUdNLVkdTQgi5lIIIxV7n+WX/OP35beWdN0bUl0oXPmCG3R59Sm
kldmmlh4y0j5+kFIdlC8enid8VYbpdvb23/OQQgt4khhjvZRHFGoVVHoNsFFAMVZr+ZV+1z5ig0+
RylrbKnLwDS7s/8AwNMVRHnWfydNocaaW9ubu3ZFiEQo3p7ggmm/jviqbaFc3N75Cg6u8BMb9yUj
Y0+5afdiqN0C80pITBcoolZq+o6ggg9BU9MVZLFHHGgSNQqD7KqKAV32piq7FXYq7FXYq7FXYq7F
XYq7FXYq7FXYq7FXYq7FXYq7FXYq7FUHq+saTo2nyajq15Dp+nwlBNd3MixRJ6jiNObuQq1dgNzi
rFvOfnP8qZvKOoHzDq+mXmhTQOJ4fXhm9ZaV4xIrEvJUfBx3r0xV8uf84feX7/VPOPmN0Lx6cdEn
sruZRUc7uSMRLv3pG7D/AFcVSP8AIe28laL+aN95e/MuwtBE0U1iP0mqGGC9ilUjmZPhTkEZQx9v
HFX1M3k//nHO2u7SI6f5aju7maOGyiH1X1ZJ3YLGkSg8mYsRQDFXgf8Azm1/yn+hf9sof9RMuKvs
DSf+OVZf8YIv+IDFXg1n/wCtEN/zHS/9Q7Yqy78ybR7bzNFeyJzguERgD0Jj+Fk+4D78VZjbWXkG
5tUuo4LH0XXlVhGpHswPQjFU3sDo1tZIbEwRWUjH0zEVEbMSa8SNj0xVJvMVnpscaTQFVmdqFEIo
RTrQdMVTXy+8jaVEZN6cgpP8oNBiqY4q7FXYq7FXYq7FXYq7FXYq7FXYq7FXYq7FXYq7FXYq7FXY
qk/m/wAp6J5u8u3nl7XImn0u+CC4jR2jY+lIsqEOhBFHjU4q8nT/AJw7/J9bgSn9JMla+gbpeFPC
ojD0/wBlir1byj5L8r+UNIXSfLmnx6fYqebJHUs70ALyOxZ3ag6sScVYx+YH5Eflr57vP0hrenMm
qFQjajaSNBMygUHOlUegFAXUkdOmKpH5W/5xa/Kfy7rNnrFvBe3d9p88d1Ztc3LFUmhYPG/GIRcu
LKDRqjxriqffmJ+R/kP8wNUttT8xRXEl1aQfVoTBMYl9Pmz7gA1NXOKs8ghSCCOGP7EShFruaKKD
FWMx/lt5Yj81nzQqS/pYyNNy9Q8OTKUPwfI4qn2p6Vp+p2xtr6FZoSagGoIPipFCD8sVY9/yrHyz
z5fv6fyept+qv44qnqaHpqadFpyRlbWA1iQMxIO/ckn9o4qop5Z0tWBIdx/KzbfhTFU0RERAiAKq
iiqNgAMVbxV2KuxV2KuxV2KuxV2KuxV2KuxV2KuxV2KuxV2KuxV2KuxVSurq3tYGnuHEcSU5Ofc0
H45TqNRDDAzmaiGePHKcuGIssfn85oJwIbfnAOrMaMfl1pnE5/baIyVjx3j8zRPu7vxydpDso8O5
3TXS9d0/Umkjt3PrRANLEw3UNWlabb0zqOy+18WtjxQsEcwR+AXC1Gknioy5HqmGbRxWJ33ni9h1
DVra10d7yHRuDXkyTIpCOhfkEYVNAp2GKsj0zUbfUtOt7+2JMFzGskddiAwrQ+46HFUvi1u4fzdP
opjT6vFZLdCTfmWaThTrSlMVTeWaKGJpZnWOJAWeRyFVQOpJOwxVDWOsaTfsy2F7b3bIKuIJUkKg
9K8CaYqiLi4ht4XnncRxRjk7t0AGKoXS9YsdTgEtrIrHq0VRzUVIHJQTStMVb1TUFsoA/wAJkchY
0Y0+Z+QxVXtXleBXkKMzb8oiShHahOKr2liQgO6qT0BIGKrsVdirsVdirsVdirsVdirsVdirsVdi
rsVdirsVdirsVdiqT+b4Gn8uX0agsxRWAG5JV1bt8s1PbmPj0eQeX3EFz+zJ8OoifxyeU3suoWNk
370qxoOPXiD755lHSjiHEN3soiGSXJkn5QLIZ9UlYMVKxDma0LVY0r4523szHefdt+l03tERUB7/
AND0rOteXebxWGu6h5q84WWmT29vFcm2ivJpld3CPC6/ugpArQnrirPdI0yHS9LtdPgJaK1jWNWb
qeI3Jp49cVSC3/8AJm3f/bKj/wCT+Kpt5n1ODS9Avb+e3F1FDH8VuRUPyIUK2zbVbfbpirDtIa5P
5gaa9wllDPNp0jvFYBgoRjyUSE7McVZ9qCK9jcKVDAxt8JFexxVK/JyRDy9aOqqHZW5sAKmjt1OK
q/mBVNtASAT66D6DXFU0AAAAFAOgGKoELEz3fq0LDpXsKbUxVEWfL6rHy60/DtiqtirsVdirsVdi
rsVdirsVdirsVdirsVdirsVdirsVdiriARQ7g9RirHdY8jaLqbKzB4ByDSLEQFYA1Ioa8fozSans
DT5ZiQuPfXI/q+DtNN2tlxCufvTuxsbOxtktbOJYYIxRI1FB/afc5t8WGOOIjAVEOvy5ZZJcUjZK
vljWhrfTbG2urm7ghWO5vCpuZR1coCFr8gcVROKoddPslvmvxCovHjELT/tGMHkF+VcVVZ4ILiF4
J41lhkBWSNwGVlPUEHYjFUv0/wAs6Bp0qzWNhDbyry4yRqA3xgBt+vbFUzxVDWel6fZNI1pbpA0v
2ygpWmKq00EMyhZVDqpDAHxHQ4qvxVY9vDI3J0DEdziq/FXYq7FXYq7FXYq7FXYq7FXYq7FXYq7F
XYq7FXYq7FXYq7FXYq7FXYq7FXYq7FXYq7FXYq7FXYq7FXYq7FXYq7FXYq7FXYq7FXYq7FXYq7FX
Yq7FXYq7FXYq7FXYq7FXYq7FXYq7FXYq7FXYq7FXYq7FXYq7FXYq7FXYq7FXYq7FXYq7FXYq7FXY
q7FXYq//2Q==
									</xapGImg:image>
							</rdf:li>
						</rdf:Alt>
					</xap:Thumbnails>
				</rdf:Description>
				<rdf:Description  rdf:about="" xmlns:dc="http://purl.org/dc/elements/1.1/">
					<dc:format>image/svg+xml</dc:format>
				</rdf:Description>
			</rdf:RDF>
		</x:xmpmeta>
<?xpacket begin='﻿' id='W5M0MpCehiHzreSzNTczkc9d'?><x:xmpmeta xmlns:x='adobe:ns:meta/' x:xmptk='XMP toolkit 3.0-29, framework 1.6'>
<rdf:RDF xmlns:rdf='http://www.w3.org/1999/02/22-rdf-syntax-ns#' xmlns:iX='http://ns.adobe.com/iX/1.0/'>

 <rdf:Description rdf:about=''
  xmlns:pdf='http://ns.adobe.com/pdf/1.3/'>
 </rdf:Description>

 <rdf:Description rdf:about=''
  xmlns:tiff='http://ns.adobe.com/tiff/1.0/'>
 </rdf:Description>

 <rdf:Description rdf:about=''
  xmlns:xap='http://ns.adobe.com/xap/1.0/'
  xmlns:xapGImg='http://ns.adobe.com/xap/1.0/g/img/'>
  <xap:CreateDate>2005-04-04T07:58:17Z</xap:CreateDate>
  <xap:ModifyDate>2005-04-20T12:01:48Z</xap:ModifyDate>
  <xap:CreatorTool>Illustrator</xap:CreatorTool>
  <xap:Thumbnails>
   <rdf:Alt>
    <rdf:li rdf:parseType='Resource'>
     <xapGImg:format>JPEG</xapGImg:format>
     <xapGImg:width>256</xapGImg:width>
     <xapGImg:height>256</xapGImg:height>
     <xapGImg:image>/9j/4AAQSkZJRgABAgEASABIAAD/7QAsUGhvdG9zaG9wIDMuMAA4QklNA+0AAAAAABAASAAAAAEA&#xA;AQBIAAAAAQAB/+4ADkFkb2JlAGTAAAAAAf/bAIQABgQEBAUEBgUFBgkGBQYJCwgGBggLDAoKCwoK&#xA;DBAMDAwMDAwQDA4PEA8ODBMTFBQTExwbGxscHx8fHx8fHx8fHwEHBwcNDA0YEBAYGhURFRofHx8f&#xA;Hx8fHx8fHx8fHx8fHx8fHx8fHx8fHx8fHx8fHx8fHx8fHx8fHx8fHx8fHx8f/8AAEQgBAAEAAwER&#xA;AAIRAQMRAf/EAaIAAAAHAQEBAQEAAAAAAAAAAAQFAwIGAQAHCAkKCwEAAgIDAQEBAQEAAAAAAAAA&#xA;AQACAwQFBgcICQoLEAACAQMDAgQCBgcDBAIGAnMBAgMRBAAFIRIxQVEGE2EicYEUMpGhBxWxQiPB&#xA;UtHhMxZi8CRygvElQzRTkqKyY3PCNUQnk6OzNhdUZHTD0uIIJoMJChgZhJRFRqS0VtNVKBry4/PE&#xA;1OT0ZXWFlaW1xdXl9WZ2hpamtsbW5vY3R1dnd4eXp7fH1+f3OEhYaHiImKi4yNjo+Ck5SVlpeYmZ&#xA;qbnJ2en5KjpKWmp6ipqqusra6voRAAICAQIDBQUEBQYECAMDbQEAAhEDBCESMUEFURNhIgZxgZEy&#xA;obHwFMHR4SNCFVJicvEzJDRDghaSUyWiY7LCB3PSNeJEgxdUkwgJChgZJjZFGidkdFU38qOzwygp&#xA;0+PzhJSktMTU5PRldYWVpbXF1eX1RlZmdoaWprbG1ub2R1dnd4eXp7fH1+f3OEhYaHiImKi4yNjo&#xA;+DlJWWl5iZmpucnZ6fkqOkpaanqKmqq6ytrq+v/aAAwDAQACEQMRAD8A9U4q7FXYq7FXYq7FXYq7&#xA;FXYq7FXYq7FXYq7FXYq7FXYq7FXYq7FXYq7FXYq7FXYq7FXYq7FXYq7FXYq7FXYq7FXYq7FXYq7F&#xA;XYq7FXYq7FXYq7FXYq7FXYq7FXYq7FXYq7FXYq7FXYq7FXYq7FXYq7FXYq7FXYq7FXYq7FXYq7FX&#xA;Yq7FXYq7FXYq7FXYq7FXYq7FXYq7FXYq7FXYq7FXYq7FXYq7FXYq7FXYq7FXYq7FXYq7FXYq7FXY&#xA;q7FXYq7FXYq7FXYq7FXYq7FXYq7FXYq4kAEk0A6k4CaW1qSRuOSMGHiDXBGYkLBtAkDyXZJLsVdi&#xA;rsVdirsVdirsVdirsVdirsVdirsVdirsVdirsVdirsVdirsVdirsVdirsVdirsVdiqEutTggqo/e&#xA;SfyjoPmcw8+thj2G5cfLqIx8ylFzez3B+NqL2QbDNNm1M8nM7dzr8maU+akkkkbckYqfEGmVRmYm&#xA;waYRkRyRsGsXCbSgSDx6HM7F2jMfVu5MNXIc90wg1O0l25cG8G2/Hpmxxa3HPrR83LhqYS8kUDXc&#xA;Zlt7sVdirsVdirsVdirsVdirsVdirsVdirsVdirsVdirsVdirsVdirsVdirsVdirsVY95n1e4sp4&#xA;Yk3ikQlwNjsadc1XaOWUaAOxcHVzIoBLLfU7SagDcH/lbbNQ4KLxV2Kqc9xBbxGWZxHGOrNgSATy&#xA;Yrq3muWWsNjWOPoZT9o/Lwy2GIy8g5uLS9ZMx8vXU6aPZkOd4lJB33IqeudZpsUfCiPJ2cYCk5j1&#xA;IdJF+lf6ZM4e5BxomO4hk+wwJ8OhyoxIYGJCpkUOxV2KuxV2KuxV2KuxV2KuxV2KuxV2KuxV2Kux&#xA;V2KuxV2KuxV2KuxV2KsR88qPXtG7lXH3Ef1zT9qc4uv1vMMXzVuEiLe/uoNkeq/yNuMVRF35nS2t&#xA;TI0JMvRRX4fme+IFmg24sfGaYrfand38nqTych+yo+yPkMy8eEDc7l2mPCIoXLm16joi8dHsh/xR&#xA;GfvUHOj04/dx9wb48kblyXYqvh1GVZ44VblzYKa7gVNMpmA1yATnMdqdirsVdirsVdirsVdirsVd&#xA;irsVdirsVdirsVdirsVdirsVdirsVdirE/PS/HZt2IkH3cf65qO1BvH4uBrejFc1TgrgpPTMLV9o&#xA;YsA9Z37urmaXQZc59A27+jpLSCVOEq818DnLant7NOXo9AHzep0fY2LELl6pJZceXgCWtJCh/kfc&#xA;ffmy0ftTIbZo35jn8v7GWbswHeB+aWzQ3VsaXERUfzjdfvGdTpO0MOoH7uQPl1+TrMunnj+oPUdH&#xA;I/RNkK7iCIH/AIAZ2GD6I+4JHJFswUVJoMsShJrlm+FNl8e5yBkxJb08VvYf9cH7shLkwPJk+UNb&#xA;sVdirsVdirsVdirsVdirsVdirsVdirsVdirsVdirsVdirsVdirsVYp58IVbJmNFHq1J6D7GaXtnI&#xA;IREpchf6HFz4ZZZxhEXIsYRVIDVDA9COmee67t6cvTjHCO/r+x3ej7BhDfL6j3dP2qmc9KRJs7l3&#xA;0YgChydgS7FWiAQQRUHqDhBINhSLak8zJpgSFiJG2WOEbEDoNx0Gdn2L7Sa2BEZfvMf9Ln8Dz+dt&#xA;B7Mjk3HpZJK7sfiNadM9UlzecKzIoRelCt/CPcn7lJyMuSJcmSZS1uxV2KuxV2KuxV2KuxV2KuxV&#xA;2KuxV2KuxV2KuxV2KuxV2KuxV2KpVrvmbSNFi5Xkv70isdunxSN9HYe52xc3R9n5dQfQNu/o818x&#xA;ee9Q1gxQJAkNpyYSRseRIYjiwagoy/cc1XbOCWTTzrpE/c7iXs9lx5ceTHIERkDIHb31+pLIbmeE&#xA;1jcjxHY/Rnk8oA83oJ44y5plb6xG2068D/MNx/XMaenPRxJ6YjlumCOjryRgynuN8xyCObjEU53S&#xA;NC7sFRd2YmgAwgEmgoFse1PzIWrFZbDoZz1/2IP682mn0Fbz+TnYdJ1kkiOzTqzEsxYEsdyTXNpD&#xA;YinMkPSXqK6j8VJV/wBkP6Z3uHtzesg+I/U+fyx9yJjljkFUYH275ucOpx5RcCC1EEJjowrfofAM&#xA;fwpls+TGXJkOUtbsVdirsVdirsVdirsVdirsVdirsVdirsVdirsVdirsVdiqjeXtpZ27XF1KsMKf&#xA;akc0GLZixSyS4Yiy898x/mdLJyt9FX006G8cfEf9RT0+Z+4YvUaH2fA9Wbc/zf1lgc0008rSzO0k&#xA;rmryOSzE+JJxeljARFAUFoNCD4ZVmhxQMe8EJKYZ4y4zsVVYHnRuUTFfEjpjwcXNrnGJ5pdquoXd&#xA;xMY5XqiH4UGw+dPHM3T4IwFgbssOGMRYQOZDeui/vU/1h+vCObGfIvRX+0c3R5vCFuJJHcLGCXPS&#xA;nXBx8G90xT/QbkR6jHbEiaVw3qP2QBSaA9zUZl9l+0GTNqY4Pqibs9RQJTl0pGMzOzKc7F17sVdi&#xA;rsVdirsVdirsVdirsVdirsVdirsVdirsVdirsVdiryH/AJyHuLy0stDvbaQxtHNPG1Oh5qjUI6H7&#xA;HfJwFvdexEITnlhIXcYn5X+t5jpfnO3lpHfr6L9PVWpQ/MdRhOPuev1HZUo7w3Hd1ZHHJHIgeNg6&#xA;NurKag5W6qUSDRXYoTBd1HuM8a1EOHJKPdIj7XFKOg05yOc3wr2Tufn4ZOGnPMuPPOOQXTKFFAKA&#xA;dBhmKYxNsdvv96pPmP1Zfi+kObHkoZYyXRf3qf6w/XhHNjPkXpSW7zSGlAqgF3OwAp3za5ssYCy8&#xA;JVmg3LdJGhhtahTs8p2Zv6DOW13aUshqO0XZafSVvLmjPKq11iM+Cufwpmw9ko3ro+UZfcjtE/uj&#xA;8Gb56y867FXYq7FXYq7FXYq7FXYq7FXYq7FXYq7FXYq7FXYq7FXYq8s/5yKtxJ5Ks5h9qHUI/wDg&#xA;WilB/GmTx83s/YedayQ78Z++L5zy59VRmn6rf2D8raUqD9qM7ofmMBALRm00Mo9QZGvny0jsnluY&#xA;HFwg2RN1Ynbqfs5WcbotV2ece4NxL0byc63mi21/c20lvdyKCY5l4090FWPE9idz4Z5nrsGKGpmR&#xA;ISJkT8zy97x+r1kDlOOMgfd+PsCaz98w8iwS6fvmHNy4Md1Af6W/vT9Qy7D9LmQ5IfLGaaafpsUa&#xA;rfaixgs0Ian7b9wFB8ciROXpx/U6HtLtzFguI9R6+X6yzi9umkb01ASEUIRRQbitTmhz6vJl+ouL&#xA;pcURHiHMoXMdyk68ogHVifCJiPvAzqvY4XrP8w/odf2n/dfFmmeqPPuxV2KuxV2KuxV2KuxV2Kux&#xA;V2KuxV2KuxV2KuxV2KuxV2KsA/PS39X8uL9/98S28n3zKn/G+Thzem9kJ12hAfzhIf7En9D5fy59&#xA;idiqldOUt3YGjDjxPuGBwEXs4XaEeLHXR7faardW1Fr6kQ/Ybw9j2zySWMF+dIZiE3t7+0uwFVvT&#xA;lP7Dd/l45TKMo+53ej7WnDY+oefP5qV1DIgJI28R0yib1Gj12LN9J37jzY9eQyS33pxKXdqUUZbh&#xA;PpdockYQ4pGgEwWzsdHgF1qBEtwf7qAb7/x+eXYsUspqPJ4/tb2gMgYw9MftP6gx/U9VutQn9SY0&#xA;Uf3cY+yo/wA++b3Bp44hQeLy5TM2XpM32/8AYr/xEZ5zVPo+n/ux7lmLcn3k0H9JSnsISPvZc7D2&#xA;KH+FSP8AtZ/3UXW9qH92P636CzDPTnQuxV2KuxV2KuxV2KuxV2KuxV2KuxV2KuxV2KuxV2KuxV2K&#xA;sU/NW2+sfl5rkdK8bf1O3+6nWTv/AKuSjzd37OZOHX4j/Sr5inyXl77a7FVC+H+jP7U/WMXG1n92&#xA;XsNuawRmtaqpr9GeU5B6j735vyipn3qmQa0fZ6xcQAJJ+9j8Cdx8jlc8QLdDMQqXmu6bZQma2iBu&#xA;ptgpFKU/mPgPAZLTaKUz3RcrVdpzlECUjKuTEru7uLudp53LyN3PYeA8Bm+x44wFR5OlnMyNlRyb&#xA;B6vcKVlKnYgKCPcAZ5nI2bfTMAqAX2VlcXlwsEC8nbv2A8SfDMrRaHLqcgx4xcj9nmfJllyxxx4p&#xA;M40nSLfToOKfFMw/ey9z7D2z1vsfsbFosdR3mfql3/sec1OpllO/LuR+bhxnYq7FXYq7FXYq7FXY&#xA;q7FXYq7FXYq7FXYq7FXYq7FXYq7FVG8s7W9tJrO7iWa2uEaOaJxVWRhQg4tmLLLHITialE2C8Y86&#xA;/wDOPat6l55Um4ndjplw23yilP6n/wCCywZO97/sr22IqGqH+eP0j9XyeM6ppOp6VePZalayWl1H&#xA;9qKVSp+Yr1HgRtloL32n1OPNATxyEonqEBOoMEgIr8LH7hXFjrP7o/D73rGmsG061YbgwxkH5qM8&#xA;s1IrJL+sfvfnPWCs0x/SP3onKXHdiqX6r/ur/ZfwzZ6L6T72jMl+ZjS7FXsaafcX2pPDAN61Zj0U&#xA;U6nPP+zezsuryDHjHQWegHeX0g5o48dlmWmaXbafbiKIVc/3kp6sf6e2evdldlYtFj4IfV1l1P7O&#xA;4Og1GolllZRmbNodirsVdirsVdirsVdirsVdirsVdirsVdirsVdirsVdirsVdirsVdiqV+YPLGg+&#xA;YbM2esWcd1FvwZhR0J7xuKMp+Rwg05mi7Qz6WfHikYn7D7xyLxHzl/zj3rNszy+WJhf20vwC1nZY&#xA;5o+fw/bNEdVrUnY+xywZO973Se2WLLjMNQOCdcxvE19o+1y6dNpgGmzsrTWI+rSsleJaL4GK1oaV&#xA;XPM9YKzT/rS+98p1eQTzTkOsiftbzGcd2Kpdqv2o/kf4ZtNF9B97Rl5oDMtpTjyz5X1LzDfi1s14&#xA;ou89w1eEa+J8Sew75fp9PLLKg24sJmaD6Et7W3twwhQIHPJqdzm/0ehw6aPDiiIh6CeSUuZVcy2D&#xA;sVdirsVdirsVdirsVdirsVdirsVdirsVdirsVdirsVdirsVdirsVdirsVdirHtf8kaPq3KUL9VvG&#xA;qfXiA+Inu69G/X75qtb2Riz7/TPvH6WqeES97znXfKOs6OxaaL1bbtcxfEn+y7r9OcprOzMuDci4&#xA;94/GzhzxGKS5r2tLtV+1H8j/AAzaaL6D72jLzTHyj5O1DzHecIv3VlER9ZuiNlH8q/zMfD782um0&#xA;ssp25d6cOA5D5Pc9G0XT9GsI7Gwj9OFNyTuzMerOe5OdHixRxx4Yu4x4xAUEdljN2KuxV2KuxV2K&#xA;uxV2KuxV2KuxV2KuxV2KuxV2KuxV2KuxV2KuxV2KuxV2KuxV2KuxVzKGBVgCpFCDuCDiRasS178u&#xA;9LvuU1hSyuTvxUfumPuo+z/sfuzR6zsPHk3h6JfZ+z4NE8APLZh9r+WGs3usLb34+rWMG81wpDcw&#xA;eixe5p3G3fwzD0PZWSJMZ7C+f6nE/KylLfk9V07TrLTrOKzsohDbwiiIv6z4k9znSwgIChydhGIi&#xA;KCIybJ2KuxV2KuxV2KuxV2KuxV2KuxV2KuxV2KuxV2KuxV2KuxV2KuxV2KuxV2KuxV2KuxV2KuxV&#xA;2KuxV2KuxV2KuxV2KuxV2KuxV2KuxV2KuxV2KuxV2KuxV2KuxV2KuxV2KuxV2KuxV2KuxV2KuxV2&#xA;KuxV2KuxV2KuxV2KuxV2KuxV2KuxV2KuxV2KuxV2KuxV2KuxV2KuxV2KuxV2KuxV2KuxV2KuxV2K&#xA;uxV2KuxV2KuxV2KuxV2KuxV2KuxV2KuxV2KuxV2KuxV2KuxV2KuxV2KuxV2KuxV2KuxV2KuxV2Ku&#xA;xV2KpcvmPQG1c6Muo251UCpshIvq7DlThWteO9OtN8VTHFXYq7FXYq7FXYq7FXYq7FXYq7FXYq7F&#xA;XYq7FXYq7FXYq7FXYq7FXYq7FXYqw/8AN7zlc+TPy213zJaKrXljAq2vIVUTTyJBEzDuFeUMR3xV&#xA;8t/k7+UN/wDnYNW80ecvMl7IttcfVkCsJJ2lKrIxrLyWOMBgFVV+VKYq+jvyg/JbTPyybV003Vbr&#xA;ULXVPq3GG6CVhNv6tSpTiDz9bf4R074qjPP352flx5EuVs/MGqBNRdQ40+3R55wp6M6oCEB7cyK9&#xA;sVb8gfnV+XXny4ktPL2p+pqESmR7CeN4J+ANCyq4AcDvwJp3xVMNf/M3ydoHmvSvKuqXjQazrQU6&#xA;fD6blH9RzGtZAOC1dabnFUjT/nIH8qpvMw8uWesfXdRIl5NbRSSQD0I2lcesF4NRYz9gnFWP6C/5&#xA;T6v+ZcOs6fqV5Lq91M00Nk0brCZ+BJbkyA0oCacuvttir13UNRstPtmur2ZYIE6u3iewA3J9hiqR&#xA;235h+Vp5xD9ZaMsaK8iMqH6e304qyNpEVC7MAgFSxO1PGuKpa3mPSlfj6jN/lBTTFUwgninhWaJu&#xA;Ub7qaEe3fFV+KuxV2KuxV2KuxV2KuxV2KuxV2KuxV2KuxV2KuxV2KuxV2KpF568pWXm/yhqvlq9Y&#xA;xwanAYvVAqY3BDRyAd+Eiq1PbFXxQIfzm/5x98zPMqGOxuXCNLQzaZfKlSoJ+GjAE0+zIPlir6k/&#xA;Kr8+fL/n7yvqGpRQNZ6vo8DT6npRbkQqqWDxPQc0bjTpUHY9iVXzJ+RnmbydqX5s6n5t/My+tqvD&#xA;NdQNfDnE15LIirRSGH7uMtwWm21OmKrvP3mLyVov/OQGj+Y/y+uLcaUs1nczmxBSASNIUuYwqgUE&#xA;kf2gB+0cVZD/AM5rO8f5haBJGxR00tWR1NCCLmUggjFXuf5Zf84/flt5Z03RtSXShc+YIbdHn1Ka&#xA;SV2aaWHjLSPn6QUh2ULx6eJ3xVhul29vbf8AOQQgt4khhjvZRHFGoVVHoNsFFAMVZr+ZV+1z5ig0&#xA;+RylrbKnLwDS7s//AANMVRHnWfydNocaaW9ubu3ZFiEQo3p7ggmm/jviqbaFc3N75Cg6u8BMb9yU&#xA;jY0+5afdiqN0C80pITBcoolZq+o6ggg9BU9MVZLFHHGgSNQqD7KqKAV32piq7FXYq7FXYq7FXYq7&#xA;FXYq7FXYq7FXYq7FXYq7FXYq7FXYq7FUHq+saTo2nyajq15Dp+nwlBNd3MixRJ6jiNObuQq1dgNz&#xA;irFvOnnP8qZfKWof4i1bTLzQpoHFxB68M3qgAnjEisS0lR8HHfl0xV8uf84feX7/AFTzj5jdC8en&#xA;HRJ7K7mUVHO7kjES796Ruw/1cVSP8h7byVov5o33l78y7C0ETRTWI/SaoYYL2KVSOZk+FOQRlDH2&#xA;8cVfUzeT/wDnHO2u7SI6f5aju7maOGyiH1X1ZJ3YLGkSg8mYsRQDFXgf/ObX/Kf6F/2yh/1Ey4q+&#xA;wNJ/45Vl/wAYIv8AiAxV4NZ/+tEN/wAx0v8A1DtirLvzJtHtvM0V7InOC4RGAPQmP4WT7gPvxVmN&#xA;tZeQbm1S6jgsfRdeVWEakezA9CMVTawOjW9jGbEwRWUjH0zGVEbMa1oRsemKpP5is9NjjSaAqszt&#xA;QohFCKdaDpiqa+X3kbSojJvTkFJ/lBoMVTHFXYq7FXYq7FXYq7FXYq7FXYq7FXYq7FXYq7FXYq7F&#xA;XYq7FUn83+U9E83eXbzy9rkTT6XfBBcRo7RsfSkWVCHQgijxqcVeTp/zh3+T63AlP6SZK19A3S8K&#xA;eFRGHp/ssVereUfJflfyhpC6T5c0+PT7FTzZI6lnegBeR2LO7UHViTirGPzA/Ij8tfPd5+kNb05k&#xA;1QqEbUbSRoJmUCg50qj0AoC6kjp0xVI/K3/OLX5T+XdZs9Yt4L27vtPnjurNrm5Yqk0LB434xCLl&#xA;xZQaNUeNcVT78xPyP8h/mBqltqfmKK4kurSD6tCYJjEvp82fcAGpq5xVnkEKQQRwx/YiUItdzRRQ&#xA;YqxmP8tvLEfms+aFSX9LGRpuXqHhyZSh+D5HFU+1PStP1O2NtfQrNCTUA1BB8VIoQflirHv+VY+W&#xA;efL9/T+T1Nv1V/HFU9TQ9NTTotOSMrawGsSBmJB37kk/tHFVFPLOlqwJDuP5Wbb8KYqmiIiIEQBV&#xA;UUVRsABireKuxV2KuxV2KuxV2KuxV2KuxV2KuxV2KuxV2KuxV2KuxV2KqV1dW9rA09w4jiSnJz7m&#xA;g/HKdRqIYYGczUQzx45TlwxFlj8/nNBOBDb84B1ZjRj8utM4nP7bRGSseO8fmaJ93d+OTtIdlHh3&#xA;O6a6Xrun6k0kdu59aIBpYmG6hq0rTbemdR2X2vi1seKFgjmCPwC4Wo0k8VGXI9UwzaOKxO+88XsO&#xA;oatbWujveQ6Nwa8mSZFIR0L8gjCpoFOwxVkemajb6lp1vf2xJguY1kjrsQGFaH3HQ4ql8Wt3D+bp&#xA;9FMafV4rJboSb8yzScKdaUpiqbyzRQxNLM6xxICzyOQqqB1JJ2GKoax1jSb9mWwvbe7ZBVxBKkhU&#xA;HpXgTTFURcXENvC887iOKMcndugAxVC6XrFjqcAltZFY9WiqOaipA5KCaVpireqagtlAH+EyOQsa&#xA;MafM/IYqr2ryvAryFGZt+URJQjtQnFV7SxIQHdVJ6AkDFV2KuxV2KuxV2KuxV2KuxV2KuxV2KuxV&#xA;2KuxV2KuxV2KuxVJ/N8DT+XL6NQWYorADckq6t2+WantzHx6PIPL7iC5/Zk+HURP45PKb2XULGyb&#xA;96VY0HHrxB988yjpRxDiG72URDJLkyT8oFkM+qSsGKlYhzNaFqsaV8c7b2ZjvPu2/S6b2iIqA9/6&#xA;HpWda8u83isNd1DzV5wstMnt7eK5NtFeTTK7uEeF1/dBSBWhPXFWe6RpkOl6Xa6fAS0VrGsas3U8&#xA;RuTTx64qkFv/AOTNu/8AtlR/8n8VTbzPqcGl6Be389uLqKGP4rciofkQoVtm2q2+3TFWHaQ1yfzA&#xA;017hLKGebTpHeKwDBQjHkokJ2Y4qz7UEV7G4UqGBjb4SK9jiqV+TkiHl60dVUOytzYAVNHbqcVV/&#xA;MCqbaAkAn10H0GuKpoAAAAKAdAMVQIWJnu/VoWHSvYU2piqIs+X1WPl1p+HbFVbFXYq7FXYq7FXY&#xA;q7FXYq7FXYq7FXYq7FXYq7FXYq7FXEAih3B6jFWO6x5G0XU2VmDwDkGkWIgKwBqRQ14/Rmk1PYGn&#xA;yzEhce+uR/V8HaabtbLiFc/endjY2djbJa2cSwwRiiRqKD+0+5zb4sMccRGAqIdflyyyS4pGyVfL&#xA;GtDW+m2NtdXN3BCsdzeFTcyjq5QELX5A4qicVQ66fZLfNfiFRePGIWn/AGjGDyC/KuKqs8EFxC8E&#xA;8aywyArJG4DKynqCDsRiqX6f5Z0DTpVmsbCG3lXlxkjUBvjADb9e2KpniqGs9L0+yaRrS3SBpftl&#xA;BStMVVpoIZlCyqHVSGAPiOhxVfiqx7eGRuToGI7nFV+KuxV2KuxV2KuxV2KuxV2KuxV2KuxV2Kux&#xA;V2KuxV2KuxV2KuxV2KuxV2KuxV2KuxV2KuxV2KuxV2KuxV2KuxV2KuxV2KuxV2KuxV2KuxV2KuxV&#xA;2KuxV2KuxV2KuxV2KuxV2KuxV2KuxV2KuxV2KuxV2KuxV2KuxV2KuxV2KuxV2KuxV2KuxV2KuxV2&#xA;KuxV/9k=</xapGImg:image>
    </rdf:li>
   </rdf:Alt>
  </xap:Thumbnails>
 </rdf:Description>

 <rdf:Description rdf:about=''
  xmlns:dc='http://purl.org/dc/elements/1.1/'>
  <dc:format>image/svg+xml</dc:format>
 </rdf:Description>

</rdf:RDF>
</x:xmpmeta>
                                                                                                                                                                                                                                                                                                                                                                                                                                                                                                                                                                                                                                                                                                                                                                                                                                                                                                                                                                                                                                                                                                                                                                                                                                                                                                                                                                                                                                                                                                                                                                                                                                                                                                                                                                                                                                                                                                                                                                                                                                                                                                                                <?xpacket end='w'?>
			</metadata>
		<g id="_x30_1">
			<rect fill="none" width="352" height="352"/> 
		</g>
		<g id="_x32_0">
			<path d="M82.136,289.623c-2.612,0-5.184-0.329-7.715-0.984v-4.279c2.772,0.754,5.231,1.131,7.378,1.131
				c2.035,0,3.625-0.457,4.771-1.37s1.718-2.211,1.718-3.894c0-1.586-0.473-2.832-1.418-3.738c-0.945-0.904-2.7-2.086-5.263-3.545
				c-2.804-1.569-4.695-3.151-5.672-4.746c-0.978-1.594-1.466-3.408-1.466-5.442c0-3.237,1.085-5.668,3.257-7.295
				c2.171-1.626,5.003-2.438,8.496-2.438c2.532,0,4.863,0.24,6.994,0.722v4.183c-2.259-0.514-4.358-0.771-6.297-0.771
				c-1.762,0-3.172,0.418-4.229,1.25c-1.058,0.834-1.586,1.988-1.586,3.462c0,1.426,0.46,2.567,1.382,3.425
				c0.922,0.857,2.496,1.902,4.723,3.137c3.076,1.715,5.135,3.373,6.177,4.975c1.041,1.603,1.562,3.404,1.562,5.408
				c0,3.604-1.069,6.309-3.208,8.11C89.601,288.723,86.398,289.623,82.136,289.623z"/>
			<path d="M119.364,288.396c-2.692,0.816-5.488,1.227-8.388,1.227c-4.198,0-7.346-1.21-9.445-3.629
				c-2.099-2.42-3.148-6.049-3.148-10.889c0-4.276,1.03-7.742,3.088-10.395c2.059-2.65,4.931-3.979,8.616-3.979
				c3.396,0,5.98,1.127,7.75,3.377c1.77,2.252,2.656,6.414,2.656,12.486h-15.309c0,3.012,0.577,5.271,1.73,6.776
				s2.884,2.259,5.191,2.259c1.923,0,4.342-0.408,7.258-1.227L119.364,288.396L119.364,288.396z M105.184,273.04h8.892
				c0-3.302-0.353-5.576-1.057-6.826c-0.705-1.249-1.73-1.874-3.077-1.874c-1.506,0-2.651,0.674-3.437,2.02
				C105.719,267.705,105.28,269.932,105.184,273.04z"/>
			<path d="M125.805,289.238v-28.096h3.797l1.273,4.662c0.785-1.634,1.867-2.863,3.245-3.689c1.378-0.824,3.052-1.236,5.023-1.236
				c0.513,0,0.889,0.016,1.129,0.049v5.383c-0.897-0.063-1.554-0.097-1.971-0.097c-2.163,0-3.701,0.478-4.614,1.431
				s-1.37,2.527-1.37,4.724v16.87H125.805L125.805,289.238z"/>
			<path opacity="0.65" enable-background="new    " d="M145.104,289.238v-24.273h-3.101v-3.82h9.589v28.094H145.104
				L145.104,289.238z M148.348,257.635c-1.057,0-1.918-0.297-2.583-0.89s-0.997-1.378-0.997-2.354c0-0.978,0.332-1.764,0.997-2.355
				s1.526-0.889,2.583-0.889c1.025,0,1.883,0.305,2.572,0.912c0.689,0.608,1.033,1.387,1.033,2.332c0,0.992-0.336,1.781-1.009,2.366
				C150.271,257.342,149.405,257.635,148.348,257.635z"/>
			<path opacity="0.4" enable-background="new    " d="M178.197,288.396c-2.692,0.816-5.488,1.227-8.388,1.227
				c-4.198,0-7.346-1.21-9.445-3.629c-2.099-2.42-3.148-6.049-3.148-10.889c0-4.276,1.029-7.742,3.088-10.395
				c2.059-2.65,4.931-3.979,8.616-3.979c3.396,0,5.98,1.127,7.75,3.377c1.771,2.252,2.656,6.414,2.656,12.486h-15.31
				c0,3.012,0.577,5.271,1.73,6.776c1.153,1.506,2.884,2.259,5.191,2.259c1.923,0,4.342-0.408,7.258-1.227v3.992H178.197z
				 M164.018,273.04h8.893c0-3.302-0.353-5.576-1.058-6.826c-0.705-1.249-1.73-1.874-3.076-1.874c-1.506,0-2.652,0.674-3.437,2.02
				C164.555,267.705,164.114,269.932,164.018,273.04z"/>
			<path opacity="0.2" enable-background="new    " d="M190.693,289.623c-2.402,0-4.989-0.329-7.762-0.984v-4.184
				c2.739,0.834,4.998,1.25,6.776,1.25c1.649,0,2.894-0.324,3.726-0.975c0.834-0.647,1.25-1.621,1.25-2.92
				c0-0.769-0.231-1.484-0.697-2.149c-0.465-0.665-1.777-1.542-3.94-2.632c-1.458-0.754-2.624-1.446-3.497-2.079
				c-0.873-0.634-1.599-1.454-2.175-2.464c-0.577-1.01-0.865-2.268-0.865-3.772c0-2.5,0.921-4.454,2.765-5.864
				c1.843-1.41,4.205-2.115,7.09-2.115c2.498,0,4.773,0.313,6.824,0.938v3.989c-2.002-0.688-3.916-1.033-5.744-1.033
				c-1.488,0-2.604,0.305-3.34,0.913s-1.104,1.522-1.104,2.739c0,0.642,0.22,1.242,0.66,1.804s1.702,1.354,3.784,2.379
				c2.916,1.427,4.768,2.82,5.553,4.183c0.785,1.361,1.178,2.867,1.178,4.519c0,2.788-0.896,4.896-2.691,6.319
				C196.688,288.91,194.092,289.623,190.693,289.623z"/>
			<path fill="#808080" d="M112.728,302.891h4.747c1.875,0,3.24,0.438,4.098,1.316c0.857,0.876,1.286,2.284,1.286,4.223
				c0,1.899-0.515,3.357-1.544,4.375c-1.029,1.018-2.497,1.525-4.404,1.525h-1.598v6.479h-2.584L112.728,302.891L112.728,302.891z
				 M115.312,304.607v7.979h1.454c1.169,0,2.031-0.312,2.583-0.931c0.553-0.622,0.829-1.674,0.829-3.155s-0.254-2.501-0.763-3.06
				c-0.509-0.555-1.304-0.834-2.385-0.834H115.312L115.312,304.607z"/>
			<rect x="135.898" y="301.786" fill="#808080" width="2.56" height="19.022"/> 
			<path fill="#808080" d="M159.537,318.788c-0.865,1.476-2.211,2.212-4.038,2.212c-1.273,0-2.265-0.359-2.974-1.074
				c-0.709-0.72-1.063-1.722-1.063-3.012c0-1.33,0.365-2.322,1.094-2.975c0.729-0.653,1.602-1.063,2.62-1.226
				c1.017-0.166,2.255-0.247,3.713-0.247v-1.646c0-1.625-0.869-2.438-2.607-2.438c-1.001,0-2.223,0.214-3.665,0.638v-1.791
				c1.45-0.399,2.828-0.601,4.134-0.601c1.538,0,2.706,0.369,3.503,1.112c0.797,0.738,1.195,1.83,1.195,3.273v9.793h-1.394
				L159.537,318.788z M158.888,313.994h-1.43c-1.146,0-2.005,0.242-2.578,0.727c-0.573,0.485-0.859,1.209-0.859,2.17
				c0,0.785,0.174,1.371,0.523,1.762c0.348,0.387,0.871,0.582,1.568,0.582c0.881,0,1.564-0.28,2.049-0.842
				c0.485-0.562,0.727-1.322,0.727-2.283V313.994z"/>
			<path opacity="0.65" fill="#808080" enable-background="new    " d="M181.83,320.566c-1.074,0.289-2.083,0.434-3.028,0.434
				c-1.09,0-1.887-0.256-2.392-0.764c-0.505-0.51-0.757-1.319-0.757-2.434v-9.302h-1.838v-0.961l3.737-3.81h0.661v3.101h3.4v1.67
				h-3.4v8.882c0,0.76,0.124,1.262,0.372,1.508c0.248,0.244,0.625,0.365,1.13,0.365c0.521,0,1.227-0.115,2.115-0.349V320.566
				L181.83,320.566z"/>
			<path opacity="0.4" fill="#808080" enable-background="new    " d="M198.402,301.594c0.81,0,1.595,0.096,2.354,0.287v1.742
				c-0.753-0.24-1.382-0.359-1.887-0.359c-0.802,0-1.306,0.254-1.515,0.762c-0.209,0.511-0.313,1.445-0.313,2.808h2.561v1.67h-2.561
				v12.306h-2.561v-12.306h-1.693v-1.67h1.693c0-2.123,0.324-3.526,0.975-4.211C196.107,301.936,197.089,301.594,198.402,301.594
				L198.402,301.594z"/>
			<path opacity="0.2" fill="#808080" enable-background="new    " d="M216.611,321c-1.883,0-3.293-0.617-4.229-1.852
				c-0.938-1.233-1.405-3.084-1.405-5.551c0-2.148,0.485-3.847,1.459-5.097c0.975-1.249,2.367-1.874,4.178-1.874
				c1.826,0,3.222,0.616,4.187,1.852c0.966,1.232,1.449,2.955,1.449,5.166c0,2.275-0.451,4.069-1.353,5.385
				C219.994,320.344,218.566,321,216.611,321z M216.611,319.354c0.986,0,1.729-0.445,2.229-1.34c0.501-0.893,0.752-2.39,0.752-4.488
				c0-1.481-0.256-2.726-0.769-3.731c-0.513-1.004-1.25-1.507-2.212-1.507c-0.978,0-1.719,0.451-2.223,1.357
				c-0.506,0.904-0.758,2.199-0.758,3.881c0,1.892,0.252,3.334,0.758,4.332C214.895,318.854,215.635,319.354,216.611,319.354z"/>
			<g>
				<polygon fill="#FFCC00" points="83.551,301.553 74.234,306.654 84.862,311.665 93.57,305.768 "/>
				<polygon fill="#FF9900" points="74.234,306.654 75.357,318.456 85.331,323.65 84.862,311.665 "/>
				
					<linearGradient id="XMLID_95_" gradientUnits="userSpaceOnUse" x1="-47.1431" y1="278.7324" x2="-37.1689" y2="278.7324" gradientTransform="matrix(1 0 0 -1 122.5 596.3906)">
					<stop  offset="0" style="stop-color:#FFCC66"/>
					<stop  offset="1" style="stop-color:#FF9900"/>
					<a:midPointStop  offset="0" style="stop-color:#FFCC66"/>
					<a:midPointStop  offset="0.5" style="stop-color:#FFCC66"/>
					<a:midPointStop  offset="1" style="stop-color:#FF9900"/>
				</linearGradient>
				<polygon fill="url(#XMLID_95_)" points="75.357,318.456 85.331,323.65 84.862,311.665 "/>
				<polygon fill="#F27C0E" points="93.57,305.768 84.862,311.665 85.331,323.65 93.57,317.564 "/>
			</g>
			<g>
				<polygon fill="#ABDD99" points="176.811,84.505 148.321,102.182 181.396,117.244 208.896,97.272 "/>
				<polygon fill="#46AB48" points="148.321,102.182 150.291,142.135 181.721,157.521 181.396,117.244 "/>
				<polygon fill="#16923B" points="208.896,97.272 181.396,117.244 181.721,157.521 208.245,134.602 "/>
			</g>
			<g>
				<polygon fill="#FF6699" points="145.842,103.821 115.717,121.831 150.423,140.17 179.566,119.212 "/>
				<polygon fill="#FF0066" points="150.423,140.17 115.717,121.831 119.646,166.366 152.395,184.371 "/>
				<polygon fill="#BE0151" points="179.566,119.212 150.423,140.17 152.395,184.371 179.896,159.818 "/>
			</g>
			<g>
				<polygon fill="#F5F661" points="250.023,114.932 212.693,99.54 185.518,119.518 222.518,136.871 "/>
				<polygon fill="#FFF500" points="185.518,119.518 185.846,160.119 222.193,178.786 222.518,136.871 "/>
				<polygon fill="#FFCC00" points="222.518,136.871 222.193,178.786 248.391,154.223 250.023,114.932 "/>
			</g>
			<g>
				<polygon fill="#BFE230" points="153.919,143.233 183.227,122.111 220.314,139.299 191.896,163.205 "/>
				<polygon fill="#84C322" points="153.919,143.233 155.552,187.436 191.572,207.083 191.896,163.205 "/>
				<polygon fill="#5DAA3B" points="191.896,163.205 191.572,207.083 219.734,181.211 220.314,139.299 "/>
			</g>
			<g opacity="0.65">
				<polygon fill="#99FF66" points="147.897,58.767 176.792,42.482 210.77,55.167 182.688,73.26 "/>
				<polygon fill="#66CC33" points="147.897,58.767 148.881,99.045 182.277,114.76 182.688,73.26 "/>
				<polygon fill="#669900" points="182.688,73.26 182.277,114.76 209.783,94.787 210.77,55.167 "/>
			</g>
			<g opacity="0.2">
				<polygon fill="#CC66FF" points="185.191,74.515 222.688,91.457 251.824,70.171 212.861,56.423 "/>
				<polygon fill="#6F348E" points="222.927,91.133 221.895,133.763 249.195,111.758 251.742,70.171 "/>
				<polygon fill="#9933CC" points="184.781,74.515 184.287,116.015 221.895,133.763 222.927,91.133 "/>
			</g>
			<g>
				<polygon fill="#FFCC00" points="184.563,79.017 151.989,96.863 189.143,114.38 219.594,93.751 "/>
				<polygon fill="#FF9900" points="151.989,96.863 155.913,138.121 190.781,156.291 189.143,114.38 "/>
				
					<linearGradient id="XMLID_96_" gradientUnits="userSpaceOnUse" x1="33.4131" y1="461.0547" x2="68.2813" y2="461.0547" gradientTransform="matrix(1 0 0 -1 122.5 596.3906)">
					<stop  offset="0" style="stop-color:#FFCC66"/>
					<stop  offset="1" style="stop-color:#FF9900"/>
					<a:midPointStop  offset="0" style="stop-color:#FFCC66"/>
					<a:midPointStop  offset="0.5" style="stop-color:#FFCC66"/>
					<a:midPointStop  offset="1" style="stop-color:#FF9900"/>
				</linearGradient>
				<polygon fill="url(#XMLID_96_)" points="155.913,138.121 190.781,156.291 189.143,114.38 "/>
				<polygon fill="#F27C0E" points="219.594,93.751 189.143,114.38 190.781,156.291 219.594,135.004 "/>
			</g>
		</g>
	</svg>
