<svg width="100%" height="100%" viewBox="0 0 352 352" preserveAspectRatio="none" xmlns:a="http://www.adobe.com/svg10-extensions" xmlns:xlink="http://www.w3.org/1999/xlink" xmlns="http://www.w3.org/2000/svg">
<defs>
<radialGradient id="shape14grad" gradientUnits="userSpaceOnUse" r="38.014" cx="257.431" cy="44.786">
<stop offset="0.441" stop-color="#007176">
<animate attributeName="stop-color" values="#007176;#007176;#FEFEFE;#007176;#007176;#007176" fill="freeze" keyTimes="0;0.084;0.171;0.25;0.417;1" begin="3s" dur="2.40s" repeatCount="indefinite" />
</stop>
<stop offset="0.787" stop-color="#00FFFF">
<animate attributeName="stop-color" values="#00FFFF;#00FFFF;#7CFFFF;#00FFFF;#00FFFF;#00FFFF" fill="freeze" keyTimes="0;0.084;0.171;0.25;0.417;1" begin="3s" dur="2.40s" repeatCount="indefinite" />
</stop>
<stop offset="1" stop-color="#1038B6">
<animate attributeName="stop-color" values="#1038B6;#1038B6;#00FFFF;#1038B6;#1038B6;#1038B6" fill="freeze" keyTimes="0;0.084;0.171;0.25;0.417;1" begin="3s" dur="2.40s" repeatCount="indefinite" />
</stop>
</radialGradient>
<radialGradient id="shape15grad" gradientUnits="userSpaceOnUse" r="47.802" cx="287.578" cy="46.388">
<stop offset="0.441" stop-color="#007176">
<animate attributeName="stop-color" values="#007176;#007176;#FEFEFE;#007176;#007176;#007176" fill="freeze" keyTimes="0;0.083;0.171;0.249;0.415;1" begin="2.80s" dur="2.41s" repeatCount="indefinite" />
</stop>
<stop offset="0.787" stop-color="#00FFFF">
<animate attributeName="stop-color" values="#00FFFF;#00FFFF;#7CFFFF;#00FFFF;#00FFFF;#00FFFF" fill="freeze" keyTimes="0;0.083;0.171;0.249;0.415;1" begin="2.80s" dur="2.41s" repeatCount="indefinite" />
</stop>
<stop offset="1" stop-color="#1038B6">
<animate attributeName="stop-color" values="#1038B6;#1038B6;#00FFFF;#1038B6;#1038B6;#1038B6" fill="freeze" keyTimes="0;0.083;0.171;0.249;0.415;1" begin="2.80s" dur="2.41s" repeatCount="indefinite" />
</stop>
</radialGradient>
<radialGradient id="shape16grad" gradientUnits="userSpaceOnUse" r="26.08" cx="310.265" cy="58.231">
<stop offset="0.441" stop-color="#007176">
<animate attributeName="stop-color" values="#007176;#007176;#FEFEFE;#007176;#007176;#007176" fill="freeze" keyTimes="0;0.083;0.171;0.249;0.415;1" begin="2.60s" dur="2.41s" repeatCount="indefinite" />
</stop>
<stop offset="0.787" stop-color="#00FFFF">
<animate attributeName="stop-color" values="#00FFFF;#00FFFF;#7CFFFF;#00FFFF;#00FFFF;#00FFFF" fill="freeze" keyTimes="0;0.083;0.171;0.249;0.415;1" begin="2.60s" dur="2.41s" repeatCount="indefinite" />
</stop>
<stop offset="1" stop-color="#1038B6">
<animate attributeName="stop-color" values="#1038B6;#1038B6;#00FFFF;#1038B6;#1038B6;#1038B6" fill="freeze" keyTimes="0;0.083;0.171;0.249;0.415;1" begin="2.60s" dur="2.41s" repeatCount="indefinite" />
</stop>
</radialGradient>
<radialGradient id="shape17grad" gradientUnits="userSpaceOnUse" r="45.221" cx="317.432" cy="97.185">
<stop offset="0.441" stop-color="#007176">
<animate attributeName="stop-color" values="#007176;#007176;#FEFEFE;#007176;#007176;#007176" fill="freeze" keyTimes="0;0.084;0.171;0.25;0.417;1" begin="2.40s" dur="2.40s" repeatCount="indefinite" />
</stop>
<stop offset="0.787" stop-color="#00FFFF">
<animate attributeName="stop-color" values="#00FFFF;#00FFFF;#7CFFFF;#00FFFF;#00FFFF;#00FFFF" fill="freeze" keyTimes="0;0.084;0.171;0.25;0.417;1" begin="2.40s" dur="2.40s" repeatCount="indefinite" />
</stop>
<stop offset="1" stop-color="#1038B6">
<animate attributeName="stop-color" values="#1038B6;#1038B6;#00FFFF;#1038B6;#1038B6;#1038B6" fill="freeze" keyTimes="0;0.084;0.171;0.25;0.417;1" begin="2.40s" dur="2.40s" repeatCount="indefinite" />
</stop>
</radialGradient>
<radialGradient id="shape18grad" gradientUnits="userSpaceOnUse" r="47.708" cx="294.431" cy="133.786">
<stop offset="0.441" stop-color="#007176">
<animate attributeName="stop-color" values="#007176;#007176;#FEFEFE;#007176;#007176;#007176" fill="freeze" keyTimes="0;0.083;0.171;0.249;0.415;1" begin="2.20s" dur="2.41s" />
</stop>
<stop offset="0.787" stop-color="#00FFFF">
<animate attributeName="stop-color" values="#00FFFF;#00FFFF;#7CFFFF;#00FFFF;#00FFFF;#00FFFF" fill="freeze" keyTimes="0;0.083;0.171;0.249;0.415;1" begin="2.20s" dur="2.41s" />
</stop>
<stop offset="1" stop-color="#1038B6">
<animate attributeName="stop-color" values="#1038B6;#1038B6;#00FFFF;#1038B6;#1038B6;#1038B6" fill="freeze" keyTimes="0;0.083;0.171;0.249;0.415;1" begin="2.20s" dur="2.41s" />
</stop>
</radialGradient>
<radialGradient id="shape19grad" gradientUnits="userSpaceOnUse" r="44.72" cx="313.382" cy="110.537">
<stop offset="0.441" stop-color="#007176">
<animate attributeName="stop-color" values="#007176;#007176;#FEFEFE;#007176;#007176;#007176" fill="freeze" keyTimes="0;0.084;0.171;0.25;0.417;1" begin="2s" dur="2.40s" repeatCount="indefinite" />
</stop>
<stop offset="0.787" stop-color="#00FFFF">
<animate attributeName="stop-color" values="#00FFFF;#00FFFF;#7CFFFF;#00FFFF;#00FFFF;#00FFFF" fill="freeze" keyTimes="0;0.084;0.171;0.25;0.417;1" begin="2s" dur="2.40s" repeatCount="indefinite" />
</stop>
<stop offset="1" stop-color="#1038B6">
<animate attributeName="stop-color" values="#1038B6;#1038B6;#00FFFF;#1038B6;#1038B6;#1038B6" fill="freeze" keyTimes="0;0.084;0.171;0.25;0.417;1" begin="2s" dur="2.40s" repeatCount="indefinite" />
</stop>
</radialGradient>
<radialGradient id="shape20grad" gradientUnits="userSpaceOnUse" r="32.894" cx="285.431" cy="97.786">
<stop offset="0.441" stop-color="#007176">
<animate attributeName="stop-color" values="#007176;#007176;#FEFEFE;#007176;#007176;#007176" fill="freeze" keyTimes="0;0.084;0.171;0.25;0.417;1" begin="1.80s" dur="2.40s" repeatCount="indefinite" />
</stop>
<stop offset="0.787" stop-color="#00FFFF">
<animate attributeName="stop-color" values="#00FFFF;#00FFFF;#7CFFFF;#00FFFF;#00FFFF;#00FFFF" fill="freeze" keyTimes="0;0.084;0.171;0.25;0.417;1" begin="1.80s" dur="2.40s" repeatCount="indefinite" />
</stop>
<stop offset="1" stop-color="#1038B6">
<animate attributeName="stop-color" values="#1038B6;#1038B6;#00FFFF;#1038B6;#1038B6;#1038B6" fill="freeze" keyTimes="0;0.084;0.171;0.25;0.417;1" begin="1.80s" dur="2.40s" repeatCount="indefinite" />
</stop>
</radialGradient>
<radialGradient id="shape21grad" gradientUnits="userSpaceOnUse" r="52.346" cx="249.431" cy="129.786">
<stop offset="0.441" stop-color="#007176">
<animate attributeName="stop-color" values="#007176;#007176;#FEFEFE;#007176;#007176;#007176" fill="freeze" keyTimes="0;0.083;0.171;0.249;0.415;1" begin="1.60s" dur="2.41s" repeatCount="indefinite" />
</stop>
<stop offset="0.787" stop-color="#00FFFF">
<animate attributeName="stop-color" values="#00FFFF;#00FFFF;#7CFFFF;#00FFFF;#00FFFF;#00FFFF" fill="freeze" keyTimes="0;0.083;0.171;0.249;0.415;1" begin="1.60s" dur="2.41s" repeatCount="indefinite" />
</stop>
<stop offset="1" stop-color="#1038B6">
<animate attributeName="stop-color" values="#1038B6;#1038B6;#00FFFF;#1038B6;#1038B6;#1038B6" fill="freeze" keyTimes="0;0.083;0.171;0.249;0.415;1" begin="1.60s" dur="2.41s" repeatCount="indefinite" />
</stop>
</radialGradient>
<radialGradient id="shape22grad" gradientUnits="userSpaceOnUse" r="46.641" cx="214.281" cy="146.786">
<stop offset="0.441" stop-color="#007176">
<animate attributeName="stop-color" values="#007176;#007176;#FEFEFE;#007176;#007176;#007176" fill="freeze" keyTimes="0;0.083;0.171;0.249;0.415;1" begin="1.40s" dur="2.41s" repeatCount="indefinite" />
</stop>
<stop offset="0.787" stop-color="#00FFFF">
<animate attributeName="stop-color" values="#00FFFF;#00FFFF;#7CFFFF;#00FFFF;#00FFFF;#00FFFF" fill="freeze" keyTimes="0;0.083;0.171;0.249;0.415;1" begin="1.40s" dur="2.41s" repeatCount="indefinite" />
</stop>
<stop offset="1" stop-color="#1038B6">
<animate attributeName="stop-color" values="#1038B6;#1038B6;#00FFFF;#1038B6;#1038B6;#1038B6" fill="freeze" keyTimes="0;0.083;0.171;0.249;0.415;1" begin="1.40s" dur="2.41s" repeatCount="indefinite" />
</stop>
</radialGradient>
<radialGradient id="shape23grad" gradientUnits="userSpaceOnUse" r="69.355" cx="147.431" cy="189.786">
<stop offset="0.441" stop-color="#007176">
<animate attributeName="stop-color" values="#007176;#007176;#FEFEFE;#007176;#007176;#007176" fill="freeze" keyTimes="0;0.083;0.171;0.249;0.415;1" begin="1.20s" dur="2.41s" repeatCount="indefinite" />
</stop>
<stop offset="0.787" stop-color="#00FFFF">
<animate attributeName="stop-color" values="#00FFFF;#00FFFF;#7CFFFF;#00FFFF;#00FFFF;#00FFFF" fill="freeze" keyTimes="0;0.083;0.171;0.249;0.415;1" begin="1.20s" dur="2.41s" repeatCount="indefinite" />
</stop>
<stop offset="1" stop-color="#1038B6">
<animate attributeName="stop-color" values="#1038B6;#1038B6;#00FFFF;#1038B6;#1038B6;#1038B6" fill="freeze" keyTimes="0;0.083;0.171;0.249;0.415;1" begin="1.20s" dur="2.41s" repeatCount="indefinite" />
</stop>
</radialGradient>
<radialGradient id="shape24grad" gradientUnits="userSpaceOnUse" r="76.008" cx="102.43" cy="256.786">
<stop offset="0.441" stop-color="#007176">
<animate attributeName="stop-color" values="#007176;#007176;#FEFEFE;#007176;#007176;#007176" fill="freeze" keyTimes="0;0.083;0.171;0.249;0.415;1" begin="1s" dur="2.41s" repeatCount="indefinite" />
</stop>
<stop offset="0.787" stop-color="#00FFFF">
<animate attributeName="stop-color" values="#00FFFF;#00FFFF;#7CFFFF;#00FFFF;#00FFFF;#00FFFF" fill="freeze" keyTimes="0;0.083;0.171;0.249;0.415;1" begin="1s" dur="2.41s" repeatCount="indefinite" />
</stop>
<stop offset="1" stop-color="#1038B6">
<animate attributeName="stop-color" values="#1038B6;#1038B6;#00FFFF;#1038B6;#1038B6;#1038B6" fill="freeze" keyTimes="0;0.083;0.171;0.249;0.415;1" begin="1s" dur="2.41s" repeatCount="indefinite" />
</stop>
</radialGradient>
<radialGradient id="shape25grad" gradientUnits="userSpaceOnUse" r="109.402" cx="102.431" cy="251.786">
<stop offset="0.441" stop-color="#007176">
<animate attributeName="stop-color" values="#007176;#007176;#FEFEFE;#007176;#007176;#007176" fill="freeze" keyTimes="0;0.083;0.171;0.249;0.415;1" begin="0.80s" dur="2.41s" repeatCount="indefinite" />
</stop>
<stop offset="0.787" stop-color="#00FFFF">
<animate attributeName="stop-color" values="#00FFFF;#00FFFF;#7CFFFF;#00FFFF;#00FFFF;#00FFFF" fill="freeze" keyTimes="0;0.083;0.171;0.249;0.415;1" begin="0.80s" dur="2.41s" repeatCount="indefinite" />
</stop>
<stop offset="1" stop-color="#1038B6">
<animate attributeName="stop-color" values="#1038B6;#1038B6;#00FFFF;#1038B6;#1038B6;#1038B6" fill="freeze" keyTimes="0;0.083;0.171;0.249;0.415;1" begin="0.80s" dur="2.41s" repeatCount="indefinite" />
</stop>
</radialGradient>
<radialGradient id="shape26grad" gradientUnits="userSpaceOnUse" r="96.318" cx="75.431" cy="144.786">
<stop offset="0.441" stop-color="#007176">
<animate attributeName="stop-color" values="#007176;#007176;#FEFEFE;#007176;#007176;#007176" fill="freeze" keyTimes="0;0.083;0.171;0.249;0.415;1" begin="0.60s" dur="2.41s" repeatCount="indefinite" />
</stop>
<stop offset="0.787" stop-color="#00FFFF">
<animate attributeName="stop-color" values="#00FFFF;#00FFFF;#7CFFFF;#00FFFF;#00FFFF;#00FFFF" fill="freeze" keyTimes="0;0.083;0.171;0.249;0.415;1" begin="0.60s" dur="2.41s" repeatCount="indefinite" />
</stop>
<stop offset="1" stop-color="#1038B6">
<animate attributeName="stop-color" values="#1038B6;#1038B6;#00FFFF;#1038B6;#1038B6;#1038B6" fill="freeze" keyTimes="0;0.083;0.171;0.249;0.415;1" begin="0.60s" dur="2.41s" repeatCount="indefinite" />
</stop>
</radialGradient>
<radialGradient id="shape27grad" gradientUnits="userSpaceOnUse" r="68.861" cx="111.455" cy="147.786">
<stop offset="0.441" stop-color="#007176">
<animate attributeName="stop-color" values="#007176;#007176;#FEFEFE;#007176;#007176;#007176" fill="freeze" keyTimes="0;0.083;0.171;0.249;0.415;1" begin="0.40s" dur="2.41s" repeatCount="indefinite" />
</stop>
<stop offset="0.787" stop-color="#00FFFF">
<animate attributeName="stop-color" values="#00FFFF;#00FFFF;#7CFFFF;#00FFFF;#00FFFF;#00FFFF" fill="freeze" keyTimes="0;0.083;0.171;0.249;0.415;1" begin="0.40s" dur="2.41s" repeatCount="indefinite" />
</stop>
<stop offset="1" stop-color="#1038B6">
<animate attributeName="stop-color" values="#1038B6;#1038B6;#00FFFF;#1038B6;#1038B6;#1038B6" fill="freeze" keyTimes="0;0.083;0.171;0.249;0.415;1" begin="0.40s" dur="2.41s" repeatCount="indefinite" />
</stop>
</radialGradient>
<radialGradient id="shape28grad" gradientUnits="userSpaceOnUse" r="130.385" cx="154.431" cy="227.786">
<stop offset="0.441" stop-color="#007176">
<animate attributeName="stop-color" values="#007176;#007176;black;#FEFEFE;#007176;black;#007176" fill="freeze" keyTimes="0;0.083;0.088;0.171;0.249;0.415;1" begin="0.20s" dur="2.41s" repeatCount="indefinite" />
</stop>
<stop offset="0.787" stop-color="#00FFFF">
<animate attributeName="stop-color" values="#00FFFF;#00FFFF;black;#7CFFFF;#00FFFF;black;#00FFFF" fill="freeze" keyTimes="0;0.083;0.088;0.171;0.249;0.415;1" begin="0.20s" dur="2.41s" repeatCount="indefinite" />
</stop>
<stop offset="1" stop-color="#1038B6">
<animate attributeName="stop-color" values="#1038B6;#1038B6;black;#00FFFF;#1038B6;black;#1038B6" fill="freeze" keyTimes="0;0.083;0.088;0.171;0.249;0.415;1" begin="0.20s" dur="2.41s" repeatCount="indefinite" />
</stop>
</radialGradient>
<radialGradient id="shape29grad" gradientUnits="userSpaceOnUse" r="208.195" cx="246.431" cy="414.786">
<stop offset="0.441" stop-color="#007176">
<animate attributeName="stop-color" values="#007176;black;#FEFEFE;#007176;black;#007176" fill="freeze" keyTimes="0;0.083;0.171;0.249;0.415;1" begin="0s" dur="2.41s" repeatCount="indefinite" />
</stop>
<stop offset="0.787" stop-color="#00FFFF">
<animate attributeName="stop-color" values="#00FFFF;black;#7CFFFF;#00FFFF;black;#00FFFF" fill="freeze" keyTimes="0;0.083;0.171;0.249;0.415;1" begin="0s" dur="2.41s" repeatCount="indefinite" />
</stop>
<stop offset="1" stop-color="#1038B6">
<animate attributeName="stop-color" values="#1038B6;black;#00FFFF;#1038B6;black;#1038B6" fill="freeze" keyTimes="0;0.083;0.171;0.249;0.415;1" begin="0s" dur="2.41s" repeatCount="indefinite" />
</stop>
</radialGradient>
<radialGradient id="shape31grad" gradientUnits="userSpaceOnUse" r="10" cx="0" cy="0">
<stop offset="0.055" stop-color="#F0EB8A">
<animate attributeName="offset" values="0.055;0;0.055" fill="freeze" keyTimes="0;0.513;1" begin="0s" dur="0.80s" repeatCount="indefinite" />
</stop>
<stop offset="0.232" stop-color="#7F802A">
<animate attributeName="offset" values="0.232;0.096;0.232" fill="freeze" keyTimes="0;0.513;1" begin="0s" dur="0.80s" repeatCount="indefinite" />
</stop>
<stop offset="0.614" stop-color="#2F1300">
<animate attributeName="offset" values="0.614;0.369;0.614" fill="freeze" keyTimes="0;0.513;1" begin="0s" dur="0.80s" repeatCount="indefinite" />
</stop>
<stop offset="1" stop-color="black" />
</radialGradient>
<circle transform="translate(78,158)" id="shape31" fill="url(#shape31grad)" fill-rule="evenodd" cx="0" cy="0" r="10">
</circle>
</defs>
<g>
<rect transform="translate(176.408,175.674) scale(1.5)" fill="black" fill-rule="evenodd" x="-176" y="-176" width="352" height="352" />
<g transform="translate(0,-14)">
<use transform="translate(76.801,-205.199) scale(0.401)" xlink:href="#shape31">
<animateTransform attributeName="transform" type="translate" additive="replace" values="108.001,-142;4.001,568.001" fill="freeze" keyTimes="0;1" begin="0.41s" dur="1s" repeatCount="indefinite" />
<animateTransform attributeName="transform" type="scale" additive="sum" values="0.401,0.401;1.201,1.201" fill="freeze" keyTimes="0;1" begin="0.41s" dur="1s" repeatCount="indefinite" />
<animateTransform attributeName="transform" type="translate" additive="sum" fill="freeze" values="-78,-158;-78,-158" begin="0.41s" />
</use>
<use transform="translate(189.4,-262.599) scale(0.7)" xlink:href="#shape31">
<animateTransform attributeName="transform" type="translate" additive="replace" values="244,-151.999;306.001,606" fill="freeze" keyTimes="0;1" begin="0.20s" dur="1.80s" repeatCount="indefinite" />
<animateTransform attributeName="transform" type="scale" additive="sum" values="0.7,0.7;1.201,1.201" fill="freeze" keyTimes="0;1" begin="0.20s" dur="1.80s" repeatCount="indefinite" />
<animateTransform attributeName="transform" type="translate" additive="sum" fill="freeze" values="-78,-158;-78,-158" begin="0.20s" />
</use>
<use transform="translate(102,-320)" xlink:href="#shape31">
<animateTransform attributeName="transform" type="translate" additive="replace" values="180,-161.999;212.001,594" fill="freeze" keyTimes="0;1" begin="0s" dur="1.41s" repeatCount="indefinite" />
<animateTransform attributeName="transform" type="scale" additive="sum" values="1,1;1.201,1.201" fill="freeze" keyTimes="0;1" begin="0s" dur="1.41s" repeatCount="indefinite" />
<animateTransform attributeName="transform" type="translate" additive="sum" fill="freeze" values="-78,-158;-78,-158" begin="0s" />
</use>
<use transform="translate(169.001,-208.999) scale(0.5)" xlink:href="#shape31">
<animateTransform attributeName="transform" type="translate" additive="replace" values="208.001,-129.999;226.001,552.001" fill="freeze" keyTimes="0;1" begin="1s" dur="3.01s" repeatCount="indefinite" />
<animateTransform attributeName="transform" type="scale" additive="sum" values="0.5,0.5;1.201,1.201" fill="freeze" keyTimes="0;1" begin="1s" dur="3.01s" repeatCount="indefinite" />
<animateTransform attributeName="transform" type="translate" additive="sum" fill="freeze" values="-78,-158;-78,-158" begin="1s" />
</use>
<use transform="translate(104,-236) scale(0.5)" xlink:href="#shape31">
<animateTransform attributeName="transform" type="translate" additive="replace" values="144,-155.999;124,582" fill="freeze" keyTimes="0;1" begin="0s" dur="5.41s" repeatCount="indefinite" />
<animateTransform attributeName="transform" type="scale" additive="sum" values="0.5,0.5;1,1" fill="freeze" keyTimes="0;1" begin="0s" dur="5.41s" repeatCount="indefinite" />
<animateTransform attributeName="transform" type="translate" additive="sum" fill="freeze" values="-79.999,-160;-79.999,-160" begin="0s" />
</use>
<use transform="translate(138.001,-313.999)" xlink:href="#shape31">
<animateTransform attributeName="transform" type="translate" additive="replace" values="216.001,-155.999;298,580" fill="freeze" keyTimes="0;1" begin="0.20s" dur="3.80s" repeatCount="indefinite" />
<animateTransform attributeName="transform" type="scale" additive="sum" values="1,1;1.201,1.201" fill="freeze" keyTimes="0;1" begin="0.20s" dur="3.80s" repeatCount="indefinite" />
<animateTransform attributeName="transform" type="translate" additive="sum" fill="freeze" values="-78,-158;-78,-158" begin="0.20s" />
</use>
<use transform="translate(28.4,460.4) scale(0.7)" xlink:href="#shape31">
<animateTransform attributeName="transform" type="translate" additive="replace" values="83.001,571;83.001,571" fill="freeze" keyTimes="0;1" begin="0.40s" dur="4.20s" repeatCount="indefinite" />
<animateTransform attributeName="transform" type="scale" additive="sum" values="0.7,0.7;1,1" fill="freeze" keyTimes="0;1" begin="0.40s" dur="4.20s" repeatCount="indefinite" />
<animateTransform attributeName="transform" type="translate" additive="sum" fill="freeze" values="-78,-158;-78,-158" begin="0.40s" />
</use>
<use transform="translate(99.4,-240.6) scale(0.7)" xlink:href="#shape31">
<animateTransform attributeName="transform" type="translate" additive="replace" values="154,-130;83.001,571" fill="freeze" keyTimes="0;1" begin="0.81s" dur="3.19s" repeatCount="indefinite" />
<animateTransform attributeName="transform" type="scale" additive="sum" values="0.7,0.7;1,1" fill="freeze" keyTimes="0;1" begin="0.81s" dur="3.19s" repeatCount="indefinite" />
<animateTransform attributeName="transform" type="translate" additive="sum" fill="freeze" values="-78,-158;-78,-158" begin="0.81s" />
</use>
</g>
<g id="Layer_1">
<path transform="translate(-17,0)" fill-opacity="0" display="none" fill="url(#shape14grad)" fill-rule="evenodd" d="M287.352,24.92C286.872,23.718,287.086,22.351,286.662,21.381C286.238,20.409,284.829,18.988,284.313,18.866C283.796,18.744,283.779,17.433,282.661,16.625C281.544,15.818,276.387,26.148,276.387,26.148C276.387,26.148,280.549,16.345,279.193,11.015C278.287,7.466,274.017,2.932,274.017,2.932C274.017,2.932,273.698,0.133,273.18,0.011C272.663,-0.111,272.264,0.665,271.109,6.494C270.185,11.149,269.821,15.722,269.683,19.077C269.293,18.282,268.732,17.388,268.176,17.16C268.374,15.148,268.475,13.286,268.229,12.242C267.922,10.949,265.382,7.213,265.293,6.212C265.201,5.21,265.336,3.718,264.54,3.858C262.84,4.155,263.025,11.507,264.057,15.616C264.659,18.015,266.394,22.9,267.179,24.825C267.251,26.52,267.729,28.833,269.057,31.827C270.873,35.917,276.138,38.831,276.936,38.151C277.095,38.014,277.131,37.704,277.077,37.271C277.747,37.791,278.384,38.045,278.94,37.97C280.403,37.77,282.886,36.939,284.745,35.526C286.602,34.113,287.898,30.932,288.117,30.003C288.334,29.073,287.831,26.122,287.352,24.92M274.7,29.847C274.685,29.799,274.671,29.75,274.658,29.705C274.767,29.525,274.873,29.344,274.976,29.157C274.878,29.393,274.784,29.625,274.7,29.847">
<animate attributeName="display" values="none;inline;none;none" fill="freeze" keyTimes="0;0.083;0.415;1" begin="3s" dur="2.41s" repeatCount="indefinite" calcMode="discrete" />
<animate attributeName="fill-opacity" values="0;0;1;0;0" fill="freeze" keyTimes="0;0.084;0.171;0.417;1" begin="3s" dur="2.40s" repeatCount="indefinite" />
<animateTransform attributeName="transform" type="translate" additive="replace" values="258.72,19.126;258.72,19.126;258.72,40.126;258.72,40.126" fill="freeze" keyTimes="0;0.084;0.417;1" begin="3s" dur="2.40s" repeatCount="indefinite" />
<animateTransform attributeName="transform" type="translate" additive="sum" fill="freeze" values="-275.719,-19.125;-275.719,-19.125" begin="3s" />
</path>
<path transform="translate(-17,0)" fill-opacity="0" display="none" fill="url(#shape15grad)" fill-rule="evenodd" d="M300.964,73.274C296.739,70.927,287.821,66,287.821,66L287.955,66.375C286.03,65.608,283.998,65.101,283.833,65.764C283.833,65.764,283.964,66.327,284.296,67.06C281.163,67.504,272.303,69.493,264.353,78.2C254.497,88.996,256.843,90.403,257.547,91.342C258.252,92.28,261.773,91.575,262.711,91.575C263.649,91.575,268.107,92.045,270.691,91.107C271.722,90.732,274.586,87.774,277.655,84.118C276.491,88.351,277.003,91.016,278.2,91.813C279.607,92.75,283.128,92.048,284.537,91.813C285.945,91.578,291.107,88.996,293.924,84.538C296.671,80.187,295.618,74.283,293.603,71.6C293.644,71.591,293.688,71.582,293.726,71.57C295.527,72.497,297.428,73.555,298.619,74.448C301.434,76.558,309.413,81.958,309.413,80.314C309.412,78.67,305.188,75.622,300.964,73.274z">
<animate attributeName="display" values="none;inline;none;none" fill="freeze" keyTimes="0;0.083;0.415;1" begin="2.80s" dur="2.41s" repeatCount="indefinite" calcMode="discrete" />
<animate attributeName="fill-opacity" values="0;0;1;0;0" fill="freeze" keyTimes="0;0.083;0.171;0.415;1" begin="2.80s" dur="2.41s" repeatCount="indefinite" />
<animateTransform attributeName="transform" type="translate" additive="replace" values="266.103,78.875;266.103,78.875;266.103,99.875;266.103,99.875" fill="freeze" keyTimes="0;0.083;0.415;1" begin="2.80s" dur="2.41s" repeatCount="indefinite" />
<animateTransform attributeName="transform" type="translate" additive="sum" fill="freeze" values="-283.102,-78.874;-283.102,-78.874" begin="2.80s" />
</path>
<path transform="translate(-17)" fill-opacity="0" display="none" fill="url(#shape16grad)" fill-rule="evenodd" d="M339.739,51.13C339.073,49.846,333.471,54.219,327.012,59.371C321.369,63.873,318.253,67.092,317.556,67.833C317.551,67.83,317.546,67.827,317.542,67.823C318.330,66.853,322.653,61.601,326.389,58.279C330.51,54.612,335.836,47.862,336.96,44.393C338.084,40.924,335.588,39.602,335.391,37.617C335.195,35.631,334.995,33.644,333.903,33.257C332.812,32.869,326.242,41.489,321.078,52.056C316.454,61.515,316.415,66.302,316.457,67.203C316.063,67.013,315.749,66.911,315.57,66.948C314.967,67.07,314.567,67.301,314.332,67.467C310.747,66.274,298.369,62.256,291.097,61.145C282.523,59.835,277.805,57.544,278.238,59.687C278.670,61.829,280.228,61.516,281.712,62.836C283.194,64.157,290.368,67.575,296.797,68.304C301.863,68.879,310.967,68.89,314.599,68.869C314.670,68.981,314.745,69.096,314.827,69.212C312.157,69.285,306.998,69.452,302.761,69.735C296.763,70.134,293.140,70.258,293.375,71.425C293.610,72.593,298.365,74.066,301.096,75.541C303.826,77.017,308.815,78.644,315.397,77.114C320.8,75.857,320.792,74.192,320.162,73.054C320.890,72.782,321.57,72.179,321.712,71.667C325.986,73.773,333.259,69.426,336.806,65.703C341.823,60.435,341.074,55.724,340.838,54.555C340.598,53.388,340.403,52.415,339.739,51.13z">
<animate attributeName="display" values="none;inline;none;none" fill="freeze" keyTimes="0;0.083;0.415;1" begin="2.60s" dur="2.41s" repeatCount="indefinite" calcMode="discrete" />
<animate attributeName="fill-opacity" values="0;0;1;0;0" fill="freeze" keyTimes="0;0.083;0.171;0.415;1" begin="2.60s" dur="2.41s" repeatCount="indefinite" />
<animateTransform attributeName="transform" type="translate" additive="replace" values="292.626,55.49;292.626,55.49;292.626,76.49;292.626,76.49" fill="freeze" keyTimes="0;0.083;0.415;1" begin="2.60s" dur="2.41s" repeatCount="indefinite" />
<animateTransform attributeName="transform" type="translate" additive="sum" fill="freeze" values="-309.625,-55.489;-309.625,-55.489" begin="2.60s" />
</path>
<path transform="translate(-17,0)" fill-opacity="0" display="none" fill="url(#shape17grad)" fill-rule="evenodd" d="M354.278,68.531C352.749,66.567,353.403,64.6,350.783,64.381C348.165,64.162,344.452,71.805,341.612,75.736C341.342,76.112,341.05,76.550,340.753,77.013C343.162,71.041,345.461,64.692,345.981,62.198C347.073,56.957,343.581,51.062,342.27,49.533C340.959,48.004,340.085,44.51,338.121,44.51C336.155,44.51,333.753,55.865,332.443,65.691C331.441,73.212,331.334,82.005,331.339,85.72C330.695,84.991,330.039,84.211,329.388,83.379C325.991,79.039,316.066,70.931,316.941,73.116C318.32,76.569,327.639,85.781,331.353,88.401C335.064,91.021,337.465,91.675,337.465,91.675C337.465,91.675,336.452,90.875,334.956,89.463C334.968,89.45,334.98,89.43,334.992,89.416C335.514,89.687,336.24,90.127,337.029,90.803C341.538,94.669,352.969,87.091,355.37,82.506C357.77,77.919,355.805,70.497,354.278,68.531z">
<animate attributeName="display" values="none;inline;none;none" fill="freeze" keyTimes="0;0.083;0.415;1" begin="2.40s" dur="2.41s" repeatCount="indefinite" calcMode="discrete" />
<animate attributeName="fill-opacity" values="0;0;1;0;0" fill="freeze" keyTimes="0;0.084;0.171;0.417;1" begin="2.40s" dur="2.40s" repeatCount="indefinite" />
<animateTransform attributeName="transform" type="translate" additive="replace" values="319.711,68.147;319.711,68.147;319.711,89.147;319.711,89.147" fill="freeze" keyTimes="0;0.084;0.417;1" begin="2.40s" dur="2.40s" repeatCount="indefinite" />
<animateTransform attributeName="transform" type="translate" additive="sum" fill="freeze" values="-336.71,-68.146;-336.71,-68.146" begin="2.40s" />
</path>
<path transform="translate(-17,0.001)" fill-opacity="0" display="none" fill="url(#shape18grad)" fill-rule="evenodd" d="M335.174,101.739C333.413,99.475,334.168,97.212,331.15,96.96C328.132,96.709,323.858,105.512,320.589,110.038C320.276,110.471,319.945,110.96,319.603,111.494C322.375,104.621,325.020,97.318,325.618,94.448C326.875,88.412,322.853,81.622,321.344,79.863C319.835,78.102,318.828,74.078,316.566,74.078C314.302,74.078,311.538,87.155,310.028,98.471C308.874,107.133,308.751,117.26,308.756,121.538C308.015,120.698,307.259,119.8,306.509,118.841C302.596,113.842,291.167,104.507,292.175,107.021C293.765,110.997,304.496,121.606,308.772,124.624C313.046,127.642,315.812,128.396,315.812,128.396C315.812,128.396,314.402,126.611,315.31,127.39C320.503,131.843,333.667,123.115,336.433,117.834C339.196,112.552,336.934,104.001,335.174,101.739z">
<animate attributeName="display" values="none;inline;none;none" fill="freeze" keyTimes="0;0.083;0.415;1" begin="2.20s" dur="2.41s" repeatCount="indefinite" calcMode="discrete" />
<animate attributeName="fill-opacity" values="0;0;1;0;0" fill="freeze" keyTimes="0;0.083;0.171;0.415;1" begin="2.20s" dur="2.41s" repeatCount="indefinite" />
<animateTransform attributeName="transform" type="translate" additive="replace" values="297.944,101.298;297.944,101.298;297.944,122.298;297.944,122.298" fill="freeze" keyTimes="0;0.083;0.415;1" begin="2.20s" dur="2.41s" />
<animateTransform attributeName="transform" type="translate" additive="sum" fill="freeze" values="-314.943,-101.297;-314.943,-101.297" begin="2.20s" />
</path>
<path transform="translate(-17)" fill-opacity="0" display="none" fill="url(#shape19grad)" fill-rule="evenodd" d="M339.938,142.321C338.507,133.573,332.484,125.423,328.606,123.674C327.135,122.2,324.415,120.467,322.566,120.227C319.908,119.881,314.211,118.471,313.106,121.254C312.888,121.8,313.351,122.326,314.178,122.816C312.469,125.88,308.482,133.788,307.468,142.474C306.167,153.618,308.585,163.633,310.866,163.260C313.149,162.887,321.097,158.984,325.241,157.265C325.618,157.109,325.967,156.864,326.303,156.579C326.523,156.66,326.744,156.719,326.977,156.723C329.847,156.773,341.512,151.954,339.938,142.321z">
<animate attributeName="display" values="none;inline;none;none" fill="freeze" keyTimes="0;0.083;0.415;1" begin="2s" dur="2.41s" repeatCount="indefinite" calcMode="discrete" />
<animate attributeName="fill-opacity" values="0;0;1;0;0" fill="freeze" keyTimes="0;0.084;0.171;0.417;1" begin="2s" dur="2.40s" repeatCount="indefinite" />
<animateTransform attributeName="transform" type="translate" additive="replace" values="306.54,141.414;306.54,141.414;306.54,162.414;306.54,162.414" fill="freeze" keyTimes="0;0.084;0.417;1" begin="2s" dur="2.40s" repeatCount="indefinite" />
<animateTransform attributeName="transform" type="translate" additive="sum" fill="freeze" values="-323.539,-141.413;-323.539,-141.413" begin="2s" />
</path>
<path transform="translate(-17)" fill-opacity="0" display="none" fill="url(#shape20grad)" fill-rule="evenodd" d="M321.998,98.458C321.478,96.639,313.163,100.794,303.547,105.733C295.15,110.046,290.322,113.366,289.235,114.137C289.230,114.133,289.224,114.127,289.219,114.123C290.485,113.081,297.385,107.465,303.028,104.173C309.264,100.535,317.841,93.258,320.18,89.101C322.519,84.943,319.659,82.604,319.918,80.005C320.18,77.406,320.439,74.807,319.140,74.028C317.84,73.249,307.187,82.604,297.829,94.819C289.459,105.745,288.167,111.873,287.986,113.046C287.531,112.7,287.153,112.489,286.916,112.489C286.127,112.489,285.533,112.68,285.187,112.83C280.882,110.365,266.064,102.02,257.034,98.716C246.377,94.818,240.92,90.659,240.92,93.518C240.92,96.377,243.002,96.377,244.561,98.456C246.12,100.534,254.434,106.772,262.492,109.371C268.84,111.419,280.51,113.788,285.173,114.701C285.235,114.864,285.301,115.029,285.376,115.2C281.928,114.603,275.267,113.481,269.767,112.749C261.972,111.709,257.293,110.93,257.293,112.489C257.293,114.048,263.011,117.166,266.129,119.765C269.247,122.363,275.224,125.741,284.06,125.482C291.294,125.269,291.734,123.141,291.228,121.52C292.226,121.361,293.254,120.749,293.573,120.133C298.511,123.934,308.954,120.244,314.464,116.387C322.261,110.929,322.522,104.693,322.522,103.134C322.519,101.574,322.519,100.276,321.998,98.458z">
<animate attributeName="display" values="none;inline;none;none" fill="freeze" keyTimes="0;0.083;0.415;1" begin="1.80s" dur="2.41s" repeatCount="indefinite" calcMode="discrete" />
<animate attributeName="fill-opacity" values="0;0;1;0;0" fill="freeze" keyTimes="0;0.084;0.171;0.417;1" begin="1.80s" dur="2.40s" repeatCount="indefinite" />
<animateTransform attributeName="transform" type="translate" additive="replace" values="264.721,99.755;264.721,99.755;264.721,120.755;264.721,120.755" fill="freeze" keyTimes="0;0.084;0.417;1" begin="1.80s" dur="2.40s" repeatCount="indefinite" />
<animateTransform attributeName="transform" type="translate" additive="sum" fill="freeze" values="-281.72,-99.754;-281.72,-99.754" begin="1.80s" />
</path>
<path transform="translate(-17)" fill-opacity="0" fill="url(#shape21grad)" fill-rule="evenodd" d="M284.684,156.974C275.628,152.010,260.178,147.911,255.268,146.680C254.376,145.512,253.282,144.709,252.149,145.254C251.643,145.496,251.496,146.172,251.66,147.046C247.306,149.794,237.292,156.489,229.173,164.733C218.48,175.589,216.673,181.845,217.523,182.99C218.374,184.135,220.234,182.137,221.119,183.491C222.004,184.842,223.106,184.881,224.498,184.023C225.893,183.164,234.972,172.191,239.27,166.398C242.45,162.104,248.916,152.825,252.059,148.294C252.186,148.588,252.33,148.888,252.507,149.193C250.649,152.112,245.254,160.594,241.019,167.339C235.822,175.622,230.833,185.152,231.964,186.68C233.099,188.205,239.812,183.735,246.875,172.171C252.974,162.188,254.835,155.267,254.985,152.088C255.423,152.446,255.901,152.778,256.416,153.071C258.301,154.141,257.640,152.221,257.338,150.92C260.229,153.638,267.989,160.815,272.352,163.72C277.787,167.342,290.717,175.108,292.148,173.175C292.919,172.137,280.396,164.582,275.426,161.104C271.426,158.304,260.651,151.472,256.588,148.907C256.404,148.517,256.194,148.112,255.958,147.711C259.462,149.918,266.469,154.338,272.608,158.243C281.202,163.708,292.82,170.188,294.317,169.952C295.813,169.716,295.751,168.019,295.751,168.019C295.751,168.019,296.964,167.402,297.679,166.435C298.395,165.471,295.558,162.935,284.684,156.974z">
<animate attributeName="display" values="inline;none;none" fill="freeze" keyTimes="0;0.362;1" begin="1.80s" dur="2.21s" repeatCount="indefinite" calcMode="discrete" />
<animate attributeName="fill-opacity" values="0;0;1;0;0" fill="freeze" keyTimes="0;0.083;0.171;0.415;1" begin="1.60s" dur="2.41s" repeatCount="indefinite" />
<animateTransform attributeName="transform" type="translate" additive="replace" values="240.557,166.025;240.557,166.025;240.557,187.025;240.557,187.025" fill="freeze" keyTimes="0;0.083;0.415;1" begin="1.60s" dur="2.41s" repeatCount="indefinite" />
<animateTransform attributeName="transform" type="translate" additive="sum" fill="freeze" values="-257.556,-166.024;-257.556,-166.024" begin="1.60s" />
</path>
<path transform="translate(-17)" fill-opacity="0" display="none" fill="url(#shape22grad)" fill-rule="evenodd" d="M204.655,152.633C209.582,136.8,207.386,113.728,205.828,114.336C204.269,114.945,205.048,127.709,203.488,135.915C201.529,146.208,198.416,157.06,198.061,158.288C195.326,153.563,188.238,141.053,183.599,130.445C177.749,117.072,173.071,95.492,171.512,94.581C169.95,93.668,171.249,98.179,168.78,99.14C161.762,101.876,166.754,126.048,174.24,136.221C185.559,151.604,192.125,157.555,195.547,159.844C195.528,159.869,195.508,159.891,195.489,159.917C192.181,157.64,183.478,151.368,176.969,144.122C168.78,135.005,163.712,120.415,160.592,120.415C157.473,120.415,157.473,131.661,158.253,139.867C159.033,148.074,178.141,167.222,187.499,167.222C189.885,167.222,191.605,167.063,192.854,166.827C192.871,166.99,192.9,167.131,192.958,167.222C193.739,168.438,196.078,169.043,198.418,166.916C200.167,165.327,201.693,162.043,200.404,159.976C201.792,158.922,203.357,156.805,204.655,152.633z">
<animate attributeName="display" values="none;inline;none;none" fill="freeze" keyTimes="0;0.083;0.415;1" begin="1.40s" dur="2.41s" repeatCount="indefinite" calcMode="discrete" />
<animate attributeName="fill-opacity" values="0;0;1;0;0" fill="freeze" keyTimes="0;0.083;0.171;0.415;1" begin="1.40s" dur="2.41s" repeatCount="indefinite" />
<animateTransform attributeName="transform" type="translate" additive="replace" values="165.75,131.399;165.75,131.399;165.75,152.399;165.75,152.399" fill="freeze" keyTimes="0;0.083;0.415;1" begin="1.40s" dur="2.41s" repeatCount="indefinite" />
<animateTransform attributeName="transform" type="translate" additive="sum" fill="freeze" values="-182.749,-131.398;-182.749,-131.398" begin="1.40s" />
</path>
<path transform="translate(-17)" fill-opacity="0" display="none" fill="url(#shape23grad)" fill-rule="evenodd" d="M185.788,225.131C169.144,217.941,156.801,215.978,154.696,215.681C153.969,214.976,152.350,215.053,151.664,215.865C150.811,216.873,149.669,218.334,148.651,219.844C145.011,222.327,134.085,229.944,129.968,234.622C124.996,240.27,119.347,247.954,120.476,252.248C121.606,256.543,130.872,244.113,134.036,239.368C136.312,235.953,142.799,228.795,146.259,225.047C146.259,225.667,146.507,226.111,147.144,226.258C147.848,226.421,148.683,226.008,149.541,225.275C150.040,227.124,152.153,231.239,159.346,237.107C167.933,244.114,179.91,247.728,182.171,244.564C184.174,241.758,179.068,237.707,173.788,233.2C180.594,237.076,186.669,240.527,188.046,241.629C191.436,244.34,196.859,243.211,199.347,242.984C201.832,242.758,207.031,243.663,208.384,242.081C209.741,240.499,204.092,233.042,185.788,225.131z">
<animate attributeName="display" values="none;inline;none;none" fill="freeze" keyTimes="0;0.083;0.415;1" begin="1.20s" dur="2.41s" repeatCount="indefinite" calcMode="discrete" />
<animate attributeName="fill-opacity" values="0;0;1;0;0" fill="freeze" keyTimes="0;0.083;0.171;0.415;1" begin="1.20s" dur="2.41s" repeatCount="indefinite" />
<animateTransform attributeName="transform" type="translate" additive="replace" values="147.454,234.163;147.454,234.163;147.454,255.163;147.454,255.163" fill="freeze" keyTimes="0;0.083;0.415;1" begin="1.20s" dur="2.41s" repeatCount="indefinite" />
<animateTransform attributeName="transform" type="translate" additive="sum" fill="freeze" values="-164.453,-234.162;-164.453,-234.162" begin="1.20s" />
</path>
<path transform="translate(-16.999)" fill-opacity="0" display="none" fill="url(#shape24grad)" fill-rule="evenodd" d="M136.084,208.571C135,208.028,127.951,211.824,121.989,215.62C116.252,219.271,102.492,224.926,101.456,225.349C101.658,224.999,101.77,224.742,101.77,224.613C101.77,223.58,99.466,222.414,98.411,223.58C98.338,223.66,98.252,223.757,98.173,223.845C95.839,217.487,88.546,205.975,76.993,198.272C57.476,185.26,53.681,183.635,50.429,185.26C47.177,186.887,49.345,189.057,47.718,191.766C46.092,194.477,40.728,197.774,41.213,200.44C42.297,206.405,55.309,211.825,65.609,216.706C70.463,219.005,77.604,221.665,83.798,223.835C77.44,222.005,69.867,219.866,63.983,218.331C51.513,215.077,38.608,207.927,33.624,212.909C29.288,217.247,30.691,224.399,35.25,228.089C46.635,237.305,75.910,239.474,87.293,235.138C88.999,234.488,90.395,233.864,91.545,233.269C91.516,233.716,91.663,234.042,92.082,234.174C93.968,234.769,98.136,230.8,98.136,230.8C98.136,230.8,103.015,228.089,108.979,225.378C114.941,222.668,137.168,209.114,136.084,208.571z">
<animate attributeName="display" values="none;inline;none;none" fill="freeze" keyTimes="0;0.083;0.415;1" begin="1s" dur="2.41s" repeatCount="indefinite" calcMode="discrete" />
<animate attributeName="fill-opacity" values="0;0;1;0;0" fill="freeze" keyTimes="0;0.083;0.171;0.415;1" begin="1s" dur="2.41s" repeatCount="indefinite" />
<animateTransform attributeName="transform" type="translate" additive="replace" values="66.558,211.01;66.558,211.01;66.558,232.01;66.558,232.01" fill="freeze" keyTimes="0;0.083;0.415;1" begin="1s" dur="2.41s" repeatCount="indefinite" />
<animateTransform attributeName="transform" type="translate" additive="sum" fill="freeze" values="-83.557,-211.009;-83.557,-211.009" begin="1s" />
</path>
<path transform="translate(-16.999,0)" fill-opacity="0" display="none" fill="url(#shape25grad)" fill-rule="evenodd" d="M123.513,141.868C120.346,141.868,119.819,151.898,116.652,154.010C113.485,156.12,111.902,160.344,109.791,164.567C109.192,165.763,106.22,170.479,102.208,176.693C93.879,177.317,82.958,193.273,79.443,197.292C78.331,198.563,75.848,201.901,72.905,206.11C71.897,206.514,70.947,207.105,70.202,207.849C70.082,207.969,69.954,208.104,69.831,208.23C68.543,202.301,64.094,182.551,59.644,171.428C54.367,158.232,51.746,143.98,44.337,143.98C39.059,143.98,40.240,147.861,38.003,149.258C33.781,151.898,25.335,163.510,25.335,170.37C25.335,173.719,30.228,184.724,36.589,195.796C27.786,186.619,18.782,178.516,14.252,178.29C3.697,177.762,0,195.181,0,202.571C0,209.961,17.948,237.407,31.143,238.465C44.34,239.519,52.257,231.603,52.257,231.603L58.375,223.736C57.052,226.103,55.849,228.571,54.875,231.076C53.345,235.012,54.084,239.785,57.25,239.785C57.8,239.785,58.831,239.046,60.146,237.814C66.291,234.68,77.332,222.099,77.332,222.099C78.137,220.489,83.358,213.655,89.04,205.76C97.389,198.03,109.648,185.771,114.012,176.707C120.875,162.454,126.681,141.868,123.513,141.868z">
<animate attributeName="display" values="none;inline;none;none" fill="freeze" keyTimes="0;0.083;0.415;1" begin="0.80s" dur="2.41s" repeatCount="indefinite" calcMode="discrete" />
<animate attributeName="fill-opacity" values="0;0;1;0;0" fill="freeze" keyTimes="0;0.083;0.171;0.415;1" begin="0.80s" dur="2.41s" repeatCount="indefinite" />
<animateTransform attributeName="transform" type="translate" additive="replace" values="45.165,190.827;45.165,190.827;45.165,211.827;45.165,211.827" fill="freeze" keyTimes="0;0.083;0.415;1" begin="0.80s" dur="2.41s" repeatCount="indefinite" />
<animateTransform attributeName="transform" type="translate" additive="sum" fill="freeze" values="-62.164,-190.826;-62.164,-190.826" begin="0.80s" />
</path>
<path transform="translate(-17)" fill-opacity="0" display="none" fill="url(#shape26grad)" fill-rule="evenodd" d="M89.128,218.588C84.436,202.172,74.262,188.196,70.005,182.833C71.445,181.629,72.17,180.471,71.579,179.486C68.571,174.471,58.043,178.984,53.031,180.488C49.578,181.524,44.937,185.65,42.546,188.938C35.536,193.397,25.96,210.752,25.96,228.115C25.96,247.165,50.526,253.181,56.041,252.178C56.474,252.099,56.883,251.943,57.273,251.726C58.013,252.169,58.772,252.497,59.548,252.68C68.07,254.685,84.616,259.698,89.128,259.698C93.639,259.698,95.144,239.646,89.128,218.588z">
<animate attributeName="display" values="none;inline;none;none" fill="freeze" keyTimes="0;0.083;0.415;1" begin="0.60s" dur="2.41s" repeatCount="indefinite" calcMode="discrete" />
<animate attributeName="fill-opacity" values="0;0;1;0;0" fill="freeze" keyTimes="0;0.083;0.171;0.415;1" begin="0.60s" dur="2.41s" repeatCount="indefinite" />
<animateTransform attributeName="transform" type="translate" additive="replace" values="42.518,218.451;42.518,218.451;42.518,239.451;42.518,239.451" fill="freeze" keyTimes="0;0.083;0.415;1" begin="0.60s" dur="2.41s" repeatCount="indefinite" />
<animateTransform attributeName="transform" type="translate" additive="sum" fill="freeze" values="-59.517,-218.45;-59.517,-218.45" begin="0.60s" />
</path>
<path transform="translate(-17)" fill-opacity="0" display="none" fill="url(#shape27grad)" fill-rule="evenodd" d="M195.321,108.811C194.831,106.353,165.333,130.443,152.06,139.292C140.519,146.987,120.438,162.849,115.39,166.861C114.51,165.532,113.187,164.59,111.256,164.364C110.407,164.264,109.579,164.812,108.822,165.766C103.921,158.744,92.788,144.701,74.877,132.409C49.805,115.202,40.956,109.795,37.023,110.777C33.089,111.76,36.531,116.676,36.04,119.135C35.548,121.593,31.615,125.526,33.09,128.967C34.564,132.408,58.162,149.124,72.910,154.531C83.764,158.511,99.667,165.149,107.314,168.38C107.101,168.862,106.902,169.373,106.716,169.899C99.049,167.347,76.176,159.747,66.028,156.5C53.737,152.566,30.633,143.226,28.174,145.685C25.716,148.143,31.122,161.416,33.09,164.366C35.057,167.316,64.555,184.03,79.303,184.03C90.765,184.03,100.427,181.952,105.556,179.871C105.636,180.142,105.733,180.384,105.849,180.589C107.816,184.03,113.714,183.539,115.189,181.573C115.395,181.299,115.629,180.778,115.858,180.094C123.72,179.992,142.522,167.179,146.653,163.874C151.570,159.942,173.693,147.651,172.709,144.702C171.726,141.753,158.943,151.093,151.570,154.534C145.295,157.462,123.016,166.792,116.506,169.511C116.293,168.653,115.989,167.848,115.57,167.142C121.986,164.004,149.581,150.406,163.859,141.752C168.78,138.77,188.931,120.612,190.407,117.663C191.879,114.711,195.814,111.269,195.321,108.811z">
<animate attributeName="display" values="none;inline;none;none" fill="freeze" keyTimes="0;0.083;0.415;1" begin="0.40s" dur="2.41s" repeatCount="indefinite" calcMode="discrete" />
<animate attributeName="fill-opacity" values="0;0;1;0;0" fill="freeze" keyTimes="0;0.083;0.171;0.415;1" begin="0.40s" dur="2.41s" repeatCount="indefinite" />
<animateTransform attributeName="transform" type="translate" additive="replace" values="94.46,146.421;94.46,146.421;94.46,167.421;94.46,167.421" fill="freeze" keyTimes="0;0.083;0.415;1" begin="0.40s" dur="2.41s" repeatCount="indefinite" />
<animateTransform attributeName="transform" type="translate" additive="sum" fill="freeze" values="-111.459,-146.42;-111.459,-146.42" begin="0.40s" />
</path>
<path transform="translate(-17)" display="none" fill="url(#shape28grad)" fill-rule="evenodd" d="M230.463,308.050C211.309,292.726,173.62,275.792,160.803,270.245C159.696,267.796,158.049,266.092,155.642,266.387C154.188,266.566,153.267,268.244,152.999,270.713C144.493,274.32,114.633,287.612,89.603,306.494C60.085,328.765,53.352,343.264,54.905,346.369C56.459,349.477,61.638,345.335,63.193,348.959C64.744,352.584,67.334,353.102,70.96,351.549C74.585,349.994,98.924,325.655,111.354,313.227C121.694,302.889,152.918,272.56,152.924,272.775C145.644,281.943,128.487,303.424,116.532,317.373C100.996,335.498,85.46,356.73,87.531,360.873C89.602,365.016,107.209,356.73,128.442,331.355C148.867,306.943,155.392,289.727,155.859,283.382C156.687,284.953,157.697,286.49,158.91,287.915C162.368,291.973,162.362,286.693,162.764,283.442C162.874,282.558,162.891,280.832,162.726,278.805C164.269,280.906,184.297,308.082,195.247,318.537C206.639,329.413,234.087,353.232,238.23,349.091C240.458,346.862,213.89,323.716,203.533,313.357C190.325,300.151,161.724,272.846,161.659,272.619C170.392,279.72,188.257,294.424,201.461,306.495C219.588,323.067,244.446,343.264,248.068,343.264C251.693,343.264,252.213,339.121,252.213,339.121C252.213,339.121,255.318,338.085,257.391,336.014C259.464,333.942,253.769,326.692,230.463,308.050z">
<animate attributeName="display" values="none;inline;none;none" fill="freeze" keyTimes="0;0.083;0.415;1" begin="0.20s" dur="2.41s" repeatCount="indefinite" calcMode="discrete" />
<animateTransform attributeName="transform" type="translate" additive="replace" values="139.263,314.101;139.263,314.101;139.263,335.101;139.263,335.101" fill="freeze" keyTimes="0;0.083;0.415;1" begin="0.20s" dur="2.41s" repeatCount="indefinite" />
<animateTransform attributeName="transform" type="translate" additive="sum" fill="freeze" values="-156.262,-314.1;-156.262,-314.1" begin="0.20s" />
</path>
<path transform="translate(-34,-9)" display="none" fill="url(#shape29grad)" fill-rule="evenodd" d="M412.385,306C408.991,299.709,409.299,292.079,406.354,287.018C403.408,281.953,394.783,275.050,391.875,274.709C388.966,274.368,388.038,267.185,381.399,263.461C374.787,259.753,353.191,319.164,353.006,319.672C353.155,319.165,369.581,263.133,358.803,234.872C351.596,215.972,325.291,193.806,325.291,193.806C325.291,193.806,321.76,178.653,318.849,178.312C315.938,177.971,314.235,182.486,311.583,215.194C309.47,241.292,310.361,266.641,311.731,285.133C309.096,281.029,305.443,276.390,302.253,275.483C302.063,264.352,301.435,254.114,299.425,248.556C296.927,241.656,280.624,222.771,279.494,217.332C278.360,211.893,278.155,203.617,273.875,204.883C264.734,207.593,270.405,247.815,278.665,269.708C283.477,282.458,296.066,308.097,301.609,318.207C303.076,327.465,307.187,339.884,316.379,355.486C328.929,376.777,359.66,389.432,363.608,385.189C364.396,384.343,364.425,382.644,363.853,380.3C367.849,382.715,371.489,383.691,374.485,382.925C382.386,380.902,395.487,374.772,404.786,365.837C414.085,356.9,419.174,338.632,419.786,333.397C420.4,328.165,415.776,312.293,412.385,306z">
<animate attributeName="display" values="none;inline;none;none" fill="freeze" keyTimes="0;0.083;0.415;1" begin="0s" dur="2.41s" repeatCount="indefinite" calcMode="discrete" />
<animateTransform attributeName="transform" type="translate" additive="replace" values="312.443,272.37;312.443,272.37;312.443,293.37;312.443,293.37" fill="freeze" keyTimes="0;0.083;0.415;1" begin="0s" dur="2.41s" repeatCount="indefinite" />
<animateTransform attributeName="transform" type="translate" additive="sum" fill="freeze" values="-346.442,-281.369;-346.442,-281.369" begin="0s" />
</path>
</g>
</g>
</svg>
